<svg width="116" height="57" viewBox="0 0 116 57" fill="none" xmlns="http://www.w3.org/2000/svg">
<path d="M116 57H0L7.43178 48H108.569L116 57Z" fill="#7E315F"/>
<path d="M116 57H113.089L64.0244 52.3162C64.2633 52.2456 64.4915 52.1438 64.7001 52.0101L66.4517 51.2005C66.7405 51.0669 66.9304 50.8038 66.9518 50.5098L109.767 49L116 57ZM52.1802 51.1852L51 51.0727L52.108 51.0335C52.1294 51.0857 52.1535 51.1363 52.1802 51.1852Z" fill="#54203F"/>
<path d="M67.8913 25.3768L62.0835 34.7792L58.7521 32.9347L58.8513 32.3662L58.0218 31.4923L58.3057 31.3749C58.7886 31.1767 59.1359 30.7445 59.2263 30.2299L62.5593 23.9851L67.8913 25.3768Z" fill="#F0724E"/>
<path d="M58.3057 31.375C58.7307 31.2005 59.0503 30.8437 59.1827 30.4107C59.1827 30.4107 59.1827 30.4107 59.1835 30.4107C59.0511 30.8445 58.7307 31.2005 58.3057 31.375Z" fill="#DEBAA1"/>
<path d="M61.2936 32.7579C60.8868 32.0712 60.1708 31.6192 59.3698 31.5518L58.8758 31.5098C58.6815 31.4939 58.488 31.486 58.2938 31.486C58.2042 31.486 58.1145 31.4876 58.0249 31.4907L58.3057 31.375C58.7307 31.2005 59.0511 30.8445 59.1835 30.4107C59.936 30.7017 61.1216 31.3742 61.2936 32.7579Z" fill="#D3583A"/>
<path d="M60.1359 37.921C59.9027 35.5381 61.4324 33.4367 63.5529 33.2289C65.6725 33.0219 67.5812 34.7856 67.8144 37.1693C68.0483 39.5537 66.5178 41.6545 64.3982 41.862C62.2777 42.0699 60.3698 40.3055 60.1359 37.921Z" fill="#682B22"/>
<path d="M69.5582 37.0235L69.4575 36.9838C69.4487 36.9751 68.5566 36.1647 67.7121 36.267C67.3354 36.309 67.0127 36.5239 66.751 36.9046L66.5448 36.9426L66.5067 36.7372C66.8192 36.2813 67.2141 36.0243 67.6804 35.9728C68.6811 35.8554 69.6184 36.7293 69.6581 36.7666L69.6668 36.9759L69.5582 37.0235Z" fill="#682B22"/>
<path d="M62.2571 33.8531L62.1152 33.7484C61.955 33.2187 62.0002 32.75 62.25 32.3536C62.7829 31.509 64.0516 31.3108 64.1056 31.3036C64.1888 31.2894 64.2618 31.3465 64.2737 31.4273C64.2856 31.5082 64.2301 31.5836 64.1492 31.5954C64.1373 31.597 62.9597 31.7834 62.4998 32.5122C62.2983 32.8325 62.2642 33.2195 62.399 33.6604C62.422 33.7397 62.3784 33.8222 62.3007 33.846L62.2571 33.8531Z" fill="#682B22"/>
<path d="M62.5037 33.8887L62.3642 33.7904C62.1406 33.1608 62.1747 32.6437 62.4673 32.2536C63.081 31.4305 64.6099 31.5042 64.6758 31.5066C64.7574 31.5113 64.8201 31.5811 64.8161 31.6636C64.8114 31.7445 64.7344 31.804 64.6599 31.8032C64.6464 31.8 63.2222 31.7358 62.7036 32.4312C62.4744 32.7373 62.4546 33.1608 62.6433 33.6905C62.6703 33.7682 62.6306 33.853 62.5537 33.88L62.5037 33.8887Z" fill="#682B22"/>
<path d="M56.8497 41.6449C56.1487 39.6253 57.7569 37.2319 60.442 36.2986C63.127 35.3668 65.8724 36.2478 66.5742 38.2668C67.2752 40.2866 65.667 42.6789 62.9819 43.6116C60.2968 44.5439 57.5515 43.664 56.8497 41.6449Z" fill="#682B22"/>
<path d="M62.8384 43.0342C65.2903 42.1817 66.8382 40.1137 66.5551 38.2232L66.5741 38.2668C67.2751 40.2866 65.667 42.6789 62.9819 43.6116C60.2968 44.5439 57.5515 43.664 56.8505 41.6449C56.7886 41.469 56.7514 41.2896 56.7244 41.1103C57.4508 43.0977 60.1731 43.9597 62.8384 43.0342Z" fill="#B14B3C"/>
<path d="M64.173 39.7148C64.0048 37.9988 65.1832 36.4802 66.8057 36.3209C68.4281 36.1623 69.8793 37.4239 70.0474 39.139C70.2155 40.8551 69.0363 42.3745 67.4139 42.5331C65.7922 42.6917 64.3411 41.43 64.173 39.7148Z" fill="#682B22"/>
<path d="M64.4672 39.3762C64.6353 41.0914 66.0865 42.354 67.7089 42.1945C68.383 42.1285 68.9793 41.8249 69.4353 41.372C68.9587 42.0114 68.2458 42.4513 67.4139 42.5331C65.7923 42.6917 64.3411 41.43 64.173 39.7148C64.0747 38.7124 64.4378 37.78 65.0786 37.144C64.6258 37.7514 64.3855 38.5404 64.4672 39.3762Z" fill="#B14B3C"/>
<path d="M58.2898 42.311C58.1716 42.311 58.0598 42.2388 58.0138 42.1215C57.9908 42.0604 57.4429 40.6015 58.2969 39.1248C59.0891 37.7546 60.7909 36.8601 63.3554 36.466C63.5179 36.443 63.6686 36.5524 63.6932 36.7134C63.7178 36.8752 63.6076 37.0259 63.4458 37.0512C61.0724 37.4168 59.5141 38.2114 58.8139 39.4128C58.0987 40.6411 58.5618 41.8962 58.5665 41.9099C58.6244 42.062 58.5483 42.2326 58.396 42.2905L58.2898 42.311Z" fill="#682B22"/>
<path d="M61.3888 38.6556L61.6029 37.8792C61.6029 37.8792 62.0652 36.4581 63.6187 36.4613L64.2824 37.3233L64.9462 38.1163L64.5742 38.8482L63.0699 39.2224L61.526 38.6205" fill="#682B22"/>
<path d="M59.8544 41.3856C59.8544 41.3856 57.6729 40.9938 57.0329 38.3644C56.9766 38.1399 56.8656 37.9322 56.7086 37.7609L55.5048 36.4461C55.4247 36.3581 55.3954 36.2344 55.4287 36.1202C55.4636 36.0036 55.5564 35.914 55.6737 35.8855L55.9505 35.8165L56.0353 35.7507L56.0924 35.646C56.1345 35.5714 56.1107 35.4771 56.0401 35.4295L55.8181 35.2804C55.757 35.24 55.9235 35.0647 55.9386 34.9926L55.8308 34.6674L55.7507 34.4851C55.6587 34.2725 55.8093 34.1147 55.8648 33.8887L55.5278 33.1282C55.3756 32.501 55.7689 31.8714 56.4001 31.735L56.8164 31.6438C57.4929 31.4979 58.1867 31.4519 58.8758 31.5098L59.3699 31.5518C60.216 31.6232 60.9662 32.1227 61.3587 32.8753L61.8567 33.8293C63.7908 33.3487 65.69 34.7761 65.7352 36.7697C65.7653 38.132 65.4124 39.5135 64.1024 40.2191C64.1024 40.2191 61.9233 41.5941 59.8544 41.3856Z" fill="#F0724E"/>
<path d="M56.3462 34.895C56.3034 34.895 56.2597 34.8942 56.2153 34.8926L56.2336 34.3019C56.2359 34.2289 56.2391 34.1567 56.2423 34.0838C56.4509 34.2131 56.6919 34.4018 56.8117 34.6381C56.9132 34.8379 56.6634 34.895 56.3462 34.895Z" fill="#D3583A"/>
<path d="M56.9893 34.8111C56.841 34.8737 56.4128 35.0751 56.1638 35.4185C56.1638 35.4185 56.0845 35.6786 55.8093 35.5842C55.8093 35.5842 55.619 35.3677 55.8474 35.0157C55.8474 35.0157 55.6158 34.7207 55.6388 34.5795C55.6388 34.5795 55.5762 34.3567 55.9886 34.4273C55.9886 34.4273 56.6975 34.4986 56.9996 34.7508L56.9893 34.8111Z" fill="#B73C2B"/>
<path d="M56.167 36.5238C56.1662 36.5238 56.1654 36.5238 56.1646 36.5238L56.1884 35.757C56.4168 35.7142 56.6499 35.6999 56.6499 35.6999C56.6689 35.6975 56.6872 35.6967 56.7038 35.6967C57.0956 35.6967 57.0591 36.186 57.0591 36.186L56.8822 36.136C56.791 36.1424 56.7054 36.1907 56.6467 36.2613C56.4659 36.4762 56.2891 36.5238 56.167 36.5238Z" fill="#D3583A"/>
<path d="M57.4881 37.8736C57.6348 37.9744 57.8077 37.9958 57.9734 37.995C58.0567 37.9942 58.1391 37.9847 58.22 37.9704L58.3405 37.9426L58.4008 37.9268L58.4539 37.9117C58.5983 37.8721 58.7466 37.8388 58.8901 37.8181C58.963 37.8086 59.0336 37.8039 59.1002 37.8078L59.2612 37.8673L59.2707 37.8784L59.3484 37.8816L59.3603 37.8158L59.3207 37.7476L59.2628 37.696L59.1986 37.6611L59.1335 37.6389C59.0463 37.6159 58.9591 37.608 58.8758 37.6112C58.7077 37.6143 58.5483 37.6468 58.3913 37.6905C58.3073 37.7143 58.247 37.738 58.1724 37.7555C58.1011 37.7761 58.0289 37.7912 57.956 37.8039C57.8124 37.8277 57.6602 37.8419 57.519 37.8173L57.5119 37.8158L57.4746 37.8419L57.4881 37.8736Z" fill="#682B22"/>
<path d="M58.0027 37.5809C57.9663 37.4366 57.8798 37.3343 57.8084 37.3525C57.7371 37.3699 57.7085 37.5008 57.7442 37.6451C57.7799 37.7878 57.8663 37.8901 57.9377 37.8727C58.0091 37.8545 58.0384 37.7236 58.0027 37.5809Z" fill="#682B22"/>
<path d="M57.6166 37.3137L57.6047 37.3176L57.5864 37.3525L57.6213 37.37C57.6229 37.37 57.7387 37.3343 57.8251 37.3914C57.8798 37.4286 57.9123 37.4976 57.9203 37.596L57.9504 37.6213L57.9758 37.5912C57.9663 37.4754 57.9258 37.3922 57.8553 37.3454C57.7641 37.2843 57.653 37.3041 57.6166 37.3137Z" fill="#682B22"/>
<path d="M57.6998 39.0567C57.7839 39.1218 57.8671 39.1345 57.9512 39.1329C58.0345 39.1264 58.1169 39.1171 58.1986 39.1059C58.3627 39.0836 58.5237 39.0433 58.6807 38.9941C58.837 38.9424 58.9892 38.8798 59.1319 38.8005C59.2763 38.7227 59.4103 38.6286 59.5324 38.5246L59.5364 38.485L59.5046 38.4779H59.5031C59.3556 38.5358 59.2128 38.5951 59.063 38.6342C58.9155 38.6769 58.7672 38.71 58.6173 38.7333C58.4682 38.7593 58.3176 38.772 58.1677 38.7782C58.0923 38.7822 58.0178 38.7822 57.9433 38.7807C57.8695 38.7807 57.7942 38.7918 57.7212 38.8442L57.7038 38.8575L57.6752 39.0313L57.6998 39.0567Z" fill="#682B22"/>
<path d="M55.9259 36.1139C56.0179 36.1321 56.1083 36.1329 56.1995 36.1115C56.2875 36.0925 56.3842 36.0473 56.4453 35.9862L56.6451 35.899L56.8577 35.9688L56.8854 35.9656V35.9426C56.837 35.8681 56.749 35.803 56.6443 35.7991C56.5397 35.7919 56.4461 35.8411 56.3747 35.9053C56.316 35.9672 56.2582 36.0124 56.1789 36.0362C56.1035 36.06 56.0171 36.0663 55.9402 36.0536L55.937 36.0528L55.9013 36.0782L55.9259 36.1139Z" fill="#682B22"/>
<path d="M58.1756 42.2652C57.546 40.4515 59.1066 38.2614 61.6624 37.374C64.2174 36.4867 66.7994 37.2376 67.4298 39.0511C68.0594 40.8648 66.4988 43.0551 63.9438 43.9423C61.388 44.8297 58.806 44.0795 58.1756 42.2652Z" fill="#682B22"/>
<path d="M58.2922 42.0279C58.9218 43.8385 61.5974 44.5546 64.2697 43.6266C64.9898 43.376 65.6321 43.0303 66.1801 42.6261C65.5837 43.1731 64.8256 43.6362 63.9438 43.9423C61.388 44.8297 58.806 44.0795 58.1756 42.2652C57.8537 41.3356 58.1082 40.3081 58.7751 39.4073C58.2065 40.2557 58.0004 41.186 58.2922 42.0279Z" fill="#B14B3C"/>
<path d="M60.4594 40.4117C60.4594 40.4117 60.1168 39.9186 61.0264 38.9289C61.0264 38.9289 61.411 38.3572 61.1342 37.9615C61.1342 37.9615 60.2152 37.0107 60.7822 36.4881C60.7822 36.4881 61.1969 36.0155 61.5173 36.3057C61.5173 36.3057 62.2088 37.1899 62.951 36.6063C62.951 36.6063 63.7535 36.048 63.0438 34.8847C63.0438 34.8847 62.6893 34.2725 62.0192 34.1892C62.0192 34.1892 61.1493 32.8903 62.9653 31.9007C62.9653 31.9007 65.6797 31.6794 66.7605 35.3002C67.2093 36.8037 66.8676 38.4484 65.8089 39.607C65.2078 40.2643 64.3181 40.8956 63.0017 41.3261C63.0017 41.3261 61.3515 41.9137 60.6704 41.1177C60.6704 41.1177 60.4697 40.9947 60.4594 40.4117Z" fill="#682B22"/>
<path d="M62.4007 36.3319C62.1247 36.3319 61.8614 36.0853 61.7734 35.9949C62.0541 35.7118 61.9947 35.1091 61.6148 34.5921L61.5093 34.4652L61.5688 34.4137C61.6029 34.3851 61.6457 34.3724 61.6941 34.3724C61.9487 34.3724 62.3499 34.7134 62.3499 34.7134C63.5164 35.6111 62.6386 36.2605 62.6386 36.2605C62.5608 36.3113 62.48 36.3319 62.4007 36.3319Z" fill="#BE462D"/>
<path d="M61.526 34.1338C61.4974 34.022 61.3848 33.9546 61.2738 33.9831C61.162 34.0101 61.0938 34.1227 61.1216 34.2345C61.1493 34.3463 61.2619 34.4145 61.3737 34.386C61.4856 34.3582 61.5537 34.2456 61.526 34.1338Z" fill="#923C1D"/>
<path d="M58.2057 26.4506L60.8496 28.8359C63.7154 28.8359 66.2649 27.4806 67.8913 25.3768C69.3813 23.4491 69.9047 20.9417 69.5201 18.5365L68.7826 13.9308C67.1744 8.67332 63.6615 4.20325 58.9321 1.39765L58.6355 1.23032C54.8966 0.100315 54.2598 -0.226391 51.6366 1.0186C50.735 1.44682 50.1601 2.35558 50.1601 3.35395V8.73915H55.9941L58.1098 18.4509L58.2057 26.4506Z" fill="#F0724E"/>
<path d="M69.5201 18.5364L69.3004 17.1669H57.8298L58.109 18.4508L58.2057 26.4505L59.2992 27.4377V26.1848C59.2992 24.6393 60.5641 23.376 62.108 23.376C63.6535 23.376 64.9168 24.6393 64.9168 26.1848V27.8477C66.0801 27.2482 67.0967 26.4037 67.8913 25.3768C69.3813 23.449 69.9047 20.9416 69.5201 18.5364Z" fill="white"/>
<path d="M58.1137 18.8292H69.5526C69.5399 18.7316 69.5351 18.6333 69.5201 18.5366L69.3004 17.1671H57.8298L58.109 18.4509L58.1137 18.8292Z" fill="#0F0F0F"/>
<path d="M64.3601 49.6659L57.0242 48.2689C56.2288 48.1246 55.8458 46.778 55.8712 45.9708L56.2336 34.3019C56.2819 32.7587 56.6039 31.237 57.1669 29.7985C57.7736 28.249 58.0844 26.5996 58.0844 24.9351V11.5978H58.6355V1.23026L56.7514 0.484856C55.3724 -0.0599289 53.8348 -0.176498 52.4272 0.293743C48.9983 1.43961 46.7629 5.12702 47.7843 8.9413L51.5898 23.1406C52.1663 25.2904 52.0696 27.5647 51.3131 29.6581L50.9935 30.5415C50.6168 31.5827 50.4614 32.6921 50.536 33.7967L51.4487 47.3077V50.7491C51.4487 51.6264 52.1917 52.3193 53.0664 52.2574L55.8268 52.0663L61.2128 52.6248C61.7544 52.6818 62.2984 52.5414 62.7456 52.2298L64.3038 51.4415C64.5655 51.3092 64.736 51.0459 64.7495 50.7532L64.7741 50.2424C64.7868 49.9775 64.6155 49.739 64.3601 49.6659Z" fill="#F0724E"/>
<path d="M58.6355 1.23041L56.7514 0.485004C55.3724 -0.0597801 53.8348 -0.17635 52.4272 0.293892C48.9983 1.43976 46.7629 5.12717 47.7843 8.94144L51.5898 23.1407C52.1663 25.2905 52.0696 27.5648 51.3131 29.6575L50.9935 30.5417C50.6168 31.5829 50.4614 32.6923 50.536 33.7969L51.0609 41.5618H52.2044L53.5073 36.7135L54.8363 41.5618H56.0084L56.2336 34.302C56.2819 32.7589 56.6039 31.2379 57.1669 29.7986C57.7736 28.2491 58.0844 26.5997 58.0844 24.9352V11.598L58.6355 1.23041Z" fill="#0F0F0F"/>
<path d="M54.7094 38.6775L54.6991 38.7602C54.6627 38.868 54.5461 38.925 54.439 38.8884L51.9831 38.0551C51.8761 38.0187 51.819 37.9037 51.8547 37.795C51.8919 37.688 52.0077 37.6309 52.1148 37.6674L54.5707 38.5008C54.6508 38.5278 54.7031 38.5991 54.7094 38.6775Z" fill="#0F0F0F"/>
<path d="M54.6611 37.7189C54.6682 37.8022 54.623 37.8838 54.5429 37.9211L52.183 39.0073C52.0799 39.0541 51.9586 39.0089 51.911 38.9067C51.8634 38.8045 51.9086 38.6815 52.0109 38.6347L54.3716 37.5492C54.4739 37.5016 54.5961 37.5468 54.6428 37.6499L54.6611 37.7189Z" fill="#0F0F0F"/>
<path d="M54.8855 39.7998L54.876 39.8813C54.8395 39.9884 54.7229 40.0455 54.6159 40.0099L52.1592 39.1766C52.0529 39.14 51.9942 39.0251 52.0315 38.9164C52.068 38.8092 52.1846 38.7513 52.2908 38.7879L54.7475 39.6214C54.8276 39.6483 54.8799 39.7205 54.8855 39.7998Z" fill="#0F0F0F"/>
<path d="M54.8379 38.8394C54.8451 38.9225 54.7999 39.0052 54.7198 39.0414L52.359 40.1281C52.2567 40.1748 52.1346 40.1302 52.0878 40.0273C52.0403 39.9248 52.0847 39.8019 52.1878 39.7551L54.5477 38.6697C54.6508 38.622 54.7721 38.6682 54.8197 38.7704L54.8379 38.8394Z" fill="#0F0F0F"/>
<path d="M54.9743 40.8804L54.964 40.9622C54.9275 41.07 54.811 41.1271 54.7039 41.0905L52.248 40.2582C52.1409 40.2216 52.0831 40.1058 52.1195 39.9979C52.156 39.8908 52.2726 39.8328 52.3796 39.8684L54.8355 40.702C54.9156 40.729 54.9672 40.8011 54.9743 40.8804Z" fill="#0F0F0F"/>
<path d="M54.9259 39.921C54.9331 40.0037 54.8879 40.0869 54.8078 40.1241L52.447 41.2096C52.3447 41.2563 52.2226 41.212 52.1751 41.1089C52.1283 41.006 52.1735 40.8846 52.2758 40.8369L54.6365 39.7515C54.7388 39.7038 54.8609 39.749 54.9077 39.8521L54.9259 39.921Z" fill="#0F0F0F"/>
<path d="M64.7487 50.769C64.7487 50.7684 64.7487 50.7675 64.7487 50.7668C64.7487 50.7675 64.7487 50.7684 64.7487 50.769ZM64.7495 50.7653C64.7495 50.7613 64.7495 50.7572 64.7495 50.7532L64.7606 50.5296L64.7495 50.7532C64.7495 50.7572 64.7495 50.7613 64.7495 50.7653Z" fill="#54203F"/>
<path d="M64.7074 50.9729L63.3102 50.8356C63.1873 50.8229 63.0977 50.7136 63.1096 50.5916C63.1215 50.4757 63.2182 50.3902 63.3316 50.3902L63.3538 50.3908L64.7606 50.5296L64.7495 50.7532C64.7495 50.7573 64.7495 50.7613 64.7495 50.7654C64.7495 50.7659 64.7495 50.7669 64.7487 50.7669C64.7487 50.7675 64.7487 50.7685 64.7487 50.769C64.7439 50.839 64.7296 50.9078 64.7074 50.9729Z" fill="#D3583A"/>
<path d="M61.706 24.8796L48.0396 25.4823C47.6645 25.38 47.2609 25.3681 46.862 25.4831C45.7042 25.8177 45.0302 27.0381 45.3641 28.1959L48.6343 39.5269L50.6866 38.9346C50.6604 38.8538 50.6358 38.776 50.6144 38.7022L49.8088 29.6241L61.8915 29.0904C63.0493 29.0389 63.9549 28.05 63.9041 26.8922C63.8534 25.7337 62.8637 24.8289 61.706 24.8796Z" fill="#F0724E"/>
<path d="M59.7854 29.1832L61.4729 29.1086C61.4721 29.1086 61.4721 29.1086 61.4713 29.1086L59.7854 29.1832Z" fill="#D3583A"/>
<path d="M50.6462 38.807C50.5201 38.5966 50.3195 38.4437 50.0848 38.3676L49.1649 29.2657C49.1411 29.0333 49.3195 28.8295 49.5534 28.8224L61.7314 28.4267C61.7314 28.4267 63.8352 28.3434 63.7955 26.3419C63.9462 26.805 63.9977 27.3125 63.5814 27.9477C63.1183 28.6543 62.3166 29.0714 61.4729 29.1087L59.7854 29.1832L57.3541 29.2903L51.3488 29.5559L49.8088 29.6241L50.6145 38.7022C50.6248 38.7363 50.6351 38.7714 50.6462 38.807Z" fill="#D3583A"/>
<path d="M50.7247 38.9727L50.7302 38.9711C51.1315 40.155 52.0553 42.0597 52.179 43.6299L51.7675 47.7556C51.7421 48.0071 51.4304 48.1292 51.2496 47.9533C50.3409 47.0682 49.716 43.1557 49.4202 42.1666L48.6851 39.7021L48.6597 39.6442C48.5003 39.1089 48.8374 38.5357 49.4139 38.3636C49.9705 38.197 50.5423 38.4698 50.7247 38.9727Z" fill="#F0724E"/>
<path d="M51.4535 48.0366C51.4527 48.0366 51.4527 48.0366 51.4519 48.0366C51.4527 48.0366 51.4527 48.0366 51.4535 48.0366ZM51.4574 48.0366C51.5962 48.0347 51.7326 47.9374 51.7627 47.7866C51.7326 47.9374 51.5962 48.0347 51.4574 48.0366Z" fill="#D3583A"/>
<path d="M50.7247 38.9727L50.7294 38.9711L50.7247 38.9727ZM50.7247 38.9727C50.7239 38.9696 50.7223 38.9662 50.7215 38.9631C50.7223 38.9662 50.7239 38.9696 50.7247 38.9727ZM50.7207 38.9622C50.7199 38.9591 50.7191 38.9565 50.7175 38.9534C50.7183 38.9565 50.7199 38.9591 50.7207 38.9622ZM50.7175 38.9534C50.7144 38.9442 50.7104 38.9346 50.7064 38.9259C50.7104 38.9346 50.7144 38.9442 50.7175 38.9534ZM50.7064 38.9259C50.7041 38.9203 50.7017 38.9138 50.6985 38.9082C50.7017 38.9138 50.7041 38.9203 50.7064 38.9259ZM50.6977 38.9052C50.6969 38.9036 50.6961 38.9021 50.6953 38.9011C50.6961 38.9027 50.6969 38.9036 50.6977 38.9052ZM50.693 38.8965C50.693 38.8956 50.693 38.8949 50.693 38.8949C50.693 38.8949 50.693 38.8956 50.693 38.8965Z" fill="#DEBAA1"/>
<path d="M51.4534 48.0366C51.4526 48.0366 51.4526 48.0366 51.4519 48.0366C51.3829 48.0357 51.3139 48.0118 51.2568 47.9604C51.2544 47.9579 51.252 47.9554 51.2496 47.9533L51.2235 47.9223L51.2972 47.7556L51.7088 43.6299C51.5843 42.0597 50.6604 40.155 50.2592 38.9711L50.2544 38.9727C50.1902 38.7948 50.1387 38.5571 50.053 38.3604C50.3329 38.4421 50.57 38.6307 50.693 38.8949C50.693 38.8949 50.693 38.8955 50.693 38.8965C50.6937 38.898 50.6945 38.8996 50.6953 38.9011C50.6961 38.902 50.6969 38.9036 50.6977 38.9051C50.6977 38.9061 50.6985 38.9076 50.6985 38.9082C50.7017 38.9138 50.7041 38.9203 50.7064 38.9259C50.7104 38.9346 50.7144 38.9441 50.7175 38.9534C50.7191 38.9565 50.7199 38.9591 50.7207 38.9621L50.7215 38.9631C50.7223 38.9662 50.7239 38.9696 50.7247 38.9727L50.7294 38.9711C51.1315 40.155 52.0553 42.0597 52.179 43.6299L51.7675 47.7556C51.7667 47.7597 51.7667 47.7643 51.7659 47.7684C51.7651 47.7749 51.7643 47.7811 51.7627 47.7866C51.7326 47.9374 51.5962 48.0347 51.4574 48.0366C51.4558 48.0366 51.455 48.0366 51.4534 48.0366Z" fill="#D3583A"/>
<path d="M51.57 48.0958L51.4931 48.0444L51.5391 47.9357C51.6216 47.9031 51.6763 47.8328 51.685 47.747L52.0966 43.621C52.0521 43.073 51.8967 42.403 51.6216 41.588L51.6739 41.4833L51.7786 41.5347C52.0585 42.3633 52.2163 43.0461 52.2623 43.6235L51.8492 47.7637C51.8349 47.9096 51.7405 48.0348 51.6017 48.0912L51.57 48.0958Z" fill="#B14430"/>
<path d="M58.0059 14.5406L58.0844 14.5295V13.9245L56.8069 5.10724L56.6419 5.13024L58.0059 14.5406Z" fill="#0F0F0F"/>
<path d="M57.9345 0.95274L57.5555 10.7438L57.7014 11.2767L58.0995 1.01777L57.9345 0.95274Z" fill="#0F0F0F"/>
</svg>
