<svg width="115" height="46" viewBox="0 0 115 46" fill="none" xmlns="http://www.w3.org/2000/svg">
<path d="M114.955 45.5147H0L7.36482 35.1677H107.591L114.955 45.5147Z" fill="#7E315F"/>
<path d="M114.955 45.5147H0L7.36482 35.1677H107.591L114.955 45.5147Z" fill="#7E315F"/>
<path d="M114.417 44.7592L24.0778 43.2535L25.9303 42.0521L45.1025 40.7789C45.5538 40.7099 46.0251 39.9634 43.3008 39.6247L30.0777 39.3622L31.9675 38.1354L36.9476 37.9401C37.7667 38.3714 38.6167 38.5921 39.395 38.5921C39.4722 38.5921 39.5485 38.5903 39.6238 38.5858C39.938 38.6466 40.2486 38.6766 40.551 38.6766C41.5354 38.6766 42.4326 38.356 43.0729 37.7004L89.3786 35.8823L89.9253 36.6869C90.2822 37.2109 90.1932 37.9201 89.7164 38.3397L86.4118 41.2493C86.1856 41.449 85.8941 41.5589 85.5917 41.5589H83.6929C83.2406 41.5589 82.9473 42.0339 83.1498 42.438C83.2116 42.5624 83.3151 42.6623 83.4431 42.7195L86.6642 44.1725H89.9471L93.4324 41.5589L94.8055 40.9705C95.7835 40.5509 96.1168 39.3322 95.4893 38.4732L94.2751 36.8131C94.0163 36.4599 93.7738 36.0948 93.5477 35.7188L107.591 35.1676L114.417 44.7592Z" fill="#54203F"/>
<path d="M90.412 33.0817C89.9398 32.4351 89.5302 31.745 89.1915 31.0203L86.2901 24.8142C85.8551 23.8834 85.2739 23.027 84.5692 22.2797L84.0388 21.7166H77.2498L79.8152 23.9842C81.1646 25.1775 82.3606 26.5351 83.375 28.0244L86.7441 32.9736C87.0456 33.4168 86.9702 34.0143 86.5689 34.3676L83.7818 36.8213C83.5911 36.9893 83.3459 37.082 83.0917 37.082H81.4898C81.1084 37.082 80.8613 37.4824 81.0312 37.8229C81.0838 37.9283 81.171 38.0128 81.2791 38.0618L83.9943 39.2859H86.7632L89.7009 37.082L90.8588 36.5861C91.6834 36.2329 91.9649 35.2049 91.4354 34.4811L90.412 33.0817Z" fill="#D4533A"/>
<path d="M84.1851 22.2796L83.6547 21.7166H76.8665L79.4311 23.9842C80.7805 25.1774 81.9765 26.535 82.9909 28.0244L84.9778 30.9431L85.7043 30.4517L84.3476 26.7339L87.0774 29.5237L87.8602 28.9942L85.9059 24.8142C85.4709 23.8833 84.8898 23.027 84.1851 22.2796Z" fill="#0F0F0F"/>
<path d="M84.6845 30.0658L84.6609 29.9968C84.6491 29.8997 84.7181 29.8125 84.8144 29.8007L87.0429 29.5346C87.1401 29.5237 87.2272 29.5927 87.2391 29.689C87.2509 29.7852 87.1818 29.8733 87.0847 29.8851L84.8562 30.1503L84.6845 30.0658Z" fill="#0F0F0F"/>
<path d="M85.1049 30.815L85.1177 30.6152L86.5053 28.8516L86.7523 28.8217L86.7813 29.0696L85.3947 30.8332L85.1467 30.8631L85.1049 30.815Z" fill="#0F0F0F"/>
<path d="M84.1006 29.2368L84.0761 29.1668C84.0652 29.0706 84.1342 28.9825 84.2305 28.9716L86.459 28.7055C86.5552 28.6937 86.6433 28.7636 86.6551 28.859C86.6669 28.9561 86.597 29.0442 86.5007 29.0551L84.2722 29.3212L84.1006 29.2368Z" fill="#0F0F0F"/>
<path d="M84.5211 29.9859L84.5338 29.7861L85.9214 28.0226L86.1684 27.9926L86.1983 28.2405L84.8107 30.0041L84.5637 30.0341L84.5211 29.9859Z" fill="#0F0F0F"/>
<path d="M83.6011 28.4058L83.5766 28.3368C83.5648 28.2396 83.6347 28.1515 83.731 28.1406L85.9595 27.8746C86.0558 27.8627 86.1429 27.9318 86.1557 28.0289C86.1666 28.1252 86.0975 28.2133 86.0013 28.2242L83.7728 28.4902L83.6011 28.4058Z" fill="#0F0F0F"/>
<path d="M84.0207 29.155L84.0334 28.9552L85.421 27.1917L85.6689 27.1626L85.698 27.4087L84.3104 29.1732L84.0634 29.2022L84.0207 29.155Z" fill="#0F0F0F"/>
<path d="M35.5182 31.8394L35.026 31.2128C34.344 30.3455 34.4966 29.0787 35.363 28.3976L48.4834 18.0878C49.3507 17.4067 50.6175 17.5593 51.2986 18.4256L51.7908 19.0522C52.4719 19.9195 52.3202 21.1863 51.453 21.8674L38.3325 32.1772C37.4662 32.8583 36.1993 32.7066 35.5182 31.8394Z" fill="#D4533A"/>
<path d="M35.5927 28.3004L26.3063 37.2654L26.0793 37.4061L27.3552 39.3722L38.2081 32.3334C39.3169 31.6132 39.6356 30.1176 38.9164 29.0088C38.1972 27.9 36.7015 27.5812 35.5927 28.3004Z" fill="#D4533A"/>
<path d="M26.8412 37.1291L26.8421 37.1237C25.4736 37.0193 23.1987 36.5579 21.4969 36.8458L17.2233 38.376C16.9636 38.4686 16.9173 38.8273 17.1543 38.9699C18.0061 39.4848 20.4771 39.4294 22.2216 39.3749C22.9072 39.3531 23.4812 39.3313 23.8008 39.3449L26.6187 39.4593L26.6877 39.4702C27.2998 39.4948 27.8174 38.9889 27.8438 38.3406C27.8692 37.713 27.4242 37.1864 26.8412 37.1291Z" fill="#D4533A"/>
<path d="M20.4581 39.4094C19.0995 39.4094 17.7419 39.325 17.1543 38.9699C17.1271 38.9535 17.1026 38.9345 17.0826 38.9117C17.1026 38.9345 17.1271 38.9535 17.1543 38.9699C17.7419 39.325 19.0995 39.4094 20.4581 39.4094C21.0692 39.4094 21.6804 39.3921 22.2216 39.3749C22.7619 39.3576 23.2332 39.3413 23.5647 39.3413C23.6537 39.3413 23.7327 39.3422 23.8008 39.3449L24.7189 39.3822L23.8008 39.3449C23.7327 39.3422 23.6537 39.3413 23.5647 39.3413C23.2332 39.3413 22.7619 39.3576 22.2216 39.3749C21.6804 39.3921 21.0692 39.4094 20.4581 39.4094Z" fill="#7E315F"/>
<path d="M17.0825 38.9118C17.0816 38.9109 17.0807 38.91 17.0798 38.9082C17.0807 38.91 17.0816 38.9109 17.0825 38.9118ZM17.0789 38.9073C17.078 38.9064 17.0771 38.9055 17.0762 38.9046C17.0771 38.9055 17.078 38.9064 17.0789 38.9073ZM17.0744 38.9028C17.0744 38.9019 17.0735 38.9019 17.0735 38.9019C17.0735 38.9019 17.0744 38.9019 17.0744 38.9028Z" fill="#7E315F"/>
<path d="M20.458 39.4094C19.0995 39.4094 17.7419 39.325 17.1543 38.9699C17.1271 38.9535 17.1025 38.9345 17.0826 38.9117C17.0817 38.9108 17.0807 38.9099 17.0798 38.9081C17.0789 38.9081 17.0789 38.9072 17.0789 38.9072C17.078 38.9063 17.0771 38.9054 17.0762 38.9045C17.0762 38.9036 17.0753 38.9036 17.0744 38.9027C17.0744 38.9017 17.0735 38.9018 17.0735 38.9018C17.0726 38.9 17.0717 38.899 17.0708 38.8972C17.0135 38.8273 16.9918 38.7365 17.0036 38.6502C17.7001 38.8527 18.7889 38.9063 19.8759 38.9063C20.4816 38.9063 21.0874 38.889 21.6241 38.8727C22.1598 38.8563 22.6266 38.84 22.9563 38.84C23.0471 38.84 23.127 38.8409 23.1951 38.8436L25.193 38.9254L24.7189 39.3822L23.8008 39.3449C23.7327 39.3422 23.6537 39.3413 23.5647 39.3413C23.2332 39.3413 22.7619 39.3576 22.2216 39.3749C21.6804 39.3921 21.0692 39.4094 20.458 39.4094Z" fill="#C9432E"/>
<path d="M46.1722 20.9166L39.3178 26.5387L44.7737 28.6474L44.9018 28.0726L46.0251 27.5731L45.8026 27.3524C45.4249 26.9765 45.2659 26.4334 45.3822 25.913L49.5822 23.5728L46.1722 20.9166Z" fill="#F0724E"/>
<path d="M46.0224 27.5704C45.9725 27.5468 45.9216 27.525 45.8707 27.5032L45.918 27.4659L46.0224 27.5704Z" fill="#D3583A"/>
<path d="M41.5254 32.8065C42.6751 30.6516 42.053 28.0753 40.136 27.0527C38.218 26.0302 35.7325 26.9483 34.5829 29.1041C33.4332 31.2591 34.0552 33.8354 35.9723 34.8579C37.8902 35.8805 40.3757 34.9624 41.5254 32.8065Z" fill="#682B22"/>
<path d="M35.8361 29.4065L35.6699 29.2721C35.5736 28.8172 35.3557 28.493 35.0224 28.3095C34.2605 27.89 33.1253 28.3013 33.1135 28.3059C33.0263 28.3377 32.9283 28.2932 32.8956 28.206C32.8629 28.1179 32.9083 28.0207 32.9955 27.988C33.0481 27.969 34.2859 27.5167 35.1849 28.0116C35.609 28.245 35.8842 28.6455 36.0022 29.2022C36.0213 29.2939 35.9632 29.3838 35.8715 29.4038L35.8361 29.4065Z" fill="#682B22"/>
<path d="M41.1712 28.1742L41.0632 28.137L41.0395 27.8972C41.3365 27.5376 41.4537 27.1644 41.3892 26.7893C41.2403 25.9302 40.2113 25.3027 40.2014 25.2964L40.1432 25.0639L40.3757 25.0058C40.4239 25.0349 41.5481 25.7205 41.7225 26.7321C41.8051 27.2089 41.6634 27.6738 41.302 28.1134L41.1712 28.1742Z" fill="#682B22"/>
<path d="M40.9242 28.1133L40.8107 28.0689L40.7989 27.83C41.1785 27.4086 41.3238 27.0073 41.2294 26.6349C41.0123 25.785 39.6556 25.2991 39.6429 25.2937C39.5539 25.2628 39.5076 25.1665 39.5393 25.0784C39.5702 24.9894 39.6665 24.9422 39.7546 24.974C39.8182 24.9958 41.2975 25.5271 41.5572 26.5514C41.6816 27.04 41.5109 27.5467 41.0505 28.057L40.9242 28.1133Z" fill="#682B22"/>
<path d="M43.17 37.5959C44.6184 35.9667 44.0363 33.0844 41.8696 31.1583C39.7028 29.2331 36.7723 28.9924 35.3239 30.6216C33.8763 32.2507 34.4584 35.1331 36.6243 37.0583C38.7911 38.9844 41.7215 39.2251 43.17 37.5959Z" fill="#682B22"/>
<path d="M36.9857 36.5706C35.0069 34.8116 34.3558 32.2589 35.3593 30.5871L35.3239 30.6216C33.8763 32.2507 34.4584 35.1331 36.6243 37.0583C38.7911 38.9844 41.7215 39.2251 43.17 37.5959C43.2962 37.4542 43.4007 37.3008 43.496 37.1418C42.0367 38.731 39.1361 38.4822 36.9857 36.5706Z" fill="#B14B3C"/>
<path d="M37.0221 32.9218C37.8494 31.3708 37.3308 29.4801 35.8642 28.6973C34.3976 27.9154 32.5387 28.5384 31.7114 30.0894C30.8841 31.6396 31.4027 33.5321 32.8693 34.314C34.3359 35.0959 36.1948 34.4729 37.0221 32.9218Z" fill="#682B22"/>
<path d="M36.8768 32.4887C36.0495 34.0397 34.1897 34.6627 32.723 33.8808C32.1128 33.5548 31.6696 33.0362 31.4172 32.4323C31.617 33.2197 32.1173 33.9135 32.8693 34.314C34.3359 35.0959 36.1948 34.4729 37.0221 32.9218C37.5052 32.0164 37.527 30.9957 37.171 30.1466C37.3608 30.8967 37.28 31.7331 36.8768 32.4887Z" fill="#B14B3C"/>
<path d="M41.6689 37.7231C41.5854 37.7231 41.5018 37.6922 41.4355 37.6295C41.3002 37.5014 41.2947 37.2871 41.4219 37.1509C41.431 37.1409 42.3454 36.1493 42.152 34.7308C41.9622 33.3377 40.8098 31.9901 38.7275 30.7278C38.5668 30.6297 38.5159 30.4218 38.6122 30.262C38.7102 30.1012 38.9182 30.0503 39.079 30.1475C41.3511 31.526 42.6115 33.0417 42.8258 34.6527C43.0574 36.3945 41.9604 37.5687 41.9132 37.6177C41.8469 37.6876 41.7579 37.7231 41.6689 37.7231Z" fill="#682B22"/>
<path d="M40.0588 33.0091L40.1605 32.1945C40.1605 32.1945 40.2785 30.6753 38.8138 30.0723L37.8512 30.6262L36.9158 31.1148L36.9812 31.9493L38.2535 32.8883L39.9426 32.9237L40.0588 33.0091Z" fill="#682B22"/>
<path d="M40.4402 36.1801C40.4402 36.1801 42.6488 36.6623 44.277 34.4338C44.4178 34.2431 44.603 34.0915 44.8173 33.9916L46.4646 33.2215C46.5745 33.1706 46.6499 33.0653 46.6626 32.9445C46.6763 32.8219 46.6236 32.7002 46.5237 32.6276L46.2903 32.4541L46.2358 32.3597L46.2222 32.2389C46.2131 32.1526 46.2712 32.0727 46.3566 32.0555L46.6245 32.0019L46.6227 31.6841L46.8515 31.4189L46.9968 31.2781C47.1675 31.1147 47.0876 30.9067 47.1221 30.6724L47.736 30.0867C48.1247 29.5554 47.9994 28.809 47.4581 28.4339L47.1012 28.186C46.5209 27.7837 45.8853 27.4704 45.2133 27.257L44.7311 27.1026C43.9065 26.8402 43.0038 27.0182 42.3409 27.5748L41.5 28.2795C39.8645 27.0717 37.517 27.6774 36.6988 29.5382C36.1385 30.8095 35.9323 32.2489 36.8931 33.4249C36.8931 33.4249 38.4088 35.5708 40.4402 36.1801Z" fill="#F0724E"/>
<path d="M47.0377 31.2328C46.995 31.1956 46.9205 31.1592 46.7961 31.1311C46.7961 31.1311 46.3757 31.0039 46.0088 31.0039C45.9861 31.0039 45.9634 31.0049 45.9407 31.0058C46.3212 30.6825 47.0268 30.6725 47.114 30.6725C47.1194 30.6725 47.1221 30.6725 47.1221 30.6725C47.1131 30.7333 47.1122 30.7915 47.1122 30.8478C47.1122 30.8741 47.1122 30.8986 47.1122 30.924C47.1122 31.0366 47.1058 31.1411 47.0377 31.2328Z" fill="#D3583A"/>
<path d="M45.7036 31.1029C45.819 31.2192 46.1441 31.5761 46.2449 31.9965C46.2449 31.9965 46.2167 32.2735 46.5137 32.2907C46.5137 32.2907 46.7779 32.1609 46.6989 31.7404C46.6989 31.7404 47.0322 31.5524 47.0667 31.4108C47.0667 31.4108 47.212 31.2264 46.7961 31.1311C46.7961 31.1311 46.1005 30.9213 45.7173 31.0412L45.7036 31.1029Z" fill="#B73C2B"/>
<path d="M46.4556 33.2252C46.4556 33.2252 46.4501 33.1217 45.9743 33.0708C45.9743 33.0708 45.9715 33.0708 45.9652 33.0708C45.9098 33.0708 45.6029 33.0499 45.4612 32.6022C45.4321 32.5132 45.3713 32.4342 45.2877 32.3924L45.1025 32.3706C45.1025 32.3706 45.2178 32.0183 45.4857 32.0183C45.542 32.0183 45.6056 32.0337 45.6764 32.0719C45.6764 32.0719 46.076 32.2671 46.2903 32.4542L46.303 32.4642L46.5237 32.6276C46.6127 32.693 46.6644 32.7965 46.6653 32.9046C46.6653 32.9182 46.6645 32.9309 46.6626 32.9446C46.6508 33.0599 46.5809 33.1589 46.4792 33.2124L46.4556 33.2252Z" fill="#D3583A"/>
<path d="M44.04 33.7946C43.862 33.8309 43.6903 33.7846 43.535 33.7192L43.3117 33.5993L43.209 33.5267L43.1582 33.4885L43.1146 33.4531C42.9938 33.3587 42.8676 33.2697 42.7395 33.1943L42.5461 33.1035L42.3709 33.0971L42.3581 33.1026L42.2837 33.0762L42.2982 33.009L42.3618 32.9609L42.4353 32.9346L42.5098 32.9273L42.5806 32.931C42.6714 32.9437 42.7568 32.97 42.834 33.0054C42.9911 33.0744 43.1291 33.1671 43.2599 33.2697L43.4406 33.4159L43.6259 33.5458C43.7512 33.6248 43.8892 33.6965 44.0327 33.7283L44.04 33.7301L44.0645 33.7692L44.04 33.7946Z" fill="#682B22"/>
<path d="M43.6685 33.3169C43.7584 33.1952 43.8801 33.1334 43.9401 33.1779C44.0009 33.2224 43.9773 33.3568 43.8874 33.4785C43.7975 33.5993 43.6758 33.662 43.6159 33.6175C43.555 33.573 43.5795 33.4386 43.6685 33.3169Z" fill="#682B22"/>
<path d="M44.1371 33.216L44.1462 33.2242L44.1499 33.2642L44.1099 33.2678C44.109 33.266 44.0136 33.1879 43.9101 33.2088C43.8429 33.2215 43.7857 33.2742 43.7403 33.3641L43.7022 33.3759L43.6895 33.3378C43.7439 33.2324 43.8148 33.1688 43.8992 33.1525C44.0082 33.1307 44.1054 33.1933 44.1371 33.216Z" fill="#682B22"/>
<path d="M43.3779 34.8261C43.2735 34.8552 43.1909 34.8343 43.1128 34.7998L42.8894 34.6781C42.7432 34.5928 42.607 34.492 42.4789 34.3839C42.3518 34.275 42.2319 34.1569 42.1284 34.0261C42.023 33.8972 41.934 33.7555 41.8587 33.6102L41.8705 33.5711L41.9041 33.5766L41.905 33.5775C42.0212 33.6901 42.132 33.8018 42.2592 33.8953C42.3799 33.9943 42.508 34.0833 42.6406 34.1632C42.7704 34.2459 42.9085 34.3176 43.0465 34.3821L43.2563 34.4711L43.4406 34.6182L43.4524 34.6364L43.4116 34.8116L43.3779 34.8261Z" fill="#682B22"/>
<path d="M46.1977 32.7448C46.1041 32.7266 46.0178 32.6921 45.9407 32.6358C45.8653 32.5832 45.7917 32.5032 45.7581 32.4215L45.6037 32.2617C45.5402 32.2263 45.4594 32.2262 45.3758 32.2453L45.3513 32.2299L45.3595 32.209C45.4348 32.1572 45.5429 32.1309 45.6437 32.1681C45.7454 32.2017 45.8135 32.2853 45.8553 32.3734L45.9888 32.5732L46.2077 32.6821L46.2104 32.6831L46.2349 32.7212L46.1977 32.7448Z" fill="#682B22"/>
<path d="M41.6789 37.664C42.9793 36.2001 42.3627 33.5284 40.3004 31.6959C38.2389 29.8624 35.5128 29.5636 34.2114 31.0266C32.911 32.4905 33.5276 35.1622 35.5891 36.9947C37.6514 38.8282 40.3775 39.1279 41.6789 37.664Z" fill="#682B22"/>
<path d="M41.6607 37.3952C40.3621 38.8564 37.5615 38.4868 35.4056 36.5698C34.8253 36.054 34.354 35.4773 33.9962 34.8834C34.344 35.6308 34.8789 36.3636 35.5891 36.9948C37.6514 38.8283 40.3775 39.127 41.6789 37.664C42.3445 36.9139 42.5053 35.8469 42.2283 34.7372C42.4335 35.7579 42.2655 36.715 41.6607 37.3952Z" fill="#B14B3C"/>
<path d="M40.2495 35.0268C40.2495 35.0268 40.7644 34.6954 40.294 33.4086C40.294 33.4086 40.1533 32.7202 40.5692 32.4551C40.5692 32.4551 41.806 31.9175 41.4755 31.2037C41.4755 31.2037 41.2693 30.5971 40.8534 30.746C40.8534 30.746 39.8572 31.3081 39.3859 30.469C39.3859 30.469 38.8474 29.6308 39.9689 28.8108C39.9689 28.8108 40.5428 28.3722 41.2058 28.5556C41.2058 28.5556 42.5325 27.6702 41.2076 26.0301C41.2076 26.0301 38.7357 24.7633 36.3047 27.7529C35.2958 28.9952 34.9761 30.6779 35.5228 32.1826C35.8325 33.0372 36.4245 33.9789 37.4979 34.8979C37.4979 34.8979 38.8238 36.0948 39.7755 35.6099C39.7755 35.6099 40.0125 35.5726 40.2495 35.0268Z" fill="#682B22"/>
<path d="M41.6925 28.6954C41.7624 28.601 41.895 28.5819 41.9894 28.6509C42.0839 28.7208 42.1039 28.8534 42.0339 28.9479C41.964 29.0423 41.8314 29.0623 41.737 28.9924C41.6426 28.9225 41.6226 28.7899 41.6925 28.6954Z" fill="#923C1D"/>
<path d="M44.9926 23.4629L47.3201 25.6551C47.8741 26.1773 48.6332 26.4252 49.3888 26.3289L54.0937 25.735C54.7458 25.6533 55.3524 25.3591 55.821 24.8996L60.9854 19.8395C61.5103 19.3246 61.8327 18.6372 61.8917 17.9043L62.1106 15.1818C62.2132 13.9086 62.7644 12.7145 63.6671 11.8118L65.1092 10.3706C65.2 10.2789 65.3235 10.2281 65.4525 10.2281H66.2461C66.4132 10.2281 66.5694 10.3143 66.6584 10.4569C69.2538 14.6306 72.5357 18.3348 76.3671 21.4142L77.7501 22.5258L81.7059 26.0238C83.3069 27.4396 84.7254 29.0487 85.9286 30.815L89.9253 36.6869C90.2822 37.2109 90.1931 37.9201 89.7164 38.3397L86.4118 41.2493C86.1856 41.449 85.8941 41.5589 85.5917 41.5589H83.6929C83.2406 41.5589 82.9473 42.0339 83.1498 42.438C83.2116 42.5624 83.3151 42.6623 83.4431 42.7195L86.6642 44.1725H89.9471L93.4324 41.5589L94.8055 40.9705C95.7835 40.5509 96.1168 39.3322 95.4893 38.4732L94.2751 36.8131C93.7148 36.0476 93.2299 35.2284 92.8276 34.3685L89.3868 27.0073C88.87 25.903 88.1808 24.8887 87.3453 24.0014L82.0392 18.3702L73.8934 3.77587C71.6258 -0.286137 66.2062 -1.25417 62.6718 1.77167L60.7874 3.38446C60.0837 3.98745 59.4997 4.71757 59.0638 5.53578C58.7451 6.13605 58.3446 6.69094 57.8733 7.18223L44.9218 20.7132C44.1771 21.4905 44.2098 22.7246 44.9926 23.4629Z" fill="#F0724E"/>
<path d="M46.6653 25.1212C46.5573 25.1212 46.451 25.0694 46.3857 24.9732L45.5611 23.7545C45.0416 22.4713 45.3213 20.992 46.2749 19.9867L49.8083 16.2589C49.9373 16.1236 50.1516 16.1172 50.2869 16.2462C50.4231 16.3752 50.4295 16.5894 50.3005 16.7257L46.7661 20.4535C46.0042 21.2571 45.7745 22.4368 46.1768 23.4666L46.945 24.5908C47.0504 24.7452 47.0104 24.9559 46.8561 25.0613L46.6653 25.1212Z" fill="white"/>
<path d="M83.9662 28.2878C84.6718 29.0878 85.3266 29.9324 85.9286 30.815L88.2852 34.2768L89.147 33.6947L87.5378 29.2849L90.7753 32.5941L91.7043 31.9656L89.3868 27.0073C89.2578 26.7313 89.1179 26.4606 88.9672 26.1964C88.5168 25.4036 87.9728 24.6671 87.3453 24.0015L82.0392 18.3702L73.8934 3.77683C72.6148 1.48747 70.3363 0.181587 67.958 0.0181274C66.1163 -0.108101 64.2147 0.451302 62.6718 1.7717L60.7875 3.38449L60.7847 3.38813C60.6022 3.54433 60.4288 3.70871 60.2635 3.88125L60.2553 3.89123C60.0918 4.06286 59.9366 4.24178 59.7903 4.42794L62.7626 13.0224C63.0042 12.5819 63.3066 12.1724 63.6671 11.8118L65.1092 10.3706L65.2672 10.2653L65.4525 10.2281H66.2461L66.3688 10.2435C66.4877 10.2744 66.5921 10.3507 66.6584 10.4569C66.9826 10.9791 67.3177 11.4931 67.6637 11.9998C68.0088 12.5065 68.3648 13.006 68.7317 13.4973C70.1965 15.4607 71.8247 17.2987 73.5982 18.9896C74.0423 19.4128 74.4946 19.8259 74.9568 20.23C75.4172 20.6342 75.8876 21.0292 76.3671 21.4133L77.7502 22.5258L81.7059 26.0238C82.506 26.7313 83.2615 27.4877 83.9662 28.2878Z" fill="#0F0F0F"/>
<path d="M59.5633 21.2326L51.9624 13.3574L49.6649 15.7575L51.5828 19.3737C52.4837 21.0728 52.4973 23.106 51.6173 24.8178L50.9417 26.1337L54.0937 25.735C54.7458 25.6533 55.3524 25.3591 55.821 24.8996L59.5633 21.2326Z" fill="white"/>
<path d="M58.6924 22.0862L59.5633 21.2326L51.9624 13.3575L51.1496 14.2066" fill="#0F0F0F"/>
<path d="M31.8231 35.9913L31.3309 35.3647C30.6498 34.4984 30.8024 33.2316 31.6687 32.5496L44.7892 22.2397C45.6555 21.5596 46.9223 21.7103 47.6034 22.5785L48.0965 23.2041C48.7776 24.0714 48.625 25.3382 47.7587 26.0193L34.6382 36.3292C33.771 37.0102 32.5042 36.8586 31.8231 35.9913Z" fill="#F0724E"/>
<path d="M45.9179 27.4659L47.4581 26.2563C47.4536 26.2591 47.4499 26.2627 47.4454 26.2654L45.9179 27.4659Z" fill="#DEBAA1"/>
<path d="M45.8707 27.5032L45.918 27.4659L45.8707 27.5032Z" fill="#B8442B"/>
<path d="M42.3563 30.2647L45.8707 27.5032L42.3563 30.2647Z" fill="#D3583A"/>
<path d="M47.8682 22.9135L47.8504 22.8901C47.856 22.8985 47.8626 22.906 47.8682 22.9135Z" fill="#D3583A"/>
<path d="M35.0569 36.0004C35.4193 35.5609 35.61 35.0069 35.6063 34.4466L46.9314 25.548C47.8232 24.8478 48.0811 23.6328 47.6234 22.6448C47.7033 22.721 47.7796 22.8019 47.8495 22.8908H47.8504L47.8677 22.9136C48.6605 23.9479 48.4789 25.4436 47.4582 26.2563L45.918 27.4659L45.8707 27.5032L42.3563 30.2647L35.0569 36.0004Z" fill="#D3583A"/>
<path d="M31.8976 32.4524L22.6112 41.4173L22.3842 41.558L23.6601 43.5241L34.513 36.4853C35.6218 35.7651 35.9414 34.2704 35.2222 33.1607C34.503 32.0519 33.0064 31.7331 31.8976 32.4524Z" fill="#F0724E"/>
<path d="M34.5275 36.4753C34.5293 36.4744 34.5311 36.4735 34.5329 36.4726C34.5311 36.4735 34.5293 36.4744 34.5275 36.4753ZM34.5411 36.4662C34.5429 36.4653 34.5447 36.4635 34.5474 36.4626C34.5447 36.4635 34.5429 36.4653 34.5411 36.4662ZM34.5547 36.4571C34.5574 36.4562 34.5592 36.4544 34.5611 36.4526C34.5592 36.4544 34.5574 36.4562 34.5547 36.4571ZM34.5683 36.4481C34.5711 36.4462 34.5729 36.4444 34.5747 36.4435C34.5729 36.4444 34.5711 36.4462 34.5683 36.4481ZM34.5829 36.438C34.5847 36.4371 34.5865 36.4353 34.5883 36.4335C34.5865 36.4353 34.5847 36.4371 34.5829 36.438ZM34.6001 36.4262C34.6001 36.4253 34.601 36.4253 34.6019 36.4244C34.601 36.4253 34.6001 36.4253 34.6001 36.4262ZM34.6156 36.4144C34.6165 36.4144 34.6174 36.4135 34.6174 36.4135C34.6174 36.4135 34.6165 36.4144 34.6156 36.4144ZM34.6292 36.4045C34.631 36.4036 34.6319 36.4026 34.6328 36.4026C34.6319 36.4026 34.6301 36.4036 34.6292 36.4045ZM34.6437 36.3936C34.6446 36.3936 34.6455 36.3926 34.6455 36.3926C34.6455 36.3926 34.6446 36.3936 34.6437 36.3936ZM34.6582 36.3827C34.6591 36.3827 34.6591 36.3827 34.6591 36.3827C34.6591 36.3827 34.6591 36.3827 34.6582 36.3827Z" fill="#54203F"/>
<path d="M23.66 43.5241L23.6128 43.4514C23.9207 43.2535 24.1323 42.9012 24.1486 42.4925C24.1486 42.4889 24.1495 42.4852 24.1495 42.4816C24.1495 42.4807 24.1495 42.4798 24.1495 42.4788C24.1495 42.4752 24.1495 42.4725 24.1495 42.4689C24.1495 42.468 24.1495 42.4661 24.1495 42.4652C24.1495 42.4625 24.1495 42.4589 24.1495 42.4561C24.1495 42.4543 24.1495 42.4534 24.1495 42.4516C24.1495 42.4498 24.1495 42.4471 24.1495 42.4453C24.1495 42.4435 24.1495 42.4416 24.1495 42.4398C24.1495 42.4371 24.1495 42.4343 24.1495 42.4316C24.1495 42.4307 24.1495 42.4289 24.1495 42.428C24.1495 42.4244 24.1495 42.4217 24.1495 42.4189C24.1495 42.4171 24.1495 42.4162 24.1495 42.4144C24.1495 42.4116 24.1495 42.4089 24.1495 42.4062C24.1495 42.4053 24.1495 42.4044 24.1495 42.4035C24.1495 42.3999 24.1495 42.3971 24.1486 42.3935C24.1486 42.3935 24.1486 42.3926 24.1486 42.3917C24.1486 42.388 24.1486 42.3844 24.1486 42.3808C24.1486 42.3799 24.1486 42.3799 24.1486 42.379C24.1459 42.3263 24.1404 42.2754 24.1314 42.2255L35.5945 34.6781C35.5355 35.3347 35.2122 35.9613 34.6591 36.3827C34.6591 36.3827 34.6591 36.3827 34.6582 36.3827C34.6546 36.3863 34.6501 36.389 34.6455 36.3927C34.6455 36.3927 34.6446 36.3936 34.6437 36.3936C34.6401 36.3963 34.6364 36.399 34.6328 36.4027C34.6319 36.4027 34.631 36.4036 34.6292 36.4045C34.6255 36.4072 34.6219 36.4108 34.6174 36.4135C34.6174 36.4135 34.6165 36.4145 34.6155 36.4145C34.611 36.4181 34.6065 36.4208 34.6019 36.4244C34.601 36.4254 34.6001 36.4254 34.6001 36.4263C34.5965 36.429 34.5919 36.4317 34.5883 36.4335C34.5865 36.4353 34.5847 36.4371 34.5829 36.4381C34.5801 36.4399 34.5774 36.4417 34.5747 36.4435C34.5729 36.4444 34.5711 36.4463 34.5683 36.4481C34.5665 36.4499 34.5638 36.4517 34.5611 36.4526C34.5592 36.4544 34.5574 36.4562 34.5547 36.4571C34.552 36.4589 34.5502 36.4608 34.5474 36.4626C34.5447 36.4635 34.5429 36.4653 34.5411 36.4662C34.5384 36.468 34.5356 36.4708 34.5329 36.4726C34.5311 36.4735 34.5293 36.4744 34.5275 36.4753C34.5229 36.4789 34.5175 36.4816 34.5129 36.4853L23.66 43.5241Z" fill="#D3583A"/>
<path d="M23.147 41.281V41.2756C21.7784 41.1712 19.5036 40.7098 17.8018 40.9977L13.5291 42.5279C13.2685 42.6205 13.2231 42.9792 13.4592 43.1218C14.3119 43.6367 16.7829 43.5822 18.5274 43.5268C19.213 43.5059 19.7869 43.4841 20.1057 43.4968L22.9245 43.6122L22.9926 43.6222C23.6046 43.6467 24.1232 43.1409 24.1486 42.4925C24.1749 41.865 23.73 41.3383 23.147 41.281Z" fill="#F0724E"/>
<path d="M23.0353 43.6231C23.0216 43.6231 23.0071 43.6232 22.9926 43.6223L22.9245 43.6122L20.1057 43.4969C20.0385 43.4942 19.9595 43.4933 19.8696 43.4933C19.539 43.4933 19.0677 43.5105 18.5274 43.5269C17.9861 43.5441 17.375 43.5614 16.7638 43.5614C15.4053 43.5614 14.0467 43.4769 13.4592 43.1219C13.4283 43.1037 13.4029 43.081 13.3811 43.0565C13.4029 43.081 13.4283 43.1037 13.4592 43.1219C14.0467 43.4769 15.4053 43.5614 16.7638 43.5614C17.375 43.5614 17.9861 43.5441 18.5274 43.5269C19.0677 43.5105 19.539 43.4933 19.8696 43.4933C19.9595 43.4933 20.0385 43.4942 20.1057 43.4969L22.9245 43.6122L22.9926 43.6223C23.0071 43.6232 23.0216 43.6231 23.0353 43.6231C23.2459 43.6231 23.4439 43.5605 23.6128 43.4515C23.4439 43.5605 23.2459 43.6231 23.0353 43.6231Z" fill="#54203F"/>
<path d="M13.3794 43.0546C13.3794 43.0536 13.3794 43.0536 13.3784 43.0536C13.3794 43.0536 13.3794 43.0536 13.3794 43.0546Z" fill="#54203F"/>
<path d="M24.1495 42.4816C24.1495 42.4807 24.1495 42.4798 24.1495 42.4788C24.1495 42.4798 24.1495 42.4807 24.1495 42.4816ZM24.1495 42.4689C24.1495 42.468 24.1495 42.4661 24.1495 42.4652C24.1495 42.4661 24.1495 42.468 24.1495 42.4689ZM24.1495 42.4561C24.1495 42.4543 24.1495 42.4534 24.1495 42.4516C24.1495 42.4534 24.1495 42.4543 24.1495 42.4561ZM24.1495 42.4453C24.1495 42.4435 24.1495 42.4416 24.1495 42.4398C24.1495 42.4416 24.1495 42.4435 24.1495 42.4453ZM24.1495 42.4316C24.1495 42.4307 24.1495 42.4289 24.1495 42.428C24.1495 42.4289 24.1495 42.4307 24.1495 42.4316ZM24.1495 42.4189C24.1495 42.4171 24.1495 42.4162 24.1495 42.4144C24.1495 42.4162 24.1495 42.4171 24.1495 42.4189ZM24.1495 42.4062C24.1495 42.4053 24.1495 42.4044 24.1495 42.4035C24.1495 42.4044 24.1495 42.4053 24.1495 42.4062ZM24.1486 42.3935C24.1486 42.3935 24.1486 42.3926 24.1486 42.3917C24.1486 42.3926 24.1486 42.3935 24.1486 42.3935ZM24.1486 42.3808C24.1486 42.3799 24.1486 42.3799 24.1486 42.379C24.1486 42.3799 24.1486 42.3799 24.1486 42.3808Z" fill="#B8442B"/>
<path d="M23.0353 43.6231C23.0217 43.6231 23.0071 43.6232 22.9926 43.6223L22.9245 43.6122L20.1057 43.4969C20.0385 43.4942 19.9595 43.4933 19.8696 43.4933C19.5391 43.4933 19.0677 43.5105 18.5274 43.5269C17.9862 43.5441 17.375 43.5614 16.7638 43.5614C15.4053 43.5614 14.0468 43.4769 13.4592 43.1219C13.4283 43.1037 13.4029 43.081 13.3811 43.0565C13.3811 43.0556 13.3802 43.0556 13.3793 43.0547C13.3793 43.0538 13.3793 43.0537 13.3784 43.0537C13.3194 42.982 13.2976 42.8903 13.3094 42.8031C14.005 43.0047 15.0938 43.0583 16.1799 43.0583C16.7875 43.0583 17.3932 43.042 17.9308 43.0247C18.4675 43.0084 18.9342 42.992 19.2639 42.992C19.3538 42.992 19.4328 42.9929 19.5009 42.9956L22.3197 43.1109L22.3878 43.121C22.4023 43.121 22.416 43.1219 22.4305 43.1219C23.0244 43.1219 23.5184 42.6251 23.5438 41.9913C23.5538 41.7497 23.493 41.5245 23.3831 41.3347C23.8117 41.48 24.1241 41.8896 24.1486 42.379C24.1486 42.38 24.1486 42.38 24.1486 42.3809C24.1486 42.3845 24.1486 42.3881 24.1486 42.3917C24.1486 42.3926 24.1486 42.3935 24.1486 42.3935C24.1496 42.3972 24.1495 42.3999 24.1495 42.4036C24.1495 42.4045 24.1495 42.4054 24.1495 42.4063C24.1495 42.409 24.1495 42.4117 24.1495 42.4144C24.1495 42.4162 24.1495 42.4172 24.1495 42.419C24.1495 42.4217 24.1495 42.4244 24.1495 42.428C24.1495 42.429 24.1495 42.4308 24.1495 42.4317C24.1495 42.4344 24.1495 42.4372 24.1495 42.4399C24.1495 42.4417 24.1495 42.4435 24.1495 42.4453C24.1495 42.4472 24.1495 42.4499 24.1495 42.4517C24.1495 42.4535 24.1495 42.4544 24.1495 42.4562C24.1495 42.4589 24.1495 42.4626 24.1495 42.4653C24.1495 42.4662 24.1495 42.468 24.1495 42.4689C24.1495 42.4726 24.1495 42.4753 24.1495 42.4789C24.1495 42.4798 24.1495 42.4807 24.1495 42.4817C24.1495 42.4853 24.1486 42.4889 24.1486 42.4926C24.1323 42.9012 23.9207 43.2535 23.6129 43.4515C23.4439 43.5605 23.246 43.6231 23.0353 43.6231Z" fill="#D3583A"/>
<path d="M60.8183 3.35911L60.7874 3.38451L60.7847 3.38815C60.6685 3.48804 60.5613 3.59703 60.4523 3.70328L63.4419 12.0588C63.5154 11.9753 63.5881 11.8918 63.6671 11.8119L63.796 11.6829L60.8183 3.35911Z" fill="#0F0F0F"/>
<path d="M87.9374 32.782L87.9093 32.6985C87.8956 32.584 87.9774 32.4796 88.0918 32.4669L90.7353 32.1508C90.8497 32.1381 90.9533 32.2199 90.9669 32.3334C90.9814 32.4487 90.8997 32.5532 90.7843 32.5659L88.1417 32.881C88.0573 32.8919 87.9792 32.8501 87.9374 32.782Z" fill="#0F0F0F"/>
<path d="M88.436 33.6701L88.4514 33.4331L90.0969 31.3418C90.1677 31.251 90.3003 31.2346 90.3902 31.3063C90.4811 31.3772 90.4965 31.5088 90.4256 31.5997L88.7792 33.691C88.7084 33.7818 88.5767 33.7982 88.4859 33.7265L88.436 33.6701Z" fill="#0F0F0F"/>
<path d="M87.2454 31.7976L87.2163 31.7158C87.2027 31.6005 87.2844 31.4961 87.3998 31.4834L90.0424 31.1683C90.1568 31.1537 90.2613 31.2364 90.2749 31.3508C90.2885 31.4652 90.2059 31.5687 90.0914 31.5833L87.4488 31.8984C87.3644 31.9075 87.2863 31.8666 87.2454 31.7976Z" fill="#0F0F0F"/>
<path d="M87.744 32.6867L87.7585 32.4496L89.4049 30.3573C89.4757 30.2665 89.6074 30.2511 89.6973 30.3228C89.789 30.3937 89.8045 30.5253 89.7327 30.6161L88.0872 32.7076C88.0155 32.7984 87.8838 32.8138 87.7939 32.7429L87.744 32.6867Z" fill="#0F0F0F"/>
<path d="M86.6515 30.8123L86.6233 30.7297C86.6097 30.6152 86.6914 30.5108 86.8059 30.4972L89.4494 30.1821C89.5638 30.1685 89.6674 30.2502 89.6819 30.3646C89.6955 30.479 89.6138 30.5835 89.4994 30.5971L86.8558 30.9122C86.7714 30.9231 86.6933 30.8813 86.6515 30.8123Z" fill="#0F0F0F"/>
<path d="M87.151 31.7014L87.1655 31.4634L88.811 29.372C88.8828 29.2812 89.0135 29.2658 89.1052 29.3375C89.1951 29.4083 89.2115 29.54 89.1398 29.6299L87.4942 31.7222C87.4225 31.8131 87.2917 31.8285 87.2 31.7567L87.151 31.7014Z" fill="#0F0F0F"/>
<path d="M65.1437 10.347L65.2672 10.2652L65.4524 10.228H66.2461L66.3687 10.2434C66.3687 10.2434 65.0193 8.01672 65.052 5.67923C65.052 5.67923 64.5916 7.69438 65.1437 10.347Z" fill="#0F0F0F"/>
</svg>
