<svg width="116" height="44" viewBox="0 0 116 44" fill="none" xmlns="http://www.w3.org/2000/svg">
<path d="M115.781 43.5747H0L7.41777 33.1542H108.364L115.781 43.5747Z" fill="#7E315F"/>
<path d="M115.781 43.5747H0L7.41777 33.1542H108.364L115.781 43.5747Z" fill="#7E315F"/>
<path d="M113.615 40.5307H33.3333C33.4531 40.3414 33.5236 40.1136 33.5236 39.8685C33.5236 39.8648 33.5236 39.8603 33.5236 39.8566C33.5236 39.8566 33.5236 39.8557 33.5236 39.8548C33.5236 39.8511 33.5236 39.8475 33.5236 39.8438C33.5236 39.8429 33.5236 39.8429 33.5236 39.842C33.5236 39.8383 33.5236 39.8346 33.5236 39.8301C33.5208 39.7432 33.5089 39.6581 33.4897 39.5767L50.9155 36.8959C51.371 36.8264 51.3573 36.166 50.8991 36.1139L34.2278 34.2379L34.3294 33.6462C34.5233 33.541 34.6778 33.3663 34.7657 33.1541H108.364L113.615 40.5307ZM30.9589 33.8693L30.4046 33.8071C30.6077 33.7925 30.7933 33.7797 30.9571 33.7696L30.9589 33.8693ZM25.6402 33.2711L24.5984 33.1541H25.7729C25.7134 33.1797 25.6695 33.2218 25.6402 33.2711Z" fill="#54203F"/>
<path d="M34.6898 22.857L34.0111 22.8031C33.0727 22.729 32.3647 21.9003 32.4388 20.961L33.5611 6.75106C33.6352 5.81172 34.4638 5.10471 35.4032 5.17879L36.0819 5.23182C37.0212 5.30591 37.7282 6.13551 37.6541 7.07393L36.5319 21.2839C36.4578 22.2232 35.6291 22.9311 34.6898 22.857Z" fill="#D4533A"/>
<path d="M36.5675 20.8302C36.509 20.4085 36.3206 20.0189 36.038 19.7125L36.2346 17.2201L36.4496 14.5009L36.5657 14.6755L37.0816 14.3188L36.5675 20.8302Z" fill="#C9432E"/>
<path d="M32.5102 20.7607L32.7635 31.7849L32.7205 32.009L34.6934 32.3456L36.5575 21.4531C36.7477 20.3399 35.9931 19.2735 34.88 19.0832C33.7669 18.893 32.7004 19.6475 32.5102 20.7607Z" fill="#D4533A"/>
<path d="M34.7117 32.2413C34.6788 32.1836 34.6404 32.1288 34.5974 32.0794L35.544 26.5467C35.545 26.543 35.545 26.5385 35.5459 26.5348C35.5459 26.533 35.5468 26.5311 35.5468 26.5284C35.5468 26.5284 35.5468 26.5275 35.5468 26.5266C35.5861 26.2851 35.5879 26.0445 35.5559 25.8122L36.0251 19.8734L36.0489 19.728C36.4559 20.1771 36.6645 20.7982 36.5602 21.4375V21.4384C36.5593 21.443 36.5584 21.4485 36.5575 21.453L34.7117 32.2413Z" fill="#C9432E"/>
<path d="M33.9462 31.7538V31.7492C32.7754 31.7071 30.8172 31.3925 29.3748 31.6971L25.7802 33.1504C25.5616 33.2392 25.5351 33.5465 25.7418 33.6608C26.779 34.2316 30.4605 33.7505 31.4272 33.7505H33.8373L33.8959 33.7569C34.42 33.7569 34.8444 33.3078 34.8444 32.7526C34.8444 32.2166 34.4465 31.7821 33.9462 31.7538Z" fill="#D4533A"/>
<path d="M34.8443 32.7426V32.7416V32.7426ZM34.8443 32.7316C34.8443 32.7316 34.8434 32.7307 34.8434 32.7298C34.8434 32.7307 34.8443 32.7316 34.8443 32.7316ZM34.8434 32.7206V32.7197V32.7206ZM34.8425 32.6996V32.6987V32.6996Z" fill="#F3C2AE"/>
<path d="M27.7229 33.9398C26.8805 33.9398 26.1277 33.873 25.7418 33.6608C25.6375 33.6032 25.5927 33.4962 25.6018 33.3928C26.0153 33.4952 26.5851 33.5309 27.2016 33.5309C27.9104 33.5309 28.6814 33.4843 29.351 33.4367C30.0205 33.3901 30.5894 33.3434 30.8921 33.3434C30.8931 33.3434 30.8931 33.3434 30.894 33.3434H30.947L30.9571 33.7696C30.6598 33.787 30.2885 33.8163 29.8787 33.8446C29.2065 33.8922 28.4327 33.9398 27.7229 33.9398ZM34.3294 33.6462L34.5974 32.0803C34.7401 32.2449 34.8306 32.4599 34.8425 32.6986V32.6995C34.8425 32.7022 34.8434 32.7059 34.8434 32.7096C34.8434 32.7132 34.8434 32.716 34.8434 32.7196V32.7205C34.8434 32.7242 34.8434 32.7269 34.8434 32.7297C34.8434 32.7306 34.8443 32.7315 34.8443 32.7315C34.8443 32.7352 34.8443 32.7379 34.8443 32.7416V32.7425C34.8443 32.7461 34.8443 32.7489 34.8443 32.7526C34.8443 33.1422 34.6349 33.4797 34.3294 33.6462Z" fill="#C9432E"/>
<path d="M90.0953 34.7017C89.6728 34.7017 89.2529 34.6331 88.8532 34.4986L87.3898 34.0047C86.7239 33.7797 86.1313 33.3791 85.6748 32.844L83.745 30.5812C83.434 30.2172 82.866 30.2364 82.5806 30.6205L81.601 31.9385L71.3853 30.9169C69.6228 30.7413 67.842 30.9205 66.149 31.4437L64.5666 31.934L64.7368 31.7712L64.4377 28.0806C64.3947 27.551 64.4404 27.0168 64.5731 26.5028C64.6819 26.0821 64.7322 25.6485 64.724 25.2141L64.659 22.0201C64.691 21.6872 64.7167 21.3543 64.7295 21.0204H64.6389L64.6014 19.1491H60.9547V36.7468H69.5954C71.582 36.7468 73.5659 36.5868 75.5269 36.2694L83.1376 35.0364L87.4227 36.0572C88.2066 36.2438 89.0096 36.338 89.8154 36.338H91.0191V35.6255C91.0191 35.116 90.6057 34.7017 90.0953 34.7017Z" fill="#D4533A"/>
<path d="M75.322 31.3111L71.3853 30.9169C69.6228 30.7413 67.842 30.9205 66.149 31.4437L64.5666 31.934L64.7368 31.7712L64.4377 28.0806C64.3947 27.551 64.4404 27.0168 64.5731 26.5028C64.6819 26.0821 64.7322 25.6485 64.724 25.2141L64.659 22.0201C64.691 21.6872 64.7167 21.3543 64.7295 21.0204H64.6389L64.6014 19.1491H60.9547V36.7468H69.5954C71.5134 36.7468 73.4268 36.595 75.322 36.2987V34.9102L70.8274 33.787L75.322 32.8697V31.3111Z" fill="#0F0F0F"/>
<path d="M74.0726 35.1627L73.9866 35.1444C73.8805 35.0968 73.833 34.9715 73.8805 34.8663L74.9808 32.4215C75.0284 32.3154 75.1537 32.2687 75.2598 32.3154C75.365 32.3629 75.4125 32.4883 75.365 32.5943L74.2647 35.0392L74.0726 35.1627Z" fill="#0F0F0F"/>
<path d="M75.0979 35.1937C75.0137 35.1937 74.9332 35.1416 74.9012 35.0584L73.9509 32.5513C73.9098 32.4425 73.9637 32.3208 74.0726 32.2806C74.1814 32.2385 74.3031 32.2934 74.3442 32.4022L75.2945 34.9093C75.3366 35.0172 75.2817 35.1389 75.1729 35.18L75.0979 35.1937Z" fill="#0F0F0F"/>
<path d="M72.8643 35.2504L72.7784 35.2321C72.6723 35.1837 72.6247 35.0593 72.6723 34.9532L73.7726 32.5083C73.8201 32.4022 73.9455 32.3556 74.0506 32.4031C74.1577 32.4507 74.2043 32.5751 74.1567 32.6812L73.0564 35.126L72.8643 35.2504Z" fill="#0F0F0F"/>
<path d="M73.8897 35.2806C73.8046 35.2806 73.725 35.2294 73.693 35.1453L72.7427 32.6382C72.7006 32.5294 72.7555 32.4087 72.8643 32.3675C72.9732 32.3254 73.0948 32.3803 73.136 32.4891L74.0863 34.9962C74.1275 35.1041 74.0735 35.2258 73.9646 35.2669L73.8897 35.2806Z" fill="#0F0F0F"/>
<path d="M71.7055 35.2504L71.6195 35.2321C71.5134 35.1837 71.4658 35.0593 71.5134 34.9532L72.6137 32.5083C72.6622 32.4022 72.7866 32.3556 72.8927 32.4031C72.9988 32.4507 73.0454 32.5751 72.9979 32.6812L71.8976 35.126L71.7055 35.2504Z" fill="#0F0F0F"/>
<path d="M72.7317 35.2806C72.6466 35.2806 72.5661 35.2294 72.5341 35.1453L71.5838 32.6382C71.5426 32.5294 71.5966 32.4087 71.7055 32.3675C71.8143 32.3254 71.9359 32.3803 71.9771 32.4891L72.9274 34.9962C72.9695 35.1041 72.9146 35.2258 72.8058 35.2669L72.7317 35.2806Z" fill="#0F0F0F"/>
<path d="M32.2934 8.26659L36.5657 14.6755L38.5331 13.3145L40.8005 13.6767C41.7627 13.8313 42.7441 13.5596 43.4905 12.9331L44.6603 11.9526L51.4689 12.6331L55.1229 17.6765L63.5066 11.9425L54.2925 4.02171C50.9933 1.4168 46.9131 1.14441e-05 42.7094 1.14441e-05C39.5667 1.14441e-05 36.52 1.0802 34.0788 3.05858L32.9455 3.9778C31.6531 5.02416 31.3705 6.88273 32.2934 8.26659Z" fill="#F0724E"/>
<path d="M31.976 5.52368L29.1525 11.2695L32.287 13.6091L32.7772 13.2753L33.9471 13.6832L33.9361 13.3686C33.9178 12.8326 34.1757 12.324 34.6193 12.0222L36.605 8.15237L31.976 5.52368Z" fill="#F0724E"/>
<path d="M31.8498 11.2529C31.6979 11.2054 31.5397 11.1724 31.3787 11.1551C31.5452 11.1029 31.7071 11.07 31.8662 11.0526L31.8498 11.2529Z" fill="#D3583A"/>
<path d="M27.0342 14.4194C29.3638 13.631 30.6854 11.3114 29.9839 9.23886C29.2833 7.16536 26.8256 6.1245 24.4951 6.91292C22.1637 7.70043 20.8429 10.02 21.5445 12.0935C22.2451 14.1661 24.7027 15.2069 27.0342 14.4194Z" fill="#682B22"/>
<path d="M25.3229 8.04529L25.2332 8.02151L25.1765 7.78646C25.4198 7.38584 25.4829 6.99711 25.3659 6.63217C25.096 5.79892 23.9793 5.31783 23.9674 5.31325C23.8805 5.27667 23.8402 5.17606 23.8768 5.08917C23.9134 5.00228 24.014 4.96203 24.1009 4.9977C24.1521 5.01966 25.3713 5.54374 25.6896 6.52607C25.8406 6.9898 25.7656 7.47364 25.4683 7.96389L25.3229 8.04529Z" fill="#682B22"/>
<path d="M30.0863 10.8231C30.0022 10.8231 29.9281 10.7599 29.9171 10.674C29.9052 10.5807 29.9711 10.4947 30.0653 10.4828C30.5299 10.4234 30.8729 10.2304 31.0842 9.91024C31.5681 9.18036 31.247 8.00685 31.2443 7.99496C31.2187 7.90441 31.2708 7.81022 31.3623 7.78461C31.4556 7.75717 31.547 7.81203 31.5726 7.90258C31.5882 7.95654 31.9394 9.23522 31.3696 10.0977C31.1016 10.5047 30.6772 10.7481 30.1083 10.8221L30.0863 10.8231Z" fill="#682B22"/>
<path d="M29.9482 10.6072C29.8604 10.6072 29.7854 10.5395 29.7781 10.4508C29.7708 10.3566 29.8403 10.2742 29.9345 10.2669C30.5044 10.2194 30.8876 10.0245 31.0751 9.68612C31.5022 8.91325 30.8428 7.62086 30.8355 7.60805C30.7925 7.52482 30.8254 7.42146 30.9086 7.37756C30.9928 7.33548 31.0961 7.3675 31.1391 7.45073C31.1702 7.51019 31.8891 8.92057 31.3733 9.8526C31.1272 10.2962 30.6525 10.5505 29.962 10.6063L29.9482 10.6072Z" fill="#682B22"/>
<path d="M24.936 19.0686C27.1229 18.872 28.6842 16.3558 28.4235 13.4472C28.1629 10.5396 26.1781 8.34076 23.9912 8.53741C21.8042 8.73314 20.2429 11.2502 20.5036 14.1579C20.7652 17.0665 22.75 19.2644 24.936 19.0686Z" fill="#682B22"/>
<path d="M21.1064 14.0481C20.8676 11.3929 22.1509 9.07065 24.0405 8.53649L23.9912 8.53741C21.8042 8.73314 20.2429 11.2502 20.5036 14.1579C20.7652 17.0665 22.75 19.2644 24.936 19.0686C25.1262 19.0512 25.3092 19.011 25.4893 18.9598C23.3216 19.1189 21.3643 16.9348 21.1064 14.0481Z" fill="#B14B3C"/>
<path d="M23.65 11.3966C25.3265 10.8295 26.2522 9.08434 25.7153 7.49834C25.1793 5.91235 23.3847 5.08643 21.7073 5.65442C20.0307 6.22151 19.106 7.96664 19.6429 9.55263C20.1789 11.1386 21.9725 11.9646 23.65 11.3966Z" fill="#682B22"/>
<path d="M23.8421 10.9786C22.1646 11.5457 20.371 10.7197 19.835 9.13374C19.6109 8.47428 19.6448 7.7883 19.8752 7.16908C19.4783 7.88617 19.3676 8.73951 19.6429 9.55263C20.1789 11.1386 21.9725 11.9646 23.65 11.3966C24.6296 11.0655 25.3494 10.331 25.6741 9.463C25.2963 10.1444 24.6598 10.7014 23.8421 10.9786Z" fill="#B14B3C"/>
<path d="M23.9802 18.217C23.8009 18.217 23.6509 18.078 23.6408 17.896C23.6299 17.7076 23.7735 17.5466 23.961 17.5356C23.9738 17.5347 25.3293 17.4378 26.1653 16.2643C26.9875 15.1109 27.0717 13.3264 26.415 10.9621C26.3647 10.781 26.4708 10.5926 26.6528 10.5423C26.8348 10.4938 27.0223 10.5981 27.0735 10.7801C27.7897 13.3594 27.668 15.3414 26.7141 16.6713C25.6823 18.1091 24.0671 18.2134 23.9994 18.217H23.9802Z" fill="#682B22"/>
<path d="M25.8177 13.556L26.4543 13.0283C26.4543 13.0283 27.5893 11.9947 26.9308 10.5414L25.8424 10.2843L24.8189 9.99807L24.2911 10.6548L24.5765 12.2216L25.7921 13.4124L25.8177 13.556Z" fill="#682B22"/>
<path d="M23.9098 16.1454C23.9098 16.1454 25.1976 18.0231 27.9296 17.5118C28.1638 17.4688 28.4053 17.4853 28.6321 17.5603L30.3717 18.132C30.4879 18.1704 30.616 18.1448 30.7083 18.0652C30.8035 17.9847 30.8474 17.8594 30.8254 17.7368L30.7724 17.4487L30.798 17.3408L30.8721 17.2438L31.0971 17.2018L31.3303 17.3463L31.5489 17.1121L31.8992 17.0755L32.1032 17.0737C32.341 17.071 32.426 16.8624 32.6126 16.7152L33.4678 16.7097C34.119 16.5871 34.5425 15.9524 34.4044 15.3039L34.313 14.8758C34.1648 14.1807 33.9142 13.5121 33.5693 12.891L33.3215 12.4456C32.8971 11.6837 32.1123 11.1926 31.2416 11.1432L30.1385 11.0801C29.7717 9.06601 27.6324 7.89068 25.7473 8.69008C24.4595 9.23704 23.3153 10.1508 23.2082 11.6764C23.2082 11.6764 22.8396 14.2969 23.9098 16.1454Z" fill="#F0724E"/>
<path d="M31.2745 16.0512C31.279 16.2167 31.2717 16.7033 31.055 17.0811C31.055 17.0811 30.8446 17.2649 31.0495 17.4826C31.0495 17.4826 31.333 17.5695 31.5662 17.2064C31.5662 17.2064 31.9394 17.2987 32.0629 17.2183C32.0629 17.2183 32.297 17.1835 32.0574 16.8268C32.0574 16.8268 31.6915 16.1929 31.3275 16.0164L31.2745 16.0512Z" fill="#B73C2B"/>
<path d="M30.6744 18.0908C30.6863 18.0834 30.6973 18.0743 30.7083 18.0651C30.7869 17.9984 30.8308 17.9005 30.8308 17.7999C30.8308 17.9005 30.7869 17.9984 30.7083 18.0651C30.6973 18.0743 30.6863 18.0834 30.6744 18.0908Z" fill="#DEBAA1"/>
<path d="M30.4833 18.1476C30.4513 18.1476 30.4193 18.1439 30.3882 18.1348L30.3626 18.1284C30.3626 18.1284 30.4303 18.0479 30.1156 17.683C30.1156 17.683 29.8367 17.4552 30.0626 16.9842C30.1028 16.9 30.112 16.8003 30.08 16.7116L29.9583 16.5671C29.9583 16.5671 30.101 16.4893 30.2547 16.4893C30.3836 16.4893 30.5199 16.5442 30.5858 16.7445C30.5858 16.7445 30.7449 17.1643 30.7723 17.4488L30.7751 17.4643L30.8254 17.7369C30.8291 17.7579 30.8309 17.779 30.8309 17.8C30.8309 17.9006 30.787 17.9985 30.7083 18.0653C30.6973 18.0744 30.6864 18.0836 30.6745 18.0909C30.6178 18.1284 30.551 18.1476 30.4833 18.1476Z" fill="#D3583A"/>
<path d="M28.1976 16.8789C28.0412 16.7829 27.9479 16.631 27.8784 16.4756L27.7979 16.2332L27.7723 16.1088L27.7622 16.0457L27.754 15.9899C27.7302 15.8371 27.6991 15.6853 27.657 15.5417L27.5775 15.3405L27.454 15.2152L27.4403 15.2106L27.4037 15.1392L27.4613 15.1008L27.5409 15.1091L27.6131 15.1411L27.6735 15.1868L27.722 15.238L27.8573 15.4685C27.925 15.6268 27.9625 15.7896 27.9872 15.9551C28.001 16.0429 28.0037 16.1097 28.0192 16.1874L28.065 16.4106C28.1025 16.5551 28.1537 16.7033 28.2378 16.8258L28.2415 16.8313L28.2333 16.878L28.1976 16.8789Z" fill="#682B22"/>
<path d="M28.2543 16.2735C28.4043 16.246 28.536 16.2836 28.5497 16.3576C28.5635 16.4317 28.4528 16.515 28.3028 16.5415C28.1537 16.5689 28.0211 16.5305 28.0083 16.4564C27.9945 16.3823 28.1052 16.3 28.2543 16.2735Z" fill="#682B22"/>
<path d="M28.6668 16.5213L28.6695 16.5341L28.6439 16.5662L28.6119 16.5415C28.6119 16.5396 28.5964 16.4152 28.5058 16.3595C28.4482 16.3238 28.3704 16.3219 28.2744 16.3558L28.2378 16.3384L28.2552 16.3018C28.3686 16.2625 28.4628 16.2652 28.5369 16.311C28.632 16.3704 28.6604 16.4838 28.6668 16.5213Z" fill="#682B22"/>
<path d="M27.0003 17.1798C26.9034 17.1286 26.8567 17.0554 26.8238 16.9767L26.7433 16.7325C26.6948 16.5706 26.6647 16.4023 26.6445 16.2349C26.6262 16.0666 26.6208 15.8974 26.6354 15.73C26.6464 15.5627 26.6784 15.398 26.7241 15.2389L26.7598 15.2188L26.7808 15.2453V15.2462C26.7891 15.409 26.7927 15.5682 26.8201 15.7246C26.8421 15.88 26.8732 16.0337 26.9153 16.1837C26.9546 16.3346 27.0058 16.481 27.0625 16.6246L27.1558 16.8349C27.186 16.9035 27.208 16.9795 27.1897 17.07L27.1851 17.092L27.0342 17.1917L27.0003 17.1798Z" fill="#682B22"/>
<path d="M30.5044 17.5978C30.4486 17.5191 30.4092 17.435 30.3909 17.3408C30.3726 17.2502 30.3736 17.1405 30.4047 17.0563L30.4019 16.8331L30.2464 16.6639L30.2391 16.6365L30.2592 16.6264C30.3498 16.6402 30.4476 16.696 30.4961 16.7911C30.5473 16.8862 30.54 16.995 30.5098 17.0893C30.4769 17.1697 30.4586 17.2438 30.4696 17.327L30.5556 17.5585L30.5565 17.5612L30.5483 17.606L30.5044 17.5978Z" fill="#682B22"/>
<path d="M23.7945 18.089C25.7592 17.9125 27.1503 15.5261 26.9025 12.7593C26.6537 9.99162 24.8601 7.89068 22.8954 8.06721C20.9317 8.24373 19.5405 10.63 19.7884 13.3968C20.0371 16.1646 21.8308 18.2646 23.7945 18.089Z" fill="#682B22"/>
<path d="M23.9683 17.8795C22.0073 18.0551 20.2064 15.8518 19.9466 12.9587C19.8771 12.1785 19.9292 11.4313 20.0765 10.748C19.8158 11.5365 19.7024 12.4429 19.7884 13.3968C20.0371 16.1646 21.8308 18.2646 23.7945 18.089C24.8015 17.9984 25.6549 17.3252 26.2174 16.3201C25.6631 17.2109 24.8802 17.7981 23.9683 17.8795Z" fill="#B14B3C"/>
<path d="M24.5655 15.1685C24.5655 15.1685 25.1719 15.2801 25.7143 14.0106C25.7143 14.0106 26.0875 13.4088 26.575 13.5011C26.575 13.5011 27.8537 13.9603 28.1034 13.2084C28.1034 13.2084 28.3695 12.6212 27.9625 12.4438C27.9625 12.4438 26.8439 12.1694 27.0762 11.2282C27.0762 11.2282 27.2601 10.2413 28.6485 10.4133C28.6485 10.4133 29.372 10.4874 29.7324 11.0801C29.7324 11.0801 31.3165 11.3453 31.4757 9.22792C31.4757 9.22792 30.5373 6.59281 26.6903 7.10958C25.0924 7.32452 23.6966 8.33888 23.0591 9.81969C22.6978 10.6602 22.4829 11.7596 22.6356 13.1746C22.6356 13.1746 22.782 14.9673 23.8155 15.2682C23.8155 15.2682 24.0149 15.4045 24.5655 15.1685Z" fill="#682B22"/>
<path d="M28.1464 12.0716C27.9891 12.0149 27.4659 11.7954 27.5327 11.3746C27.5327 11.3746 27.6671 10.7499 28.3065 10.7499C28.5141 10.7499 28.7757 10.8158 29.1022 10.9914C29.1022 10.9914 29.7946 11.3188 29.7123 11.5969L29.6894 11.6737L29.5266 11.628C29.3885 11.5987 29.2522 11.585 29.1232 11.585C28.6495 11.585 28.2607 11.7716 28.1464 12.0716Z" fill="#BE462D"/>
<path d="M29.993 11.5182C30.1092 11.4971 30.2208 11.574 30.2409 11.6901C30.2629 11.8063 30.1851 11.9179 30.069 11.9389C29.9537 11.96 29.8421 11.8831 29.8211 11.767C29.8001 11.6508 29.8769 11.5392 29.993 11.5182Z" fill="#923C1D"/>
<path d="M35.5175 14.0326C35.308 14.0326 35.0986 14.0024 34.8946 13.9402C34.3248 13.7673 33.8483 13.3622 33.5858 12.828L31.9165 9.42645L31.9339 9.31944C32.3364 6.77033 33.8538 4.57517 36.0974 3.29924L40.0688 1.04007C40.2307 0.945861 40.4401 1.00347 40.5334 1.16811C40.6267 1.33183 40.5691 1.54038 40.4054 1.63367L36.4349 3.89284C34.4044 5.04804 33.0205 7.02183 32.6254 9.32034L34.1986 12.5271C34.3806 12.8975 34.698 13.1673 35.0931 13.2872C35.4873 13.4061 35.9017 13.3585 36.2584 13.1509L38.8441 11.6472C39.0069 11.553 39.2154 11.6079 39.3105 11.7707C39.4066 11.9335 39.3508 12.1429 39.188 12.2372L36.6014 13.7408C36.2703 13.9338 35.8952 14.0326 35.5175 14.0326Z" fill="white"/>
<path d="M45.5887 0.226933C44.6402 0.0787611 43.6789 0.000103951 42.7094 0.000103951L42.607 0.00468159V13.4655C42.9234 13.3356 43.2225 13.1582 43.4905 12.9332L44.6603 11.9527L45.5887 12.0451V0.226933Z" fill="#0F0F0F"/>
<path d="M38.5331 13.3146L40.8005 13.6768C41.7627 13.8313 42.7441 13.5597 43.4905 12.9331L44.4417 12.1365V0.0832853C43.8673 0.0293207 43.2902 6.00815e-05 42.7094 6.00815e-05C41.6456 6.00815e-05 40.5911 0.123536 39.5685 0.364088" fill="white"/>
<path d="M90.9798 37.4182C90.5572 37.4182 90.1374 37.3496 89.7368 37.2142L88.2743 36.7203C87.6075 36.4953 87.0148 36.0947 86.5584 35.5596L84.6285 33.2968C84.3184 32.9328 83.7495 32.952 83.4641 33.3361L82.4855 34.655L72.2689 33.6334C70.5063 33.4568 68.7255 33.6361 67.0334 34.1593L65.4511 34.6495L65.6212 34.4877L65.3212 30.7961C65.2782 30.2666 65.324 29.7324 65.4566 29.2175C65.5654 28.7976 65.6167 28.3641 65.6075 27.9297L65.5435 24.7357C65.5746 24.4028 65.5096 24.0698 65.5234 23.736L65.4749 21.3332L65.6413 20.7588C66.6658 17.2265 65.4593 13.481 62.4812 10.9456L54.2924 4.02172L51.5183 12.6157L55.1229 17.6765L55.3671 22.1793C55.5482 25.5168 56.3001 28.7958 57.5778 31.912C57.9821 33.4898 58.4815 35.0438 59.0824 36.563L59.6907 38.0996C60.0163 38.9219 60.8102 39.4624 61.6956 39.4624H70.4789C72.4655 39.4624 74.4494 39.3033 76.4104 38.9859L84.0221 37.752L88.3063 38.7728C89.0901 38.9593 89.8932 39.0536 90.699 39.0536H91.9027V38.341C91.9027 37.8316 91.4892 37.4182 90.9798 37.4182Z" fill="#F0724E"/>
<path d="M51.5183 12.6157L55.1229 17.6765L55.3671 22.1793C55.5482 25.5168 56.3001 28.7958 57.5778 31.912C57.9821 33.4898 58.4815 35.0438 59.0824 36.563L59.6907 38.0996C60.0163 38.9219 60.8102 39.4624 61.6956 39.4624H70.4789C72.3969 39.4624 74.3113 39.3106 76.2055 39.0142V37.6258L71.7109 36.5026L76.2055 35.5852V34.0267L72.2689 33.6334C70.5063 33.4568 68.7255 33.6361 67.0334 34.1593L65.4511 34.6495L65.6212 34.4877L65.3212 30.7961C65.2782 30.2666 65.324 29.7324 65.4566 29.2175C65.5654 28.7976 65.6167 28.3641 65.6075 27.9296L65.5435 24.7357C65.5746 24.4028 65.5096 24.0698 65.5234 23.736L65.4749 21.3332L65.6413 20.7588C66.6657 17.2265 65.4593 13.481 62.4812 10.9456L56.5452 5.92693" fill="#0F0F0F"/>
<path d="M52.336 13.7628L57.7516 6.94682L57.4013 6.65047L52.0589 13.3749L52.336 13.7628Z" fill="#0F0F0F"/>
<path d="M74.9561 37.8792L74.8701 37.8599C74.764 37.8124 74.7165 37.688 74.7649 37.5819L75.8643 35.137C75.9128 35.0309 76.0372 34.9843 76.1433 35.0309C76.2494 35.0794 76.2961 35.2038 76.2485 35.3099L75.1491 37.7547L74.9561 37.8792Z" fill="#0F0F0F"/>
<path d="M75.9824 37.9094C75.8973 37.9094 75.8177 37.8581 75.7848 37.774L74.8345 35.267C74.7933 35.1581 74.8482 35.0374 74.957 34.9962C75.065 34.9542 75.1866 35.009 75.2278 35.1179L76.179 37.6249C76.2202 37.7328 76.1653 37.8545 76.0565 37.8957L75.9824 37.9094Z" fill="#0F0F0F"/>
<path d="M73.7479 37.9661L73.6619 37.9469C73.5558 37.9002 73.5082 37.7749 73.5558 37.6688L74.657 35.224C74.7046 35.1188 74.829 35.0712 74.9351 35.1188C75.0412 35.1663 75.0878 35.2916 75.0403 35.3968L73.94 37.8417L73.7479 37.9661Z" fill="#0F0F0F"/>
<path d="M74.7732 37.9971C74.689 37.9971 74.6085 37.945 74.5774 37.8609L73.6262 35.3538C73.585 35.2459 73.6399 35.1242 73.7479 35.0822C73.8567 35.041 73.9783 35.0959 74.0195 35.2047L74.9707 37.7109C75.0119 37.8206 74.957 37.9413 74.8482 37.9825L74.7732 37.9971Z" fill="#0F0F0F"/>
<path d="M72.589 37.9661L72.503 37.9469C72.3969 37.9002 72.3503 37.7749 72.3978 37.6688L73.4972 35.224C73.5457 35.1188 73.6701 35.0712 73.7762 35.1188C73.8823 35.1663 73.9299 35.2916 73.8814 35.3968L72.782 37.8417L72.589 37.9661Z" fill="#0F0F0F"/>
<path d="M73.6152 37.9971C73.5302 37.9971 73.4506 37.945 73.4186 37.8609L72.4674 35.3538C72.4262 35.2459 72.4811 35.1242 72.5899 35.0822C72.6978 35.041 72.8195 35.0959 72.8607 35.2047L73.8119 37.7109C73.853 37.8206 73.7981 37.9413 73.6893 37.9825L73.6152 37.9971Z" fill="#0F0F0F"/>
<path d="M33.3416 28.2013L32.5422 28.1382C31.4346 28.0513 30.6004 27.0735 30.6882 25.9659L32.0108 9.21233C32.0986 8.10469 33.0763 7.27054 34.1831 7.35834L34.9834 7.42147C36.0901 7.50928 36.9242 8.48612 36.8364 9.59375L35.5139 26.3473C35.4261 27.4549 34.4492 28.2891 33.3416 28.2013Z" fill="#F0724E"/>
<path d="M36.2346 17.2201L36.4495 14.5009L36.2346 17.2201Z" fill="#AE3623"/>
<path d="M36.4496 14.5009L36.5053 13.7938L36.4496 14.5009ZM36.5703 12.9688L36.8081 9.96237C36.8072 9.97243 36.8063 9.9825 36.8054 9.99348L36.5703 12.9688Z" fill="#D3583A"/>
<path d="M36.5053 13.7938L36.5702 12.9688L36.5053 13.7938Z" fill="#DEC2B3"/>
<path d="M35.5559 25.8113C35.4773 25.2433 35.1983 24.7247 34.7812 24.3461L35.9236 9.88371C36.0132 8.74589 35.2898 7.72423 34.2452 7.38947C34.3047 7.38581 34.3632 7.38398 34.4227 7.38398C34.4757 7.38398 34.5297 7.38581 34.5837 7.39038C35.8998 7.49374 36.894 8.64801 36.8081 9.96236L36.5703 12.9688L36.5053 13.7938L36.4495 14.5008L36.2346 17.2201L35.5559 25.8113Z" fill="#D3583A"/>
<path d="M30.7723 25.73L31.0705 38.7271C31.0568 38.8112 31.0394 38.899 31.0202 38.9914L33.3461 39.3893L35.544 26.5468C35.7681 25.2342 34.8782 23.9766 33.5666 23.7525C32.254 23.5284 30.9964 24.4175 30.7723 25.73Z" fill="#F0724E"/>
<path d="M34.5974 32.0794L35.544 26.5467C35.545 26.5431 35.545 26.5385 35.5459 26.5348C35.545 26.5385 35.545 26.5431 35.544 26.5467L34.5974 32.0794Z" fill="#AE3623"/>
<path d="M33.3672 39.2657C33.2062 38.9804 32.9346 38.7737 32.6154 38.7096L34.945 24.5125C35.4242 25.0412 35.6694 25.7729 35.5468 26.5266C35.5468 26.5275 35.5468 26.5284 35.5468 26.5284C35.5468 26.5311 35.5459 26.533 35.5459 26.5348C35.545 26.5385 35.545 26.543 35.5441 26.5467L34.5974 32.0794L34.3294 33.6462L34.2279 34.2379L33.3672 39.2657Z" fill="#D3583A"/>
<path d="M32.4653 38.6905V38.685C31.0842 38.6356 28.7757 38.2652 27.0763 38.6237L22.8378 40.3378C22.5799 40.4421 22.5478 40.8052 22.7921 40.9387C24.0158 41.6119 28.3558 41.0448 29.4955 41.0448L32.3364 41.0457L32.4059 41.053C33.0233 41.053 33.5236 40.5226 33.5236 39.8686C33.5236 39.2357 33.0544 38.7244 32.4653 38.6905Z" fill="#F0724E"/>
<path d="M33.3333 40.5307C33.4532 40.3414 33.5236 40.1136 33.5236 39.8685C33.5236 40.1136 33.4532 40.3414 33.3333 40.5307ZM33.5236 39.8566C33.5236 39.8566 33.5236 39.8557 33.5236 39.8548C33.5236 39.8557 33.5236 39.8566 33.5236 39.8566ZM33.5236 39.8438C33.5236 39.8429 33.5236 39.8429 33.5236 39.842C33.5236 39.8429 33.5236 39.8429 33.5236 39.8438Z" fill="#C17123"/>
<path d="M25.129 41.2679C24.1357 41.2679 23.2475 41.1893 22.792 40.9387C22.6686 40.871 22.6164 40.7448 22.6274 40.624C23.1149 40.7438 23.7863 40.7859 24.5143 40.7859C25.3494 40.7859 26.2576 40.731 27.0479 40.6753C27.8372 40.6204 28.5077 40.5655 28.8653 40.5655H28.8662H31.7071L31.7766 40.5728C32.394 40.5728 32.8943 40.0423 32.8943 39.3893C32.8943 39.146 32.8239 38.9219 32.7059 38.7344C33.165 38.8697 33.5071 39.3042 33.5236 39.8301C33.5236 39.8347 33.5236 39.8384 33.5236 39.842C33.5236 39.8429 33.5236 39.8429 33.5236 39.8439C33.5236 39.8475 33.5236 39.8512 33.5236 39.8548C33.5236 39.8557 33.5236 39.8567 33.5236 39.8567C33.5236 39.8603 33.5236 39.8649 33.5236 39.8686C33.5236 40.1137 33.4531 40.3414 33.3333 40.5308C33.1321 40.8454 32.7919 41.053 32.4059 41.053L32.3364 41.0457L29.4955 41.0448C28.7802 41.0448 26.8037 41.2679 25.129 41.2679Z" fill="#D3583A"/>
</svg>
