<svg width="115" height="23" viewBox="0 0 115 23" fill="none" xmlns="http://www.w3.org/2000/svg">
<path d="M114.781 22.1787H0L7.35353 11.8491H107.428L114.781 22.1787Z" fill="#7E315F"/>
<path d="M114.684 22.0427L30.1053 19.0867L40.245 19.0133C40.4451 19.0786 40.6551 19.1121 40.8677 19.1121C41.1471 19.1121 41.4305 19.0532 41.6997 18.929L42.0457 18.7703C42.0507 18.7676 42.056 18.7648 42.0609 18.763L48.0157 16.0183C48.0317 16.0111 48.0479 16.0038 48.0639 15.9956L48.1744 15.9449L48.5512 15.9113L49.2675 16.1525C49.333 16.1625 49.3978 16.167 49.4615 16.167C49.8359 16.167 50.1823 16.0065 50.4242 15.7427L53.8132 15.438C54.1866 15.4053 54.1667 14.8522 53.7916 14.8459L50.7859 14.796L50.793 14.738L53.3323 13.5674C53.8816 14.2792 54.7271 14.7389 55.6688 14.7797L61.9244 15.049L61.9155 15.6701C61.9151 15.6882 61.9151 15.7073 61.9151 15.7254C61.9133 17.285 62.7981 18.7131 64.2003 19.4068L65.0318 19.8176C65.5586 20.0778 66.1371 20.2129 66.7238 20.2129H69.7025H72.0618C72.8053 20.2129 73.5471 20.1213 74.2679 19.9391L78.5314 18.8637V18.5273L85.7845 15.7154L87.4629 16.5841C87.8002 16.828 88.201 16.9541 88.6045 16.9541C88.8294 16.9541 89.0542 16.9151 89.2709 16.8362L91.2077 16.7238C91.3356 16.6766 91.4453 16.5932 91.5242 16.4826C91.6085 16.3647 91.6502 16.2268 91.6493 16.0908C91.6493 15.9095 91.575 15.7309 91.4335 15.6003L88.2282 13.4087C87.9462 13.1466 87.5753 13.0025 87.1909 13.0025C86.7982 13.0025 86.421 12.8519 86.1363 12.5808L85.7927 12.2544L97.9032 11.8491H107.428L114.684 22.0427ZM78.3456 15.8868C78.3555 15.8859 78.3655 15.8859 78.3746 15.885C78.3655 15.8859 78.3555 15.8859 78.3456 15.8868ZM78.3846 15.885C78.3909 15.8841 78.3982 15.8841 78.4045 15.8832C78.3982 15.8841 78.3909 15.8841 78.3846 15.885ZM78.4154 15.8832C78.4217 15.8823 78.429 15.8823 78.4362 15.8814C78.429 15.8823 78.4217 15.8823 78.4154 15.8832ZM78.4444 15.8814C78.4525 15.8805 78.4607 15.8805 78.468 15.8796C78.4607 15.8805 78.4525 15.8805 78.4444 15.8814ZM78.4743 15.8796C78.4843 15.8787 78.4943 15.8778 78.5042 15.8778C78.4943 15.8778 78.4843 15.8787 78.4743 15.8796ZM78.5088 15.8769C78.5169 15.8769 78.5251 15.8759 78.5342 15.875C78.526 15.8759 78.5169 15.8769 78.5088 15.8769ZM78.5414 15.875C78.5487 15.8741 78.5568 15.8741 78.5641 15.8732C78.5568 15.8741 78.5487 15.8741 78.5414 15.875ZM78.5713 15.8732C78.5795 15.8723 78.5877 15.8714 78.5967 15.8714C78.5877 15.8714 78.5795 15.8723 78.5713 15.8732ZM78.6013 15.8705C78.6212 15.8687 78.6412 15.8678 78.662 15.866C78.6412 15.8678 78.6212 15.8687 78.6013 15.8705ZM78.6647 15.866C78.6738 15.8651 78.6829 15.8642 78.6919 15.8633C78.6829 15.8642 78.6738 15.8651 78.6647 15.866ZM78.6956 15.8633C78.7046 15.8624 78.7146 15.8614 78.7237 15.8605C78.7146 15.8614 78.7046 15.8624 78.6956 15.8633ZM78.7255 15.8605C82.0904 15.5658 83.8676 13.7106 84.7009 12.4475C83.8685 13.7106 82.0913 15.5649 78.7255 15.8605Z" fill="#54203F"/>
<path d="M41.1567 13.7451L40.8776 13.1394C40.4908 12.3007 40.8613 11.2987 41.6993 10.9125L54.3856 5.06486C55.2244 4.67949 56.2264 5.04854 56.6128 5.88729L56.8916 6.49298C57.2783 7.33082 56.9086 8.33278 56.0705 8.71996L43.3839 14.5667C42.5455 14.9538 41.5435 14.583 41.1567 13.7451Z" fill="#D4533A"/>
<path d="M42.5228 10.6114L31.9312 12.754L31.7081 12.7513L31.7226 14.7126L42.5518 14.6346C43.6583 14.6265 44.5569 13.7143 44.5491 12.608C44.5411 11.5018 43.6293 10.6032 42.5228 10.6114Z" fill="#D4533A"/>
<path d="M31.7322 14.7126C32.0988 14.6627 32.3991 14.3825 32.5037 14.0108L37.2842 13.9437C37.4635 14.2121 37.6664 14.4551 37.8906 14.6682L31.7322 14.7126Z" fill="#C9432E"/>
<path d="M31.6653 12.7277V12.7232C30.5176 12.6787 28.5997 12.3623 27.1857 12.6624L23.66 14.1023C23.4454 14.1903 23.4188 14.4959 23.6211 14.6092C24.3196 15.0009 26.2436 14.9003 27.6855 14.7996C28.3411 14.7543 28.8968 14.7089 29.193 14.7089L31.5548 14.7144L31.6122 14.7207C32.1254 14.7216 32.5419 14.2755 32.5433 13.7233C32.544 13.1892 32.1551 12.7567 31.6653 12.7277Z" fill="#D4533A"/>
<path d="M25.5933 14.8912C24.7552 14.8912 24.0039 14.8241 23.6211 14.6092C23.5693 14.5802 23.5325 14.5385 23.5102 14.4914C23.5325 14.5385 23.5693 14.5802 23.6211 14.6092C24.0039 14.8241 24.7552 14.8912 25.5933 14.8912C26.2843 14.8912 27.0337 14.845 27.6855 14.7997C28.3372 14.7543 28.8905 14.709 29.1876 14.709C29.1894 14.709 29.1911 14.709 29.193 14.709L31.5548 14.7144L31.6122 14.7208C31.6125 14.7208 31.6131 14.7208 31.6135 14.7208C31.6536 14.7208 31.6932 14.718 31.7322 14.7126C31.6932 14.718 31.6536 14.7208 31.6135 14.7208C31.6131 14.7208 31.6125 14.7208 31.6122 14.7208L31.5548 14.7144L29.193 14.709C29.1911 14.709 29.1894 14.709 29.1876 14.709C28.8905 14.709 28.3372 14.7543 27.6855 14.7997C27.0337 14.845 26.2843 14.8912 25.5933 14.8912Z" fill="#54203F"/>
<path d="M25.5933 14.8912C24.7552 14.8912 24.0039 14.8241 23.6211 14.6092C23.5693 14.5802 23.5325 14.5385 23.5102 14.4914C23.5098 14.4905 23.5091 14.4896 23.5087 14.4886C23.4879 14.4433 23.4801 14.3925 23.4847 14.3436C23.8963 14.4469 24.4654 14.4832 25.0814 14.4832C25.7707 14.4832 26.5177 14.4379 27.1669 14.3934C27.8155 14.3481 28.3666 14.3037 28.6641 14.3037C28.6662 14.3037 28.6684 14.3037 28.6705 14.3037L31.0323 14.3091L31.0897 14.3146C31.0904 14.3146 31.0908 14.3146 31.0914 14.3146C31.6036 14.3146 32.0195 13.8693 32.0208 13.3171C32.0212 13.1122 31.9632 12.9227 31.865 12.7649C32.2557 12.8828 32.5436 13.2645 32.5433 13.7234C32.5419 14.232 32.1887 14.65 31.7322 14.7126C31.6932 14.718 31.6536 14.7208 31.6135 14.7208C31.6131 14.7208 31.6125 14.7208 31.6122 14.7208L31.5548 14.7144L29.193 14.709C29.1911 14.709 29.1894 14.709 29.1876 14.709C28.8905 14.709 28.3372 14.7543 27.6855 14.7997C27.0337 14.845 26.2843 14.8912 25.5933 14.8912Z" fill="#C9432E"/>
<path d="M87.1908 13.0025C86.7982 13.0025 86.421 12.8519 86.1363 12.5808L85.1552 11.6496C84.6384 12.7241 82.824 15.6592 78.3455 15.8868L78.438 17.1426L74.1591 18.8636L78.5314 18.073V18.5272L85.7845 15.7154L87.4629 16.5841C87.987 16.9622 88.6643 17.0574 89.2709 16.8362L91.2077 16.7237C91.3356 16.6766 91.4453 16.5932 91.5242 16.4825C91.7209 16.2078 91.682 15.8288 91.4335 15.6003L88.2282 13.4087C87.9462 13.1466 87.5753 13.0025 87.1908 13.0025Z" fill="#F0724E"/>
<path d="M53.129 6.24444L46.708 8.88126L49.1512 12.4711L49.7856 12.2997L50.8653 13.1502L50.9676 12.8156C51.1429 12.2462 51.5977 11.8073 52.1722 11.6504L55.2279 10.8208L53.129 6.24444Z" fill="#F0724E"/>
<path d="M49.6956 9.95947C49.5122 9.80533 49.3078 9.67293 49.0865 9.56775C49.4559 9.57954 49.7878 9.65753 50.0839 9.78085L49.6956 9.95947Z" fill="#D3583A"/>
<path d="M43.3442 11.4211C46.0754 11.4374 48.3012 9.48158 48.3154 7.05241C48.3299 4.62233 46.1272 2.6411 43.396 2.62387C40.6651 2.60755 38.4393 4.56431 38.4247 6.99348C38.4106 9.42265 40.6126 11.4057 43.3442 11.4211Z" fill="#682B22"/>
<path d="M44.6863 2.86871C44.6211 3.29488 44.3848 3.68023 43.9828 4.01392L43.8358 4.00123L43.8493 3.85342C44.2697 3.50432 44.4889 3.09721 44.4964 2.64656C44.5155 1.63372 43.4887 0.700677 43.4788 0.691609L43.4707 0.543798L43.6177 0.535651C43.6626 0.576455 44.726 1.54122 44.705 2.64926L44.6863 2.86871Z" fill="#682B22"/>
<path d="M50.3474 6.50922C50.2762 6.97529 50.057 7.88838 49.407 8.38709C48.9979 8.70173 48.4879 8.79876 47.8896 8.67454L47.8089 8.55121L47.9321 8.46961C48.468 8.58024 48.9214 8.49772 49.2795 8.22207C50.0846 7.60458 50.1721 6.22177 50.1721 6.20727L50.2822 6.10935L50.3807 6.21906C50.3796 6.23448 50.3725 6.3451 50.3474 6.50922Z" fill="#682B22"/>
<path d="M50.0814 6.87559C50.0109 7.33441 49.8469 7.81679 49.4938 8.13506C49.0974 8.49231 48.5339 8.58028 47.8184 8.39712L47.743 8.27107L47.8701 8.19491C48.5133 8.35904 49.0131 8.28739 49.3539 7.98001C50.1157 7.29451 49.8855 5.65331 49.8834 5.63608L49.9712 5.51729L50.0899 5.60615C50.0959 5.64786 50.1791 6.23906 50.0814 6.87559Z" fill="#682B22"/>
<path d="M39.46 15.5404C41.8261 16.1271 44.3756 14.0506 45.1537 10.9042C45.9326 7.75781 44.6459 4.7329 42.2798 4.14714C39.9141 3.56139 37.3646 5.63785 36.5857 8.78425C35.8076 11.9307 37.0944 14.9556 39.46 15.5404Z" fill="#682B22"/>
<path d="M37.2573 8.88669C37.9681 6.01321 40.1553 4.04105 42.3315 4.16346L42.2794 4.14712C39.9141 3.56137 37.3646 5.63783 36.5857 8.78423C35.8075 11.9306 37.0944 14.9555 39.4604 15.5404C39.6658 15.5921 39.8727 15.6157 40.0799 15.6274C37.7479 15.0099 36.4844 12.0095 37.2573 8.88669Z" fill="#B14B3C"/>
<path d="M40.8868 7.02521C42.8522 7.03609 44.4539 5.53906 44.4653 3.68114C44.4762 1.82231 42.8919 0.306226 40.9264 0.295345C38.9613 0.283557 37.3593 1.7797 37.3483 3.63853C37.3373 5.49736 38.9213 7.01342 40.8868 7.02521Z" fill="#682B22"/>
<path d="M41.2395 6.65437C39.2748 6.64348 37.6901 5.1274 37.7011 3.26948C37.7061 2.49602 37.9887 1.78785 38.4552 1.22204C37.779 1.83046 37.354 2.68644 37.3483 3.63853C37.3373 5.49736 38.9213 7.01342 40.8868 7.02521C42.0344 7.03156 43.0559 6.52198 43.7111 5.72767C43.068 6.30618 42.1977 6.66071 41.2395 6.65437Z" fill="#B14B3C"/>
<path d="M44.3841 9.02275C44.0547 11.1735 43.2875 12.686 42.0957 13.5293C40.5578 14.6192 38.9015 14.1649 38.8318 14.145C38.7209 14.1132 38.655 14.0008 38.6883 13.8875C38.7194 13.7768 38.8346 13.7124 38.9458 13.7442C38.9611 13.7478 40.4879 14.1613 41.8597 13.1847C43.1869 12.2417 43.946 10.3557 44.1156 7.58012C44.1238 7.46134 44.2219 7.37702 44.3371 7.38427C44.4521 7.39153 44.5396 7.49036 44.5329 7.60552C44.5017 8.10513 44.4529 8.57754 44.3841 9.02275Z" fill="#682B22"/>
<path d="M42.3801 10.0755L43.2394 9.75088C43.2394 9.75088 44.8042 9.07808 44.6392 7.31446L43.59 6.65072L42.6202 5.97883L41.8286 6.47845L41.5608 8.22573L42.4049 9.915" fill="#682B22"/>
<path d="M39.4403 12.102C39.4403 12.102 40.1129 14.5394 43.1654 14.9909C43.4268 15.0308 43.6739 15.136 43.8847 15.2956L45.5034 16.5251C45.6114 16.6076 45.7548 16.6267 45.881 16.5777C46.0092 16.526 46.1017 16.4109 46.1222 16.2749L46.1718 15.953L46.2373 15.8505L46.3499 15.7743L46.6017 15.8115L46.7941 16.0482L47.1079 15.8813L47.4886 15.9702L47.7037 16.0409C47.9548 16.1244 48.1188 15.9366 48.3685 15.8496L49.2675 16.1525C49.9953 16.2604 50.6694 15.748 50.7586 15.0172L50.8181 14.5348C50.9141 13.7523 50.8932 12.9589 50.7551 12.1827L50.6566 11.626C50.4873 10.673 49.8416 9.87233 48.9462 9.50601L47.8106 9.04083C48.1549 6.79392 46.3354 4.78639 44.0675 4.94416C42.5175 5.05116 40.986 5.59613 40.3218 7.15754C40.3218 7.15754 38.9869 9.7753 39.4403 12.102Z" fill="#F0724E"/>
<path d="M48.0157 16.0183L48.0639 15.9956C48.0479 16.0038 48.0317 16.0111 48.0157 16.0183Z" fill="#D3583A"/>
<path d="M47.2043 14.6691C47.149 14.8441 46.9655 15.3509 46.601 15.6701C46.601 15.6701 46.3134 15.7871 46.4501 16.0899C46.4501 16.0899 46.7165 16.2831 47.0913 15.9866C47.0913 15.9866 47.4501 16.2187 47.6094 16.1788C47.6094 16.1788 47.8677 16.2259 47.7452 15.7653C47.7452 15.7653 47.59 14.9683 47.2723 14.6509L47.2043 14.6691Z" fill="#B73C2B"/>
<path d="M43.6754 14.4233C43.5461 14.2664 43.5028 14.0733 43.4866 13.8847C43.4792 13.7895 43.4809 13.6952 43.4898 13.6009L43.5078 13.4612L43.5195 13.3924L43.5312 13.3298C43.5613 13.162 43.584 12.9907 43.5922 12.8247C43.5957 12.7413 43.5935 12.6597 43.5815 12.5853L43.4969 12.4085L43.4844 12.3985L43.4721 12.3115L43.5465 12.2906L43.6269 12.3287L43.6916 12.3895L43.7377 12.4584L43.7703 12.53C43.8053 12.6271 43.8235 12.725 43.8287 12.8193C43.8422 13.0106 43.8224 13.1956 43.7887 13.3778C43.7713 13.4749 43.7505 13.5465 43.7381 13.6335C43.7225 13.7161 43.7126 13.8004 43.7055 13.8838C43.6927 14.0497 43.6934 14.2229 43.7363 14.3816L43.7384 14.3907L43.7129 14.4342L43.6754 14.4233Z" fill="#682B22"/>
<path d="M43.9541 13.8086C44.121 13.8331 44.246 13.922 44.2336 14.0045C44.2208 14.0879 44.0749 14.1332 43.9081 14.1078C43.7412 14.0824 43.6162 13.9945 43.6293 13.9111C43.6418 13.8286 43.7873 13.7832 43.9541 13.8086Z" fill="#682B22"/>
<path d="M44.2977 14.2184L44.2953 14.2329L44.257 14.2565L44.2325 14.2184C44.2329 14.2166 44.2616 14.0815 44.1868 13.9899C44.1394 13.9319 44.0579 13.9019 43.9449 13.9019L43.9131 13.8711L43.9445 13.8394C44.0777 13.8376 44.1758 13.8756 44.2364 13.95C44.3154 14.0479 44.304 14.1758 44.2977 14.2184Z" fill="#682B22"/>
<path d="M42.3096 14.3055C42.2263 14.2166 42.204 14.1241 42.1977 14.0289C42.1955 13.9337 42.1973 13.8385 42.2023 13.7451C42.2101 13.5565 42.2391 13.3697 42.2787 13.1857C42.3205 13.0025 42.3759 12.823 42.4509 12.6525C42.5242 12.4811 42.6174 12.3188 42.7226 12.1683L42.7665 12.161L42.7796 12.1964L42.7793 12.1982C42.7286 12.3714 42.6758 12.54 42.6475 12.7132C42.6139 12.8846 42.5916 13.0578 42.5816 13.2301C42.5675 13.4024 42.5689 13.5746 42.5763 13.746C42.5802 13.8313 42.588 13.9165 42.5976 14.0008C42.6046 14.0842 42.6 14.1704 42.548 14.2592L42.5355 14.2801L42.3411 14.3309L42.3096 14.3055Z" fill="#682B22"/>
<path d="M45.836 16.0128C45.8063 15.9094 45.7956 15.807 45.8101 15.7018C45.8232 15.6002 45.8643 15.486 45.9274 15.4098L46.0053 15.1741L45.9029 14.9392L45.9054 14.9075L45.9306 14.9048C46.0205 14.9519 46.103 15.0462 46.1194 15.1641C46.1381 15.282 46.0917 15.3935 46.0262 15.4805C45.9624 15.554 45.9164 15.6247 45.8983 15.7163C45.8791 15.8052 45.8806 15.904 45.9036 15.9901L45.9044 15.9929L45.8791 16.0373L45.836 16.0128Z" fill="#682B22"/>
<path d="M38.6167 14.0996C40.7419 14.6255 43.0654 12.6244 43.8068 9.63118C44.5474 6.63711 43.4249 3.78269 41.2998 3.25678C39.1746 2.73177 36.851 4.73204 36.1104 7.72611C35.3691 10.7211 36.4915 13.5737 38.6167 14.0996Z" fill="#682B22"/>
<path d="M38.8745 13.9427C36.7522 13.4177 35.6606 10.4545 36.4356 7.3235C36.6439 6.48023 36.9697 5.71404 37.3713 5.0503C36.8124 5.78295 36.3657 6.69331 36.1104 7.72609C35.3691 10.7211 36.4915 13.5737 38.6167 14.0996C39.7058 14.3689 40.8457 13.9727 41.7992 13.1212C40.8953 13.8557 39.8613 14.1867 38.8745 13.9427Z" fill="#B14B3C"/>
<path d="M40.483 11.3141C40.483 11.3141 41.0791 11.6514 42.1074 10.5152C42.1074 10.5152 42.7162 10.0183 43.1944 10.2913C43.1944 10.2913 44.3703 11.2361 44.9048 10.5379C44.9048 10.5379 45.3971 10.0174 45.0341 9.68376C45.0341 9.68376 43.9584 8.99011 44.5435 8.08699C44.5435 8.08699 45.0939 7.11857 46.4884 7.80226C46.4884 7.80226 47.2212 8.14048 47.3845 8.89308C47.3845 8.89308 48.9515 9.74542 49.8848 7.58011C49.8848 7.58011 49.853 4.4745 45.6292 3.62487C43.8744 3.27306 42.0422 3.83253 40.8376 5.15547C40.1536 5.90717 39.5302 6.98346 39.1788 8.52312C39.1788 8.52312 38.6837 10.4581 39.6595 11.1473C39.6595 11.1473 39.8192 11.363 40.483 11.3141Z" fill="#682B22"/>
<path d="M47.1249 9.50153L46.9702 9.39454C46.6482 9.20049 46.3092 9.10529 46.0163 9.10529C45.7392 9.10529 45.5034 9.19051 45.3617 9.36007C45.2165 9.244 44.7472 8.82327 44.9692 8.40617C44.9692 8.40617 45.2286 7.97819 45.7089 7.97819C45.9865 7.97819 46.3379 8.12146 46.7558 8.57211C46.7558 8.57211 47.3633 9.16693 47.177 9.42807L47.1249 9.50153Z" fill="#BE462D"/>
<path d="M47.4993 9.44713C47.6289 9.46799 47.7178 9.58949 47.698 9.71825C47.6781 9.84791 47.557 9.93677 47.4274 9.91682C47.2977 9.89778 47.2092 9.77628 47.229 9.64661C47.2485 9.51695 47.37 9.42809 47.4993 9.44713Z" fill="#923C1D"/>
<path d="M52.7624 12.3614L52.0351 9.20226C51.6037 7.32892 52.6855 5.44019 54.5184 4.86349L59.6678 3.24313C63.2275 2.12239 66.8807 1.32356 70.5829 0.85659L74.1292 0.408642C77.135 0.0296211 80.1672 0.889221 82.5257 2.79248L83.1839 3.32294C85.5406 5.22529 86.4047 8.42882 85.3239 11.2579C85.3239 11.2579 83.8341 15.6075 78.3456 15.8868L78.438 17.1426L74.1591 18.8636L78.5314 18.073V18.8636L74.2679 19.9391C73.5471 20.1213 72.8053 20.2129 72.0618 20.2129H66.7238C66.1371 20.2129 65.5586 20.0778 65.0318 19.8175L64.2003 19.4068C62.7815 18.705 61.8925 17.2515 61.9155 15.6701L61.9244 15.049L55.6688 14.7797C54.2666 14.7189 53.0775 13.7297 52.7624 12.3614Z" fill="#F0724E"/>
<path d="M63.3758 2.20037C62.2661 2.47602 61.1643 2.7816 60.0708 3.1171L59.3649 14.9392L61.9244 15.049L61.9155 15.6701C61.8925 17.2514 62.7815 18.705 64.1994 19.4068L65.0318 19.8175C65.5586 20.0778 66.1371 20.2129 66.7238 20.2129H69.0886L63.3758 2.20037Z" fill="white"/>
<path d="M63.3758 2.20037C62.8875 2.32187 62.4004 2.44881 61.9144 2.5812L67.6496 20.2129H69.0886L63.3758 2.20037Z" fill="#0F0F0F"/>
<path d="M85.3239 11.2579C86.4047 8.42882 85.5406 5.22529 83.184 3.32294L82.5257 2.79248C80.5426 1.19298 78.0835 0.340651 75.5646 0.332489L77.0335 0.94545C77.4334 1.11229 77.5603 1.61734 77.2874 1.95374L73.8046 6.24447C73.4319 6.70419 73.2288 7.27815 73.2288 7.86935C73.2288 8.55848 72.8244 9.18323 72.196 9.46705L64.4551 12.9544C63.4382 13.4114 62.5637 14.1359 61.9244 15.049L61.9155 15.6701C61.8925 17.2515 62.7815 18.705 64.2003 19.4068L65.0318 19.8175C65.5586 20.0778 66.1371 20.2129 66.7238 20.2129H72.0618C72.8053 20.2129 73.5471 20.1213 74.2679 19.9391L78.5314 18.8636V18.073L74.1591 18.8636L78.438 17.1426L78.3456 15.8868C83.8341 15.6075 85.3239 11.2579 85.3239 11.2579Z" fill="#0F0F0F"/>
<path d="M85.3239 11.2579C86.4047 8.42882 85.5406 5.22529 83.184 3.32294L82.5257 2.79248C80.5426 1.19298 78.0835 0.340651 75.5646 0.332489L77.0335 0.94545C77.4334 1.11229 77.5603 1.61734 77.2874 1.95374L73.8046 6.24447C73.4319 6.70419 73.2288 7.27815 73.2288 7.86935C73.2288 8.55848 72.8244 9.18323 72.196 9.46705L64.4551 12.9544C63.4382 13.4114 62.5637 14.1359 61.9244 15.049L61.9155 15.6701C61.8925 17.2515 62.7815 18.705 64.2003 19.4068L65.0318 19.8175C65.5586 20.0778 66.1371 20.2129 66.7238 20.2129H72.0618C72.8053 20.2129 73.5471 20.1213 74.2679 19.9391L78.5314 18.8636V18.073L74.1591 18.8636L78.438 17.1426L78.3456 15.8868C83.8341 15.6075 85.3239 11.2579 85.3239 11.2579Z" fill="#0F0F0F"/>
<path d="M77.1577 18.9226L77.1042 18.9235L77.0036 18.773L77.3237 17.1771L77.4742 17.0765L77.5748 17.2279L77.2547 18.8229L77.1577 18.9226Z" fill="#0F0F0F"/>
<path d="M77.7689 18.8019L77.6338 18.7475L76.7325 17.3938L76.7678 17.217L76.9446 17.2523L77.8468 18.6061L77.8115 18.7829L77.7689 18.8019Z" fill="#0F0F0F"/>
<path d="M76.4541 19.1375L76.4006 19.1384L76.2999 18.9879L76.62 17.392L76.7705 17.2923L76.8712 17.4428L76.5511 19.0387L76.4541 19.1375Z" fill="#0F0F0F"/>
<path d="M77.0652 19.0169L76.9301 18.9634L76.0288 17.6078L76.0642 17.431L76.241 17.4664L77.1432 18.8211L77.1078 18.9988L77.0652 19.0169Z" fill="#0F0F0F"/>
<path d="M75.7686 19.2943L75.7151 19.2952L75.6154 19.1447L75.9354 17.5488L76.086 17.4491L76.1857 17.5996L75.8656 19.1946L75.7686 19.2943Z" fill="#0F0F0F"/>
<path d="M76.3797 19.1738L76.2446 19.1194L75.3424 17.7647L75.3787 17.5879L75.5555 17.6242L76.4577 18.9779L76.4223 19.1547L76.3797 19.1738Z" fill="#0F0F0F"/>
<path d="M73.0493 8.6355C73.5144 8.49405 74.024 8.29003 74.024 7.68069C74.024 7.14208 74.2108 6.61528 74.5499 6.19818L78.0318 1.90745C78.2077 1.69074 78.2694 1.41146 78.2014 1.14125C78.1343 0.873762 77.952 0.661584 77.6991 0.551867C77.1568 0.445778 76.6064 0.379592 76.0506 0.354203L77.515 0.965349C77.6383 1.01794 77.7281 1.12221 77.7607 1.25187C77.7934 1.38244 77.7634 1.51574 77.6791 1.62092L74.1963 5.91165C73.7928 6.41036 73.5697 7.03781 73.5697 7.68069C73.5697 7.8838 73.4555 7.99534 73.2116 8.09599C73.1871 8.2855 73.1318 8.46684 73.0493 8.6355Z" fill="#0F0F0F"/>
<path d="M51.6338 11.3141L51.5736 11.305C51.461 11.2715 51.3962 11.1527 51.4294 11.0393L51.4965 10.8145C52.3692 7.85394 54.6138 5.43294 57.5001 4.3385L60.6773 3.13434C60.7871 3.09353 60.9107 3.14795 60.9521 3.25766C60.9943 3.36829 60.9389 3.49159 60.8281 3.5333L57.651 4.73746C54.8893 5.78475 52.7403 8.10149 51.9055 10.9351L51.8386 11.1609C51.8109 11.2542 51.7263 11.3141 51.6338 11.3141Z" fill="white"/>
<path d="M39.0435 17.9487L38.7106 17.226C38.2498 16.2268 38.6911 15.0317 39.691 14.5711L54.8223 7.59638C55.8219 7.13666 57.0169 7.57734 57.4777 8.57657L57.8106 9.29925C58.2715 10.2994 57.8305 11.4945 56.831 11.9551L41.6997 18.9289C40.7001 19.3904 39.5047 18.9488 39.0435 17.9487Z" fill="#F0724E"/>
<path d="M42.0457 18.7703L48.0143 16.0192C48.015 16.0183 48.0154 16.0183 48.0157 16.0183L42.0609 18.763C42.056 18.7648 42.0507 18.7675 42.0457 18.7703Z" fill="#C17123"/>
<path d="M48.174 15.9448L48.376 15.8523L48.1744 15.9448H48.174Z" fill="#54203F"/>
<path d="M48.0638 15.9957C48.0646 15.9957 48.0649 15.9957 48.0653 15.9957L48.174 15.9449H48.1744L48.0638 15.9957ZM50.793 14.738L53.3322 13.5674L50.793 14.738Z" fill="#C17123"/>
<path d="M48.376 15.8524L50.793 14.738L48.376 15.8524Z" fill="#D3583A"/>
<path d="M48.0143 16.0192L48.0653 15.9956C48.065 15.9956 48.0646 15.9956 48.0639 15.9956L48.0157 16.0183C48.0154 16.0183 48.015 16.0183 48.0143 16.0192Z" fill="#B8442B"/>
<path d="M53.3322 13.5674L55.9065 12.3814L53.3322 13.5674ZM57.6442 8.93844L57.6393 8.92755C57.641 8.93118 57.6428 8.93481 57.6442 8.93844Z" fill="#D3583A"/>
<path d="M41.0777 18.9824C41.6685 18.8963 42.3255 18.5925 42.7544 17.8309C42.8391 17.6885 42.9093 17.5371 42.9634 17.3784L56.1371 11.3059C57.165 10.8326 57.6973 9.71095 57.481 8.64643C57.5386 8.73619 57.5932 8.82776 57.6393 8.9275L57.6442 8.9384C58.1968 10.1362 57.6683 11.5689 56.4697 12.122L55.9065 12.3813L53.3323 13.5673L50.793 14.7379L48.376 15.8523L48.174 15.9448L48.0653 15.9956L48.0143 16.0192L42.0457 18.7702C41.7319 18.9117 41.4028 18.9797 41.0777 18.9824Z" fill="#D3583A"/>
<path d="M40.6728 14.2111L28.0411 16.7682C27.9568 16.7682 27.8676 16.7673 27.7744 16.7645L27.7918 19.1039L40.7079 19.0096C42.0273 19.0015 43.0994 17.9125 43.0899 16.5931C43.0803 15.2738 41.9926 14.2021 40.6728 14.2111Z" fill="#F0724E"/>
<path d="M40.245 19.0133L40.7079 19.0097C40.7129 19.0097 40.7181 19.0097 40.7231 19.0097C40.7181 19.0097 40.7132 19.0097 40.7079 19.0097L40.245 19.0133ZM40.7235 19.0097C40.8365 19.0079 40.9477 18.9988 41.0564 18.9825C41.0589 18.9825 41.0611 18.9825 41.0635 18.9825C41.0681 18.9825 41.0731 18.9825 41.0777 18.9825C40.9559 18.9997 40.8372 19.0088 40.7235 19.0097Z" fill="#D3583A"/>
<path d="M41.0635 18.9824C41.0611 18.9824 41.0589 18.9824 41.0565 18.9824C41.778 18.8709 42.395 18.4348 42.7544 17.8309C42.3255 18.5925 41.6685 18.8963 41.0777 18.9824C41.0731 18.9824 41.0681 18.9824 41.0635 18.9824Z" fill="#B8442B"/>
<path d="M27.8038 19.1039C28.2547 19.0414 28.6213 18.6868 28.7342 18.2235L42.9603 17.3784C42.9001 17.5452 42.8306 17.6949 42.7544 17.8309C42.395 18.4348 41.778 18.8709 41.0565 18.9824C40.9477 18.9988 40.8365 19.0078 40.7235 19.0096H40.7231C40.7182 19.0096 40.7129 19.0096 40.7079 19.0096L40.245 19.0133L30.1053 19.0867L27.8038 19.1039Z" fill="#D3583A"/>
<path d="M27.7234 16.7364V16.73C26.3544 16.6775 24.067 16.3002 22.3799 16.6584L18.1753 18.3758C17.9196 18.4801 17.8873 18.8455 18.1292 18.9806C18.962 19.4476 21.2571 19.3279 22.9771 19.2073C23.7588 19.1529 24.4216 19.0985 24.7747 19.0994L27.5913 19.1057L27.6596 19.1139C28.2717 19.1139 28.7686 18.5816 28.7701 17.9233C28.7715 17.2868 28.3074 16.7709 27.7234 16.7364Z" fill="#F0724E"/>
<path d="M20.48 19.3162C19.4809 19.3162 18.5855 19.2364 18.1292 18.9807C18.007 18.9118 17.9549 18.7848 17.9662 18.6624C18.4572 18.7866 19.1366 18.8302 19.8715 18.8302C20.6925 18.8302 21.5826 18.7766 22.3565 18.7231C23.1298 18.6696 23.7872 18.6162 24.1421 18.6162C24.1453 18.6162 24.1484 18.6162 24.1512 18.6162L26.9682 18.6216L27.037 18.6289C27.0373 18.6289 27.038 18.6289 27.0383 18.6289C27.6494 18.6289 28.1459 18.0975 28.1474 17.4392C28.1477 17.1944 28.0786 16.9686 27.961 16.78C28.4278 16.9214 28.7711 17.3766 28.77 17.9234C28.7686 18.5808 28.2724 19.114 27.661 19.114C27.6607 19.114 27.6603 19.114 27.6596 19.114L27.5913 19.1058L24.7746 19.0995C24.7729 19.0995 24.7711 19.0995 24.7697 19.0995C24.4152 19.0995 23.7549 19.1539 22.9771 19.2074C22.1996 19.2618 21.3046 19.3162 20.48 19.3162Z" fill="#D3583A"/>
<path d="M74.1591 18.8636L75.6697 18.2561L75.7649 18.3985L75.7278 18.5798L74.1591 18.8636ZM78.5314 18.5272V18.073L77.6029 18.2407L77.4252 17.9732L77.5177 17.5126L78.438 17.1426C78.438 17.1426 83.8731 16.8135 85.1543 11.6514C85.1552 11.6514 85.1552 11.6505 85.1552 11.6496L86.1363 12.5808C86.421 12.8519 86.7982 13.0025 87.1908 13.0025C87.5753 13.0025 87.9462 13.1466 88.2282 13.4087L91.4335 15.6003C91.575 15.7308 91.6493 15.9095 91.6493 16.0908C91.6502 16.2268 91.6085 16.3647 91.5242 16.4825C91.4453 16.5932 91.3356 16.6766 91.2077 16.7237L89.2709 16.8362C89.0542 16.9151 88.8293 16.954 88.6045 16.954C88.201 16.954 87.8002 16.828 87.4629 16.5841L85.7845 15.7154L78.5314 18.5272ZM77.2248 17.6722L77.203 17.6395L77.2339 17.6269L77.2248 17.6722Z" fill="#E45A3E"/>
<path d="M72.0618 20.2129H69.7025L78.3456 15.8868L78.438 17.1426L77.5177 17.5126L77.5748 17.2279L77.4742 17.0764L77.3236 17.1771L77.2339 17.6268L77.2031 17.6395L76.9446 17.2524L76.7678 17.217L76.7497 17.3059L76.62 17.392L76.5212 17.8871L76.241 17.4664L76.0642 17.431L76.056 17.4682L75.9354 17.5489L75.8357 18.0448L75.5555 17.6241L75.3787 17.5878L75.3424 17.7647L75.6697 18.2561L74.1591 18.8636L75.7278 18.5798L75.6153 19.1447L75.7151 19.2953L75.7686 19.2943L75.8656 19.1946L75.9653 18.6995L76.2446 19.1193L76.3797 19.1737L76.4223 19.1547L76.426 19.1375H76.4541L76.5511 19.0386L76.6508 18.5426L76.9301 18.9634L77.0652 19.0169L77.1078 18.9987L77.1224 18.9226H77.1577L77.2547 18.8228L77.3536 18.3278L77.6338 18.7476L77.7689 18.802L77.8115 18.783L77.8468 18.6061L77.6029 18.2407L78.5314 18.073V18.5272V18.8636L74.2679 19.9391C73.5471 20.1213 72.8053 20.2129 72.0618 20.2129ZM85.1543 11.6514C85.1552 11.6514 85.1552 11.6505 85.1552 11.6496C85.1552 11.6505 85.1552 11.6514 85.1543 11.6514Z" fill="black"/>
<path d="M76.1422 18.5055L76.0361 18.345L76.0878 18.0884L76.2927 18.005L76.4504 18.2416L76.4069 18.4574L76.1422 18.5055Z" fill="#E45A3E"/>
<path d="M76.338 18.7993L76.1421 18.5055L76.4069 18.4575L76.338 18.7993ZM76.0877 18.0884L76.1476 17.7874L76.2927 18.005L76.0877 18.0884Z" fill="black"/>
<path d="M76.8476 18.3777L76.7216 18.1882L76.7995 17.8019L76.9609 17.7366L77.1532 18.0268L77.0924 18.3333L76.8476 18.3777Z" fill="#E45A3E"/>
<path d="M77.029 18.6497L76.8476 18.3777L77.0924 18.3333L77.029 18.6497ZM76.7996 17.8019L76.8467 17.5661L76.961 17.7366L76.7996 17.8019Z" fill="black"/>
<path d="M77.1224 18.9226L77.1432 18.821L77.029 18.6497L77.0924 18.3332L77.1532 18.0267L77.3536 18.3278L77.2547 18.8229L77.1577 18.9226H77.1224ZM77.4252 17.9732L77.2248 17.6722L77.2339 17.6269L77.3237 17.1771L77.4742 17.0765L77.5748 17.2279L77.5177 17.5126L77.4252 17.9732Z" fill="black"/>
<path d="M77.7689 18.8019L77.6338 18.7475L77.3536 18.3277L77.1532 18.0267L76.961 17.7365L76.8467 17.566L76.8712 17.4427L76.7705 17.2922L76.7497 17.3058L76.7678 17.217L76.9446 17.2523L77.2031 17.6395L77.2248 17.6721L77.4252 17.9732L77.6029 18.2407L77.8469 18.6061L77.8115 18.7829L77.7689 18.8019Z" fill="black"/>
<path d="M76.426 19.1375L76.4577 18.9779L76.338 18.7993L76.4069 18.4575L76.4504 18.2417L76.6508 18.5427L76.5511 19.0387L76.4541 19.1375H76.426ZM76.7216 18.1882L76.5212 17.8871L76.62 17.392L76.7497 17.3059L76.7705 17.2923L76.8712 17.4428L76.8467 17.5661L76.7995 17.8019L76.7216 18.1882Z" fill="black"/>
<path d="M77.0652 19.0169L76.9301 18.9634L76.6509 18.5427L76.4505 18.2417L76.2927 18.005L76.1476 17.7874L76.1857 17.5997L76.0859 17.4492L76.056 17.4682L76.0642 17.431L76.241 17.4664L76.5212 17.8871L76.7216 18.1882L76.8476 18.3777L77.029 18.6497L77.1432 18.8211L77.1224 18.9226L77.1079 18.9988L77.0652 19.0169Z" fill="black"/>
<path d="M75.7151 19.2952L75.6154 19.1447L75.7278 18.5798L75.765 18.3985L75.9654 18.6995L75.8656 19.1946L75.7686 19.2943L75.7151 19.2952ZM76.0361 18.345L75.8357 18.0448L75.9354 17.5488L76.056 17.4681L76.086 17.4491L76.1857 17.5996L76.1476 17.7873L76.0878 18.0883L76.0361 18.345Z" fill="black"/>
<path d="M76.3797 19.1738L76.2446 19.1194L75.9653 18.6995L75.765 18.3985L75.6697 18.2562L75.3424 17.7647L75.3787 17.5879L75.5555 17.6242L75.8357 18.0449L76.0361 18.345L76.1422 18.5055L76.338 18.7993L76.4577 18.9779L76.426 19.1375L76.4223 19.1547L76.3797 19.1738Z" fill="black"/>
<path d="M78.361 15.8868C78.351 15.8868 78.3456 15.8868 78.3456 15.8868C78.3555 15.8859 78.3655 15.8859 78.3746 15.885C78.3782 15.885 78.3809 15.885 78.3845 15.885C78.3909 15.8841 78.3981 15.8841 78.4045 15.8832C78.4081 15.8832 78.4117 15.8832 78.4154 15.8832C78.4217 15.8823 78.429 15.8823 78.4362 15.8814C78.4389 15.8814 78.4417 15.8814 78.4444 15.8814C78.4525 15.8804 78.4607 15.8804 78.468 15.8795C78.4707 15.8795 78.4725 15.8795 78.4743 15.8795C78.4843 15.8786 78.4943 15.8777 78.5042 15.8777C78.506 15.8777 78.507 15.8768 78.5088 15.8768C78.5169 15.8768 78.526 15.8759 78.5341 15.875C78.536 15.875 78.5387 15.875 78.5414 15.875C78.5487 15.8741 78.5568 15.8741 78.5641 15.8732C78.5668 15.8732 78.5695 15.8732 78.5713 15.8732C78.5795 15.8723 78.5877 15.8714 78.5967 15.8714C78.5976 15.8705 78.5994 15.8705 78.6012 15.8705C78.6212 15.8687 78.6411 15.8677 78.662 15.8659C78.6629 15.8659 78.6638 15.8659 78.6647 15.8659C78.6738 15.865 78.6829 15.8641 78.6919 15.8632C78.6937 15.8632 78.6937 15.8632 78.6956 15.8632C78.7046 15.8623 78.7146 15.8614 78.7237 15.8605C78.7246 15.8605 78.7246 15.8605 78.7255 15.8605C82.0913 15.5649 83.8685 13.7106 84.7009 12.4475C84.8923 12.1564 85.0337 11.8971 85.1334 11.6958C83.1504 15.8188 78.6566 15.8868 78.361 15.8868Z" fill="#E45A3E"/>
<path d="M78.3746 15.885C78.3782 15.885 78.3809 15.885 78.3846 15.885C78.3809 15.885 78.3782 15.885 78.3746 15.885ZM78.4045 15.8832C78.4081 15.8832 78.4118 15.8832 78.4154 15.8832C78.4118 15.8832 78.4081 15.8832 78.4045 15.8832ZM78.4362 15.8814C78.439 15.8814 78.4417 15.8814 78.4444 15.8814C78.4417 15.8814 78.439 15.8814 78.4362 15.8814ZM78.468 15.8796C78.4707 15.8796 78.4725 15.8796 78.4743 15.8796C78.4725 15.8796 78.4707 15.8796 78.468 15.8796ZM78.5042 15.8777C78.5061 15.8777 78.507 15.8768 78.5088 15.8768C78.507 15.8768 78.5061 15.8777 78.5042 15.8777ZM78.5342 15.875C78.536 15.875 78.5387 15.875 78.5414 15.875C78.5387 15.875 78.536 15.875 78.5342 15.875ZM78.5641 15.8732C78.5668 15.8732 78.5695 15.8732 78.5713 15.8732C78.5695 15.8732 78.5668 15.8732 78.5641 15.8732ZM78.5967 15.8714C78.5976 15.8705 78.5994 15.8705 78.6013 15.8705C78.5994 15.8705 78.5976 15.8705 78.5967 15.8714ZM78.662 15.8659C78.6629 15.8659 78.6629 15.8659 78.6647 15.8659C78.6638 15.8659 78.6629 15.8659 78.662 15.8659ZM78.6919 15.8632C78.6937 15.8632 78.6938 15.8632 78.6956 15.8632C78.6938 15.8632 78.6937 15.8632 78.6919 15.8632ZM78.7237 15.8605C78.7246 15.8605 78.7246 15.8605 78.7255 15.8605C78.7246 15.8605 78.7246 15.8605 78.7237 15.8605ZM84.7009 12.4475C84.9068 12.1338 85.0555 11.8572 85.1552 11.6496C85.148 11.665 85.1407 11.6804 85.1335 11.6958C85.0337 11.8971 84.8923 12.1565 84.7009 12.4475Z" fill="black"/>
<path d="M78.438 17.1426L78.3456 15.8868C78.3456 15.8868 78.351 15.8868 78.361 15.8868C78.6566 15.8868 83.1504 15.8188 85.1334 11.6958C85.1407 11.6804 85.148 11.6659 85.1543 11.6514C83.8731 16.8135 78.438 17.1426 78.438 17.1426Z" fill="#DA4732"/>
<path d="M78.438 17.1426L78.3456 15.8868L78.438 17.1426ZM85.1334 11.6958C85.1407 11.6804 85.148 11.665 85.1552 11.6496C85.1552 11.6505 85.1552 11.6514 85.1543 11.6514C85.148 11.6659 85.1407 11.6804 85.1334 11.6958Z" fill="#0F0F0F"/>
</svg>
