<svg width="122" height="58" viewBox="0 0 122 58" fill="none" xmlns="http://www.w3.org/2000/svg">
<path d="M121.948 58H0L7.81385 47.0235H114.136L121.948 58Z" fill="#7E315F"/>
<path d="M120.44 55.8789L27.242 53.483C27.4992 53.3221 27.6928 53.0581 27.7709 52.7441L101.227 49.6815C101.127 50.2181 100.793 50.6912 100.306 50.9619L99.2418 51.5534L99.1108 51.5871H98.6041C97.6475 51.5871 96.872 52.3616 96.872 53.3182C96.872 53.4676 96.9924 53.588 97.1408 53.588H104.098C104.198 53.588 104.29 53.5321 104.336 53.4435L106.416 49.4648L115.602 49.0824L117.837 52.222L120.44 55.8789Z" fill="#54203F"/>
<path d="M28.5339 16.5138L21.1275 10.9321L18.6189 14.1681L18.958 14.6873L18.5081 15.9031L18.8376 15.8983C19.3992 15.8896 19.9272 16.1699 20.2335 16.64L24.3981 19.9348L28.5339 16.5138Z" fill="#F0724E"/>
<path d="M20.114 16.48C19.8588 16.1765 19.5014 15.9771 19.1112 15.9174C19.5014 15.9771 19.8597 16.1765 20.115 16.48C20.115 16.48 20.115 16.48 20.114 16.48ZM19.1093 15.9174C19.1064 15.9164 19.1035 15.9154 19.1006 15.9154C19.1035 15.9154 19.1064 15.9164 19.1093 15.9174ZM19.0977 15.9154C19.0948 15.9145 19.0919 15.9145 19.089 15.9135C19.0919 15.9145 19.0948 15.9145 19.0977 15.9154ZM19.0852 15.9135C19.0833 15.9135 19.0804 15.9126 19.0775 15.9126C19.0804 15.9126 19.0833 15.9135 19.0852 15.9135ZM19.0736 15.9116C19.0707 15.9116 19.0688 15.9116 19.0659 15.9106C19.0688 15.9116 19.0707 15.9116 19.0736 15.9116ZM19.0611 15.9106C19.0534 15.9097 19.0447 15.9087 19.0361 15.9077C19.0447 15.9087 19.0534 15.9097 19.0611 15.9106ZM19.0312 15.9068C19.0293 15.9068 19.0274 15.9068 19.0254 15.9068C19.0274 15.9068 19.0293 15.9068 19.0312 15.9068ZM19.0187 15.9058C19.0168 15.9058 19.0149 15.9048 19.0129 15.9048C19.0149 15.9048 19.0168 15.9058 19.0187 15.9058ZM19.0071 15.9048C19.0052 15.9048 19.0033 15.9039 19.0014 15.9039C19.0033 15.9039 19.0052 15.9048 19.0071 15.9048ZM18.9946 15.9029C18.9927 15.9029 18.9908 15.9029 18.9888 15.9029C18.9908 15.9029 18.9927 15.9029 18.9946 15.9029ZM18.512 15.9029L18.8376 15.8981C18.8463 15.8981 18.854 15.8981 18.8626 15.8981C18.854 15.8981 18.8463 15.8981 18.8376 15.8981L18.512 15.9029ZM18.9821 15.9029C18.9802 15.9029 18.9792 15.902 18.9773 15.902C18.9782 15.902 18.9802 15.9029 18.9821 15.9029ZM18.9686 15.902C18.9677 15.902 18.9667 15.902 18.9648 15.902C18.9657 15.902 18.9677 15.902 18.9686 15.902ZM18.9532 15.901C18.9522 15.901 18.9513 15.901 18.9503 15.9C18.9513 15.901 18.9522 15.901 18.9532 15.901ZM18.9407 15.9C18.9397 15.9 18.9378 15.9 18.9368 15.9C18.9378 15.9 18.9397 15.9 18.9407 15.9ZM18.9281 15.9C18.9272 15.9 18.9252 15.8991 18.9243 15.8991C18.9252 15.8991 18.9272 15.9 18.9281 15.9ZM18.9166 15.8991C18.9147 15.8991 18.9127 15.8991 18.9118 15.8991C18.9127 15.8991 18.9147 15.8991 18.9166 15.8991ZM18.9041 15.8991C18.9021 15.8991 18.9012 15.8981 18.8992 15.8981C18.9012 15.8981 18.9021 15.8991 18.9041 15.8991ZM18.8915 15.8981C18.8896 15.8981 18.8887 15.8981 18.8867 15.8981C18.8887 15.8981 18.8896 15.8981 18.8915 15.8981ZM18.879 15.8981C18.8771 15.8981 18.8761 15.8981 18.8752 15.8981C18.8761 15.8981 18.8771 15.8981 18.879 15.8981Z" fill="#DEBAA1"/>
<path d="M20.115 16.48C19.8597 16.1765 19.5014 15.9771 19.1112 15.9174C19.1102 15.9174 19.1102 15.9174 19.1093 15.9174C19.1064 15.9164 19.1035 15.9154 19.1006 15.9154C19.0996 15.9154 19.0987 15.9154 19.0977 15.9154C19.0948 15.9145 19.0919 15.9145 19.089 15.9135C19.0881 15.9135 19.0871 15.9135 19.0852 15.9135C19.0833 15.9135 19.0804 15.9126 19.0775 15.9126C19.0765 15.9116 19.0746 15.9116 19.0736 15.9116C19.0707 15.9116 19.0688 15.9116 19.0659 15.9106C19.064 15.9106 19.063 15.9106 19.0611 15.9106C19.0534 15.9097 19.0447 15.9087 19.0361 15.9077C19.0341 15.9068 19.0332 15.9068 19.0312 15.9068C19.0293 15.9068 19.0274 15.9068 19.0254 15.9068C19.0226 15.9058 19.0206 15.9058 19.0187 15.9058C19.0168 15.9058 19.0149 15.9048 19.0129 15.9048C19.011 15.9048 19.0091 15.9048 19.0071 15.9048C19.0052 15.9048 19.0033 15.9039 19.0014 15.9039C18.9985 15.9039 18.9965 15.9039 18.9946 15.9029C18.9927 15.9029 18.9908 15.9029 18.9888 15.9029C18.9869 15.9029 18.984 15.9029 18.9821 15.9029C18.9802 15.9029 18.9782 15.902 18.9773 15.902C18.9744 15.902 18.9715 15.902 18.9686 15.902C18.9677 15.902 18.9657 15.902 18.9648 15.902C18.9609 15.901 18.957 15.901 18.9532 15.901C18.9522 15.901 18.9513 15.901 18.9503 15.9C18.9474 15.9 18.9436 15.9 18.9407 15.9C18.9397 15.9 18.9378 15.9 18.9368 15.9C18.9339 15.9 18.931 15.9 18.9281 15.9C18.9272 15.9 18.9252 15.8991 18.9243 15.8991C18.9214 15.8991 18.9185 15.8991 18.9166 15.8991C18.9147 15.8991 18.9127 15.8991 18.9118 15.8991C18.9089 15.8991 18.9069 15.8991 18.9041 15.8991C18.9021 15.8991 18.9012 15.8981 18.8992 15.8981C18.8963 15.8981 18.8944 15.8981 18.8915 15.8981C18.8896 15.8981 18.8887 15.8981 18.8867 15.8981C18.8838 15.8981 18.8809 15.8981 18.879 15.8981C18.8771 15.8981 18.8761 15.8981 18.8752 15.8981C18.8703 15.8981 18.8665 15.8981 18.8626 15.8981C18.854 15.8981 18.8463 15.8981 18.8376 15.8981L18.512 15.9029C18.7962 15.7941 19.0746 15.6669 19.3453 15.5234L19.8154 15.2719C20.5784 14.8664 21.0948 14.1159 21.2046 13.2643C21.6217 14.7054 20.7354 15.8731 20.115 16.48Z" fill="#D3583A"/>
<path d="M17.8704 8.65285C18.6517 11.1075 21.0543 12.5352 23.2373 11.8406C25.4212 11.147 26.559 8.59406 25.7777 6.13941C24.9983 3.68379 22.5957 2.25608 20.4117 2.95066C18.2278 3.64428 17.091 6.19724 17.8704 8.65285Z" fill="#682B22"/>
<path d="M25.6929 7.46886C25.3528 7.46886 25.006 7.35902 24.6582 7.13841L24.6033 6.89084L24.85 6.83496C25.2661 7.09699 25.6707 7.17115 26.0532 7.05458C26.9318 6.78869 27.4568 5.62881 27.4616 5.61725C27.5021 5.52669 27.609 5.4853 27.6986 5.52576C27.7901 5.56622 27.8306 5.67219 27.7901 5.76274C27.767 5.81669 27.1958 7.08351 26.1601 7.39853C26.007 7.44477 25.8499 7.46886 25.6929 7.46886Z" fill="#682B22"/>
<path d="M23.6795 13.6391C23.2411 13.6391 22.7267 13.5621 22.3105 13.2759C21.8886 12.9869 21.6419 12.537 21.5774 11.9397C21.5658 11.8415 21.6362 11.7529 21.7364 11.7423C21.8414 11.7317 21.9232 11.803 21.9338 11.9012C21.9887 12.3896 22.1833 12.7519 22.5147 12.9802C23.271 13.4995 24.5022 13.1854 24.5157 13.1825C24.6139 13.1555 24.7093 13.2152 24.7343 13.3106C24.7603 13.4069 24.7025 13.5052 24.6062 13.5303C24.5763 13.539 24.1785 13.6391 23.6795 13.6391Z" fill="#682B22"/>
<path d="M23.4464 13.4946C23.141 13.4946 22.8346 13.4378 22.5678 13.2836C22.1082 13.0187 21.8501 12.5158 21.8048 11.7924C21.798 11.6931 21.8741 11.6074 21.9724 11.6006C22.0697 11.591 22.1574 11.67 22.1631 11.7692C22.2017 12.3655 22.3982 12.7711 22.7479 12.9725C23.5475 13.4349 24.9145 12.7692 24.927 12.7624C25.0185 12.7191 25.1255 12.7557 25.1679 12.8443C25.2122 12.933 25.1756 13.0409 25.0869 13.0852C25.0417 13.1083 24.2469 13.4946 23.4464 13.4946Z" fill="#682B22"/>
<path d="M13.0439 6.36767C13.2067 8.66047 15.8126 10.3435 18.8617 10.1258C21.9107 9.90902 24.2498 7.87341 24.086 5.58061C23.9232 3.2878 21.3192 1.60478 18.2692 1.8225C15.2202 2.03926 12.8811 4.0739 13.0439 6.36767Z" fill="#682B22"/>
<path d="M18.3733 2.45446C21.1574 2.25601 23.5639 3.64325 24.087 5.63164L24.086 5.5806C23.9232 3.28779 21.3193 1.60477 18.2693 1.82249C15.2202 2.03925 12.8811 4.07485 13.0449 6.36766C13.0584 6.56611 13.0969 6.75973 13.147 6.94855C13.0218 4.67694 15.3464 2.6693 18.3733 2.45446Z" fill="#B14B3C"/>
<path d="M21.0996 5.16821C21.6612 6.93502 23.4714 7.93694 25.1409 7.40517C26.8123 6.87435 27.7112 5.01215 27.1495 3.24534C26.5879 1.47854 24.7777 0.477627 23.1082 1.00844C21.4368 1.53925 20.538 3.40237 21.0996 5.16821Z" fill="#682B22"/>
<path d="M21.5341 5.37739C20.9724 3.61058 21.8722 1.74934 23.5427 1.21757C24.2373 0.996955 24.955 1.04414 25.5975 1.29847C24.8548 0.868812 23.9637 0.735891 23.1082 1.00852C21.4368 1.53934 20.538 3.40245 21.0996 5.1683C21.4281 6.20006 22.1824 6.9679 23.0851 7.32434C22.3799 6.91587 21.8077 6.23863 21.5341 5.37739Z" fill="#B14B3C"/>
<path d="M18.6999 9.19139C17.4003 9.19139 16.3367 8.88598 15.5188 8.27714C14.0324 7.1683 13.9543 5.47473 13.9514 5.40247C13.9437 5.20498 14.0979 5.03928 14.2963 5.03157C14.4823 5.0123 14.6614 5.17707 14.6701 5.37552C14.6701 5.38997 14.7462 6.80898 15.9572 7.70683C17.1488 8.58927 19.0149 8.71165 21.5013 8.06908C21.6949 8.01899 21.8886 8.13552 21.9387 8.32723C21.9888 8.51991 21.8732 8.71646 21.6805 8.76559C20.5803 9.04978 19.5852 9.19139 18.6999 9.19139Z" fill="#682B22"/>
<path d="M18.7972 7.3965L19.3386 8.07278C19.3386 8.07278 20.3973 9.28084 21.9319 8.619L22.2219 7.48414L22.5427 6.41964L21.8645 5.85413L20.2191 6.12197L18.9484 7.37143" fill="#682B22"/>
<path d="M16.1238 5.34839C16.1238 5.34839 14.1325 6.66049 14.6161 9.53131C14.6556 9.77697 14.6344 10.0294 14.5526 10.2654L13.9206 12.0756C13.8782 12.197 13.9013 12.3299 13.9832 12.4291C14.0661 12.5303 14.1961 12.5794 14.3252 12.5573L14.6277 12.5091L14.7394 12.538L14.8406 12.616L14.8801 12.853L14.724 13.0948L14.9649 13.3279L14.9967 13.695L14.9947 13.9088C14.9938 14.1583 15.2096 14.2499 15.3598 14.4493L15.3502 15.3443C15.4649 16.0283 16.1209 16.4839 16.803 16.352L17.2538 16.2643C17.9831 16.1227 18.6883 15.8732 19.3453 15.5235L19.8154 15.272C20.6217 14.8433 21.1516 14.0322 21.22 13.1208L21.3067 11.9667C23.4222 11.6218 24.6939 9.40418 23.8924 7.41676C23.3452 6.05649 22.4107 4.84167 20.8163 4.70005C20.8163 4.70005 18.0794 4.26461 16.1238 5.34839Z" fill="#F0724E"/>
<path d="M15.3598 14.4494C15.223 14.2683 15.0323 14.1758 14.9995 13.9725C15.0593 13.9677 15.1412 13.9388 15.2548 13.8656C15.2548 13.8656 15.7115 13.6122 15.9783 13.3107C15.9408 13.8714 15.3598 14.4494 15.3598 14.4494Z" fill="#D3583A"/>
<path d="M16.0804 13.0611C15.907 13.063 15.3984 13.0447 15.0072 12.8116C15.0072 12.8116 14.8175 12.5871 14.5862 12.7981C14.5862 12.7981 14.4899 13.0929 14.8656 13.3434C14.8656 13.3434 14.7616 13.7325 14.8444 13.8645C14.8444 13.8645 14.8762 14.1092 15.2548 13.8655C15.2548 13.8655 15.9244 13.4946 16.1161 13.117L16.0804 13.0611Z" fill="#B73C2B"/>
<path d="M14.2655 12.5631C14.1566 12.5631 14.0536 12.5149 13.9832 12.4291C13.9765 12.4214 13.9707 12.4138 13.9649 12.406C13.9707 12.4138 13.9765 12.4214 13.9832 12.4291C14.0536 12.5149 14.1566 12.5631 14.2655 12.5631C14.2848 12.5631 14.305 12.5611 14.3252 12.5573C14.305 12.5611 14.2848 12.5631 14.2655 12.5631ZM13.9649 12.4051C13.9639 12.4041 13.963 12.4022 13.962 12.4012C13.963 12.4022 13.9639 12.4041 13.9649 12.4051ZM13.961 12.3993C13.9601 12.3983 13.9601 12.3973 13.9591 12.3973C13.9601 12.3973 13.9601 12.3983 13.961 12.3993Z" fill="#DEBAA1"/>
<path d="M14.2655 12.5631C14.1566 12.5631 14.0535 12.5149 13.9832 12.4291C13.9765 12.4214 13.9707 12.4138 13.9649 12.406C13.9649 12.406 13.9649 12.406 13.9649 12.4051C13.9639 12.4041 13.9629 12.4022 13.962 12.4012C13.962 12.4002 13.961 12.3993 13.961 12.3993C13.9601 12.3983 13.9601 12.3973 13.9591 12.3973C13.9003 12.3078 13.8859 12.196 13.9167 12.093L13.9235 12.066C13.9235 12.066 13.9321 12.0727 13.9543 12.0727C14.0044 12.0727 14.1267 12.039 14.3955 11.8165C14.3955 11.8165 14.515 11.6748 14.7548 11.6748C14.8569 11.6748 14.9812 11.7008 15.1267 11.7731C15.1806 11.801 15.2404 11.8165 15.3001 11.8165C15.3386 11.8165 15.3762 11.8097 15.4128 11.7972L15.566 11.6729C15.566 11.6729 15.8309 12.1825 15.3685 12.327C15.3685 12.327 14.9263 12.485 14.6277 12.5091L14.6103 12.511L14.3252 12.5573C14.3049 12.5611 14.2847 12.5631 14.2655 12.5631Z" fill="#D3583A"/>
<path d="M15.2741 9.82335C15.3763 9.66247 15.5371 9.56711 15.7019 9.49774L15.9572 9.41778L16.0882 9.39369L16.1537 9.38306L16.2134 9.37633C16.3724 9.35418 16.5332 9.32432 16.6845 9.28386L16.8955 9.20488L17.0294 9.07768L17.0342 9.06324L17.1094 9.02665L17.1488 9.08733L17.1392 9.17016L17.1036 9.24627L17.0554 9.30794L17.0005 9.35804L16.7567 9.49483C16.5891 9.56226 16.4177 9.59791 16.2443 9.62103C16.1518 9.63356 16.0824 9.63546 16.0005 9.64992L15.7664 9.69329C15.6142 9.73086 15.4581 9.7819 15.3291 9.86667L15.3223 9.87053L15.2741 9.86093V9.82335Z" fill="#682B22"/>
<path d="M15.9071 9.89459C15.9331 10.0516 15.8907 10.1904 15.8127 10.2029C15.7337 10.2154 15.6508 10.0979 15.6238 9.94083C15.5988 9.7838 15.6412 9.64604 15.7192 9.63352C15.7972 9.62099 15.881 9.73756 15.9071 9.89459Z" fill="#682B22"/>
<path d="M15.6392 10.3221L15.6248 10.324L15.592 10.2971L15.619 10.2643C15.6209 10.2643 15.751 10.2499 15.8117 10.1564C15.8502 10.0967 15.8531 10.0148 15.8184 9.91367L15.8377 9.87608L15.8762 9.89438C15.9157 10.0148 15.9109 10.1131 15.8608 10.1902C15.7972 10.2884 15.6787 10.3154 15.6392 10.3221Z" fill="#682B22"/>
<path d="M14.9813 8.56401C15.0371 8.46382 15.1142 8.41663 15.198 8.38291L15.4533 8.30487C15.6248 8.25671 15.8021 8.22781 15.9774 8.21047C16.1537 8.19505 16.3319 8.19219 16.5063 8.20953C16.6816 8.2259 16.854 8.26153 17.0188 8.31259L17.039 8.35017L17.0111 8.37233H17.0101C16.8386 8.37715 16.6729 8.37812 16.5082 8.40413C16.3444 8.42339 16.1826 8.45325 16.0256 8.49468C15.8666 8.53225 15.7125 8.58328 15.5612 8.64012L15.3387 8.73359C15.2664 8.76442 15.1874 8.78463 15.093 8.7644L15.0699 8.75862L14.9688 8.59967L14.9813 8.56401Z" fill="#682B22"/>
<path d="M14.4765 12.2248C14.5603 12.168 14.6499 12.1285 14.7481 12.1112C14.8435 12.0938 14.9581 12.0967 15.0448 12.1304L15.2789 12.1324L15.4591 11.9725L15.488 11.9648L15.4976 11.9869C15.4822 12.0813 15.4215 12.1825 15.3204 12.2316C15.2202 12.2827 15.1065 12.274 15.0102 12.2403C14.9254 12.2046 14.8493 12.1834 14.7606 12.194L14.5169 12.2788L14.514 12.2807L14.4678 12.2701L14.4765 12.2248Z" fill="#682B22"/>
<path d="M14.0911 5.19135C14.2385 7.25102 16.7095 8.75291 19.6112 8.54675C22.5138 8.33963 24.7469 6.50248 24.6004 4.44281C24.453 2.38314 21.982 0.880285 19.0794 1.08741C16.1777 1.29453 13.9447 3.13071 14.0911 5.19135Z" fill="#682B22"/>
<path d="M14.3069 5.37625C14.1614 3.32043 16.5014 1.47752 19.537 1.26173C20.353 1.20296 21.1352 1.27234 21.8481 1.43996C21.0283 1.15192 20.0803 1.01607 19.0794 1.08736C16.1777 1.29448 13.9447 3.13066 14.0911 5.19129C14.1672 6.24714 14.8541 7.15368 15.8955 7.76157C14.9735 7.16428 14.3753 6.33287 14.3069 5.37625Z" fill="#B14B3C"/>
<path d="M17.1344 6.05449C17.1344 6.05449 17.0053 6.68744 18.3232 7.27991C18.3232 7.27991 18.9465 7.68163 18.8405 8.18932C18.8405 8.18932 18.3357 9.51972 19.118 9.79524C19.118 9.79524 19.7278 10.0862 19.9205 9.66325C19.9205 9.66325 20.2297 8.4966 21.2104 8.75864C21.2104 8.75864 22.2402 8.97058 22.0331 10.4204C22.0331 10.4204 21.9426 11.1757 21.3144 11.5418C21.3144 11.5418 21.0071 13.1959 23.22 13.4021C23.22 13.4021 25.9973 12.4705 25.5292 8.43303C25.3346 6.75678 24.2999 5.27611 22.7614 4.58056C21.8886 4.18462 20.7422 3.93894 19.2586 4.07188C19.2586 4.07188 17.3791 4.19135 17.0438 5.26743C17.0438 5.26743 16.8965 5.47358 17.1344 6.05449Z" fill="#682B22"/>
<path d="M20.826 11.5188C20.8087 11.5188 20.7913 11.5168 20.774 11.511L20.694 11.486L20.7451 11.3154C20.9002 10.644 20.7046 10.0226 20.3068 9.86269C20.3655 9.70951 20.5794 9.22498 20.9647 9.22498C20.9917 9.22498 21.0196 9.22787 21.0485 9.23269C21.0485 9.23269 22.1921 9.5024 21.4204 10.8839C21.4204 10.8839 21.1054 11.5197 20.826 11.5188Z" fill="#BE462D"/>
<path d="M20.851 11.8068C20.8713 11.9282 20.7884 12.0428 20.6661 12.0631C20.5437 12.0833 20.4291 12.0005 20.4089 11.8781C20.3896 11.7558 20.4715 11.6411 20.5929 11.6209C20.7152 11.6016 20.8308 11.6845 20.851 11.8068Z" fill="#923C1D"/>
<path d="M107.222 42.2087L104.159 41.0498L92.2835 35.2186C89.825 34.0115 87.0601 33.5731 84.3473 33.9604C82.4052 34.2388 80.4245 34.0934 78.543 33.5346L62.9096 28.897L62.5907 27.1831C62.1263 24.6938 59.9703 22.8779 57.4386 22.8423L50.7201 23.4106C48.7057 23.6457 46.3195 22.5542 44.5671 21.5321L32.9162 14.7355C31.1368 13.697 29.1109 13.1498 27.0503 13.1508C25.5349 13.1508 24.3076 14.3791 24.3076 15.8935V23.715L31.0367 31.446C31.5376 32.0202 32.2621 32.3497 33.0241 32.3497H33.2148C33.8873 32.3497 34.5346 32.0934 35.024 31.631C35.6868 31.0039 36.628 30.7659 37.5095 31L42.5922 32.3497L57.3403 37.7339C64.1012 40.0816 71.261 41.0614 78.4033 40.6173L83.9379 40.2743L101.259 45.1316V49.3415C101.259 50.0149 100.894 50.6353 100.306 50.9618L99.2418 51.5534L99.1108 51.5871H98.6041C97.6475 51.5871 96.872 52.3616 96.872 53.3182C96.872 53.4675 96.9924 53.588 97.1408 53.588H104.098C104.198 53.588 104.29 53.5321 104.336 53.4435L107.778 46.8589L107.839 46.7818L108.035 46.6065C109.504 45.3011 109.06 42.9033 107.222 42.2087Z" fill="#F0724E"/>
<path d="M39.7214 31.5875L37.97 31.1222L39.7214 31.5875ZM42.3157 20.2188L41.0663 19.4896L42.3157 20.2188Z" fill="#DEBAA1"/>
<path d="M39.7214 31.5875L37.97 31.1222L41.0663 19.4896L42.3157 20.2188C41.4767 23.9634 40.3486 28.9565 39.7214 31.5875Z" fill="#D3583A"/>
<path d="M35.9017 31.0837L35.9027 31.0818C36.1994 30.97 36.5144 30.9113 36.8333 30.9113C37.0587 30.9113 37.2861 30.9402 37.5096 30.9999C37.287 30.9411 37.0616 30.9122 36.8381 30.9122C36.5173 30.9122 36.2003 30.971 35.9017 31.0837Z" fill="#DEBAA1"/>
<path d="M98.7216 43.144L93.0214 38.9331L99.7804 40.33L100.234 39.1229L92.2825 35.2184C89.825 34.0113 87.0601 33.5729 84.3473 33.9602C82.4052 34.2386 80.4245 34.0932 78.543 33.5344L62.9096 28.8968L62.5907 27.1829C62.1263 24.6936 59.9703 22.8777 57.4396 22.8421L50.7201 23.4104C50.3868 23.449 50.0448 23.4518 49.6961 23.4249L46.7568 33.8697L57.3403 37.7337C64.1022 40.0814 71.261 41.0612 78.4033 40.6171L83.9379 40.2732L98.2881 44.2981L98.7216 43.144Z" fill="#0F0F0F"/>
<path d="M27.0503 13.1507C25.5349 13.1507 24.3076 14.379 24.3076 15.8934V23.7149L31.0367 31.4459C31.5376 32.0201 32.2621 32.3496 33.0241 32.3496H33.2148C33.8873 32.3496 34.5346 32.0933 35.024 31.6309C35.6868 31.0038 36.628 30.7658 37.5095 30.9999L37.97 31.1222L41.0662 19.4896L32.9162 14.7354C31.1368 13.6969 29.1109 13.1498 27.0503 13.1507Z" fill="#0F0F0F"/>
<path d="M24.5446 20.399V19.4694C24.5446 18.1756 25.5927 17.1284 26.8865 17.1284H28.0146C29.3074 17.1284 30.3556 18.1756 30.3556 19.4694V20.399C30.3556 21.6919 29.3074 22.741 28.0146 22.741H26.8865C25.5927 22.741 24.5446 21.6919 24.5446 20.399Z" fill="#F0724E"/>
<path d="M39.6665 18.6728L36.5433 30.9277C36.8621 30.8921 37.1897 30.9152 37.5095 31L37.97 31.1223L41.0663 19.4897L39.6665 18.6728Z" fill="white"/>
<path d="M28.1447 39.5632L27.321 39.5997C26.1813 39.6508 25.2064 38.7597 25.1554 37.6201L24.3799 20.3691C24.3288 19.2294 25.2199 18.2545 26.3605 18.2034L27.1832 18.1659C28.3238 18.1148 29.2988 19.0059 29.3489 20.1456L30.1244 37.3965C30.1764 38.5371 29.2853 39.5121 28.1447 39.5632Z" fill="#F0724E"/>
<path d="M29.7371 28.7716L29.4443 22.2534L29.7371 28.7716Z" fill="#0F0F0F"/>
<path d="M29.4443 22.2535L29.3662 20.5185C29.3672 20.532 29.3672 20.5444 29.3681 20.5579L29.4443 22.2535Z" fill="#D3583A"/>
<path d="M29.9067 38.0749C29.8469 37.493 29.5811 36.9555 29.1735 36.5537L28.4549 20.558C28.4019 19.3856 27.5349 18.4358 26.428 18.2277C26.5397 18.2065 26.6544 18.1901 26.7709 18.1853C26.8095 18.1834 26.847 18.1824 26.8846 18.1824C28.189 18.1824 29.2863 19.2084 29.3662 20.5186L29.4443 22.2536L29.7371 28.7717L30.1051 36.9853C30.1234 37.3707 30.0502 37.7416 29.9067 38.0749Z" fill="#D3583A"/>
<path d="M24.981 37.9063L25.2883 51.2614C25.2729 51.3471 25.2555 51.4377 25.2363 51.5321L27.6254 51.9406L29.8835 38.7453C30.1147 37.3966 29.2005 36.1048 27.8518 35.8745C26.5031 35.6433 25.2112 36.5585 24.981 37.9063Z" fill="#F0724E"/>
<path d="M28.4674 47.0236L29.8835 38.7454C29.9038 38.6269 29.9153 38.5094 29.9182 38.3928C29.9153 38.5094 29.9038 38.6269 29.8835 38.7454L28.4674 47.0236Z" fill="#DEBAA1"/>
<path d="M29.9182 38.3928C29.9182 38.3862 29.9192 38.3795 29.9192 38.3729C29.9192 38.3795 29.9182 38.3862 29.9182 38.3928ZM29.9192 38.3672C29.9192 38.3643 29.9192 38.3624 29.9192 38.3596C29.9192 38.3624 29.9192 38.3643 29.9192 38.3672ZM29.9192 38.3482C29.9192 38.3472 29.9192 38.3453 29.9192 38.3444C29.9192 38.3453 29.9192 38.3472 29.9192 38.3482Z" fill="#D3583A"/>
<path d="M27.6476 51.8143C27.4819 51.5214 27.2025 51.3085 26.874 51.243L29.268 36.6548C29.6793 37.1086 29.923 37.7077 29.9192 38.3436C29.9192 38.3445 29.9192 38.3465 29.9192 38.3474C29.9192 38.3513 29.9192 38.3551 29.9192 38.359C29.9192 38.3619 29.9192 38.3638 29.9192 38.3667C29.9192 38.3686 29.9192 38.3706 29.9192 38.3725C29.9192 38.3792 29.9182 38.386 29.9182 38.3927C29.9153 38.5093 29.9038 38.6268 29.8835 38.7453L28.4674 47.0235L27.6476 51.8143Z" fill="#D3583A"/>
<path d="M26.7208 51.2238V51.218C25.3018 51.1669 22.93 50.7854 21.1834 51.1544L16.828 52.9164C16.5631 53.0233 16.5313 53.3952 16.7808 53.5339C18.039 54.2247 22.4984 53.6428 23.6698 53.6428H26.5888L26.6591 53.6505C27.295 53.6505 27.8084 53.1052 27.8084 52.4338C27.8084 51.7835 27.3268 51.2575 26.7208 51.2238Z" fill="#F0724E"/>
<path d="M27.8085 52.4221C27.8085 52.4212 27.8085 52.4212 27.8085 52.4202C27.8085 52.4202 27.8085 52.4212 27.8085 52.4221ZM27.8075 52.4086C27.8075 52.4077 27.8075 52.4077 27.8075 52.4067C27.8075 52.4077 27.8075 52.4077 27.8075 52.4086ZM27.8075 52.3951C27.8075 52.3942 27.8075 52.3942 27.8075 52.3942C27.8075 52.3942 27.8075 52.3942 27.8075 52.3951Z" fill="#54203F"/>
<path d="M19.1825 53.8722C18.1623 53.8722 17.249 53.7913 16.7808 53.5341C16.6546 53.4647 16.6007 53.3346 16.6122 53.2094C17.1132 53.3337 17.8039 53.377 18.5524 53.377C20.2692 53.377 22.2893 53.1497 23.0224 53.1497H25.9424L26.0127 53.1574C26.6476 53.1574 27.162 52.6131 27.162 51.9407C27.162 51.6911 27.0898 51.4609 26.9684 51.2692C27.4404 51.4079 27.7911 51.8539 27.8075 52.3944C27.8075 52.3944 27.8075 52.3944 27.8075 52.3953C27.8075 52.3992 27.8075 52.4031 27.8075 52.4069C27.8075 52.4079 27.8075 52.4079 27.8075 52.4088C27.8085 52.4127 27.8084 52.4166 27.8084 52.4204C27.8084 52.4214 27.8084 52.4214 27.8084 52.4223C27.8084 52.4262 27.8084 52.4301 27.8084 52.4339C27.8084 52.5408 27.795 52.6458 27.7709 52.7441C27.6928 53.0581 27.4992 53.3221 27.242 53.483C27.0705 53.5889 26.872 53.6506 26.6591 53.6506L26.5888 53.6429H23.6698C22.9348 53.6429 20.904 53.8722 19.1825 53.8722Z" fill="#D3583A"/>
<path d="M96.321 42.1517L96.2448 42.1035L96.2429 41.7972L98.1802 39.8396L98.4856 39.8377L98.4876 40.1431L96.5502 42.1016L96.321 42.1517Z" fill="#0F0F0F"/>
<path d="M97.2978 42.5506C97.2159 42.5198 97.1572 42.4408 97.1562 42.3493L97.1408 39.595C97.1398 39.4746 97.2371 39.3773 97.3566 39.3773C97.4751 39.3754 97.5733 39.4727 97.5743 39.5921L97.5887 42.3464C97.5897 42.4668 97.4934 42.5641 97.3739 42.5641L97.2978 42.5506Z" fill="#0F0F0F"/>
<path d="M95.1264 41.802L95.0503 41.7529L95.0483 41.4475L96.9847 39.489L97.292 39.4871L97.293 39.7935L95.3557 41.7519L95.1264 41.802Z" fill="#0F0F0F"/>
<path d="M96.1023 42.1999C96.0204 42.1691 95.9626 42.091 95.9616 41.9986L95.9472 39.2443C95.9462 39.1249 96.0425 39.0276 96.162 39.0266C96.2814 39.0257 96.3787 39.122 96.3787 39.2415L96.3942 41.9966C96.3951 42.1151 96.2988 42.2134 96.1793 42.2134L96.1023 42.1999Z" fill="#0F0F0F"/>
<path d="M94.0108 41.3859L93.9347 41.3378L93.9328 41.0314L95.8701 39.0729L96.1755 39.071L96.1774 39.3773L94.241 41.3358L94.0108 41.3859Z" fill="#0F0F0F"/>
<path d="M94.9867 41.7838C94.9048 41.7539 94.847 41.675 94.847 41.5825L94.8316 38.8282C94.8307 38.7078 94.927 38.6115 95.0464 38.6105C95.1659 38.6095 95.2632 38.7059 95.2632 38.8253L95.2796 41.5805C95.2796 41.699 95.1832 41.7973 95.0638 41.7973L94.9867 41.7838Z" fill="#0F0F0F"/>
</svg>
