<svg width="125" height="72" viewBox="0 0 125 72" fill="none" xmlns="http://www.w3.org/2000/svg">
<path d="M124.781 71.0394H0L7.99338 59.8089H116.788L124.781 71.0394Z" fill="#7E315F"/>
<path d="M124.702 70.9293L56.5787 67.3137L59.7982 67.1527C60.4271 67.1222 61.0087 66.8089 61.3832 66.3033L61.5843 66.029L61.2856 65.8812L70.8335 65.0503C71.0139 65.681 71.2259 66.1958 71.4802 66.4942C71.56 66.5881 71.6675 66.6305 71.7749 66.6305C71.8154 66.6305 71.8558 66.6255 71.8942 66.6136C72.0332 66.5732 72.1525 66.4619 72.184 66.3001L72.4571 64.9093L117.619 60.9771L124.702 70.9293ZM54.347 67.1954L49.2813 66.927L51.994 66.7923C52.066 66.7881 52.1389 66.7861 52.2109 66.7861C52.8289 66.7861 53.4381 66.9155 54.0296 67.1046C54.1341 67.138 54.2405 67.1684 54.347 67.1954Z" fill="#54203F"/>
<path d="M69.5955 14.8681L77.5997 10.1661L80.3982 13.2673L80.0917 13.8213L80.6417 15.0229L80.3056 15.0436C79.9793 15.0623 79.6707 15.1767 79.4154 15.3649C78.7244 15.8736 78.062 16.4167 77.3227 16.8495L74.0402 18.7648L69.5955 14.8681Z" fill="#F0724E"/>
<path d="M79.0517 15.7326C79.032 15.7158 79.0123 15.6991 78.9926 15.6813C79.1325 15.5749 79.2735 15.4694 79.4154 15.3649C79.6609 15.1845 79.9547 15.0722 80.2671 15.0465C79.7792 15.086 79.3356 15.3393 79.0517 15.7326ZM80.2711 15.0455C80.274 15.0455 80.277 15.0455 80.279 15.0455C80.277 15.0455 80.274 15.0455 80.2711 15.0455ZM80.2859 15.0446C80.2878 15.0446 80.2898 15.0446 80.2918 15.0446C80.2898 15.0446 80.2878 15.0446 80.2859 15.0446Z" fill="#DEBAA1"/>
<path d="M78.9925 15.6813C78.3183 15.0968 77.3927 13.9987 77.6983 12.5447C77.8757 13.4023 78.4573 14.1258 79.2636 14.4817L79.7624 14.7005C80.0483 14.8257 80.3401 14.9341 80.6377 15.0229L80.3055 15.0436C80.3006 15.0436 80.2967 15.0436 80.2918 15.0445C80.2898 15.0445 80.2878 15.0445 80.2858 15.0445C80.2839 15.0445 80.2809 15.0445 80.2789 15.0455C80.277 15.0455 80.274 15.0455 80.2711 15.0455C80.2701 15.0455 80.2691 15.0455 80.2671 15.0465C79.9546 15.0722 79.6609 15.1845 79.4154 15.3649C79.2735 15.4694 79.1325 15.5749 78.9925 15.6813Z" fill="#D3583A"/>
<path d="M80.7373 7.60128C80.1311 10.1573 77.7968 11.7917 75.5227 11.2515C73.2496 10.7123 71.8982 8.20259 72.5064 5.64656C73.1126 3.09052 75.4478 1.45616 77.7209 1.99536C79.9941 2.53555 81.3455 5.04525 80.7373 7.60128Z" fill="#682B22"/>
<path d="M72.5734 6.99792C72.4531 6.99792 72.3338 6.98314 72.2136 6.95751C71.1352 6.716 70.459 5.47002 70.4294 5.41778C70.3821 5.32807 70.4166 5.21668 70.5043 5.16937C70.595 5.12008 70.7054 5.15458 70.7537 5.2433C70.7596 5.25513 71.3816 6.39366 72.2944 6.59771C72.6927 6.68544 73.0988 6.58095 73.5019 6.28227L73.7592 6.32072L73.7208 6.57898C73.3452 6.85696 72.9608 6.99792 72.5734 6.99792Z" fill="#682B22"/>
<path d="M74.9135 13.1262C74.5498 13.1262 74.2836 13.0788 74.26 13.0749C74.1604 13.0562 74.0934 12.9596 74.1121 12.86C74.1308 12.7604 74.2284 12.6934 74.326 12.7131C74.3398 12.7151 75.6183 12.9398 76.3448 12.3533C76.6652 12.097 76.8347 11.7146 76.8525 11.2138C76.8554 11.1123 76.9333 11.0462 77.0418 11.0364C77.1443 11.0403 77.2231 11.1251 77.2202 11.2276C77.1985 11.8398 76.9816 12.3149 76.5755 12.6412C76.0797 13.0394 75.4064 13.1262 74.9135 13.1262Z" fill="#682B22"/>
<path d="M75.2309 12.9577C74.4877 12.9577 73.7809 12.6758 73.7365 12.658C73.6429 12.6196 73.5975 12.5121 73.635 12.4185C73.6725 12.3239 73.7819 12.2775 73.8745 12.317C73.8893 12.3219 75.3305 12.8946 76.1072 12.3643C76.4473 12.1326 76.6169 11.7058 76.609 11.0976C76.608 10.9951 76.6898 10.9123 76.7904 10.9103C76.8919 10.9014 76.9757 10.9912 76.9767 11.0927C76.9855 11.833 76.7618 12.3633 76.3142 12.6689C75.9978 12.8838 75.6094 12.9577 75.2309 12.9577Z" fill="#682B22"/>
<path d="M85.4728 4.91C85.4807 7.2541 82.9602 9.16349 79.8433 9.17532C76.7253 9.18517 74.192 7.29353 74.1831 4.95042C74.1742 2.60632 76.6958 0.69595 79.8127 0.685106C82.9306 0.674263 85.464 2.5659 85.4728 4.91Z" fill="#682B22"/>
<path d="M79.7555 1.33687C76.9097 1.34574 74.5675 2.94068 74.187 5.00187L74.1831 4.95061C74.1742 2.60651 76.6958 0.69614 79.8127 0.685297C82.9306 0.674453 85.4639 2.56609 85.4728 4.91019C85.4728 5.11424 85.4492 5.31337 85.4127 5.50854C85.3674 3.1881 82.8507 1.32504 79.7555 1.33687Z" fill="#B14B3C"/>
<path d="M77.1896 4.30391C76.752 6.14232 74.9884 7.29859 73.2496 6.88557C71.5107 6.47254 70.455 4.64793 70.8917 2.80853C71.3274 0.969134 73.0919 -0.186152 74.8307 0.225888C76.5706 0.638915 77.6263 2.46451 77.1896 4.30391Z" fill="#682B22"/>
<path d="M76.7638 4.5492C77.1995 2.7098 76.1437 0.884205 74.4059 0.472164C73.6814 0.299659 72.9558 0.402168 72.321 0.70972C73.0436 0.216848 73.9396 0.0147791 74.8307 0.225728C76.5706 0.638755 77.6263 2.46435 77.1896 4.30375C76.9343 5.37722 76.2246 6.21608 75.3344 6.64685C76.0205 6.17862 76.5499 5.44524 76.7638 4.5492Z" fill="#B14B3C"/>
<path d="M79.2449 8.23895C78.5214 8.23895 77.7308 8.16207 76.8712 8.00731C76.6721 7.97182 76.54 7.78059 76.5755 7.5795C76.612 7.38038 76.8002 7.25124 77.0023 7.28377C79.5879 7.74806 81.4756 7.47994 82.6201 6.48532C83.7842 5.47296 83.7438 4.04166 83.7428 4.02687C83.735 3.82282 83.8946 3.65229 84.0967 3.64342H84.1105C84.3077 3.64342 84.4703 3.80015 84.4782 3.99828C84.4812 4.07123 84.5305 5.79923 83.1031 7.04127C82.1844 7.83874 80.8921 8.23895 79.2449 8.23895Z" fill="#682B22"/>
<path d="M79.7003 6.39361L79.2015 7.12405C79.2015 7.12405 78.2168 8.43213 76.6061 7.87617L76.2236 6.74453L75.8175 5.68584L76.4641 5.05891L78.1576 5.20677L79.5446 6.3808L79.7003 6.39361Z" fill="#682B22"/>
<path d="M82.2632 4.10863C82.2632 4.10863 84.3885 5.29154 84.1145 8.24679C84.0928 8.50013 84.1342 8.75543 84.2357 8.98806L85.0164 10.7821C85.0687 10.9014 85.0539 11.0394 84.9789 11.1468C84.9021 11.2543 84.7739 11.3144 84.6408 11.3026L84.3294 11.276L84.2189 11.3134L84.1214 11.4012L84.0997 11.6446L84.2761 11.8793L84.0494 12.1346L84.0454 12.5101L84.0622 12.727C84.0829 12.9813 83.87 13.0907 83.732 13.3046L83.8109 14.2145C83.7458 14.9193 83.113 15.4309 82.4111 15.3491L81.9458 15.2949C81.1917 15.2061 80.4564 15.006 79.7624 14.7005L79.2636 14.4816C78.4119 14.1061 77.8116 13.3204 77.6726 12.3997L77.4962 11.2326C75.3177 11.0433 73.8568 8.88555 74.5202 6.80169C74.9737 5.37828 75.8322 4.07118 77.4429 3.80503C77.4429 3.80503 80.1922 3.15443 82.2632 4.10863Z" fill="#F0724E"/>
<path d="M83.732 13.3046C83.732 13.3046 83.0982 12.7615 83.0163 12.1947C83.3111 12.4805 83.7951 12.7033 83.7951 12.7033C83.9154 12.7684 84.0011 12.792 84.0622 12.793C84.0445 13.002 83.8572 13.1104 83.732 13.3046Z" fill="#D3583A"/>
<path d="M82.8941 11.9483C83.0716 11.9365 83.5861 11.8803 83.9676 11.6122C83.9676 11.6122 84.1411 11.3707 84.3934 11.5669C84.3934 11.5669 84.5137 11.8596 84.1509 12.1425C84.1509 12.1425 84.286 12.5309 84.2131 12.6709C84.2131 12.6709 84.1983 12.9223 83.7951 12.7034C83.7951 12.7034 83.0853 12.3771 82.8626 12.0075L82.8941 11.9483Z" fill="#B73C2B"/>
<path d="M84.6734 11.3036C84.6625 11.3036 84.6517 11.3037 84.6408 11.3027L84.3461 11.277L84.3293 11.2761L84.6408 11.3027C84.6517 11.3037 84.6625 11.3036 84.6734 11.3036C84.7946 11.3036 84.9079 11.2455 84.9789 11.1469C84.9079 11.2455 84.7946 11.3036 84.6734 11.3036Z" fill="#DEBAA1"/>
<path d="M84.6734 11.3036C84.6625 11.3036 84.6517 11.3037 84.6408 11.3027L84.3294 11.2761C84.0238 11.2751 83.5624 11.1479 83.5624 11.1479C83.0804 11.0355 83.3121 10.4973 83.3121 10.4973L83.4777 10.6127C83.5062 10.6196 83.5348 10.6235 83.5644 10.6235C83.6344 10.6235 83.7054 10.6028 83.7665 10.5663C83.9301 10.4677 84.0691 10.4362 84.1815 10.4362C84.3964 10.4362 84.5127 10.5545 84.5127 10.5545C84.7877 10.7487 84.9159 10.7822 84.9721 10.7822C85.0026 10.7822 85.0115 10.7733 85.0115 10.7733L85.0214 10.7989C85.0647 10.9143 85.0499 11.0444 84.9789 11.1469C84.908 11.2455 84.7946 11.3036 84.6734 11.3036Z" fill="#D3583A"/>
<path d="M83.4678 8.59485C83.3515 8.43811 83.18 8.35433 83.0074 8.29519C82.9207 8.26759 82.832 8.24689 82.7433 8.23407L82.6082 8.21929L82.5402 8.21337L82.4791 8.21042C82.3155 8.20056 82.1499 8.18281 81.9931 8.15324L81.7723 8.08817L81.6264 7.9689L81.6205 7.95411L81.5407 7.92356L81.5052 7.98862L81.5219 8.07241L81.5633 8.14634L81.6176 8.2045L81.6767 8.25181L81.935 8.37306C82.1104 8.42924 82.2879 8.45192 82.4653 8.46276C82.5609 8.46868 82.6319 8.46473 82.7157 8.4736L82.9572 8.50022C83.1139 8.52585 83.2776 8.56527 83.4156 8.64216L83.4225 8.64709L83.4708 8.63231L83.4678 8.59485Z" fill="#682B22"/>
<path d="M82.829 8.71515C82.8162 8.87681 82.8685 9.01382 82.9493 9.02072C83.0301 9.02762 83.107 8.90244 83.1198 8.73979C83.1346 8.57813 83.0804 8.44209 83.0006 8.43519C82.9197 8.42829 82.8438 8.55348 82.829 8.71515Z" fill="#682B22"/>
<path d="M83.1346 9.12902L83.1494 9.13L83.18 9.09944L83.1504 9.06889C83.1485 9.06889 83.0154 9.06396 82.9474 8.97426C82.903 8.9161 82.8941 8.8333 82.9198 8.72783L82.8991 8.69037L82.8616 8.71304C82.8291 8.83724 82.8419 8.93679 82.8991 9.01171C82.971 9.10634 83.0942 9.12606 83.1346 9.12902Z" fill="#682B22"/>
<path d="M83.6689 7.29166C83.6058 7.19408 83.524 7.15169 83.4363 7.12409C83.3476 7.09945 83.2589 7.08072 83.1691 7.06298C82.9907 7.02749 82.8103 7.01171 82.63 7.00678C82.4496 7.00481 82.2692 7.01566 82.0917 7.0472C81.9153 7.07677 81.7428 7.12704 81.5791 7.19013L81.5604 7.23055L81.592 7.25026H81.5929C81.7664 7.24336 81.935 7.23154 82.1045 7.24534C82.2731 7.25224 82.4397 7.26997 82.6023 7.30053C82.767 7.32715 82.9276 7.36756 83.0854 7.41389L83.319 7.49177C83.3959 7.51642 83.4767 7.53219 83.5713 7.5036L83.595 7.49768L83.6867 7.32715L83.6689 7.29166Z" fill="#682B22"/>
<path d="M84.4614 10.9754C84.3727 10.9241 84.2791 10.8916 84.1775 10.8808C84.079 10.8699 83.9626 10.8817 83.8769 10.9231L83.6393 10.9429L83.4432 10.794L83.4126 10.7881L83.4047 10.8117C83.4284 10.9064 83.4974 11.0049 83.6038 11.0473C83.7103 11.0917 83.8246 11.073 83.9212 11.0316C84.004 10.9892 84.0799 10.9626 84.1716 10.9665L84.4259 11.0335L84.4279 11.0345L84.4742 11.0217L84.4614 10.9754Z" fill="#682B22"/>
<path d="M84.3175 3.79417C84.3254 5.89873 81.9261 7.61589 78.96 7.62575C75.9939 7.63561 73.5828 5.93717 73.5749 3.83162C73.567 1.72608 75.9663 0.0108829 78.9324 4.00543e-05C81.8995 -0.0108032 84.3106 1.68763 84.3175 3.79417Z" fill="#682B22"/>
<path d="M84.1125 3.99923C84.1046 1.89664 81.585 0.200179 78.4819 0.212008C77.647 0.214965 76.8564 0.345083 76.1447 0.568847C76.957 0.213979 77.9092 0.00302792 78.9324 7.05719e-05C81.8995 -0.0107727 84.3106 1.68766 84.3175 3.7942C84.3214 4.8726 83.6906 5.8475 82.6782 6.54541C83.5703 5.86722 84.1164 4.97708 84.1125 3.99923Z" fill="#B14B3C"/>
<path d="M81.2893 4.9032C81.2893 4.9032 81.4697 5.53606 80.1735 6.23889C80.1735 6.23889 79.5702 6.69528 79.7161 7.20491C79.7161 7.20491 80.3312 8.51891 79.5564 8.85801C79.5564 8.85801 78.959 9.20006 78.7304 8.78506C78.7304 8.78506 78.3272 7.62189 77.3503 7.96296C77.3503 7.96296 76.3192 8.2567 76.6396 9.71461C76.6396 9.71461 76.7894 10.4776 77.4548 10.8009C77.4548 10.8009 77.8954 12.4599 75.6598 12.8384C75.6598 12.8384 72.7646 12.1011 72.9332 7.96098C73.0032 6.24086 73.9436 4.65677 75.4537 3.83269C76.3123 3.36347 77.4597 3.02634 78.9788 3.04902C78.9788 3.04902 80.899 3.02634 81.3219 4.09587C81.3219 4.09587 81.4865 4.29401 81.2893 4.9032Z" fill="#682B22"/>
<path d="M77.9358 10.7418C77.6559 10.7418 77.299 10.1405 77.299 10.1405C76.4089 8.79399 77.5504 8.43321 77.5504 8.43321C77.5918 8.42236 77.6312 8.41744 77.6697 8.41744C78.0423 8.41744 78.2838 8.87088 78.3528 9.01677C77.9614 9.20998 77.8087 9.85662 78.0186 10.5279L78.0827 10.6975L78.0029 10.729C77.9812 10.7369 77.9585 10.7418 77.9358 10.7418Z" fill="#BE462D"/>
<path d="M77.9477 11.0345C77.9368 11.1607 78.0295 11.2721 78.1546 11.2819C78.2808 11.2928 78.3912 11.2001 78.4021 11.0739C78.4139 10.9487 78.3203 10.8383 78.1951 10.8265C78.0689 10.8166 77.9585 10.9093 77.9477 11.0345Z" fill="#923C1D"/>
<path d="M71.6872 11.2948L63.8052 9.64762L47.5995 1.81491C46.4166 1.24416 45.078 1.03716 43.7897 1.29049C38.8166 2.26637 35.7834 7.26705 37.1556 12.0962L38.4834 16.7745L42.2746 32.8461L41.9443 37.8034C41.5658 43.4813 42.7931 49.1502 45.4881 54.1628L46.6345 56.2949C47.4635 57.8375 48.0441 59.4997 48.3576 61.2225L48.4759 61.8724L47.3787 64.1689C47.0653 64.8235 47.1343 65.6271 47.639 66.2452C48.0323 66.7268 48.6592 66.9587 49.2812 66.9271L51.994 66.7924C52.686 66.7577 53.3691 66.8928 54.0295 67.1046C54.6308 67.2979 55.2627 67.3796 55.8936 67.3479L59.7981 67.1527C60.427 67.1223 61.0086 66.8089 61.3832 66.3033L61.5843 66.0291L53.4076 61.9768L51.9043 55.6307C50.9521 51.2056 50.7253 48.2622 50.3448 43.6479L49.8086 37.1489C49.7436 36.3554 49.8382 35.5421 50.1881 34.8275C50.4661 34.2577 50.6307 33.6396 50.6701 33.0068L50.749 31.7431C51.0625 26.7355 50.7618 21.7092 49.8559 16.7745L51.8264 17.23L55.7014 21.099C56.5679 21.9645 57.7419 22.4505 58.9662 22.4505H60.6212L64.784 25.5309C66.2666 26.629 68.2992 26.6024 69.7541 25.4688L73.2111 22.7718C74.2462 21.9635 74.8002 20.683 74.6769 19.3749L74.1811 14.0864C74.052 12.7103 73.0406 11.5777 71.6872 11.2948Z" fill="#F0724E"/>
<path d="M63.8052 9.64745L60.8135 8.20136L57.8592 22.3103C58.219 22.399 58.5896 22.4503 58.9662 22.4503H60.6212L61.8731 23.3769C63.1802 19.2693 65.4731 12.6737 66.0409 10.1147L63.8052 9.64745Z" fill="#0F0F0F"/>
<path d="M52.4504 57.9352L51.9043 55.6315C50.9521 51.2056 50.7254 48.2621 50.3449 43.6479L49.8076 37.1439C49.7396 36.3149 49.8865 35.482 50.2354 34.7279C50.4858 34.1857 50.6327 33.6031 50.6702 33.0068L50.749 31.7431C51.0625 26.7355 50.7618 21.7082 49.8559 16.7745L51.8264 17.23L51.5307 3.71639L47.5995 1.8149C46.3132 1.19289 44.8513 1.0332 43.4604 1.36145C38.6835 2.48914 35.813 7.37449 37.1546 12.0962L38.4834 16.7745L42.2746 32.8461L41.9444 37.8044C41.5658 43.4813 42.7931 49.1502 45.4881 54.1628L46.6335 56.2949C46.9194 56.8263 47.1648 57.3781 47.3906 57.9352H48.1979L47.6617 51.2884L51.5307 57.9352H52.4504Z" fill="#0F0F0F"/>
<path d="M71.6872 11.2947L63.8052 9.64758L61.9964 8.77322L59.466 22.4504H60.6213L64.784 25.5309C66.2666 26.629 68.2992 26.6024 69.7542 25.4688L73.2112 22.7718C74.2462 21.9635 74.8002 20.683 74.677 19.3749L74.1811 14.0864C74.052 12.7103 73.0406 11.5777 71.6872 11.2947Z" fill="#0F0F0F"/>
<path d="M61.9964 8.77319L59.466 22.4504H60.6212L63.8052 9.64754L61.9964 8.77319Z" fill="white"/>
<path d="M74.2324 18.7646C74.2324 20.7746 72.602 22.404 70.592 22.404C68.5821 22.404 66.9527 20.7746 66.9527 18.7646C66.9527 16.7547 68.5821 15.1262 70.592 15.1262C72.602 15.1262 74.2324 16.7547 74.2324 18.7646Z" fill="#F0724E"/>
<path d="M68.2894 41.4476L69.2426 41.5423C70.5615 41.6714 71.7473 40.6985 71.8774 39.3796L73.842 19.4192C73.9721 18.1003 72.9992 16.9145 71.6803 16.7843L70.7271 16.6917C69.4082 16.5616 68.2223 17.5345 68.0922 18.8534L66.1276 38.8137C65.9975 40.1327 66.9714 41.3175 68.2894 41.4476Z" fill="#F0724E"/>
<path d="M66.1769 38.9261C66.1562 38.7339 66.1552 38.5367 66.1749 38.3376L68.0459 19.3295C68.1918 17.844 69.4565 16.7242 70.9203 16.7242C71.0139 16.7242 71.1086 16.7291 71.2032 16.739C71.3392 16.7508 71.4713 16.7774 71.6004 16.809C70.3022 16.9834 69.2386 18.0303 69.1055 19.3867L67.3765 36.9447C67.2908 37.0059 67.21 37.0719 67.1321 37.1419C66.5002 37.6831 66.24 38.3258 66.1769 38.9261Z" fill="#D3583A"/>
<path d="M71.8952 38.7586L71.7996 54.2741C71.8183 54.3727 71.84 54.4783 71.8646 54.5876L69.0977 55.1082L66.2173 39.8281C65.9226 38.2667 66.9596 36.7487 68.521 36.4549C70.0824 36.1612 71.6004 37.1972 71.8952 38.7586Z" fill="#F0724E"/>
<path d="M69.0947 55.0931L66.2173 39.8281C66.2163 39.8231 66.2153 39.8172 66.2143 39.8123C66.2153 39.8172 66.2163 39.8231 66.2173 39.8281L69.0947 55.0931ZM66.2133 39.8093C66.2025 39.7472 66.1926 39.6831 66.1848 39.6171C66.1848 39.6201 66.1857 39.622 66.1857 39.624C66.1936 39.6861 66.2025 39.7472 66.2133 39.8093Z" fill="#DEBAA1"/>
<path d="M66.1858 39.624C66.1858 39.622 66.1848 39.62 66.1848 39.6171C66.1582 39.4002 66.1523 39.1666 66.1769 38.9261C66.1789 38.9458 66.1818 38.9655 66.1838 38.9842C66.1611 39.1942 66.1611 39.4081 66.1858 39.624Z" fill="#D3583A"/>
<path d="M66.1838 38.9843C66.1818 38.9655 66.1789 38.9458 66.1769 38.9261C66.24 38.3258 66.5002 37.6831 67.1321 37.1419C66.6067 37.6141 66.2626 38.2696 66.1838 38.9843Z" fill="#B8442B"/>
<path d="M69.0947 55.0931L66.2173 39.8281C66.2163 39.8231 66.2153 39.8172 66.2144 39.8123C66.2144 39.8113 66.2134 39.8103 66.2134 39.8093C66.2025 39.7472 66.1937 39.6861 66.1858 39.624C66.1611 39.4081 66.1611 39.1942 66.1838 38.9843C66.2627 38.2696 66.6067 37.6141 67.1321 37.1419C67.276 37.0187 67.4387 36.9014 67.623 36.79L69.9198 53.7912C69.42 54.0207 69.0927 54.5016 69.0927 55.0222C69.0927 55.0461 69.0937 55.0696 69.0947 55.0931Z" fill="#D3583A"/>
<path d="M71.91 54.6406L71.9169 54.6398C72.2964 56.2448 73.2713 58.8597 73.2388 60.9348L72.184 66.3001C72.12 66.6263 71.6961 66.7487 71.4802 66.4942C70.3969 65.2208 70.0647 60.006 69.8005 58.6725L69.142 55.3464L69.1164 55.2656C68.9735 54.544 69.487 53.8324 70.2648 53.6795C71.0169 53.5309 71.7345 53.9587 71.91 54.6406Z" fill="#F0724E"/>
<path d="M71.7749 66.6306C71.6675 66.6306 71.56 66.5882 71.4802 66.4942C71.2259 66.1958 71.0139 65.681 70.8335 65.0503C71.0139 65.681 71.2259 66.1958 71.4802 66.4942C71.56 66.5882 71.6675 66.6306 71.7759 66.6306C71.8153 66.6306 71.8558 66.6243 71.8942 66.6136C71.8558 66.6255 71.8153 66.6306 71.7749 66.6306Z" fill="#7E315F"/>
<path d="M71.7759 66.6306C71.6675 66.6306 71.56 66.5882 71.4802 66.4942C71.2259 66.1958 71.0139 65.681 70.8335 65.0503C70.245 62.9902 70.0026 59.6938 69.8005 58.6725L69.142 55.3465L69.1164 55.2656C69.1006 55.1848 69.0927 55.1032 69.0927 55.0222C69.0927 54.3904 69.5757 53.8159 70.2648 53.6796C70.3653 53.6599 70.4659 53.6503 70.5634 53.6503C71.0948 53.6503 71.5719 53.9322 71.8025 54.3696C71.6389 54.3088 71.4615 54.2741 71.2771 54.2741C71.1805 54.2741 71.081 54.2841 70.9814 54.3037C70.2036 54.4574 69.6891 55.1682 69.833 55.8898L69.8577 55.9695L70.5161 59.2956C70.7537 60.4962 71.0484 64.8247 71.8942 66.6136C71.8558 66.6243 71.8153 66.6306 71.7759 66.6306Z" fill="#D3583A"/>
<path d="M50.3064 54.2505L50.3054 54.341C50.2798 54.4624 50.1605 54.5393 50.0393 54.5147L47.2575 53.917C47.1363 53.8916 47.0594 53.7734 47.085 53.651C47.1116 53.5297 47.2309 53.4531 47.3522 53.4777L50.1329 54.0738C50.2236 54.0938 50.2897 54.1647 50.3064 54.2505Z" fill="#0F0F0F"/>
<path d="M50.1329 53.2113C50.1506 53.301 50.1122 53.3969 50.0294 53.447L47.5956 54.9295C47.4901 54.9938 47.3511 54.9602 47.2871 54.8536C47.222 54.7493 47.2565 54.6091 47.362 54.5451L49.7958 53.0635C49.9013 52.9984 50.0393 53.0319 50.1034 53.1374L50.1329 53.2113Z" fill="#0F0F0F"/>
<path d="M50.6406 55.4493V55.541C50.615 55.6622 50.4957 55.7389 50.3734 55.7135L47.5917 55.1158C47.4704 55.0912 47.3935 54.973 47.4202 54.8497C47.4458 54.7285 47.5651 54.6507 47.6863 54.6772L50.4671 55.2725C50.5578 55.2925 50.6248 55.3634 50.6406 55.4493Z" fill="#0F0F0F"/>
<path d="M50.4671 54.4092C50.4849 54.4997 50.4464 54.5956 50.3636 54.6457L47.9298 56.1273C47.8243 56.1924 47.6863 56.1589 47.6223 56.0522C47.5572 55.9468 47.5897 55.8078 47.6962 55.7439L50.13 54.2621C50.2355 54.1971 50.3745 54.2306 50.4385 54.3372L50.4671 54.4092Z" fill="#0F0F0F"/>
<path d="M50.8742 56.6163L50.8732 56.706C50.8476 56.8281 50.7283 56.9059 50.6071 56.8793L47.8253 56.284C47.705 56.2574 47.6272 56.1392 47.6528 56.016C47.6784 55.8947 47.7977 55.8178 47.919 55.8435L50.7017 56.4396C50.7904 56.4585 50.8575 56.5304 50.8742 56.6163Z" fill="#0F0F0F"/>
<path d="M50.7007 55.5764C50.7175 55.6669 50.6791 55.7616 50.5963 55.8129L48.1634 57.2945C48.0579 57.3596 47.919 57.325 47.8549 57.2194C47.7908 57.1131 47.8243 56.9761 47.9298 56.9099L50.3626 55.4293C50.4681 55.3642 50.6071 55.3978 50.6712 55.5044L50.7007 55.5764Z" fill="#0F0F0F"/>
<path d="M49.7613 2.85878L50.1349 16.8386L50.8565 17.0052L50.4858 3.21069L49.7613 2.85878Z" fill="#0F0F0F"/>
</svg>
