<svg width="127" height="70" viewBox="0 0 127 70" fill="none" xmlns="http://www.w3.org/2000/svg">
<path d="M126.731 69.3348H5.70153L13.4556 58.4407H118.978L126.731 69.3348Z" fill="#7E315F"/>
<path d="M123.353 64.5886L119.457 59.113L123.353 64.5886Z" fill="#DEBAA1"/>
<path d="M126.158 68.5296L61.876 65.3774C62.4076 65.1728 62.9736 65.0674 63.5434 65.0674H65.9682C66.7139 65.0674 67.3555 64.5856 67.584 63.907L119.457 59.113L123.353 64.5886L126.158 68.5296Z" fill="#54203F"/>
<path d="M118.915 20.3034L117.556 17.1301C117.324 16.5889 116.99 16.0955 116.573 15.6777C116.155 15.2609 115.822 14.7675 115.589 14.2254L114.635 11.9967C114.285 11.1792 113.365 10.7681 112.523 11.0521C112.211 11.1572 111.199 12.0091 110.994 12.2673L106.814 12.2893C105.771 12.295 104.727 12.2405 103.689 12.1258L98.1786 11.5158C95.1372 10.9947 92.0079 11.4928 89.2791 12.9356L89.1988 12.9777L76.8965 10.8924C76.8965 10.8924 73.5224 5.42343 66.5408 9.26222L71.0786 19.8521L88.1576 19.1494C89.4474 19.07 90.6932 18.6455 91.7631 17.9189C92.8273 17.1979 94.0635 16.7744 95.3447 16.6912L105.954 16.0028L112.221 15.7533L118.717 22.1563L118.855 21.8905C119.112 21.3972 119.134 20.8149 118.915 20.3034Z" fill="#D4533A"/>
<path d="M103.007 14.3306L108.065 13.0905V12.2826L106.814 12.2893C105.771 12.295 104.727 12.2405 103.689 12.1258L98.1786 11.5158C95.1372 10.9947 92.0079 11.4928 89.2791 12.9356L89.1988 12.9777L76.8965 10.8924C76.8965 10.8924 73.5224 5.42342 66.5408 9.26221L71.0786 19.8521L88.1576 19.1494C89.4474 19.07 90.6932 18.6455 91.7631 17.9189C92.8273 17.1979 94.0635 16.7744 95.3447 16.6912L105.954 16.0028L108.065 15.9187V15.2045L103.007 14.3306Z" fill="#0F0F0F"/>
<path d="M106.613 15.4626L106.529 15.4454C106.42 15.3995 106.37 15.2752 106.415 15.1662L107.465 12.6822C107.511 12.5732 107.636 12.5235 107.745 12.5684C107.853 12.6143 107.903 12.7396 107.857 12.8476L106.809 15.3316L106.613 15.4626Z" fill="#0F0F0F"/>
<path d="M107.612 15.4846C107.526 15.4855 107.443 15.433 107.411 15.3469L106.462 12.817C106.421 12.7071 106.478 12.5837 106.588 12.5426C106.697 12.5006 106.82 12.557 106.862 12.6669L107.81 15.1968C107.851 15.3067 107.795 15.4301 107.685 15.4712L107.612 15.4846Z" fill="#0F0F0F"/>
<path d="M105.437 15.5601L105.352 15.5438C105.244 15.4979 105.194 15.3727 105.24 15.2647L106.289 12.7797C106.335 12.6717 106.459 12.62 106.569 12.6669C106.677 12.7128 106.728 12.838 106.682 12.9461L105.632 15.431L105.437 15.5601Z" fill="#0F0F0F"/>
<path d="M106.437 15.583C106.35 15.584 106.267 15.5304 106.235 15.4444L105.287 12.9155C105.246 12.8055 105.302 12.6822 105.413 12.6411C105.522 12.6 105.645 12.6554 105.687 12.7663L106.634 15.2952C106.676 15.4052 106.619 15.5285 106.509 15.5696L106.437 15.583Z" fill="#0F0F0F"/>
<path d="M104.309 15.5706L104.224 15.5544C104.116 15.5075 104.065 15.3832 104.111 15.2742L105.161 12.7902C105.207 12.6822 105.331 12.6306 105.44 12.6765C105.548 12.7224 105.6 12.8467 105.554 12.9557L104.503 15.4396L104.309 15.5706Z" fill="#0F0F0F"/>
<path d="M105.308 15.5936C105.22 15.5945 105.14 15.541 105.107 15.4549L104.159 12.9251C104.118 12.8141 104.174 12.6918 104.284 12.6506C104.394 12.6095 104.517 12.665 104.558 12.7749L105.505 15.3048C105.547 15.4148 105.492 15.5381 105.381 15.5792L105.308 15.5936Z" fill="#0F0F0F"/>
<path d="M39.7334 9.9009L31.1963 10.1399L30.5261 13.9252L31.0356 14.2063L31.1934 15.4129L31.4649 15.2656C31.7288 15.1203 32.0252 15.0591 32.3159 15.0811C33.1028 15.1404 33.8848 15.2417 34.6727 15.2178L38.1692 15.1107L39.7334 9.9009Z" fill="#F0724E"/>
<path d="M31.4927 15.2504C31.7145 15.1347 31.9573 15.0773 32.1992 15.0773C32.2384 15.0773 32.2776 15.0783 32.3159 15.0812C32.4784 15.0936 32.64 15.1079 32.8006 15.1223C32.7939 15.1452 32.7863 15.1682 32.7796 15.1911C32.5931 15.1156 32.3971 15.0773 32.2002 15.0773C31.9573 15.0773 31.7145 15.1347 31.4927 15.2504Z" fill="#DEBAA1"/>
<path d="M31.1972 15.411C31.2871 15.3087 31.3741 15.2025 31.4573 15.0955L32.8245 15.0429C32.8169 15.0696 32.8092 15.0964 32.8006 15.1222C32.64 15.1079 32.4784 15.0935 32.3159 15.0811C32.2777 15.0782 32.2385 15.0773 32.1993 15.0773C31.9574 15.0773 31.7145 15.1347 31.4927 15.2503C31.4831 15.2551 31.4745 15.2599 31.465 15.2656L31.1972 15.411Z" fill="#D3583A"/>
<path d="M27.4952 9.67048C29.2162 11.3685 31.8359 11.5033 33.3456 9.97356C34.8553 8.44283 34.6842 5.82596 32.9632 4.1279C31.2422 2.4308 28.6234 2.29503 27.1137 3.82577C25.604 5.35746 25.7751 7.97338 27.4952 9.67048Z" fill="#682B22"/>
<path d="M32.662 5.46552L32.4698 5.45786C32.3713 5.45021 32.2987 5.36416 32.3063 5.26664C32.314 5.1672 32.401 5.08976 32.4975 5.10219C32.9555 5.13661 33.3208 5.02379 33.5866 4.76086C34.1966 4.15851 34.1249 2.97197 34.1239 2.96049C34.1163 2.86201 34.1908 2.77692 34.2903 2.77023C34.3916 2.76067 34.4729 2.83811 34.4786 2.93659C34.4834 2.99205 34.5628 4.29809 33.8371 5.01518C33.534 5.31444 33.1401 5.46552 32.662 5.46552Z" fill="#682B22"/>
<path d="M33.3944 11.5914L33.2003 11.5789C32.7222 11.5235 32.3188 11.2567 32.0013 10.7873L32.0501 10.5396L32.2977 10.5875C32.554 10.9661 32.8714 11.1802 33.2424 11.2252C34.0933 11.3304 34.9767 10.531 34.9853 10.5224L35.2378 10.5339L35.2263 10.7854C35.188 10.8198 34.3343 11.5914 33.3944 11.5914Z" fill="#682B22"/>
<path d="M33.4709 11.4747H33.4192C32.9173 11.4536 32.4823 11.1477 32.1256 10.5635L32.1858 10.3178L32.4316 10.3771C32.7203 10.8532 33.0578 11.1018 33.4336 11.1171L33.4709 11.118C34.317 11.118 35.1354 10.0061 35.1441 9.99461L35.3927 9.95445L35.4318 10.204C35.3945 10.2556 34.5006 11.4747 33.4709 11.4747Z" fill="#682B22"/>
<path d="M22.489 9.88271C23.6277 11.7156 26.5247 11.9737 28.9618 10.4612C31.398 8.9486 32.4526 6.23611 31.3148 4.40324C30.1771 2.57133 27.2791 2.31222 24.8419 3.82479C22.4048 5.33736 21.3522 8.04985 22.489 9.88271Z" fill="#682B22"/>
<path d="M25.2033 4.30483C27.4292 2.9242 30.0346 3.02364 31.3368 4.44633L31.3148 4.40331C30.1771 2.5714 27.2791 2.31229 24.8419 3.82486C22.4048 5.33743 21.3522 8.04992 22.489 9.88278C22.5884 10.0415 22.705 10.184 22.8284 10.3197C21.7317 8.48782 22.7853 5.80592 25.2033 4.30483Z" fill="#B14B3C"/>
<path d="M28.654 5.36699C29.8922 6.5889 31.8331 6.63001 32.9881 5.45877C34.143 4.28754 34.0752 2.34759 32.837 1.12664C31.5988 -0.0952764 29.6588 -0.136397 28.5039 1.03484C27.3489 2.20608 27.4158 4.14508 28.654 5.36699Z" fill="#682B22"/>
<path d="M29.1062 5.35078C27.8681 4.12887 27.8011 2.18988 28.9561 1.01864C29.4361 0.531977 30.0528 0.258523 30.6982 0.187771C29.8931 0.155263 29.0957 0.435402 28.5039 1.03488C27.3489 2.20612 27.4158 4.14512 28.654 5.36703C29.3768 6.08029 30.3396 6.38816 31.245 6.28968C30.4811 6.25909 29.7105 5.94643 29.1062 5.35078Z" fill="#B14B3C"/>
<path d="M25.975 10.4526C25.7713 10.4526 25.5724 10.4373 25.3755 10.4058C23.6468 10.1333 22.837 8.75362 22.8045 8.6953C22.707 8.52416 22.7653 8.30712 22.9355 8.2096C23.1085 8.10921 23.3237 8.16944 23.4231 8.33963C23.4298 8.35015 24.1077 9.48888 25.4978 9.70209C26.8651 9.91817 28.4627 9.20109 30.243 7.58717C30.3874 7.45523 30.6131 7.4667 30.746 7.61107C30.8789 7.7564 30.8674 7.983 30.7211 8.11495C29.0096 9.66863 27.4158 10.4526 25.975 10.4526Z" fill="#682B22"/>
<path d="M27.7161 8.22294L28.4609 8.54802C28.4609 8.54802 29.8683 9.08822 30.8531 7.86822L30.5987 6.79928L30.3989 5.77529L29.5891 5.60223L28.3395 6.544L27.8308 8.13688L27.7161 8.22294Z" fill="#682B22"/>
<path d="M24.601 7.69124C24.601 7.69124 23.5215 9.65032 25.1775 11.8226C25.3181 12.0091 25.4099 12.2289 25.4443 12.4594L25.7101 14.2397C25.7283 14.3592 25.8067 14.4596 25.9176 14.5055C26.0304 14.5533 26.1604 14.537 26.258 14.4634L26.4874 14.2894L26.5926 14.2645L26.7111 14.2865C26.7962 14.3018 26.8555 14.3793 26.8479 14.4663L26.823 14.734L27.1261 14.8229L27.3116 15.1145L27.4043 15.2914C27.5114 15.4998 27.7323 15.4816 27.9436 15.5811L28.327 16.3288C28.7209 16.847 29.4648 16.9378 29.9725 16.5305L30.309 16.2618C30.853 15.8249 31.3292 15.3095 31.7212 14.7321L32.0023 14.3171C32.4842 13.6096 32.5692 12.7041 32.2289 11.9182L31.7967 10.9219C33.403 9.71055 33.49 7.31358 31.9564 6.01327C30.9075 5.12313 29.6005 4.52269 28.2142 5.10209C28.2142 5.10209 25.7512 5.93582 24.601 7.69124Z" fill="#F0724E"/>
<path d="M27.9436 15.5811C27.7514 15.4913 27.5516 15.498 27.4369 15.3431C27.4665 15.324 27.4999 15.2934 27.5353 15.2446L28.022 15.2264C27.9904 15.433 27.9436 15.5811 27.9436 15.5811Z" fill="#D3583A"/>
<path d="M27.935 14.1144C27.7916 14.1909 27.3623 14.3993 26.9349 14.3754C26.9349 14.3754 26.6806 14.2721 26.5802 14.5485C26.5802 14.5485 26.629 14.8353 27.0506 14.8793C27.0506 14.8793 27.1347 15.2474 27.259 15.32C27.259 15.32 27.3938 15.5113 27.6013 15.1432C27.6013 15.1432 27.9952 14.5418 27.9895 14.144L27.935 14.1144Z" fill="#B73C2B"/>
<path d="M25.8506 11.7777C25.865 11.5989 25.9577 11.4497 26.0638 11.3206L26.2407 11.1418L26.3392 11.0653L26.3889 11.0281L26.4348 10.9965C26.5582 10.9085 26.6777 10.8139 26.7857 10.7135L26.9272 10.5557L26.9817 10.3913L26.9798 10.377L27.0267 10.3138L27.0859 10.3473L27.1136 10.4209L27.1175 10.4984L27.1041 10.571L27.0802 10.637L26.9377 10.856C26.8287 10.986 26.7016 11.0912 26.5687 11.1858L26.3784 11.3168L26.2034 11.4545C26.0935 11.552 25.9854 11.662 25.9147 11.7891L25.9109 11.7968L25.8669 11.8092L25.8506 11.7777Z" fill="#682B22"/>
<path d="M26.4081 11.5607C26.4979 11.6802 26.5228 11.8121 26.4626 11.8571C26.4043 11.902 26.2828 11.8418 26.1929 11.7223C26.1031 11.6027 26.0782 11.4698 26.1375 11.4249C26.1967 11.38 26.3172 11.4412 26.4081 11.5607Z" fill="#682B22"/>
<path d="M26.3717 12.033L26.3612 12.0407L26.322 12.0321L26.3306 11.9929C26.3316 11.9919 26.4329 11.924 26.4425 11.8198L26.3431 11.6142L26.3421 11.575L26.3813 11.5741L26.4989 11.8256C26.4884 11.9355 26.4023 12.0101 26.3717 12.033Z" fill="#682B22"/>
<path d="M25.058 10.8599C25.0609 10.7528 25.104 10.6802 25.1584 10.6161L25.3363 10.4383C25.4587 10.3235 25.5916 10.2222 25.7302 10.1313C25.8698 10.0415 26.0161 9.96117 26.169 9.89902C26.3211 9.83591 26.4807 9.79097 26.6394 9.76037L26.6729 9.78332L26.6586 9.81392L26.6576 9.81488C26.518 9.89328 26.3804 9.9669 26.2561 10.0596C26.1279 10.1476 26.0074 10.2432 25.8946 10.3465C25.7799 10.4469 25.6728 10.5568 25.5725 10.6696L25.429 10.8446C25.3822 10.902 25.3258 10.9536 25.2378 10.9775L25.2168 10.9832L25.0628 10.8953L25.058 10.8599Z" fill="#682B22"/>
<path d="M26.2379 14.1203L26.4138 13.907C26.4855 13.8506 26.5811 13.8038 26.6691 13.7942L26.8632 13.6929L26.9435 13.4816L26.9645 13.4625L26.9817 13.4768L26.9416 13.7579C26.8813 13.8439 26.7819 13.8851 26.6872 13.9003L26.4597 13.9711L26.2952 14.148L26.2933 14.1509L26.2503 14.1623L26.2379 14.1203Z" fill="#682B22"/>
<path d="M22.8446 8.44851C23.8676 10.0949 26.5753 10.2613 28.8939 8.82235C31.2134 7.3834 32.2652 4.88029 31.2431 3.23482C30.222 1.5884 27.5133 1.42109 25.1938 2.86099C22.8743 4.29994 21.8235 6.80208 22.8446 8.44851Z" fill="#682B22"/>
<path d="M23.1056 8.5068C22.0845 6.8642 23.2242 4.31138 25.6489 2.80646C26.3019 2.40107 26.9817 2.11614 27.6471 1.94404C26.8392 2.06356 25.9941 2.36474 25.1938 2.86096C22.8743 4.29991 21.8235 6.80205 22.8446 8.44848C23.3685 9.29177 24.3361 9.74401 25.4662 9.79373C24.4394 9.70003 23.5798 9.27169 23.1056 8.5068Z" fill="#B14B3C"/>
<path d="M25.7484 7.83563C25.7484 7.83563 25.9176 8.41791 27.2715 8.33282C27.2715 8.33282 27.9647 8.394 28.0985 8.86345C28.0985 8.86345 28.2591 10.1877 29.0307 10.0748C29.0307 10.0748 29.6637 10.05 29.6398 9.61495C29.6398 9.61495 29.3864 8.5097 30.3157 8.29935C30.3157 8.29935 31.2623 8.0259 31.7241 9.31952C31.7241 9.31952 31.9794 9.98689 31.618 10.5653C31.618 10.5653 32.0845 12.0731 34.013 11.2776C34.013 11.2776 35.9109 9.29084 33.7587 6.14236C32.8657 4.83535 31.3589 4.05804 29.7775 4.1527C28.8806 4.20528 27.8203 4.50263 26.6462 5.26083C26.6462 5.26083 25.1374 6.18156 25.3296 7.22181C25.3296 7.22181 25.2981 7.45701 25.7484 7.83563Z" fill="#682B22"/>
<path d="M30.9257 10.2958C30.7297 9.87897 30.4084 9.60839 30.0996 9.60839C30.0824 9.60839 30.0652 9.60935 30.047 9.61126C30.0269 9.44776 29.9896 8.89226 30.3883 8.76414C30.3883 8.76414 30.4667 8.74406 30.5796 8.74406C30.8846 8.74406 31.4439 8.89034 31.4171 9.97362C31.4171 9.97362 31.42 10.1142 31.4018 10.2777L30.9257 10.2958Z" fill="#BE462D"/>
<path d="M31.3483 10.987C31.4181 11.0807 31.3999 11.2127 31.3072 11.2815C31.2135 11.3513 31.0815 11.3331 31.0127 11.2404C30.9429 11.1476 30.961 11.0157 31.0538 10.9459C31.1465 10.8761 31.2785 10.8952 31.3483 10.987Z" fill="#923C1D"/>
<path d="M72.6437 8.79755C72.6437 8.79755 67.6414 7.05169 63.5683 11.5904H50.7689L49.3538 11.1008C46.0591 9.96305 42.5836 9.43623 39.0976 9.54618L37.7189 9.59017C37.3393 9.6026 37.0391 9.91334 37.0391 10.2929V13.0188C37.0391 13.9634 37.4282 14.866 38.1166 15.5142L45.3831 22.3581C46.4118 23.3266 47.8795 23.6737 49.2343 23.2673L51.7001 22.5273L62.6428 21.4335C63.6257 21.3351 64.469 22.1258 64.4355 23.1115L63.598 38.5565C63.5616 39.6513 63.7595 40.7298 64.0607 41.7825C64.3342 42.7367 64.4537 43.7291 64.4154 44.7215L64.1764 50.8445L63.466 61.3674L55.0226 64.819L55.2119 65.0502C55.5638 65.4805 56.0915 65.73 56.648 65.73H60.0986C60.6971 65.73 61.288 65.6086 61.8444 65.3897C62.3856 65.1765 62.9621 65.0674 63.5435 65.0674H65.9682C66.8564 65.0674 67.5974 64.384 67.6681 63.4977C67.6939 63.1687 67.3096 61.9036 67.1528 61.6131L67.2685 61.048H67.2694L69.6817 49.2651C70.3749 45.8794 70.1865 42.3733 69.1348 39.0824L69.0143 38.7066L72.6437 28.461L74.7386 19.3855C74.7386 19.3855 78.346 10.5425 72.6437 8.79755Z" fill="#F0724E"/>
<path d="M72.6438 8.79758C72.6438 8.79758 67.6414 7.05172 63.5683 11.5904H61.1695L61.158 21.5818L62.6428 21.4336C63.6257 21.3351 64.469 22.1258 64.4355 23.1115L63.5989 38.5346C63.5636 39.5729 63.7022 40.6113 64.0082 41.6047C64.3179 42.6134 64.4566 43.6679 64.4155 44.7216L64.1764 50.8445L63.7816 56.7015H64.6028L66.2579 51.7883L67.0849 56.7015H68.1596L69.6817 49.2658C70.374 45.8804 70.1865 42.3734 69.1348 39.0824L69.0144 38.7067L72.6438 28.4619L74.7386 19.3856C74.7386 19.3856 78.346 10.5425 72.6438 8.79758Z" fill="#0F0F0F"/>
<path d="M52.0988 11.5903H50.7689L49.3538 11.1008C46.0591 9.96301 42.5836 9.43619 39.0976 9.54614L37.7189 9.59013C37.3393 9.60256 37.0391 9.91329 37.0391 10.2929V13.0187C37.0391 13.9634 37.4282 14.8659 38.1166 15.5142L45.3831 22.358C46.4118 23.3266 47.8795 23.6737 49.2343 23.2673L51.7001 22.5273L52.8991 22.4078L52.0988 11.5903Z" fill="#0F0F0F"/>
<path d="M52.0988 11.5903H50.7688L51.7001 22.5273L52.8991 22.4078L52.0988 11.5903Z" fill="white"/>
<path d="M39.9533 9.68193C38.2811 9.58058 36.8431 10.8551 36.7427 12.5292C36.6423 14.2005 37.9168 15.6376 39.589 15.7389C41.2622 15.8393 42.6993 14.5648 42.7996 12.8916C42.9 11.2194 41.6265 9.78137 39.9533 9.68193Z" fill="#F0724E"/>
<path d="M20.7813 13.4922L20.7517 12.6938C20.7096 11.5904 21.5778 10.6525 22.6821 10.6104L39.3892 9.97365C40.4935 9.93158 41.4315 10.7997 41.4736 11.904L41.5041 12.7014C41.5462 13.8058 40.6771 14.7437 39.5728 14.7858L22.8657 15.4235C21.7614 15.4656 20.8234 14.5965 20.7813 13.4922Z" fill="#F0724E"/>
<path d="M41.4907 12.3467L41.4869 12.2674C41.4878 12.2798 41.4888 12.2913 41.4888 12.3027C41.4898 12.318 41.4898 12.3324 41.4907 12.3467Z" fill="#D3583A"/>
<path d="M23.1716 15.4091C23.0377 15.4091 22.9058 15.3976 22.7767 15.3766C23.2873 15.3527 23.8447 15.1624 24.3314 14.6452C24.3849 14.5916 24.4346 14.5352 24.4824 14.4769L39.1798 13.9166C40.3147 13.8736 41.2393 13.0408 41.4496 11.969C41.4678 12.0675 41.4811 12.166 41.4869 12.2673L41.4907 12.3467C41.5165 13.6508 40.483 14.7503 39.1741 14.8L23.2644 15.4072C23.2328 15.4081 23.2022 15.4091 23.1716 15.4091Z" fill="#D3583A"/>
<path d="M23.1994 10.6266L10.2842 9.93057C10.2039 9.90954 10.1169 9.88659 10.027 9.85982L9.45431 12.1373L22.0253 15.2982C23.3093 15.6214 24.6249 14.8345 24.9472 13.5495C25.2703 12.2654 24.4844 10.9498 23.1994 10.6266Z" fill="#F0724E"/>
<path d="M22.2012 15.3364C22.1514 15.3269 22.1027 15.3173 22.0549 15.3058C22.1017 15.3163 22.1495 15.3269 22.1964 15.3345C22.1983 15.3355 22.2002 15.3355 22.2012 15.3364Z" fill="#DEBAA1"/>
<path d="M22.6658 15.3784C22.5042 15.3784 22.3484 15.3632 22.2012 15.3364C22.2002 15.3354 22.1983 15.3354 22.1964 15.3345C22.3341 15.3593 22.4727 15.3708 22.6085 15.3708C22.6486 15.3708 22.6888 15.3698 22.728 15.3679C22.7442 15.3708 22.7605 15.3737 22.7767 15.3765C22.7394 15.3784 22.7021 15.3784 22.6658 15.3784Z" fill="#D3583A"/>
<path d="M22.7767 15.3766C22.7605 15.3737 22.7442 15.3708 22.728 15.368C23.338 15.3374 23.9107 15.0735 24.3314 14.6451C23.8447 15.1624 23.2873 15.3527 22.7767 15.3766Z" fill="#B8442B"/>
<path d="M22.6085 15.3708C22.4727 15.3708 22.3341 15.3593 22.1964 15.3344C22.1495 15.3268 22.1017 15.3163 22.0549 15.3057C22.0453 15.3029 22.0348 15.301 22.0252 15.2981L9.46193 12.1391C9.504 12.1448 9.54605 12.1468 9.58812 12.1468C9.99829 12.1468 10.3865 11.9039 10.592 11.5186L24.6249 14.2798C24.5302 14.4166 24.4327 14.538 24.3314 14.6451C23.9107 15.0734 23.338 15.3373 22.728 15.3679C22.6888 15.3698 22.6486 15.3708 22.6085 15.3708Z" fill="#D3583A"/>
<path d="M9.98493 9.81967L9.98591 9.81489C8.66934 9.41906 6.54198 8.47633 4.81333 8.39984L0.296636 9.00888C0.021276 9.04617 -0.10109 9.39229 0.0987379 9.58447C1.10552 10.5501 5.42715 11.0875 6.52476 11.3733L9.25925 12.0885L9.32522 12.1134C9.91896 12.2683 10.5356 11.8763 10.702 11.2376C10.8636 10.619 10.5433 10.0004 9.98493 9.81967Z" fill="#F0724E"/>
<path d="M10.7049 11.228C10.7049 11.2261 10.7059 11.2241 10.7059 11.2232C10.7059 11.2251 10.7049 11.2261 10.7049 11.228ZM10.7068 11.2194C10.7327 11.1151 10.7441 11.0109 10.7441 10.9096C10.7441 11.0109 10.7327 11.1151 10.7068 11.2194ZM10.7441 10.9067C10.7441 10.9048 10.7441 10.9029 10.7441 10.9019C10.7441 10.9029 10.7441 10.9048 10.7441 10.9067Z" fill="#D3583A"/>
<path d="M9.58816 12.1468C9.50115 12.1468 9.41223 12.1363 9.32523 12.1133L9.25926 12.0885L6.52477 11.3733C5.42716 11.0874 1.10553 10.5501 0.0987462 9.58443C-0.00164556 9.48787 -0.0207734 9.35114 0.0212955 9.23545C1.46694 10.0271 5.05525 10.4889 6.04195 10.7461L8.7764 11.4613L8.84143 11.4861C8.92939 11.5091 9.01738 11.5196 9.10534 11.5196C9.60826 11.5196 10.0767 11.1544 10.2192 10.6103C10.2814 10.3732 10.2708 10.1361 10.2049 9.9229C10.5338 10.1227 10.7393 10.4937 10.7441 10.902C10.7441 10.9029 10.7441 10.9048 10.7441 10.9067C10.7441 10.9077 10.7441 10.9086 10.7441 10.9096C10.7441 11.011 10.7326 11.1152 10.7068 11.2194C10.7068 11.2203 10.7058 11.2223 10.7058 11.2232C10.7058 11.2242 10.7049 11.2261 10.7049 11.228C10.704 11.2309 10.703 11.2347 10.702 11.2376C10.5605 11.7816 10.0911 12.1468 9.58816 12.1468Z" fill="#D3583A"/>
<path d="M61.6896 21.5292L62.5568 21.4422V11.5904H61.6896V21.5292Z" fill="#0F0F0F"/>
<path d="M67.5792 53.8809L67.5553 53.9642C67.4989 54.0684 67.3708 54.1069 67.2656 54.0512L64.8907 52.7758C64.7865 52.7205 64.7473 52.5924 64.8027 52.4871C64.8591 52.3837 64.9882 52.3445 65.0924 52.4012L67.4674 53.6766L67.5792 53.8809Z" fill="#0F0F0F"/>
<path d="M67.6939 52.8886C67.6872 52.9756 67.627 53.0529 67.5381 53.078L64.9317 53.7865C64.8179 53.8171 64.7013 53.7502 64.6698 53.6363C64.6392 53.5235 64.7061 53.4058 64.8198 53.3745L67.4262 52.666C67.5391 52.6354 67.6566 52.7022 67.6882 52.8151L67.6939 52.8886Z" fill="#0F0F0F"/>
<path d="M67.5687 55.0619L67.5438 55.1452C67.4884 55.2483 67.3593 55.2867 67.2551 55.2322L64.8791 53.9568C64.7759 53.9004 64.7357 53.7722 64.7912 53.667C64.8476 53.5628 64.9776 53.5242 65.0809 53.58L67.4568 54.8553L67.5687 55.0619Z" fill="#0F0F0F"/>
<path d="M67.6834 54.0696C67.6758 54.1566 67.6155 54.2332 67.5276 54.2567L64.9203 54.9652C64.8074 54.9958 64.6898 54.9301 64.6592 54.8162C64.6277 54.7034 64.6955 54.5857 64.8083 54.5551L67.4147 53.8459C67.5285 53.8142 67.6461 53.881 67.6767 53.996L67.6834 54.0696Z" fill="#0F0F0F"/>
<path d="M67.4731 56.1864L67.4492 56.2686C67.3928 56.3728 67.2637 56.4109 67.1604 56.3556L64.7836 55.079C64.6803 55.0245 64.6411 54.8964 64.6975 54.7914C64.753 54.6869 64.882 54.6488 64.9853 54.7044L67.3622 55.9799L67.4731 56.1864Z" fill="#0F0F0F"/>
<path d="M67.5888 55.1936C67.5811 55.28 67.5209 55.3562 67.432 55.3811L64.8256 56.0897C64.7118 56.1203 64.5952 56.0541 64.5637 55.9406C64.534 55.8268 64.6 55.7102 64.7137 55.6785L67.3201 54.97C67.4339 54.9385 67.5505 55.0055 67.5811 55.1193L67.5888 55.1936Z" fill="#0F0F0F"/>
</svg>
