<svg width="115" height="55" viewBox="0 0 115 55" fill="none" xmlns="http://www.w3.org/2000/svg">
<path d="M114.955 54.4576H0L7.36394 44.1115H107.591L114.955 54.4576Z" fill="#7E315F"/>
<path d="M114.83 54.2842L21.3026 51.2701H26.8766C27.2262 51.2701 27.5722 51.1893 27.8864 51.0349L28.3932 50.7852L77.939 47.3961C78.078 47.8511 78.4821 48.1807 78.958 48.1807L79.0243 48.1735H81.7477C82.0909 48.1735 82.7366 48.2271 83.4976 48.2806C84.2577 48.3342 85.1313 48.3869 85.9341 48.3869C86.8858 48.3869 87.7367 48.3115 88.1735 48.0718C88.4069 47.9428 88.3769 47.5959 88.1299 47.496L86.4445 46.814L108.443 45.3093L114.83 54.2842Z" fill="#54203F"/>
<path d="M77.811 18.3863L77.2879 9.52306L81.1991 9.2379L81.4334 9.78368L82.6413 10.0707L82.4623 10.3304C82.1581 10.7744 82.1009 11.3429 82.3134 11.8369L82.7311 16.9033L77.811 18.3863Z" fill="#F0724E"/>
<path d="M82.249 11.6571C82.12 11.2158 82.1918 10.7363 82.4497 10.3494C82.1918 10.7372 82.1209 11.2158 82.249 11.6571ZM82.4506 10.3485C82.4524 10.3458 82.4542 10.3431 82.456 10.3403C82.4542 10.3431 82.4524 10.3458 82.4506 10.3485Z" fill="#DEBAA1"/>
<path d="M81.3009 11.7606C80.5708 11.7606 79.7317 11.5599 79.1069 10.8207C79.4629 10.996 79.8479 11.0832 80.2348 11.0832C80.6507 11.0832 81.0666 10.9815 81.4444 10.778L81.8948 10.5356C82.1527 10.3966 82.4007 10.2422 82.6395 10.0733L82.4624 10.3303C82.4597 10.334 82.4579 10.3367 82.4561 10.3403C82.4542 10.3431 82.4524 10.3458 82.4506 10.3485C82.4497 10.3485 82.4497 10.3485 82.4497 10.3494C82.1918 10.7363 82.12 11.2158 82.249 11.6571C81.9829 11.7134 81.6551 11.7606 81.3009 11.7606Z" fill="#D3583A"/>
<path d="M77.1989 5.71713C78.7418 7.64142 78.6065 10.314 76.8947 11.6871C75.1829 13.0592 72.5449 12.6125 71.002 10.6882C69.4573 8.76476 69.5944 6.09218 71.3043 4.71911C73.0161 3.34695 75.6551 3.79374 77.1989 5.71713Z" fill="#682B22"/>
<path d="M70.2019 12.133C69.8859 12.133 69.6579 12.0949 69.6352 12.0912C69.5426 12.0749 69.4809 11.9877 69.4963 11.896C69.5127 11.8033 69.6007 11.7398 69.6924 11.757C69.7061 11.7588 70.9084 11.9568 71.5868 11.3965C71.8838 11.1513 72.0399 10.789 72.0508 10.3177C72.0527 10.225 72.1344 10.166 72.2234 10.1524C72.3169 10.1551 72.3914 10.2323 72.3896 10.3258C72.3759 10.8998 72.1789 11.3484 71.8011 11.659C71.3253 12.0513 70.6669 12.133 70.2019 12.133Z" fill="#682B22"/>
<path d="M77.4014 13.715L77.2752 13.6578L77.2889 13.4189C77.2979 13.4107 78.2033 12.5925 78.1888 11.7135C78.1833 11.3284 77.9962 10.9797 77.6348 10.6782L77.6139 10.4394L77.8519 10.4176C78.2932 10.7863 78.5203 11.2204 78.5284 11.7089C78.543 12.7442 77.5558 13.6341 77.5141 13.6723L77.4014 13.715Z" fill="#682B22"/>
<path d="M76.8193 13.842L76.6731 13.7567L76.7349 13.526C76.7476 13.5188 78.0035 12.7796 78.0589 11.896C78.0834 11.5091 77.8636 11.1377 77.4077 10.7899L77.376 10.5528L77.6139 10.5202C78.1651 10.9406 78.4294 11.411 78.3967 11.9187C78.3304 12.983 76.9628 13.7858 76.9038 13.8185L76.8193 13.842Z" fill="#682B22"/>
<path d="M77.9354 0.658076C79.6772 2.0039 79.6381 4.97251 77.8482 7.28821C76.0574 9.60481 73.1942 10.3903 71.4524 9.04451C69.7115 7.69869 69.7515 4.72912 71.5405 2.41343C73.3313 0.0977316 76.1936 -0.688659 77.9354 0.658076Z" fill="#682B22"/>
<path d="M71.99 2.83119C70.3563 4.94528 70.1855 7.60063 71.4932 9.07178L71.4533 9.04453C69.7115 7.6987 69.7515 4.72914 71.5404 2.41344C73.3312 0.0977478 76.1936 -0.688643 77.9354 0.658092C78.087 0.77524 78.2205 0.907828 78.344 1.04768C76.5995 -0.256376 73.7663 0.531837 71.99 2.83119Z" fill="#B14B3C"/>
<path d="M72.7083 6.44456C73.8189 7.82853 73.6572 9.80187 72.3487 10.8526C71.0391 11.9023 69.0776 11.6317 67.9679 10.2478C66.8564 8.86288 67.018 6.88954 68.3266 5.83886C69.6361 4.78907 71.5976 5.05968 72.7083 6.44456Z" fill="#682B22"/>
<path d="M72.6447 6.90133C71.5341 5.51737 69.5726 5.24585 68.2631 6.29654C67.7182 6.73334 67.3759 7.33088 67.2378 7.97837C67.2896 7.15834 67.6564 6.37736 68.3266 5.83884C69.6361 4.78906 71.5977 5.05967 72.7083 6.44455C73.3567 7.25277 73.5692 8.26169 73.3749 9.17072C73.423 8.39155 73.186 7.57606 72.6447 6.90133Z" fill="#B14B3C"/>
<path d="M75.0385 8.89734C74.9459 8.89734 74.8533 8.8592 74.7861 8.78473C74.6617 8.64579 74.6735 8.43148 74.8124 8.30706C76.6486 6.65883 77.5404 5.10235 77.4641 3.67933C77.386 2.22998 76.2981 1.43171 76.2872 1.42354C76.1355 1.31457 76.101 1.10298 76.21 0.950417C76.319 0.797853 76.5296 0.764244 76.6831 0.873218C76.7385 0.913175 78.0444 1.87215 78.1407 3.64297C78.2287 5.2803 77.2616 7.01936 75.2656 8.81107L75.0385 8.89734Z" fill="#682B22"/>
<path d="M75.7051 5.78983L75.9576 6.57989C75.9576 6.57989 76.3589 8.06559 75.0177 8.93738L73.9597 8.56777L72.9408 8.25718L72.85 7.41717L73.9361 6.24753L75.6061 5.89789L75.7051 5.78983Z" fill="#682B22"/>
<path d="M75.4907 2.57232C75.4907 2.57232 77.5921 1.6815 79.6245 3.58854C79.7997 3.7511 80.0123 3.86731 80.2438 3.92634L82.0219 4.38221C82.1409 4.41309 82.2353 4.503 82.2716 4.62015C82.307 4.74002 82.2771 4.86988 82.1926 4.9616L81.992 5.17681L81.9556 5.28035L81.9656 5.40293C81.972 5.49102 82.0455 5.55913 82.1327 5.56095L82.4088 5.56367L82.466 5.8797L82.7429 6.09947L82.9137 6.21117C83.1135 6.34285 83.0717 6.56442 83.1507 6.78963L83.8699 7.25641C84.3548 7.71047 84.3694 8.47509 83.9035 8.94822L83.5948 9.26152C83.0944 9.76825 82.5214 10.1978 81.8948 10.5356L81.4443 10.7781C80.6752 11.1931 79.7471 11.1849 78.9852 10.7563L78.0189 10.2141C76.6223 11.718 74.1794 11.5563 73.0189 9.8627C72.2261 8.70576 71.7529 7.31633 72.4849 5.9696C72.4849 5.9696 73.5891 3.55672 75.4907 2.57232Z" fill="#F0724E"/>
<path d="M82.6486 6.83508C82.4097 6.83508 82.1309 6.80239 81.9166 6.67889C82.298 6.62531 82.7412 6.39555 82.7412 6.39555C82.8593 6.34378 82.9264 6.29476 82.9618 6.24935C83.1071 6.38285 83.079 6.58444 83.1507 6.78968C83.1507 6.78968 82.9274 6.83508 82.6486 6.83508Z" fill="#D3583A"/>
<path d="M81.6623 6.62802C81.7559 6.48998 82.012 6.07589 82.0328 5.63909C82.0328 5.63909 81.9538 5.37028 82.2444 5.29673C82.2444 5.29673 82.5314 5.37663 82.5323 5.80889C82.5323 5.80889 82.8974 5.93241 82.9582 6.06772C82.9582 6.06772 83.1371 6.22299 82.7412 6.39553C82.7412 6.39553 82.0901 6.73337 81.6878 6.68615L81.6623 6.62802Z" fill="#B73C2B"/>
<path d="M81.992 5.17682L82.1927 4.96161C82.2535 4.89531 82.2862 4.80994 82.2862 4.72276C82.2862 4.80994 82.2535 4.89531 82.1927 4.96161L82.0038 5.16502L81.992 5.17682ZM82.2716 4.62015C82.2698 4.61652 82.2689 4.61288 82.268 4.60925C82.2689 4.61288 82.2698 4.61652 82.2716 4.62015ZM82.2671 4.60925C82.2671 4.60743 82.2662 4.60563 82.2662 4.60472C82.2662 4.60563 82.2671 4.60743 82.2671 4.60925ZM82.2653 4.60197C82.2644 4.60107 82.2644 4.60018 82.2644 4.59927C82.2644 4.60018 82.2644 4.60107 82.2653 4.60197ZM82.2626 4.59563C82.2626 4.59473 82.2626 4.5947 82.2626 4.5947C82.2626 4.5947 82.2626 4.59473 82.2626 4.59563Z" fill="#DEBAA1"/>
<path d="M81.2201 5.76532C80.9849 5.76532 80.8296 5.482 80.8296 5.482L81.0094 5.42569C81.0839 5.36757 81.1302 5.27858 81.1411 5.18504C81.2056 4.6656 81.5634 4.62472 81.5634 4.62472C82.0265 4.48487 82.0129 4.38137 82.0129 4.38137L82.0383 4.3886C82.14 4.42039 82.2227 4.49576 82.2626 4.59475C82.2626 4.59475 82.2626 4.59477 82.2626 4.59568C82.2626 4.59659 82.2635 4.59841 82.2644 4.59931C82.2644 4.60022 82.2644 4.60111 82.2653 4.60202C82.2653 4.60293 82.2653 4.60386 82.2662 4.60477C82.2662 4.60568 82.2671 4.60747 82.2671 4.60929C82.2681 4.60929 82.268 4.60929 82.268 4.60929C82.2689 4.61292 82.2699 4.61657 82.2717 4.6202C82.2817 4.6538 82.2862 4.6883 82.2862 4.7228C82.2862 4.80998 82.2535 4.89536 82.1927 4.96165L81.992 5.17686C81.8158 5.40208 81.4544 5.67087 81.4544 5.67087C81.3708 5.73898 81.2918 5.76532 81.2201 5.76532Z" fill="#D3583A"/>
<path d="M79.5092 4.26779C79.3258 4.26416 79.165 4.34225 79.0225 4.43669L78.8236 4.59743L78.7346 4.68913L78.691 4.73547L78.6547 4.77905C78.5521 4.89529 78.444 5.00698 78.3314 5.10596L78.1552 5.2322L77.9827 5.27215L77.9691 5.26852L77.9001 5.30847L77.9273 5.37296L77.9999 5.40837L78.078 5.42017L78.1525 5.41383L78.2224 5.39655C78.3105 5.36749 78.3895 5.32574 78.4604 5.27579C78.6038 5.17862 78.7219 5.06057 78.8336 4.93434L78.9852 4.75542L79.1441 4.59198C79.254 4.49027 79.3775 4.3922 79.5147 4.33409L79.521 4.33134L79.5383 4.28775L79.5092 4.26779Z" fill="#682B22"/>
<path d="M79.2305 4.8099C79.3422 4.91433 79.4747 4.9534 79.5256 4.89801C79.5774 4.84261 79.5283 4.71364 79.4166 4.60921C79.3049 4.50568 79.1732 4.46664 79.1215 4.52203C79.0697 4.57743 79.1188 4.70637 79.2305 4.8099Z" fill="#682B22"/>
<path d="M79.7126 4.82354L79.7217 4.81357L79.7171 4.77268L79.6771 4.77725C79.6753 4.77816 79.5954 4.87442 79.4892 4.87352L79.2912 4.74998L79.2512 4.74546L79.2467 4.78634C79.3211 4.88079 79.402 4.92981 79.4892 4.93072C79.6018 4.93163 79.6862 4.8517 79.7126 4.82354Z" fill="#682B22"/>
<path d="M78.6592 3.36693C78.5502 3.35785 78.4721 3.3942 78.4013 3.44324L78.2024 3.6058C78.0734 3.7175 77.9572 3.8428 77.8501 3.97357C77.7438 4.10524 77.6476 4.24601 77.5695 4.39495C77.4886 4.54206 77.4269 4.69917 77.3788 4.85809L77.3978 4.89441L77.4305 4.88261L77.4314 4.88168C77.5259 4.74819 77.6149 4.61652 77.7229 4.49937C77.8246 4.3795 77.9345 4.2669 78.0508 4.16246C78.1652 4.05621 78.2878 3.95993 78.4131 3.87003L78.6056 3.74202C78.6683 3.70024 78.7264 3.64848 78.76 3.56221L78.7682 3.54133L78.6955 3.37513L78.6592 3.36693Z" fill="#682B22"/>
<path d="M81.8458 4.90536C81.7559 4.94169 81.6778 4.99252 81.6115 5.06154C81.547 5.12783 81.4889 5.22136 81.4707 5.30854L81.3472 5.49653C81.2918 5.54284 81.211 5.55827 81.1239 5.55555L81.103 5.57463L81.1148 5.5937C81.1992 5.63093 81.3118 5.63728 81.4044 5.58188C81.4989 5.52921 81.5516 5.43387 81.5761 5.33852C81.5933 5.25224 81.616 5.18051 81.6714 5.11512L81.8676 4.96618L81.8703 4.96438L81.8875 4.92261L81.8458 4.90536Z" fill="#682B22"/>
<path d="M76.4434 0.868735C78.0072 2.07835 77.8937 4.84447 76.19 7.04938C74.4873 9.25247 71.8374 10.0589 70.2737 8.85016C68.709 7.64055 68.8225 4.87353 70.5252 2.66954C72.2288 0.466447 74.8787 -0.340875 76.4434 0.868735Z" fill="#682B22"/>
<path d="M76.4761 1.1394C74.9141 -0.0674901 72.2043 0.821545 70.4226 3.12634C69.9422 3.74659 69.5835 4.4077 69.3383 5.06427C69.5444 4.25695 69.9386 3.42967 70.5252 2.66958C72.2288 0.466491 74.8787 -0.340831 76.4434 0.868779C77.2444 1.48902 77.6022 2.51793 77.535 3.67033C77.5477 2.61873 77.2026 1.70152 76.4761 1.1394Z" fill="#B14B3C"/>
<path d="M75.5171 3.75286C75.5171 3.75286 76.0901 3.98537 75.8631 5.35026C75.8631 5.35026 75.8531 6.05949 76.3154 6.24475C76.3154 6.24475 77.643 6.54715 77.4487 7.31814C77.4487 7.31814 77.3561 7.95746 76.9165 7.88753C76.9165 7.88753 75.8231 7.51521 75.5117 8.43604C75.5117 8.43604 75.1339 9.36958 76.4007 9.97347C76.4007 9.97347 77.0518 10.3013 77.6757 9.99527C77.6757 9.99527 79.1577 10.6264 78.1488 12.5017C78.1488 12.5017 75.933 14.2207 72.9626 11.7071C71.7285 10.6637 71.0973 9.05265 71.358 7.458C71.506 6.5517 71.9183 5.50737 72.8109 4.39493C72.8109 4.39493 73.9025 2.95917 74.9377 3.26248C74.9377 3.26248 75.1802 3.25521 75.5171 3.75286Z" fill="#682B22"/>
<path d="M77.3797 9.74646C77.2235 9.74646 77.0954 9.73012 77.0954 9.73012C75.5843 9.61297 75.9758 8.55864 75.9758 8.55864C76.0802 8.32071 76.329 8.2635 76.5451 8.2635C76.6831 8.2635 76.8076 8.28713 76.8712 8.30166C76.7885 8.70304 77.179 9.18887 77.7974 9.42135L77.9609 9.47039L77.9373 9.54759C77.89 9.71287 77.6058 9.74646 77.3797 9.74646Z" fill="#BE462D"/>
<path d="M78.1325 9.76551C78.2197 9.84633 78.355 9.84089 78.4358 9.75462C78.5157 9.66744 78.5112 9.53213 78.424 9.45131C78.3377 9.37048 78.2015 9.37592 78.1206 9.46219C78.0407 9.54937 78.0453 9.68469 78.1325 9.76551Z" fill="#923C1D"/>
<path d="M90.7998 24.3526L83.889 15.9907C83.217 15.1779 82.2172 14.7075 81.162 14.7075H78.1062C77.0291 14.7075 76.2291 15.7001 76.4588 16.7517C77.1118 19.7448 78.4703 25.238 79.1923 28.1331C79.3566 28.7879 79.4011 29.4762 79.2495 30.1337C78.7146 32.4594 76.5451 33.8043 74.3819 33.4529L74.2121 33.4256C70.9147 32.8907 67.7355 34.8977 66.8001 38.1051L58.3728 40.883C56.9034 41.368 55.366 41.615 53.8177 41.615C49.4006 41.615 45.0144 42.3487 40.8389 43.7872L39.8245 44.1359C38.0619 44.7434 35.4973 45.2157 33.3905 45.3601L32.1582 45.41L29.9378 44.6063C28.839 44.2077 27.634 44.827 27.317 45.9531L26.9157 47.3842L23.2768 49.6664L22.4477 49.848C21.7784 49.9942 21.3026 50.5863 21.3026 51.2701H26.8766C27.2262 51.2701 27.5722 51.1893 27.8864 51.0349L31.4181 49.2967L48.4643 47.248C49.6358 47.0882 50.8291 47.2399 51.9215 47.6903C52.9695 48.1207 54.0892 48.3523 55.218 48.2451L72.7601 46.5942C77.1599 46.1801 81.1792 43.9261 83.8282 40.389L88.6148 33.9977C89.2632 33.1323 89.6129 32.0807 89.6129 30.9991V28.9005L90.6463 27.8525C91.5871 26.8981 91.6543 25.3861 90.7998 24.3526Z" fill="#F0724E"/>
<path d="M90.6463 27.8525C90.6463 27.8525 81.3917 27.4548 78.9979 27.3521C79.066 27.6264 79.1323 27.8916 79.1923 28.1331C79.3566 28.7879 79.4011 29.4762 79.2495 30.1337C79.1941 30.3762 79.1169 30.6059 79.027 30.8257L89.2978 32.7191C89.4994 32.1706 89.6129 31.5912 89.6129 30.9992V28.9005H89.6138L90.6463 27.8525Z" fill="#0F0F0F"/>
<path d="M77.4559 32.7772C76.5714 33.3738 75.4753 33.6308 74.3819 33.4528L74.2121 33.4256C70.9147 32.8907 67.7355 34.8976 66.8001 38.1051L58.3728 40.883C56.9034 41.368 55.366 41.615 53.8177 41.615C49.4006 41.615 45.0144 42.3487 40.8388 43.7872L39.8245 44.1359C38.6512 44.54 37.1229 44.8824 35.6108 45.1094V45.9349C37.2963 45.9204 41.2121 45.9585 41.2121 45.9585L35.6108 47.8165V48.7927L48.4643 47.248C49.6358 47.0882 50.829 47.2399 51.9215 47.6903C52.9695 48.1207 54.0892 48.3523 55.218 48.2451L72.7601 46.5942C77.1599 46.1801 81.1792 43.9261 83.8282 40.389L77.4559 32.7772Z" fill="#0F0F0F"/>
<path d="M75.7487 33.4493L82.7548 41.6732C82.8929 41.5242 83.0273 41.3689 83.1598 41.2146L76.4089 33.2903C76.1937 33.3621 75.973 33.4129 75.7487 33.4493Z" fill="#0F0F0F"/>
<path d="M79.3276 29.6361C79.314 29.8032 79.2876 29.9693 79.2495 30.1337C78.9852 31.2834 78.3214 32.1933 77.456 32.7772" fill="#0F0F0F"/>
<path d="M90.7998 24.3526L83.889 15.9907C83.217 15.1779 82.2172 14.7075 81.1619 14.7075H78.1061C77.0291 14.7075 76.2291 15.7001 76.4588 16.7517C77.1117 19.7448 78.4703 25.238 79.1922 28.1331C79.3158 28.6244 79.3711 29.1339 79.3275 29.6361L89.6129 30.2545V28.9005H89.6138L90.6463 27.8525C91.5871 26.8981 91.6543 25.3861 90.7998 24.3526Z" fill="white"/>
<path d="M81.1684 17.2103C81.1684 18.5407 80.0895 19.6195 78.7582 19.6195C77.4278 19.6195 76.349 18.5407 76.349 17.2103C76.349 15.879 77.4278 14.8001 78.7582 14.8001C80.0895 14.8001 81.1684 15.879 81.1684 17.2103Z" fill="#F0724E"/>
<path d="M79.1923 28.1331C79.3158 28.6244 79.3711 29.1339 79.3275 29.6361L89.6129 30.2545V28.9005H89.6138L79.1923 28.1331Z" fill="white"/>
<path d="M77.5731 35.0384L78.3405 35.0729C79.4039 35.121 80.3138 34.2892 80.361 33.2258L81.0848 17.1331C81.1329 16.0697 80.3011 15.1607 79.2377 15.1125L78.4695 15.078C77.406 15.0299 76.4961 15.8617 76.4489 16.9251L75.726 33.0178C75.6788 34.0813 76.5097 34.9903 77.5731 35.0384Z" fill="#F0724E"/>
<path d="M75.9221 33.7353C75.7895 33.4319 75.7223 33.0932 75.7387 32.7354L76.427 17.4155C76.4843 16.1396 77.5767 15.0953 78.8535 15.0953C78.9634 15.0998 79.0697 15.1153 79.1741 15.1352C78.1416 15.3305 77.3324 16.2159 77.2834 17.3093L76.6132 32.2314C76.2136 32.6255 75.9603 33.1595 75.9221 33.7353Z" fill="#D3583A"/>
<path d="M80.5245 33.4937L80.2375 45.9522C80.252 46.0312 80.2684 46.1165 80.2865 46.2046L78.0562 46.586L75.9503 34.2756C75.735 33.0179 76.5887 31.8128 77.8464 31.5976C79.1032 31.3823 80.3092 32.236 80.5245 33.4937Z" fill="#F0724E"/>
<path d="M78.0363 46.4689L77.8256 45.2348L75.9503 34.2756C75.8259 33.5464 76.0611 32.8371 76.5242 32.3259L78.7582 45.9349C78.4513 45.9958 78.1907 46.1946 78.0363 46.4689Z" fill="#D3583A"/>
<path d="M78.9008 45.9167V45.9113C80.2248 45.8632 82.4369 45.5081 84.067 45.8523L88.1299 47.4959C88.3769 47.5958 88.4069 47.9427 88.1735 48.0717C87.3689 48.514 85.1585 48.3968 83.4976 48.2806C82.7366 48.227 82.0909 48.1734 81.7477 48.1734H79.0242L78.958 48.1807C78.3668 48.1807 77.8864 47.673 77.8864 47.0455C77.8864 46.4398 78.3368 45.9485 78.9008 45.9167Z" fill="#F0724E"/>
<path d="M77.8873 47.0347C77.8873 47.0338 77.8873 47.0338 77.8873 47.0329C77.8873 47.0338 77.8873 47.0338 77.8873 47.0347ZM77.8873 47.022C77.8873 47.022 77.8873 47.0211 77.8873 47.0201C77.8873 47.0211 77.8873 47.022 77.8873 47.022ZM77.8882 46.9856V46.9847V46.9856Z" fill="#54203F"/>
<path d="M85.9341 48.3868C85.1313 48.3868 84.2577 48.3342 83.4976 48.2806C82.7366 48.227 82.0909 48.1734 81.7477 48.1734H79.0242L78.958 48.1807C78.3668 48.1807 77.8864 47.6731 77.8864 47.0456C77.8864 47.0419 77.8873 47.0383 77.8873 47.0346C77.8873 47.0337 77.8873 47.0338 77.8873 47.0328C77.8873 47.0292 77.8873 47.0256 77.8873 47.0219C77.8873 47.0219 77.8873 47.021 77.8873 47.0201C77.8873 47.0165 77.8873 47.0129 77.8873 47.0092C77.8873 47.0011 77.8882 46.9929 77.8882 46.9856V46.9847C77.9127 46.4916 78.2369 46.0866 78.671 45.9585C78.5575 46.1383 78.4903 46.3527 78.4903 46.586C78.4903 47.2126 78.9698 47.7212 79.561 47.7212L79.6281 47.713H82.3516C82.694 47.713 83.336 47.7666 84.0943 47.8193C84.8507 47.8719 85.7216 47.9255 86.5217 47.9255C87.22 47.9255 87.8638 47.8846 88.3306 47.7693C88.3415 47.8856 88.2907 48.0063 88.1735 48.0717C87.7367 48.3115 86.8858 48.3868 85.9341 48.3868Z" fill="#D3583A"/>
<path d="M38.5359 47.5241L38.4605 47.5214C38.3606 47.496 38.3007 47.3942 38.3252 47.2944L38.9064 45.0041C38.9318 44.9042 39.0326 44.8443 39.1334 44.8697C39.2333 44.8951 39.2932 44.9959 39.2687 45.0967L38.6875 47.3861L38.5359 47.5241Z" fill="#0F0F0F"/>
<path d="M39.405 47.4124L39.2115 47.3189L38.0564 45.2539C38.0065 45.1639 38.0392 45.0495 38.1282 44.9996C38.2181 44.9496 38.3325 44.9814 38.3833 45.0713L39.5376 47.1373C39.5875 47.2263 39.5557 47.3407 39.4658 47.3916L39.405 47.4124Z" fill="#0F0F0F"/>
<path d="M37.5306 47.7657L37.4552 47.7621C37.3553 47.7367 37.2945 47.6349 37.3208 47.5351L37.9011 45.2448C37.9266 45.1449 38.0274 45.0841 38.1282 45.1095C38.2281 45.1349 38.2889 45.2366 38.2635 45.3365L37.6823 47.6268L37.5306 47.7657Z" fill="#0F0F0F"/>
<path d="M38.3988 47.653L38.2063 47.5595L37.0521 45.4945C37.0012 45.4045 37.033 45.291 37.1238 45.2402C37.2128 45.1902 37.3263 45.222 37.3772 45.3119L38.5323 47.377C38.5822 47.4678 38.5504 47.5813 38.4605 47.6313L38.3988 47.653Z" fill="#0F0F0F"/>
<path d="M36.5553 47.9228L36.4799 47.9191C36.3791 47.8937 36.3192 47.792 36.3446 47.6921L36.9258 45.4027C36.9503 45.3028 37.0521 45.242 37.1529 45.2674C37.2518 45.2919 37.3127 45.3946 37.2873 45.4945L36.707 47.7847L36.5553 47.9228Z" fill="#0F0F0F"/>
<path d="M37.4235 47.8102L37.2309 47.7166L36.0758 45.6516C36.0259 45.5617 36.0577 45.4482 36.1476 45.3973C36.2375 45.3474 36.351 45.3792 36.4018 45.4691L37.556 47.535C37.6069 47.6249 37.5742 47.7384 37.4843 47.7893L37.4235 47.8102Z" fill="#0F0F0F"/>
</svg>
