<svg width="22" height="22" viewBox="0 0 22 22" fill="none" xmlns="http://www.w3.org/2000/svg">
<path d="M11.0622 9.88868C10.9713 9.87958 10.8621 9.87958 10.762 9.88868C8.59688 9.8159 6.8775 8.04194 6.8775 5.85861C6.8775 3.62979 8.67875 1.81944 10.9167 1.81944C13.1455 1.81944 14.9558 3.62979 14.9558 5.85861C14.9467 8.04194 13.2274 9.8159 11.0622 9.88868Z" stroke="#7E315F" stroke-width="1.5" stroke-linecap="round" stroke-linejoin="round"/>
<path d="M6.5136 13.2456C4.31208 14.7193 4.31208 17.121 6.5136 18.5856C9.01534 20.2595 13.1182 20.2595 15.6199 18.5856C17.8215 17.1119 17.8215 14.7102 15.6199 13.2456C13.1273 11.5808 9.02444 11.5808 6.5136 13.2456Z" stroke="#7E315F" stroke-width="1.5" stroke-linecap="round" stroke-linejoin="round"/>
</svg>
