<svg width="125" height="62" viewBox="0 0 125 62" fill="none" xmlns="http://www.w3.org/2000/svg">
<path d="M125 61.4224H0L8.00839 51.7241H116.993L125 61.4224Z" fill="#7E315F"/>
<path d="M125 61.4224H121.863L68.9918 56.3752C69.2493 56.2991 69.4952 56.1894 69.72 56.0454L71.6075 55.173C71.9187 55.029 72.1233 54.7455 72.1464 54.4287L118.284 52.8017L125 61.4224ZM56.2287 55.1565L54.9569 55.0352L56.1509 54.993C56.1739 55.0493 56.1999 55.1037 56.2287 55.1565Z" fill="#54203F"/>
<path d="M73.1588 27.3457L66.9003 37.4777L63.3105 35.4901L63.4173 34.8774L62.5235 33.9358L62.8294 33.8093C63.3498 33.5957 63.7241 33.13 63.8215 32.5754L67.413 25.8461L73.1588 27.3457Z" fill="#F0724E"/>
<path d="M62.8294 33.8093C63.2874 33.6213 63.6318 33.2367 63.7745 32.7702C63.7745 32.7702 63.7745 32.7702 63.7753 32.7702C63.6326 33.2376 63.2874 33.6213 62.8294 33.8093Z" fill="#DEBAA1"/>
<path d="M66.0491 35.2995C65.6108 34.5595 64.8391 34.0724 63.9761 33.9998L63.4437 33.9545C63.2344 33.9374 63.0259 33.9289 62.8165 33.9289C62.72 33.9289 62.6234 33.9306 62.5268 33.934L62.8293 33.8092C63.2873 33.6212 63.6326 33.2376 63.7753 32.7701C64.5862 33.0837 65.8637 33.8084 66.0491 35.2995Z" fill="#D3583A"/>
<path d="M64.8015 40.8632C64.5503 38.2954 66.1987 36.0309 68.4836 35.807C70.7677 35.584 72.8246 37.4844 73.0758 40.0531C73.3279 42.6225 71.6787 44.8863 69.3946 45.1099C67.1096 45.3339 65.0536 43.4326 64.8015 40.8632Z" fill="#682B22"/>
<path d="M74.9549 39.8959L74.8464 39.8532C74.837 39.8438 73.8756 38.9705 72.9656 39.0807C72.5597 39.126 72.2119 39.3576 71.9299 39.7678L71.7077 39.8088L71.6667 39.5875C72.0034 39.0961 72.4289 38.8193 72.9314 38.7637C74.0098 38.6372 75.0198 39.5789 75.0626 39.6191L75.072 39.8447L74.9549 39.8959Z" fill="#682B22"/>
<path d="M67.0874 36.4797L66.9345 36.3669C66.7618 35.7961 66.8105 35.2911 67.0797 34.8638C67.654 33.9537 69.0212 33.7401 69.0793 33.7324C69.169 33.717 69.2476 33.7786 69.2604 33.8657C69.2733 33.9529 69.2134 34.0341 69.1263 34.0469C69.1135 34.0486 67.8445 34.2494 67.3489 35.0347C67.1318 35.3799 67.0951 35.7969 67.2404 36.272C67.2651 36.3575 67.2181 36.4464 67.1344 36.472L67.0874 36.4797Z" fill="#682B22"/>
<path d="M67.3531 36.5181L67.2027 36.4122C66.9618 35.7337 66.9985 35.1765 67.3138 34.7561C67.9752 33.8691 69.6227 33.9486 69.6937 33.9512C69.7817 33.9563 69.8492 34.0315 69.8449 34.1204C69.8398 34.2075 69.7569 34.2716 69.6766 34.2708C69.662 34.2673 68.1273 34.1981 67.5685 34.9475C67.3215 35.2774 67.3002 35.7337 67.5035 36.3045C67.5326 36.3882 67.4899 36.4797 67.407 36.5087L67.3531 36.5181Z" fill="#682B22"/>
<path d="M61.2605 44.8761C60.5051 42.6997 62.2381 40.1207 65.1314 39.1149C68.0248 38.1109 70.9832 39.0602 71.7394 41.2358C72.4948 43.4124 70.7618 45.9903 67.8685 46.9953C64.9751 48 62.0167 47.0518 61.2605 44.8761Z" fill="#682B22"/>
<path d="M67.7137 46.3731C70.3559 45.4545 72.0239 43.2261 71.7189 41.1888L71.7394 41.2358C72.4948 43.4124 70.7618 45.9903 67.8684 46.9953C64.975 48 62.0167 47.0518 61.2613 44.8761C61.1947 44.6865 61.1545 44.4932 61.1255 44.3C61.9082 46.4415 64.8417 47.3705 67.7137 46.3731Z" fill="#B14B3C"/>
<path d="M69.1519 42.7962C68.9707 40.947 70.2405 39.3106 71.9889 39.1389C73.7372 38.9679 75.301 40.3275 75.4821 42.1756C75.6633 44.0249 74.3926 45.6621 72.6443 45.833C70.8968 46.0039 69.333 44.6444 69.1519 42.7962Z" fill="#682B22"/>
<path d="M69.4689 42.4313C69.6501 44.2795 71.2139 45.6401 72.9622 45.4682C73.6885 45.3971 74.3311 45.07 74.8225 44.5819C74.3089 45.2709 73.5407 45.7449 72.6443 45.833C70.8968 46.0039 69.3331 44.6444 69.1519 42.7962C69.046 41.716 69.4373 40.7112 70.1278 40.0258C69.6398 40.6804 69.3809 41.5306 69.4689 42.4313Z" fill="#B14B3C"/>
<path d="M62.8123 45.5938C62.685 45.5938 62.5645 45.5161 62.5149 45.3896C62.4901 45.3238 61.8996 43.7517 62.82 42.1605C63.6736 40.6839 65.5074 39.7201 68.2709 39.2954C68.4461 39.2706 68.6084 39.3885 68.6349 39.562C68.6614 39.7363 68.5427 39.8986 68.3683 39.926C65.8108 40.3199 64.1316 41.1761 63.3771 42.4708C62.6063 43.7944 63.1054 45.1469 63.1105 45.1616C63.1729 45.3255 63.0908 45.5094 62.9268 45.5718L62.8123 45.5938Z" fill="#682B22"/>
<path d="M66.1517 41.6548L66.3825 40.8181C66.3825 40.8181 66.8806 39.2868 68.5546 39.2902L69.2699 40.2191L69.9851 41.0736L69.5843 41.8623L67.9633 42.2656L66.2996 41.617" fill="#682B22"/>
<path d="M64.4982 44.5966C64.4982 44.5966 62.1474 44.1743 61.4578 41.3409C61.3972 41.099 61.2775 40.8752 61.1083 40.6906L59.8112 39.2738C59.7249 39.1789 59.6933 39.0456 59.7292 38.9226C59.7668 38.797 59.8667 38.7004 59.9932 38.6696L60.2914 38.5953L60.3829 38.5244L60.4444 38.4116C60.4897 38.3313 60.464 38.2296 60.388 38.1783L60.1487 38.0177C60.0829 37.9741 60.2624 37.7852 60.2786 37.7075L60.1624 37.3571L60.0761 37.1606C59.977 36.9316 60.1393 36.7615 60.1991 36.518L59.836 35.6985C59.6719 35.0226 60.0957 34.3441 60.7759 34.1971L61.2246 34.0989C61.9535 33.9416 62.7012 33.8921 63.4437 33.9544L63.9761 33.9997C64.8879 34.0766 65.6962 34.615 66.1192 35.4259L66.6559 36.4539C68.74 35.9361 70.7866 37.4742 70.8353 39.6224C70.8678 41.0905 70.4875 42.5791 69.0758 43.3395C69.0758 43.3395 66.7276 44.8212 64.4982 44.5966Z" fill="#F0724E"/>
<path d="M60.7179 37.6024C60.6717 37.6024 60.6247 37.6016 60.5769 37.5999L60.5965 36.9632C60.5991 36.8846 60.6025 36.8069 60.6059 36.7283C60.8307 36.8675 61.0904 37.0709 61.2195 37.3256C61.3288 37.5409 61.0597 37.6024 60.7179 37.6024Z" fill="#D3583A"/>
<path d="M61.4109 37.5119C61.2511 37.5794 60.7896 37.7965 60.5213 38.1665C60.5213 38.1665 60.4359 38.4468 60.1394 38.3451C60.1394 38.3451 59.9343 38.1118 60.1804 37.7324C60.1804 37.7324 59.9308 37.4145 59.9556 37.2624C59.9556 37.2624 59.8881 37.0223 60.3325 37.0983C60.3325 37.0983 61.0964 37.1753 61.422 37.447L61.4109 37.5119Z" fill="#B73C2B"/>
<path d="M60.5248 39.3575C60.5239 39.3575 60.5231 39.3575 60.5222 39.3575L60.5479 38.5312C60.794 38.4851 61.0452 38.4697 61.0452 38.4697C61.0657 38.4671 61.0853 38.4663 61.1033 38.4663C61.5254 38.4663 61.4861 38.9935 61.4861 38.9935L61.2956 38.9397C61.1973 38.9465 61.105 38.9986 61.0418 39.0747C60.8469 39.3063 60.6564 39.3575 60.5248 39.3575Z" fill="#D3583A"/>
<path d="M61.9484 40.8121C62.1064 40.9206 62.2927 40.9437 62.4713 40.9428C62.5611 40.942 62.6499 40.9317 62.7371 40.9164L62.867 40.8865L62.9319 40.8694L62.9892 40.8531C63.1447 40.8104 63.3045 40.7745 63.4591 40.7523C63.5377 40.742 63.6138 40.7369 63.6856 40.7412L63.8591 40.8053L63.8693 40.8172L63.953 40.8207L63.9659 40.7497L63.9231 40.6762L63.8608 40.6207L63.7916 40.5831L63.7215 40.5592C63.6275 40.5344 63.5335 40.5258 63.4438 40.5293C63.2626 40.5327 63.0909 40.5677 62.9217 40.6147C62.8311 40.6403 62.7661 40.666 62.6858 40.6848C62.6089 40.707 62.5311 40.7232 62.4525 40.7369C62.2979 40.7625 62.1338 40.7779 61.9817 40.7514L61.974 40.7497L61.9338 40.7779L61.9484 40.8121Z" fill="#682B22"/>
<path d="M62.503 40.4966C62.4637 40.3411 62.3705 40.2309 62.2936 40.2505C62.2167 40.2693 62.186 40.4103 62.2244 40.5658C62.2629 40.7197 62.356 40.8299 62.4329 40.8111C62.5098 40.7914 62.5414 40.6504 62.503 40.4966Z" fill="#682B22"/>
<path d="M62.0868 40.2087L62.074 40.2129L62.0543 40.2505L62.0919 40.2693C62.0936 40.2693 62.2184 40.2309 62.3115 40.2924C62.3705 40.3326 62.4055 40.4069 62.4141 40.5129L62.4466 40.5402L62.4739 40.5078C62.4636 40.383 62.4201 40.2933 62.344 40.2429C62.2457 40.1771 62.1261 40.1984 62.0868 40.2087Z" fill="#682B22"/>
<path d="M62.1765 42.0869C62.2671 42.157 62.3568 42.1707 62.4474 42.169C62.5371 42.162 62.626 42.152 62.714 42.1399C62.8909 42.1159 63.0643 42.0725 63.2335 42.0195C63.4019 41.9637 63.5659 41.8963 63.7198 41.8109C63.8753 41.727 64.0197 41.6256 64.1513 41.5136L64.1556 41.4709L64.1214 41.4632H64.1197C63.9607 41.5255 63.8069 41.5895 63.6454 41.6316C63.4865 41.6776 63.3267 41.7134 63.1652 41.7384C63.0045 41.7664 62.8422 41.7801 62.6807 41.7868C62.5995 41.7911 62.5192 41.7911 62.4388 41.7895C62.3594 41.7895 62.2782 41.8015 62.1996 41.858L62.1808 41.8722L62.15 42.0595L62.1765 42.0869Z" fill="#682B22"/>
<path d="M60.265 38.9159C60.3641 38.9355 60.4615 38.9364 60.5598 38.9133C60.6546 38.8928 60.7589 38.8441 60.8247 38.7783L61.04 38.6843L61.269 38.7595L61.2989 38.7561V38.7313C61.2468 38.651 61.152 38.5809 61.0392 38.5766C60.9264 38.5689 60.8255 38.6219 60.7486 38.6911C60.6854 38.7578 60.623 38.8065 60.5375 38.8321C60.4564 38.8577 60.3632 38.8646 60.2803 38.8509L60.2769 38.8501L60.2385 38.8774L60.265 38.9159Z" fill="#682B22"/>
<path d="M62.6892 45.5443C62.0107 43.5899 63.6924 41.2298 66.4465 40.2736C69.1998 39.3174 71.9821 40.1267 72.6614 42.0809C73.3399 44.0352 71.6582 46.3955 68.905 47.3515C66.1509 48.3078 63.3686 47.4993 62.6892 45.5443Z" fill="#682B22"/>
<path d="M62.8149 45.2886C63.4934 47.2397 66.3765 48.0114 69.2562 47.0113C70.0321 46.7413 70.7243 46.3688 71.3147 45.9332C70.6722 46.5226 69.8552 47.0217 68.905 47.3515C66.1509 48.3078 63.3686 47.4993 62.6893 45.5443C62.3423 44.5425 62.6166 43.4353 63.3353 42.4647C62.7226 43.379 62.5004 44.3814 62.8149 45.2886Z" fill="#B14B3C"/>
<path d="M65.1502 43.5472C65.1502 43.5472 64.7811 43.0158 65.7612 41.9493C65.7612 41.9493 66.1756 41.3332 65.8774 40.9068C65.8774 40.9068 64.887 39.8823 65.498 39.3191C65.498 39.3191 65.9449 38.8098 66.2902 39.1226C66.2902 39.1226 67.0353 40.0754 67.8351 39.4465C67.8351 39.4465 68.6999 38.8449 67.9351 37.5913C67.9351 37.5913 67.5531 36.9316 66.8311 36.8419C66.8311 36.8419 65.8937 35.4422 67.8505 34.3758C67.8505 34.3758 70.7755 34.1374 71.9402 38.0391C72.4239 39.6592 72.0556 41.4315 70.9148 42.68C70.2671 43.3883 69.3083 44.0686 67.8898 44.5325C67.8898 44.5325 66.1116 45.1657 65.3775 44.3079C65.3775 44.3079 65.1613 44.1754 65.1502 43.5472Z" fill="#682B22"/>
<path d="M67.2421 39.1508C66.9447 39.1508 66.661 38.885 66.5662 38.7876C66.8687 38.4825 66.8046 37.8331 66.3953 37.276L66.2816 37.1392L66.3457 37.0837C66.3824 37.0529 66.4286 37.0393 66.4807 37.0393C66.755 37.0393 67.1874 37.4067 67.1874 37.4067C68.4444 38.374 67.4984 39.0738 67.4984 39.0738C67.4147 39.1285 67.3275 39.1508 67.2421 39.1508Z" fill="#BE462D"/>
<path d="M66.2995 36.7821C66.2688 36.6616 66.1474 36.589 66.0278 36.6197C65.9073 36.6488 65.8338 36.7701 65.8637 36.8906C65.8936 37.0111 66.015 37.0846 66.1355 37.0538C66.2559 37.0239 66.3294 36.9026 66.2995 36.7821Z" fill="#923C1D"/>
<path d="M62.7217 28.5027L65.5707 31.0731C68.6589 31.0731 71.4061 29.6127 73.1587 27.3457C74.7644 25.2683 75.3284 22.5664 74.9139 19.9746L74.1192 15.0116C72.3863 9.34617 68.6008 4.52928 63.5044 1.50601L63.1849 1.3257C59.1558 0.108013 58.4696 -0.24404 55.6429 1.09755C54.6713 1.55899 54.0518 2.53826 54.0518 3.61409V9.4171H60.3385L62.6183 19.8823L62.7217 28.5027Z" fill="#F0724E"/>
<path d="M74.9139 19.9747L74.6772 18.499H62.3166L62.6174 19.8824L62.7217 28.5028L63.9 29.5666V28.2165C63.9 26.5511 65.263 25.1898 66.9267 25.1898C68.5922 25.1898 69.9534 26.5511 69.9534 28.2165V30.0084C71.207 29.3624 72.3025 28.4523 73.1587 27.3458C74.7643 25.2684 75.3283 22.5665 74.9139 19.9747Z" fill="white"/>
<path d="M62.6225 20.2901H74.9489C74.9352 20.185 74.9301 20.079 74.9139 19.9748L74.6772 18.499H62.3166L62.6174 19.8825L62.6225 20.2901Z" fill="#0F0F0F"/>
<path d="M69.3536 53.5193L61.4484 52.0139C60.5914 51.8584 60.1786 50.4073 60.206 49.5375L60.5965 36.9632C60.6486 35.3004 60.9955 33.6605 61.6022 32.1104C62.2559 30.4407 62.5909 28.6633 62.5909 26.8697V12.4976H63.1848V1.32571L61.1545 0.522476C59.6685 -0.0645752 58.0116 -0.190189 56.4948 0.316536C52.7999 1.55131 50.391 5.5248 51.4916 9.63502L55.5925 24.9359C56.2137 27.2525 56.1094 29.7033 55.2942 31.9592L54.9499 32.9111C54.544 34.0331 54.3765 35.2286 54.4568 36.4189L55.4403 50.9781V54.6865C55.4403 55.6319 56.241 56.3786 57.1835 56.3118L60.1581 56.1059L65.962 56.7077C66.5456 56.7692 67.1318 56.6179 67.6138 56.2821L69.2929 55.4326C69.5749 55.2901 69.7586 55.0064 69.7731 54.6909L69.7996 54.1405C69.8133 53.8551 69.6287 53.5981 69.3536 53.5193Z" fill="#F0724E"/>
<path d="M63.1848 1.32586L61.1545 0.522625C59.6685 -0.0644264 58.0116 -0.190041 56.4948 0.316685C52.7999 1.55146 50.391 5.52496 51.4916 9.63517L55.5925 24.9361C56.2137 27.2527 56.1094 29.7034 55.2942 31.9585L54.9499 32.9113C54.544 34.0332 54.3765 35.2287 54.4568 36.4191L55.0225 44.7864H56.2547L57.6587 39.562L59.0908 44.7864H60.3538L60.5965 36.9634C60.6486 35.3005 60.9955 33.6615 61.6022 32.1106C62.2559 30.4409 62.5909 28.6635 62.5909 26.8699V12.4978L63.1848 1.32586Z" fill="#0F0F0F"/>
<path d="M58.9541 41.6784L58.9431 41.7675C58.9037 41.8836 58.7781 41.9451 58.6628 41.9057L56.0163 41.0078C55.901 40.9685 55.8394 40.8446 55.8779 40.7275C55.9181 40.6121 56.0428 40.5506 56.1582 40.5899L58.8046 41.488C58.8909 41.5171 58.9473 41.594 58.9541 41.6784Z" fill="#0F0F0F"/>
<path d="M58.902 40.6453C58.9097 40.7351 58.861 40.8231 58.7747 40.8632L56.2317 42.0337C56.1206 42.0842 55.9898 42.0355 55.9385 41.9253C55.8873 41.8152 55.936 41.6826 56.0462 41.6322L58.5901 40.4625C58.7003 40.4112 58.8319 40.4599 58.8824 40.571L58.902 40.6453Z" fill="#0F0F0F"/>
<path d="M59.1438 42.8877L59.1336 42.9755C59.0943 43.0909 58.9687 43.1524 58.8533 43.114L56.206 42.2161C56.0915 42.1767 56.0283 42.0529 56.0684 41.9357C56.1078 41.8202 56.2334 41.7578 56.3479 41.7972L58.9952 42.6954C59.0815 42.7244 59.1379 42.8022 59.1438 42.8877Z" fill="#0F0F0F"/>
<path d="M59.0926 41.8528C59.1003 41.9423 59.0516 42.0314 58.9653 42.0705L56.4214 43.2414C56.3112 43.2918 56.1796 43.2437 56.1292 43.1329C56.0779 43.0224 56.1258 42.89 56.2368 42.8395L58.7799 41.6699C58.8909 41.6185 59.0217 41.6683 59.073 41.7784L59.0926 41.8528Z" fill="#0F0F0F"/>
<path d="M59.2396 44.0522L59.2285 44.1403C59.1892 44.2565 59.0636 44.3179 58.9482 44.2786L56.3017 43.3817C56.1864 43.3423 56.124 43.2174 56.1633 43.1012C56.2026 42.9858 56.3282 42.9233 56.4436 42.9617L59.09 43.8599C59.1763 43.889 59.2319 43.9667 59.2396 44.0522Z" fill="#0F0F0F"/>
<path d="M59.1875 43.0183C59.1951 43.1074 59.1464 43.1971 59.0601 43.2372L56.5162 44.4069C56.406 44.4572 56.2744 44.4095 56.2231 44.2983C56.1727 44.1875 56.2214 44.0567 56.3317 44.0052L58.8756 42.8357C58.9858 42.7842 59.1174 42.833 59.1678 42.9441L59.1875 43.0183Z" fill="#0F0F0F"/>
<path d="M69.7723 54.708C69.7723 54.7074 69.7723 54.7064 69.7723 54.7057C69.7723 54.7064 69.7723 54.7074 69.7723 54.708ZM69.7732 54.7041C69.7732 54.6997 69.7732 54.6954 69.7732 54.691L69.7851 54.45L69.7732 54.691C69.7732 54.6954 69.7732 54.6997 69.7732 54.7041Z" fill="#54203F"/>
<path d="M69.7279 54.9277L68.2222 54.7798C68.0897 54.7661 67.9932 54.6483 68.006 54.5168C68.0188 54.392 68.1231 54.2998 68.2453 54.2998L68.2692 54.3005L69.7851 54.4501L69.7732 54.691C69.7732 54.6954 69.7732 54.6997 69.7732 54.7041C69.7732 54.7047 69.7732 54.7057 69.7723 54.7057C69.7723 54.7064 69.7723 54.7074 69.7723 54.708C69.7672 54.7835 69.7518 54.8576 69.7279 54.9277Z" fill="#D3583A"/>
<path d="M66.4935 26.81L51.7668 27.4594C51.3626 27.3492 50.9277 27.3364 50.4979 27.4603C49.2503 27.8209 48.5239 29.136 48.8837 30.3836L52.4077 42.5936L54.6192 41.9554C54.591 41.8683 54.5645 41.7845 54.5414 41.705L53.6732 31.9225L66.6935 31.3474C67.9411 31.2919 68.9169 30.2263 68.8622 28.9787C68.8075 27.7303 67.7411 26.7553 66.4935 26.81Z" fill="#F0724E"/>
<path d="M64.4239 31.4473L66.2423 31.367C66.2414 31.367 66.2414 31.367 66.2406 31.367L64.4239 31.4473Z" fill="#D3583A"/>
<path d="M54.5756 41.8179C54.4397 41.5912 54.2236 41.4265 53.9706 41.3444L52.9794 31.5363C52.9537 31.286 53.146 31.0663 53.3981 31.0587L66.5209 30.6323C66.5209 30.6323 68.7879 30.5425 68.7452 28.3857C68.9075 28.8848 68.9631 29.4317 68.5145 30.1161C68.0154 30.8775 67.1515 31.327 66.2423 31.3671L64.4239 31.4475L61.8039 31.5628L55.3327 31.8491L53.6733 31.9226L54.5414 41.705C54.5525 41.7418 54.5636 41.7796 54.5756 41.8179Z" fill="#D3583A"/>
<path d="M54.6602 41.9964L54.6662 41.9947C55.0986 43.2705 56.0941 45.3229 56.2274 47.015L55.7839 51.4607C55.7566 51.7318 55.4208 51.8633 55.2259 51.6738C54.2467 50.72 53.5733 46.504 53.2546 45.4381L52.4624 42.7825L52.4351 42.72C52.2633 42.1432 52.6265 41.5255 53.2477 41.34C53.8476 41.1606 54.4637 41.4545 54.6602 41.9964Z" fill="#F0724E"/>
<path d="M55.4455 51.7636C55.4446 51.7636 55.4446 51.7636 55.4438 51.7636C55.4446 51.7636 55.4446 51.7636 55.4455 51.7636ZM55.4498 51.7636C55.5993 51.7616 55.7463 51.6568 55.7787 51.4943C55.7463 51.6568 55.5993 51.7616 55.4498 51.7636Z" fill="#D3583A"/>
<path d="M54.6602 41.9964L54.6653 41.9947L54.6602 41.9964ZM54.6602 41.9964C54.6593 41.9931 54.6576 41.9894 54.6568 41.9861C54.6576 41.9894 54.6593 41.9931 54.6602 41.9964ZM54.6559 41.985C54.6551 41.9817 54.6542 41.979 54.6525 41.9756C54.6534 41.979 54.6551 41.9817 54.6559 41.985ZM54.6525 41.9756C54.6491 41.9656 54.6448 41.9553 54.6405 41.946C54.6448 41.9553 54.6491 41.9656 54.6525 41.9756ZM54.6405 41.946C54.638 41.9399 54.6354 41.9329 54.632 41.9269C54.6354 41.9329 54.638 41.9399 54.6405 41.946ZM54.6311 41.9236C54.6303 41.922 54.6294 41.9203 54.6286 41.9192C54.6294 41.9209 54.6303 41.922 54.6311 41.9236ZM54.626 41.9143C54.626 41.9133 54.626 41.9126 54.626 41.9126C54.626 41.9126 54.626 41.9133 54.626 41.9143Z" fill="#DEBAA1"/>
<path d="M55.4455 51.7636C55.4446 51.7636 55.4446 51.7636 55.4438 51.7636C55.3694 51.7627 55.2951 51.737 55.2335 51.6815C55.231 51.6788 55.2284 51.6762 55.2259 51.6739L55.1977 51.6405L55.2771 51.4609L55.7206 47.0151C55.5865 45.3231 54.591 43.2706 54.1586 41.9948L54.1535 41.9965C54.0842 41.8048 54.0287 41.5487 53.9364 41.3367C54.238 41.4248 54.4936 41.628 54.626 41.9127C54.626 41.9127 54.626 41.9134 54.626 41.9144C54.6269 41.916 54.6277 41.9177 54.6286 41.9193C54.6294 41.9204 54.6303 41.9221 54.6311 41.9237C54.6311 41.9247 54.632 41.9264 54.632 41.927C54.6354 41.933 54.638 41.94 54.6405 41.9461C54.6448 41.9554 54.6491 41.9658 54.6525 41.9757C54.6542 41.9791 54.6551 41.9818 54.6559 41.9851L54.6568 41.9862C54.6576 41.9895 54.6593 41.9932 54.6602 41.9965L54.6653 41.9948C55.0985 43.2706 56.0941 45.3231 56.2274 47.0151L55.7839 51.4609C55.783 51.4652 55.783 51.4703 55.7822 51.4746C55.7813 51.4816 55.7804 51.4883 55.7787 51.4943C55.7463 51.6568 55.5993 51.7616 55.4497 51.7636C55.448 51.7636 55.4472 51.7636 55.4455 51.7636Z" fill="#D3583A"/>
<path d="M55.5711 51.8274L55.4883 51.772L55.5378 51.6549C55.6267 51.6198 55.6856 51.544 55.695 51.4516L56.1385 47.0055C56.0907 46.415 55.9232 45.6929 55.6267 44.8147L55.6831 44.7019L55.7959 44.7573C56.0975 45.6502 56.2676 46.3859 56.3171 47.0081L55.8719 51.4696C55.8565 51.6268 55.7548 51.7617 55.6053 51.8224L55.5711 51.8274Z" fill="#B14430"/>
<path d="M62.5064 15.6688L62.5909 15.6569V15.0049L61.2143 5.50351L61.0366 5.5283L62.5064 15.6688Z" fill="#0F0F0F"/>
<path d="M62.4295 1.02662L62.021 11.5773L62.1782 12.1516L62.6072 1.0967L62.4295 1.02662Z" fill="#0F0F0F"/>
</svg>
