<svg width="25" height="24" viewBox="0 0 25 24" fill="none" xmlns="http://www.w3.org/2000/svg">
<path d="M18.2339 19.1042C20.7811 19.1042 21.4179 17.6713 21.4179 15.9201V9.55207C21.4179 7.80085 20.7811 6.36804 18.2339 6.36804C15.6867 6.36804 15.0499 7.80085 15.0499 9.55207V15.9201C15.0499 17.6713 15.6867 19.1042 18.2339 19.1042Z" stroke="#7E315F" stroke-width="1.5" stroke-linecap="round" stroke-linejoin="round"/>
<path d="M7.23835 19.1042C4.69113 19.1042 4.05432 17.6713 4.05432 15.9201V9.55207C4.05432 7.80085 4.69113 6.36804 7.23835 6.36804C9.78557 6.36804 10.4224 7.80085 10.4224 9.55207V15.9201C10.4224 17.6713 9.78557 19.1042 7.23835 19.1042Z" stroke="#7E315F" stroke-width="1.5" stroke-linecap="round" stroke-linejoin="round"/>
<path d="M10.4224 12.7361H15.0498" stroke="#7E315F" stroke-width="1.5" stroke-linecap="round" stroke-linejoin="round"/>
<path d="M23.8802 15.3895V10.0828" stroke="#7E315F" stroke-width="1.5" stroke-linecap="round" stroke-linejoin="round"/>
<path d="M1.59204 15.3895V10.0828" stroke="#7E315F" stroke-width="1.5" stroke-linecap="round" stroke-linejoin="round"/>
</svg>
