<svg width="119" height="95" viewBox="0 0 119 95" fill="none" xmlns="http://www.w3.org/2000/svg">
<path d="M118.781 94.4425H0L7.60999 83.7519H111.172L118.781 94.4425Z" fill="#7E315F"/>
<path d="M116.355 91.0327L63.3008 89.9142C63.6545 89.8391 64.0167 89.8016 64.3799 89.8016H67.057C67.6772 89.8016 68.29 89.5407 68.6578 89.0406C68.715 88.9636 68.7647 88.8839 68.8088 88.8022L112.555 85.6963L115.095 89.263L116.355 91.0327Z" fill="#54203F"/>
<path d="M76.0641 49.6356L47.5431 34.7732L46.2567 41.2985L44.6943 46.3524L44.0572 51.4476C43.9455 52.3446 44.4494 53.2061 45.2883 53.5467L54.0431 57.1086C54.485 57.2878 54.957 57.3807 55.4327 57.3807C56.1609 57.3807 56.8722 57.1649 57.4783 56.7605L60.1329 54.9908H63.9229C64.317 54.9908 64.637 55.3108 64.637 55.7049C64.637 55.9948 64.4596 56.2566 64.1903 56.3664L63.0061 56.8468C59.5727 58.2384 56.327 60.0541 53.3459 62.2517L50.8883 64.0627C49.3504 65.1971 49.0135 67.3591 50.133 68.9083L56.4884 76.9302L63.4659 85.9618L54.7571 89.5209L54.9711 89.7818C55.3689 90.2688 55.9638 90.5503 56.5925 90.5503H60.5233C61.2148 90.5503 61.8876 90.3805 62.536 90.1374C63.1253 89.915 63.7502 89.8015 64.3799 89.8015H67.057C67.6772 89.8015 68.29 89.5406 68.6578 89.0405C69.1288 88.3996 69.157 87.5954 68.8135 86.9592L65.5434 80.9079C64.21 76.7613 62.0856 72.9103 59.2725 69.5811L58.2037 68.3162L61.5404 67.4689C66.7586 66.1421 71.7571 64.0711 76.3832 61.3162C80.8844 58.6353 80.7108 52.0575 76.0641 49.6356Z" fill="#F0724E"/>
<path d="M59.5145 41.0114C58.823 41.2779 58.2553 41.5753 58.2984 41.824C58.4063 42.4433 57.4783 56.7606 57.4783 56.7606L60.1329 54.9908H61.8285L65.7761 44.2749L59.5145 41.0114Z" fill="#0F0F0F"/>
<path d="M47.5431 34.7732L46.2567 41.2985L44.6943 46.3524L44.0572 51.4476C43.9455 52.3447 44.4494 53.2061 45.2883 53.5467L54.0431 57.1087C54.485 57.2879 54.957 57.3808 55.4327 57.3808C56.1609 57.3808 56.8722 57.165 57.4783 56.7605L60.1329 54.9908H61.1285L63.7437 43.2155L47.5431 34.7732Z" fill="#0F0F0F"/>
<path d="M49.7604 41.32L46.4565 40.286L46.2567 41.2975L44.6943 46.3524L44.6765 46.4903L47.834 47.4784C49.5268 48.0085 51.3472 47.0561 51.8764 45.3624C52.4066 43.6697 51.4542 41.8502 49.7604 41.32Z" fill="#F0724E"/>
<path d="M47.1603 37.5339C46.9511 38.9817 47.9645 40.3367 49.4114 40.545C50.8593 40.7533 52.2143 39.7399 52.4226 38.293C52.4723 37.9477 52.4488 37.6089 52.37 37.288L48.8371 35.4479C47.972 35.7848 47.3011 36.5552 47.1603 37.5339Z" fill="#F0724E"/>
<path d="M46.8703 55.2151L45.9986 55.0893C44.7909 54.9157 43.9455 53.785 44.1201 52.5774L44.2448 51.7056C44.4194 50.498 45.5491 49.6525 46.7568 49.8271L47.6295 49.9528C48.8362 50.1273 49.6816 51.2571 49.508 52.4648L49.3823 53.3365C49.2087 54.5441 48.077 55.3896 46.8703 55.2151Z" fill="#F0724E"/>
<path d="M62.3746 42.5025L59.9406 55.1195L60.1329 54.9909H61.1285L63.7437 43.2156L62.3746 42.5025Z" fill="white"/>
<path d="M76.0641 49.6356L74.3826 48.7602L63.9229 54.9908C64.317 54.9908 64.637 55.3108 64.637 55.7049C64.637 55.9948 64.4596 56.2566 64.1903 56.3664L63.0061 56.8468C59.5727 58.2384 56.327 60.0541 53.3459 62.2517L50.8883 64.0627C49.3504 65.1972 49.0135 67.3591 50.133 68.9083L56.4884 76.9302L61.2233 83.0595L62.292 82.5265L59.9406 76.5868L64.5741 81.3911L65.5434 80.9079C64.21 76.7613 62.0856 72.9104 59.2725 69.5811L58.2037 68.3162L61.5404 67.4689C66.7586 66.1421 71.7571 64.0711 76.3832 61.3162C80.8844 58.6353 80.7108 52.0575 76.0641 49.6356Z" fill="#0F0F0F"/>
<path d="M56.3495 68.2646L55.6673 68.685C54.7243 69.2677 53.4772 68.9721 52.8945 68.0291L44.0835 53.7606C43.4998 52.8176 43.7954 51.5696 44.7384 50.9878L45.4197 50.5665C46.3618 49.9847 47.6098 50.2793 48.1934 51.2224L57.0045 65.4908C57.5872 66.4339 57.2925 67.6819 56.3495 68.2646Z" fill="#F0724E"/>
<path d="M54.4972 61.4317L51.5424 56.6462L54.4981 61.4308C54.4972 61.4308 54.4972 61.4308 54.4972 61.4317Z" fill="#DEBAA1"/>
<path d="M56.8205 65.1934L54.4972 61.4316C54.4972 61.4307 54.4972 61.4307 54.4981 61.4307L56.7943 65.1503C56.8037 65.1643 56.8121 65.1784 56.8205 65.1934Z" fill="#0F0F0F"/>
<path d="M45.0743 50.7805C45.0763 50.7785 45.0782 50.7776 45.0792 50.7766C45.0831 50.7747 45.086 50.7727 45.0899 50.7708L45.0743 50.7805Z" fill="#D3583A"/>
<path d="M57.0964 65.8944C56.9284 65.5688 56.6657 65.2592 56.2669 65.0077C56.023 64.8463 55.748 64.7271 55.4515 64.6624L47.6285 51.9947C47.1734 51.2581 46.3796 50.8528 45.5689 50.8528C45.3136 50.8528 45.0556 50.8931 44.8069 50.9757C44.8914 50.9063 44.9796 50.8396 45.0743 50.7805L45.0894 50.7711C45.4797 50.5328 45.9123 50.4193 46.3411 50.4193C47.1528 50.4193 47.9476 50.8256 48.4027 51.5631L51.5424 56.6461L54.4972 61.4317L56.8205 65.1935C56.9519 65.4159 57.0429 65.6523 57.0964 65.8944Z" fill="#D3583A"/>
<path d="M52.5267 66.9087L54.4015 79.7453C54.3977 79.8297 54.3912 79.9189 54.3827 80.0127L56.7361 80.1234L57.3517 67.1377C57.4145 65.8099 56.3805 64.6736 55.0536 64.6107C53.7259 64.5469 52.5886 65.5819 52.5267 66.9087Z" fill="#F0724E"/>
<path d="M56.8647 77.4164L57.3517 67.1377C57.3526 67.133 57.3526 67.1283 57.3526 67.1237C57.3526 67.1283 57.3526 67.133 57.3517 67.1377L56.8647 77.4164ZM57.3526 67.1208C57.361 66.9191 57.3432 66.722 57.3038 66.5315C57.3038 66.5165 57.3038 66.5015 57.3029 66.4856C57.3479 66.7061 57.361 66.9219 57.3526 67.1208Z" fill="#0F0F0F"/>
<path d="M57.3038 66.5315C57.2626 66.3363 57.1978 66.1487 57.1124 65.9732C57.1077 65.9469 57.1021 65.9197 57.0964 65.8944C57.1968 66.0886 57.2626 66.2894 57.3029 66.4855C57.3038 66.5015 57.3038 66.5165 57.3038 66.5315Z" fill="#D3583A"/>
<path d="M57.1124 65.9731C56.9219 65.5819 56.6291 65.2478 56.2669 65.0076C56.6657 65.2591 56.9285 65.5687 57.0964 65.8943C57.102 65.9197 57.1077 65.9469 57.1124 65.9731Z" fill="#B8442B"/>
<path d="M56.7361 80.1159C56.7004 79.6571 56.3645 79.2676 55.9019 79.1278L55.8362 64.7834C55.9948 64.8509 56.1384 64.926 56.2669 65.0076C56.6291 65.2478 56.9219 65.5819 57.1124 65.9732C57.1978 66.1486 57.2625 66.3363 57.3038 66.5315C57.3432 66.722 57.361 66.919 57.3526 67.1208C57.3526 67.1217 57.3526 67.1226 57.3526 67.1236C57.3526 67.1283 57.3526 67.133 57.3516 67.1377L56.8646 77.4163L56.7361 80.1159Z" fill="#D3583A"/>
<path d="M54.3517 80.0624H54.3461C54.2176 81.4352 53.7127 83.7136 53.9811 85.4288L55.4749 89.749C55.5659 90.0117 55.931 90.0643 56.0811 89.8287C56.8309 88.6483 56.5015 84.2916 56.5653 83.1562L56.7257 80.3252L56.738 80.2567C56.7727 79.6421 56.265 79.1128 55.6035 79.0753C54.9626 79.0396 54.4184 79.4769 54.3517 80.0624Z" fill="#F0724E"/>
<path d="M55.9883 89.9236C56.0239 89.9001 56.0558 89.8682 56.0811 89.8288C56.2238 89.6026 56.3279 89.2611 56.403 88.8482C56.3279 89.2611 56.2238 89.6026 56.0811 89.8288C56.0558 89.8682 56.0239 89.9001 55.9883 89.9236Z" fill="#D3583A"/>
<path d="M55.6043 79.0753C55.5797 79.0743 55.5541 79.0734 55.5295 79.0734C55.5541 79.0734 55.5797 79.0743 55.6043 79.0753ZM55.5172 79.0734H55.5182H55.5172Z" fill="#D3583A"/>
<path d="M55.8043 89.978C55.7865 89.978 55.7696 89.977 55.7518 89.9742C56.2454 88.3959 55.9864 84.7767 56.0455 83.7558L56.2059 80.9248L56.2172 80.8563C56.2519 80.2417 55.7433 79.7125 55.0818 79.6749C55.0574 79.674 55.033 79.6731 55.0086 79.6731C54.79 79.6731 54.5854 79.7293 54.41 79.826C54.5676 79.3887 55.0039 79.0781 55.5172 79.0734H55.5181C55.5219 79.0734 55.5256 79.0734 55.5294 79.0734C55.5538 79.0734 55.5791 79.0744 55.6035 79.0753C56.2444 79.1119 56.7408 79.6092 56.7399 80.1995C56.7399 80.2182 56.7389 80.2379 56.738 80.2567L56.7258 80.3252L56.5653 83.1562C56.5597 83.2688 56.5569 83.4142 56.5569 83.585C56.5569 84.1574 56.5841 85.0179 56.5841 85.9281C56.5841 86.9518 56.5494 88.0375 56.403 88.8482C56.3279 89.2611 56.2238 89.6026 56.0811 89.8288C56.0558 89.8682 56.0239 89.9001 55.9883 89.9235C55.9329 89.9611 55.8691 89.978 55.8043 89.978Z" fill="#D3583A"/>
<path d="M51.3125 20.3632L50.5543 20.305C49.5061 20.2243 48.5819 21.0172 48.5021 22.0663L47.286 37.9384C47.2053 38.9884 47.9973 39.9117 49.0464 39.9915L49.8036 40.0496C50.8536 40.1303 51.7769 39.3384 51.8576 38.2893L53.0737 22.4163C53.1544 21.3672 52.3615 20.4439 51.3125 20.3632Z" fill="#F0724E"/>
<path d="M49.4588 40.0233C49.4475 40.0224 49.437 40.0224 49.4257 40.0215C49.4162 40.0205 49.4058 40.0195 49.3964 40.0186L49.4588 40.0233Z" fill="#D3583A"/>
<path d="M51.9515 37.0703H51.9506L53.0484 22.7418C53.0475 22.7596 53.0465 22.7775 53.0447 22.7953L51.9515 37.0703Z" fill="#DEBAA1"/>
<path d="M51.883 37.9495L51.9505 37.0703H51.9515L51.8867 37.9101C51.8858 37.9233 51.8849 37.9364 51.883 37.9495Z" fill="#D3583A"/>
<path d="M49.6009 40.0279C49.5531 40.0279 49.5062 40.026 49.4583 40.0232L49.3964 40.0185C49.2988 40.0091 49.2031 39.9922 49.1092 39.9716C50.1358 39.8111 50.9625 38.961 51.046 37.8838L52.1401 23.5947C52.5136 23.2972 52.7913 22.8853 52.9236 22.417C52.9236 22.417 52.9236 22.417 52.9236 22.4161C52.9246 22.4142 52.9255 22.4114 52.9255 22.4095C52.9264 22.4058 52.9274 22.402 52.9283 22.3983C52.9292 22.3973 52.9292 22.3973 52.9292 22.3973C52.9565 22.2979 52.9762 22.1965 52.9902 22.0924C53.039 22.3007 53.0606 22.5184 53.0484 22.7417L51.9506 37.0702L51.883 37.9495C51.7732 39.129 50.7711 40.0279 49.6009 40.0279Z" fill="#D3583A"/>
<path d="M48.428 21.9432L50.026 9.73345C50.0213 9.65276 50.0138 9.56831 50.0054 9.47917L52.2367 9.34126L53.0034 21.658C53.0831 22.9172 52.1166 24.0113 50.8583 24.0892C49.6 24.168 48.5059 23.2025 48.428 21.9432Z" fill="#F0724E"/>
<path d="M53.0081 21.7546C53.0072 21.7224 53.0062 21.6903 53.0034 21.6571C53.0062 21.6903 53.0072 21.7224 53.0081 21.7546Z" fill="#DEBAA1"/>
<path d="M52.9902 22.0924C52.9902 22.0924 52.9902 22.0924 52.9893 22.0924C53.0043 21.9817 53.0099 21.8691 53.0081 21.7546C53.0099 21.8691 53.0043 21.9817 52.9902 22.0924Z" fill="#D3583A"/>
<path d="M52.9236 22.4171C52.9236 22.4171 52.9236 22.4172 52.9236 22.4162C52.9236 22.4172 52.9236 22.4171 52.9236 22.4171ZM52.9255 22.4096C52.9264 22.4059 52.9273 22.4022 52.9283 22.3984C52.9273 22.4022 52.9264 22.4059 52.9255 22.4096ZM52.9292 22.3974C52.9555 22.298 52.9761 22.1966 52.9893 22.0925C52.9902 22.0925 52.9902 22.0925 52.9902 22.0925C52.9761 22.1966 52.9564 22.298 52.9292 22.3974Z" fill="#B8442B"/>
<path d="M52.1204 23.6089L51.4917 10.2872C51.9111 10.1408 52.2104 9.77391 52.2376 9.34884L52.6196 15.4997L53.0034 21.6581C53.0062 21.6909 53.0071 21.7228 53.008 21.7547C53.0099 21.8692 53.0043 21.9818 52.9893 22.0925C52.9761 22.1967 52.9555 22.298 52.9292 22.3975C52.9292 22.3975 52.9292 22.3975 52.9283 22.3984C52.9273 22.4022 52.9264 22.4059 52.9255 22.4097C52.9255 22.4115 52.9245 22.4144 52.9236 22.4163C52.9236 22.4172 52.9236 22.4172 52.9236 22.4172C52.7894 22.8929 52.5032 23.3096 52.1204 23.6089Z" fill="#D3583A"/>
<path d="M49.9753 9.43325H49.9688C49.8289 8.13177 49.3175 5.97637 49.5465 4.34553L50.9043 0.22336C50.9869 -0.0281172 51.3322 -0.0825319 51.4776 0.138918C52.2058 1.24898 51.9543 5.38801 52.0322 6.46523L52.2245 9.14987L52.2368 9.21461C52.278 9.79826 51.8032 10.3068 51.1764 10.3518C50.5702 10.395 50.0466 9.98688 49.9753 9.43325Z" fill="#F0724E"/>
<path d="M51.0882 10.3547C51.0863 10.3547 51.0845 10.3547 51.0826 10.3547C51.0845 10.3547 51.0863 10.3547 51.0882 10.3547C51.1173 10.3547 51.1473 10.3538 51.1764 10.3519C51.2872 10.3444 51.3932 10.3219 51.4917 10.2872C51.3932 10.3219 51.2872 10.3444 51.1764 10.3519C51.1473 10.3538 51.1173 10.3547 51.0882 10.3547ZM51.0807 10.3547C51.0741 10.3547 51.0685 10.3547 51.062 10.3547C51.0685 10.3547 51.0741 10.3547 51.0807 10.3547ZM51.061 10.3547C51.0573 10.3547 51.0535 10.3547 51.0497 10.3547C51.0535 10.3547 51.0573 10.3547 51.061 10.3547ZM51.0469 10.3547C51.0441 10.3547 51.0404 10.3538 51.0376 10.3538C51.0404 10.3538 51.0441 10.3547 51.0469 10.3547ZM51.0347 10.3538C51.0329 10.3538 51.031 10.3538 51.0291 10.3538C51.031 10.3538 51.0329 10.3538 51.0347 10.3538ZM51.0253 10.3538C51.0225 10.3538 51.0197 10.3529 51.0169 10.3529C51.0197 10.3529 51.0225 10.3538 51.0253 10.3538ZM51.0122 10.3529C51.0103 10.3529 51.0085 10.3528 51.0066 10.3519C51.0085 10.3528 51.0103 10.3529 51.0122 10.3529ZM51 10.3519C50.9991 10.3519 50.9981 10.3519 50.9962 10.3519C50.9981 10.3519 50.9991 10.3519 51 10.3519ZM50.9878 10.351C50.9878 10.351 50.9869 10.351 50.9859 10.351C50.9869 10.351 50.9869 10.351 50.9878 10.351Z" fill="#D3583A"/>
<path d="M51.0882 10.3547C51.0863 10.3547 51.0845 10.3547 51.0826 10.3547C51.0817 10.3547 51.0817 10.3547 51.0807 10.3547C51.0742 10.3547 51.0685 10.3547 51.062 10.3547C51.061 10.3547 51.061 10.3547 51.061 10.3547C51.0573 10.3547 51.0535 10.3547 51.0497 10.3547C51.0488 10.3547 51.0479 10.3547 51.0469 10.3547C51.0441 10.3547 51.0404 10.3538 51.0376 10.3538C51.0366 10.3538 51.0357 10.3538 51.0347 10.3538C51.0329 10.3538 51.031 10.3538 51.0291 10.3538C51.0282 10.3538 51.0263 10.3538 51.0253 10.3538C51.0225 10.3538 51.0197 10.3529 51.0169 10.3529C51.016 10.3529 51.0141 10.3529 51.0122 10.3529C51.0103 10.3529 51.0085 10.3528 51.0066 10.3519C51.0047 10.3519 51.0028 10.3519 51 10.3519C50.9991 10.3519 50.9981 10.3519 50.9963 10.3519C50.9934 10.351 50.9906 10.351 50.9878 10.351C50.9869 10.351 50.9869 10.351 50.9859 10.351C50.5459 10.3134 50.1771 10.0385 50.0335 9.65661C50.1968 9.74388 50.3854 9.79361 50.5853 9.79361C50.6144 9.79361 50.6444 9.79267 50.6735 9.78985C51.3012 9.74481 51.776 9.23622 51.7338 8.65257L51.7216 8.58879L51.5293 5.90415C51.4598 4.93484 51.654 1.49582 51.1633 0.00572586C51.182 0.0019722 51.2008 0.00105286 51.2187 0.00105286C51.3181 0.00105286 51.4157 0.0451288 51.4776 0.138964C51.9787 0.901838 52.0162 3.09757 52.0162 4.74437C52.0162 5.03901 52.0144 5.31676 52.0144 5.56542C52.0144 5.94733 52.0181 6.26166 52.0322 6.46528L52.2246 9.14992L52.2368 9.21466C52.2386 9.23718 52.2396 9.25967 52.2396 9.28219C52.2396 9.30471 52.2386 9.32723 52.2377 9.34881C52.2105 9.77388 51.9111 10.1408 51.4917 10.2872C51.3932 10.3219 51.2872 10.3444 51.1764 10.3519C51.1473 10.3538 51.1173 10.3547 51.0882 10.3547Z" fill="#D3583A"/>
<path d="M46.8131 46.5354L38.6795 42.8289L40.2672 39.2153L40.8631 39.2641L41.6869 38.3239L41.8343 38.6054C42.0857 39.0859 42.5652 39.403 43.1048 39.4471L47.8087 41.4589L46.8131 46.5354Z" fill="#F0724E"/>
<path d="M42.9133 39.42C42.5905 39.3534 42.2978 39.1864 42.0754 38.9471C42.2978 39.1864 42.5905 39.3525 42.9133 39.42ZM42.0745 38.9462C42.0726 38.9443 42.0707 38.9414 42.0688 38.9396C42.0707 38.9414 42.0726 38.9443 42.0745 38.9462ZM42.066 38.9368C42.0641 38.9349 42.0632 38.933 42.0613 38.9321C42.0632 38.933 42.0641 38.9349 42.066 38.9368ZM42.0566 38.9264C42.0557 38.9255 42.0547 38.9246 42.0538 38.9236C42.0547 38.9246 42.0557 38.9255 42.0566 38.9264Z" fill="#DEBAA1"/>
<path d="M40.6914 41.8211C41.3613 41.336 41.7601 40.5544 41.7536 39.7211L41.7489 39.2069C41.747 38.9122 41.7263 38.6186 41.6879 38.3267L41.8343 38.6054C41.8953 38.7208 41.9694 38.8278 42.0538 38.9235C42.0548 38.9244 42.0557 38.9254 42.0566 38.9263C42.0585 38.9282 42.0595 38.9301 42.0613 38.9319C42.0632 38.9329 42.0641 38.9348 42.066 38.9367C42.067 38.9376 42.0679 38.9385 42.0688 38.9395C42.0707 38.9413 42.0726 38.9442 42.0745 38.946L42.0754 38.947C42.2978 39.1862 42.5906 39.3533 42.9134 39.4199C42.6853 40.2241 42.1036 41.5124 40.6914 41.8211Z" fill="#D3583A"/>
<path d="M35.2518 41.1174C37.6896 40.6501 40.0045 42.0285 40.4192 44.198C40.8359 46.3665 39.1966 48.5041 36.7578 48.9714C34.3191 49.4387 32.006 48.0593 31.5894 45.8908C31.1737 43.7223 32.813 41.5856 35.2518 41.1174Z" fill="#682B22"/>
<path d="M37.2279 50.9184L37.121 50.8818L37.089 50.6369C37.0965 50.6266 37.8369 49.6488 37.6586 48.7837C37.5807 48.4064 37.3321 48.0987 36.9201 47.8678C36.8357 47.8209 36.8057 47.7139 36.8535 47.6295L37.0909 47.5619C37.5967 47.8444 37.9035 48.2329 38.0021 48.7152C38.2122 49.738 37.4015 50.8049 37.3659 50.8499L37.2279 50.9184Z" fill="#682B22"/>
<path d="M42.3119 44.7966L42.1411 44.6634C42.1383 44.6512 41.8371 43.4632 41.0498 43.0625C40.7064 42.8871 40.3085 42.8899 39.8722 43.0682C39.7812 43.1048 39.6789 43.0607 39.6442 42.9716C39.6076 42.8824 39.6498 42.7801 39.7399 42.7435C40.2785 42.5249 40.7721 42.5286 41.2103 42.751C42.1402 43.2249 42.4686 44.5245 42.4826 44.5799C42.5042 44.6737 42.447 44.7685 42.3532 44.7919L42.3119 44.7966Z" fill="#682B22"/>
<path d="M42.1514 45.3747C42.0566 45.3747 41.9797 45.3006 41.9759 45.2058C41.9759 45.1908 41.9103 43.7279 41.153 43.2644C40.8208 43.0607 40.3873 43.0814 39.8666 43.3235C39.7783 43.3619 39.6733 43.3254 39.6329 43.2372C39.5935 43.1499 39.631 43.0457 39.7183 43.0045C40.3535 42.7108 40.8978 42.6985 41.336 42.966C42.2528 43.528 42.3241 45.1242 42.3269 45.1927C42.3297 45.2893 42.2537 45.37 42.158 45.3738L42.1514 45.3747Z" fill="#682B22"/>
<path d="M31.0968 38.0799C33.1142 37.1641 35.7369 38.597 36.9558 41.2788C38.1738 43.9624 37.5244 46.8797 35.5079 47.7956C33.4905 48.7114 30.8678 47.2785 29.6498 44.5958C28.4309 41.9131 29.0793 38.9957 31.0968 38.0799Z" fill="#682B22"/>
<path d="M30.2316 44.3922C31.3436 46.8422 33.6265 48.2431 35.5511 47.7721L35.5079 47.7956C33.4905 48.7114 30.8678 47.2785 29.6498 44.5958C28.4309 41.9131 29.0793 38.9957 31.0968 38.0799C31.2722 38.0001 31.4533 37.9448 31.6363 37.8997C29.6545 38.8381 29.023 41.7301 30.2316 44.3922Z" fill="#B14B3C"/>
<path d="M33.7851 45.4545C35.5398 45.1185 37.2195 46.1901 37.5385 47.8491C37.8566 49.5091 36.6921 51.1267 34.9374 51.4627C33.1827 51.7995 31.5021 50.727 31.185 49.068C30.866 47.409 32.0304 45.7913 33.7851 45.4545Z" fill="#682B22"/>
<path d="M34.1614 45.7265C32.4076 46.0634 31.2432 47.6811 31.5613 49.3401C31.6936 50.0298 32.0633 50.6162 32.5747 51.0441C31.869 50.6125 31.3473 49.9181 31.185 49.068C30.866 47.409 32.0304 45.7913 33.7851 45.4544C34.8098 45.2583 35.8063 45.5445 36.5242 46.145C35.8532 45.735 35.0181 45.5623 34.1614 45.7265Z" fill="#B14B3C"/>
<path d="M36.7634 44.7272C36.6058 44.7272 36.4622 44.6212 36.4238 44.4617C35.8242 42.0614 34.8633 40.5384 33.5702 39.9351C32.2547 39.3223 31.018 39.9098 31.0058 39.9163C30.8322 40.0008 30.6229 39.9285 30.5366 39.7559C30.4521 39.5832 30.5225 39.374 30.6952 39.2876C30.758 39.2576 32.2284 38.5454 33.8527 39.2942C35.354 39.9877 36.4482 41.6692 37.1031 44.2918C37.15 44.4795 37.0355 44.67 36.8488 44.7169L36.7634 44.7272Z" fill="#682B22"/>
<path d="M34.6137 42.4799L35.4357 42.6272C35.4357 42.6272 36.9455 42.9697 37.09 44.5733L36.2633 45.3409L35.508 46.1019L34.7169 45.7875L34.1886 44.2693L34.6625 42.6197L34.6137 42.4799Z" fill="#682B22"/>
<path d="M31.6504 41.1567C31.6504 41.1567 31.8465 38.8672 34.5002 37.957C34.7263 37.8773 34.9308 37.7431 35.0922 37.5648L36.3346 36.1967C36.4181 36.1056 36.5429 36.0643 36.663 36.0878C36.7869 36.1122 36.8882 36.1995 36.9295 36.3187L37.0271 36.5973L37.1022 36.679L37.2157 36.7278L37.4353 36.6527L37.5667 36.4097L37.8754 36.5073L38.201 36.3646L38.3821 36.2652C38.5923 36.1488 38.7696 36.2895 39.007 36.3261L39.7605 35.9058C40.3939 35.6881 41.0808 36.0353 41.2816 36.6733L41.4158 37.0946C41.6306 37.7777 41.7432 38.49 41.7489 39.2069L41.7536 39.7211C41.7601 40.6013 41.3154 41.4233 40.5759 41.8999L39.6385 42.5042C40.3198 44.455 39.0258 46.5513 36.9736 46.7868C35.5699 46.9482 34.1108 46.7146 33.2578 45.429C33.2578 45.429 31.6307 43.3121 31.6504 41.1567Z" fill="#F0724E"/>
<path d="M38.3286 37.3725C38.46 37.0075 38.4637 36.5045 38.4637 36.5045C38.4741 36.3759 38.4609 36.2924 38.4375 36.2399C38.4769 36.2258 38.5153 36.2202 38.5538 36.2202C38.6974 36.2202 38.8372 36.2999 39.007 36.3262C39.007 36.3262 38.7846 37.0825 38.3286 37.3725Z" fill="#D3583A"/>
<path d="M38.1625 37.5742C38.0846 37.4269 37.836 37.0037 37.4578 36.7794C37.4578 36.7794 37.181 36.7231 37.2533 36.4294C37.2533 36.4294 37.4588 36.2127 37.8435 36.4153C37.8435 36.4153 38.1259 36.1479 38.2742 36.1573C38.2742 36.1573 38.4966 36.0719 38.4637 36.5045C38.4637 36.5045 38.4581 37.243 38.2263 37.5789L38.1625 37.5742Z" fill="#B73C2B"/>
<path d="M36.6635 36.0878C36.6455 36.085 36.6275 36.0822 36.6095 36.0822C36.6275 36.0822 36.6455 36.085 36.6635 36.0878Z" fill="#DEBAA1"/>
<path d="M36.7512 37.7769L36.785 37.5892C36.77 37.4954 36.7118 37.4128 36.6339 37.3584C36.2014 37.0572 36.3346 36.7194 36.3346 36.7194C36.4275 36.2418 36.329 36.2052 36.329 36.2052L36.3477 36.1864C36.4153 36.1198 36.5044 36.0813 36.5973 36.0813C36.6011 36.0813 36.6058 36.0823 36.6096 36.0823C36.6274 36.0823 36.6452 36.0851 36.663 36.0879C36.7869 36.1123 36.8882 36.1996 36.9295 36.3188L37.0215 36.5824L37.0271 36.5974C37.1444 36.8611 37.2129 37.3087 37.2129 37.3087C37.3049 37.7666 36.7512 37.7769 36.7512 37.7769Z" fill="#D3583A"/>
<path d="M35.05 38.3803C34.9599 38.5407 34.9534 38.7209 34.9703 38.8917C34.9796 38.978 34.9965 39.0625 35.02 39.145L35.0594 39.2661L35.081 39.3271L35.1026 39.3806C35.157 39.526 35.2058 39.6752 35.2405 39.8225L35.2705 40.0374L35.2245 40.2101L35.2142 40.2204L35.218 40.3011L35.2883 40.3067L35.354 40.2598L35.4019 40.195L35.431 40.1256L35.4488 40.0562C35.4638 39.9633 35.4638 39.8732 35.4526 39.7869C35.4328 39.6142 35.385 39.4519 35.3249 39.2943L35.2367 39.0747L35.1664 38.856C35.1279 38.7106 35.0988 38.5548 35.111 38.4066L35.1119 38.3991L35.081 38.3625L35.05 38.3803Z" fill="#682B22"/>
<path d="M35.4009 38.8833C35.5454 38.8326 35.644 38.7332 35.6177 38.6609C35.5933 38.5896 35.4544 38.5717 35.3099 38.6224C35.1654 38.6731 35.0678 38.7726 35.0932 38.8448C35.1185 38.9161 35.2555 38.933 35.4009 38.8833Z" fill="#682B22"/>
<path d="M35.6403 38.459L35.6356 38.4468L35.598 38.4318L35.5821 38.4694C35.5821 38.4713 35.6309 38.5876 35.5793 38.6814C35.5455 38.7424 35.4779 38.7818 35.3766 38.7997L35.3531 38.8334L35.3869 38.8569C35.5061 38.8353 35.5886 38.7856 35.6299 38.7086C35.6834 38.6092 35.6525 38.4966 35.6403 38.459Z" fill="#682B22"/>
<path d="M33.848 38.7116C33.7889 38.8044 33.7842 38.8907 33.7945 38.9771C33.8077 39.0625 33.8255 39.1469 33.8461 39.2304C33.8846 39.3984 33.9409 39.5598 34.0066 39.7174C34.0751 39.8741 34.1539 40.0252 34.2496 40.165C34.3434 40.3067 34.4533 40.4353 34.5724 40.5526H34.6137L34.6184 40.5188V40.5169C34.5443 40.3705 34.4692 40.2288 34.4148 40.0777C34.3556 39.9304 34.3078 39.7794 34.2703 39.6274C34.229 39.4753 34.2008 39.3214 34.1792 39.1666L34.1567 38.9358L34.0695 38.7134L34.0545 38.6965L33.8724 38.6834L33.848 38.7116Z" fill="#682B22"/>
<path d="M36.7165 36.6003C36.7071 36.6969 36.7146 36.7907 36.7456 36.8827C36.7747 36.9709 36.8291 37.0666 36.8985 37.1248L37.0084 37.3219L36.9549 37.548L36.9624 37.5761L36.9849 37.5752C37.0581 37.5179 37.1162 37.4203 37.1116 37.3115C37.1087 37.2027 37.0487 37.1117 36.9746 37.0441L36.8216 36.8546L36.7813 36.6087V36.6059L36.7512 36.5712L36.7165 36.6003Z" fill="#682B22"/>
<path d="M30.5826 39.5081C32.3945 38.6851 34.8032 40.088 35.9621 42.6412C37.1219 45.1935 36.5917 47.9307 34.7798 48.7536C32.9669 49.5756 30.5591 48.1737 29.3993 45.6195C28.2404 43.0672 28.7697 40.3301 30.5826 39.5081Z" fill="#682B22"/>
<path d="M30.8378 39.6057C29.0296 40.4268 28.5445 43.2568 29.7568 45.9264C30.0834 46.6461 30.5019 47.2767 30.971 47.8031C30.3498 47.2401 29.799 46.5007 29.3993 45.6196C28.2404 43.0673 28.7697 40.3301 30.5826 39.5081C31.5106 39.0859 32.5953 39.2519 33.589 39.8544C32.6591 39.3486 31.6804 39.2238 30.8378 39.6057Z" fill="#B14B3C"/>
<path d="M32.7116 41.6879C32.7116 41.6879 33.1883 41.2882 34.2965 42.1327C34.2965 42.1327 34.9233 42.4752 35.3052 42.1524C35.3052 42.1524 36.1995 41.1127 36.7934 41.6485C36.7934 41.6485 37.3199 42.0314 37.0506 42.3889C37.0506 42.3889 36.2042 43.1883 36.877 43.8977C36.877 43.8977 37.5291 44.6728 38.6626 43.8311C38.6626 43.8311 39.2613 43.406 39.2819 42.706C39.2819 42.706 40.5412 41.686 41.7348 43.4651C41.7348 43.4651 42.2218 46.2455 38.5876 47.7055C37.0778 48.3126 35.3475 48.1165 34.0507 47.1331C33.315 46.5748 32.5793 45.7162 32.0088 44.3988C32.0088 44.3988 31.2469 42.752 32.0041 41.9732C32.0041 41.9732 32.1111 41.7545 32.7116 41.6879Z" fill="#682B22"/>
<path d="M37.8059 43.8142C37.4475 43.8142 37.2045 43.5421 37.2045 43.5421C36.9361 43.2071 37.287 42.7529 37.3968 42.6253C37.5094 42.7182 37.6596 42.7632 37.8285 42.7632C38.1362 42.7632 38.5069 42.6122 38.8287 42.3278L38.9498 42.2059L39.0079 42.2622C39.2181 42.4658 38.7734 43.0973 38.7734 43.0973C38.4205 43.6556 38.079 43.8142 37.8059 43.8142Z" fill="#BE462D"/>
<path d="M39.2932 42.1918C39.4058 42.1524 39.465 42.0295 39.4265 41.9169C39.3871 41.8043 39.2632 41.7452 39.1515 41.7846C39.0389 41.824 38.9789 41.9469 39.0183 42.0586C39.0577 42.1721 39.1806 42.2312 39.2932 42.1918Z" fill="#923C1D"/>
<path d="M75.9102 49.5559L75.2309 49.2021L64.5497 55.3811C64.6004 55.4797 64.637 55.5867 64.637 55.7049C64.637 55.8954 64.5553 56.068 64.4277 56.1985L75.9102 49.5559Z" fill="#0F0F0F"/>
<path d="M62.8616 78.3443L62.8851 78.4306C62.8926 78.5516 62.7987 78.6558 62.6777 78.6633L59.8946 78.8237C59.7726 78.8303 59.6694 78.7383 59.6619 78.6164C59.6544 78.4944 59.7482 78.3912 59.8692 78.3837L62.6524 78.2232C62.7425 78.2185 62.8232 78.2682 62.8616 78.3443Z" fill="#0F0F0F"/>
<path d="M62.4262 77.4078L62.3896 77.6574L60.4773 79.6908C60.3937 79.7799 60.2549 79.7837 60.1657 79.7011C60.0775 79.6176 60.0738 79.4778 60.1563 79.3896L62.0696 77.3562C62.1522 77.2671 62.292 77.2633 62.3812 77.3459L62.4262 77.4078Z" fill="#0F0F0F"/>
<path d="M63.4894 79.3896L63.5129 79.476C63.5204 79.597 63.4265 79.7012 63.3055 79.7087L60.5223 79.8691C60.4013 79.8766 60.2971 79.7847 60.2896 79.6617C60.2831 79.5407 60.376 79.4365 60.497 79.429L63.2802 79.2686C63.3702 79.263 63.4509 79.3136 63.4894 79.3896Z" fill="#0F0F0F"/>
<path d="M63.054 78.4532L63.0183 78.7028L61.105 80.7362C61.0215 80.8253 60.8827 80.8291 60.7935 80.7456C60.7063 80.663 60.7016 80.5232 60.7841 80.434L62.6974 78.4006C62.78 78.3124 62.9207 78.3087 63.0089 78.3922L63.054 78.4532Z" fill="#0F0F0F"/>
<path d="M64.0139 80.4322L64.0364 80.5176C64.0439 80.6396 63.951 80.7437 63.83 80.7503L61.0469 80.9108C60.9258 80.9183 60.8217 80.8263 60.8141 80.7034C60.8066 80.5823 60.9005 80.4782 61.0206 80.4707L63.8037 80.3102C63.8947 80.3055 63.9754 80.3553 64.0139 80.4322Z" fill="#0F0F0F"/>
<path d="M63.5785 79.4948L63.5429 79.7453L61.6296 81.7787C61.546 81.8669 61.4072 81.8716 61.318 81.7881C61.2289 81.7036 61.2251 81.5657 61.3087 81.4766L63.221 79.4432C63.3045 79.355 63.4434 79.3503 63.5325 79.4338L63.5785 79.4948Z" fill="#0F0F0F"/>
</svg>
