<svg width="115" height="40" viewBox="0 0 115 40" fill="none" xmlns="http://www.w3.org/2000/svg">
<path d="M29.8418 16.6556L26.2566 10.6993L23.0732 13.6624L23.3403 14.2645L22.6617 15.4632L23.0079 15.5141C23.5982 15.6013 24.103 15.9845 24.3446 16.5293L25.6297 19.428L29.8418 16.6556Z" fill="#F0724E"/>
<path d="M24.2463 16.3414C24.0452 16.0054 23.7366 15.7475 23.373 15.6085C23.737 15.7475 24.0459 16.0045 24.2471 16.3414C24.2467 16.3414 24.2467 16.3414 24.2463 16.3414ZM23.3719 15.6085C23.3691 15.6076 23.3659 15.6067 23.363 15.6049C23.3659 15.6067 23.3691 15.6076 23.3719 15.6085ZM23.3591 15.604C23.357 15.6031 23.3546 15.6022 23.352 15.6013C23.3546 15.6022 23.357 15.6031 23.3591 15.604ZM23.346 15.5985C23.3442 15.5985 23.3425 15.5976 23.3407 15.5967C23.3425 15.5976 23.3442 15.5985 23.346 15.5985ZM23.3315 15.594C23.3308 15.594 23.33 15.5931 23.3293 15.5931C23.33 15.5931 23.3308 15.594 23.3315 15.594ZM23.0221 15.5159H23.0218H23.0221Z" fill="#DEBAA1"/>
<path d="M24.2471 16.3414C24.0459 16.0045 23.737 15.7475 23.373 15.6085C23.3726 15.6085 23.3723 15.6085 23.3719 15.6085C23.3691 15.6076 23.3659 15.6067 23.363 15.6049C23.3616 15.6049 23.3606 15.604 23.3591 15.604C23.357 15.6031 23.3546 15.6022 23.352 15.6013C23.3503 15.6004 23.3481 15.5994 23.346 15.5985C23.3442 15.5985 23.3425 15.5976 23.3407 15.5967C23.3375 15.5958 23.3347 15.5949 23.3315 15.594C23.3308 15.594 23.33 15.5931 23.3293 15.5931C23.2346 15.5595 23.1363 15.535 23.0356 15.5186C23.031 15.5177 23.0267 15.5168 23.0221 15.5159H23.0218C23.0172 15.515 23.0126 15.5141 23.0079 15.5141L22.6642 15.4632C22.9817 15.3969 23.2953 15.3115 23.6032 15.2071L24.1395 15.0246C25.0086 14.7295 25.6773 14.0311 25.9384 13.1575C26.1296 14.7385 25.0009 15.811 24.2471 16.3414Z" fill="#D3583A"/>
<path d="M23.2325 7.75513C23.6309 10.4613 25.9047 12.3674 28.3122 12.0133C30.7187 11.6591 32.3473 9.17723 31.9486 6.47104C31.5503 3.76576 29.2761 1.85873 26.8689 2.2138C24.462 2.56706 22.8337 5.04894 23.2325 7.75513Z" fill="#682B22"/>
<path d="M114.955 39.8062H0L7.36464 29.46H107.59L114.955 39.8062Z" fill="#7E315F"/>
<path d="M34.9774 36.814C35.1757 36.5443 35.3062 36.2265 35.3527 35.8914C35.3715 35.8124 35.3864 35.7307 35.3966 35.648C35.4417 35.2866 35.4052 34.9379 35.3026 34.6173C35.3019 34.6155 35.3015 34.6137 35.3008 34.6118C35.3002 34.6091 35.2995 34.6073 35.2987 34.6046C35.22 34.363 35.1039 34.1387 34.9575 33.9362L34.7432 33.2142C37.1189 33.5757 39.5179 33.7564 41.9209 33.7564H44.7303H68.9287C71.2135 33.7564 73.4629 33.197 75.4817 32.1273L75.597 32.0664C77.6148 30.9967 79.8652 30.4373 82.1491 30.4373H96.5772L105.893 30.8277C105.898 30.8277 105.903 30.8277 105.908 30.8277C106.215 30.8277 106.334 30.42 106.068 30.2565L104.817 29.4601H107.59L111.895 35.5091L34.9774 36.814ZM29.4911 32.4097L15.6263 30.3873C15.649 30.3873 15.6721 30.3873 15.6948 30.3873C15.6959 30.3873 15.6966 30.3873 15.6976 30.3873C15.7004 30.3873 15.7033 30.3873 15.7061 30.3873C16.5784 30.3864 17.5436 30.3164 18.3099 30.261C18.8189 30.2238 19.24 30.1929 19.4873 30.1929L25.3428 30.1939C26.0643 31.2446 27.197 31.9992 28.5333 32.2153L29.4783 32.367L29.4911 32.4097ZM13.5246 29.8434L13.311 29.4601H14.0045L13.7086 29.58C13.5923 29.6272 13.5291 29.7344 13.5246 29.8434Z" fill="#54203F"/>
<path d="M35.4785 28.0951C35.4783 29.2503 34.5328 30.1956 33.3772 30.1956L19.4873 30.1928C18.4979 30.1928 14.7306 30.6851 13.6692 30.1012C13.4571 29.9849 13.4844 29.6707 13.7086 29.5799L17.3869 28.0924C18.9651 27.7591 21.147 28.1496 22.3024 28.1496L33.3783 25.9937C34.5332 25.9937 35.4785 26.94 35.4785 28.0951Z" fill="#D75941"/>
<path d="M13.6934 30.1138C13.6927 30.1138 13.6923 30.1138 13.6916 30.1138C13.6923 30.1138 13.6927 30.1138 13.6934 30.1138ZM13.6774 30.1056C13.6746 30.1038 13.6718 30.1029 13.6692 30.1011C13.6675 30.1002 13.6661 30.0993 13.6643 30.0984C13.6661 30.0993 13.6675 30.1002 13.6692 30.1011C13.6718 30.1029 13.6746 30.1038 13.6774 30.1056ZM13.6643 30.0984C13.6348 30.082 13.6104 30.0611 13.5905 30.0375C13.6108 30.0611 13.6348 30.082 13.6643 30.0984ZM13.5898 30.0375C13.5894 30.0366 13.5888 30.0357 13.5884 30.0348C13.5888 30.0357 13.5894 30.0366 13.5898 30.0375Z" fill="#54203F"/>
<path d="M15.6976 30.3873C15.6966 30.3873 15.6959 30.3873 15.6948 30.3873C15.6959 30.3873 15.6966 30.3873 15.6976 30.3873ZM15.7061 30.3873C16.5784 30.3864 17.5436 30.3164 18.3099 30.261C17.5436 30.3164 16.5784 30.3864 15.7061 30.3873ZM25.3428 30.1939L19.4873 30.1929L25.3428 30.1939Z" fill="#54203F"/>
<path d="M15.6976 30.3873C15.6966 30.3873 15.6959 30.3873 15.6948 30.3873C14.8505 30.3873 14.0946 30.321 13.6934 30.1139C13.6927 30.1139 13.6923 30.1139 13.6916 30.1139C13.6867 30.1103 13.6821 30.1085 13.6774 30.1057C13.6746 30.1039 13.6718 30.103 13.6692 30.1012C13.6675 30.1003 13.6661 30.0994 13.6643 30.0985C13.6348 30.0821 13.6108 30.0612 13.5905 30.0376C13.5905 30.0376 13.5902 30.0376 13.5898 30.0376C13.5894 30.0367 13.5888 30.0358 13.5884 30.0349C13.5093 29.9405 13.5064 29.8024 13.5703 29.6989H21.9988H25.0449C25.1342 29.8696 25.2339 30.0358 25.3428 30.1939L19.4873 30.1929C19.24 30.1929 18.8189 30.2238 18.3099 30.261C17.5436 30.3164 16.5784 30.3864 15.7062 30.3873C15.7033 30.3873 15.7004 30.3873 15.6976 30.3873Z" fill="#BB4431"/>
<path d="M31.9032 7.78595C31.4701 7.78595 31.0536 7.61066 30.6616 7.26285L30.6528 7.11577L30.8007 7.10668C31.2104 7.46993 31.6456 7.6252 32.0933 7.56344C33.0986 7.42995 33.867 6.27121 33.8748 6.2594L34.0192 6.22943L34.0501 6.3738C34.0167 6.42466 33.2225 7.6234 32.1221 7.77052L31.9032 7.78595Z" fill="#682B22"/>
<path d="M29.1576 13.9422C28.6851 13.9422 27.7482 13.865 27.1551 13.2965C26.7823 12.9397 26.6095 12.4493 26.6415 11.8381L26.7507 11.7391L26.8497 11.849C26.8213 12.3966 26.9728 12.8325 27.2999 13.1448C28.0331 13.8477 29.4159 13.7251 29.4293 13.7233L29.5435 13.8178L29.4495 13.9313C29.4336 13.9331 29.3243 13.9422 29.1576 13.9422Z" fill="#682B22"/>
<path d="M28.7539 13.735C28.2895 13.735 27.7869 13.6452 27.4187 13.3446C27.0051 13.0058 26.832 12.4619 26.9046 11.7254L27.0189 11.6319L27.1125 11.7454C27.0477 12.4074 27.1949 12.8914 27.5503 13.182C28.3449 13.8322 29.9351 13.3555 29.9515 13.3509L30.0817 13.42L30.0125 13.5498C29.9717 13.5625 29.3991 13.735 28.7539 13.735Z" fill="#682B22"/>
<path d="M102.666 16.1416C103.002 16.0426 102.992 15.564 102.653 15.4796L101.654 15.2308C100.892 15.041 98.8593 15.0972 98.0783 15.0028L97.2129 14.8975C96.7997 14.8475 96.3992 14.7231 96.0323 14.5288L95.3622 14.1746C94.8863 14.0566 94.3878 14.2464 94.0999 14.6569L93.1754 15.9718L83.8581 16.4304C81.0194 16.6501 78.2741 17.5828 75.8586 19.1493C73.7717 20.5024 71.4342 21.3851 68.9986 21.7402L56.6104 22.7836C54.1982 20.5323 50.4767 20.7857 48.3678 23.3448L46.5583 25.5415L48.9482 33.1352L69.8178 29.0986C71.9573 28.3703 73.8925 27.1062 75.4508 25.4153C76.9356 23.8052 78.7527 22.5665 80.7914 21.8727L94.3242 18.4137L102.666 16.1416Z" fill="#D4533A"/>
<path d="M83.6747 18.2875L87.6895 17.4121V16.2415L83.8581 16.4304C81.0194 16.6501 78.2741 17.5828 75.8586 19.1493C73.7717 20.5024 71.4342 21.3851 68.9986 21.7402L56.6104 22.7836C54.1982 20.5323 50.4767 20.7857 48.3678 23.3448L46.5583 25.5415L48.9482 33.1352L69.8178 29.0986C71.9573 28.3703 73.8925 27.1062 75.4508 25.4153C76.9356 23.8052 78.7527 22.5665 80.7914 21.8727L87.6895 20.1091V18.8832L83.6747 18.2875Z" fill="#0F0F0F"/>
<path d="M31.5928 16.6527L37.0809 22.4565C38.0004 23.4291 39.0614 24.2555 40.2284 24.9093C41.1274 25.4124 42.1401 25.6766 43.1695 25.6766C44.2727 25.6766 45.3543 25.3743 46.2965 24.8012L49.1872 23.044C52.0673 21.2932 55.824 22.2558 57.5071 25.1754L70.398 26.5076C72.879 26.9508 75.4263 26.869 77.8736 26.266L77.9899 26.237C81.3272 25.416 86.7868 25.4187 90.1223 26.2424L96.2012 27.7435L97.5235 26.7936C97.9366 26.4967 98.4879 26.4767 98.921 26.7437L99.4823 27.2986C99.6112 27.4248 99.7447 27.5474 99.8827 27.6645C100.543 28.223 102.875 28.678 103.707 28.9159C104.013 29.0031 104.303 29.1339 104.572 29.3046L106.068 30.2563C106.339 30.4225 106.211 30.8411 105.893 30.8275L96.5772 30.437H82.149C79.8651 30.437 77.6148 30.9964 75.597 32.0662L75.4817 32.127C73.4629 33.1968 71.2135 33.7562 68.9287 33.7562H44.7303H41.9209C39.3721 33.7562 36.828 33.5527 34.3115 33.1459L28.5333 32.2151C26.2094 31.8391 24.5014 29.834 24.5014 27.4802V20.8391C24.5014 18.8049 25.6206 16.9361 27.4137 15.9753C28.8003 15.2324 30.5123 15.5094 31.5928 16.6527Z" fill="#F0724E"/>
<path d="M37.0809 22.4566L32.9916 18.1322L24.5014 24.6588V27.4804C24.5014 29.8342 26.2094 31.8393 28.5333 32.2152L34.3115 33.1461L38.0908 23.4184C37.7378 23.116 37.4008 22.7954 37.0809 22.4566Z" fill="white"/>
<path d="M37.0809 22.4566L33.0132 32.9372L34.3115 33.1461L38.0908 23.4184C37.7378 23.116 37.4008 22.7954 37.0809 22.4566Z" fill="#0F0F0F"/>
<path d="M25.1594 24.8677C25.0445 24.8677 24.9512 24.7751 24.9505 24.6598L24.9289 19.7469C24.9784 18.6589 25.5464 17.6627 26.4478 17.0706C27.7411 16.2224 29.4396 16.3605 30.5797 17.4048L32.0675 18.7697C32.1526 18.8478 32.1583 18.9804 32.0803 19.0658C32.0018 19.1502 31.8695 19.1557 31.7851 19.0785L30.2974 17.7136C29.2992 16.7973 27.81 16.6765 26.6776 17.4203C25.888 17.9388 25.39 18.8106 25.3463 19.755L25.3687 24.658C25.369 24.7733 25.2761 24.8677 25.1608 24.8677H25.1594Z" fill="white"/>
<path d="M37.475 33.5466C36.5616 33.4612 35.6506 33.3513 34.7432 33.2142L34.5449 32.5458L35.635 29.7398L37.475 33.5466ZM30.7741 19.8367L30.6556 19.4381C30.6524 19.4272 30.6493 19.4154 30.6457 19.4054C30.6493 19.4154 30.6524 19.4272 30.6556 19.4381L30.8283 19.795L30.7741 19.8367Z" fill="#D3583A"/>
<path d="M33.9472 30.5307L30.7741 19.8367L30.8284 19.7949L34.8692 28.1551L33.9472 30.5307Z" fill="#DEC2B3"/>
<path d="M34.5449 32.5457L34.0579 30.9038L33.9472 30.5306L34.8692 28.155L35.635 29.7396L34.5449 32.5457Z" fill="#0F0F0F"/>
<path d="M27.638 17.8262C27.6479 17.8235 27.6578 17.8208 27.6678 17.818C27.6773 17.8144 27.6873 17.8117 27.6968 17.809C27.6873 17.8117 27.6773 17.8144 27.6678 17.818L27.6642 17.819L27.638 17.8262Z" fill="#D3583A"/>
<path d="M88.07 27.3049V25.9082C84.8734 25.5686 80.2638 25.6776 77.9899 26.2379L77.8737 26.266C75.4263 26.869 72.879 26.9508 70.3981 26.5076L57.5072 25.1754C55.824 22.2558 52.0673 21.2932 49.1872 23.044L46.2965 24.8012C45.8066 25.0991 45.2791 25.3216 44.7303 25.4696V33.7562H68.9287C71.2135 33.7562 73.463 33.1968 75.4817 32.127L75.597 32.0662C77.6149 30.9955 79.8652 30.437 82.1491 30.437H88.07V28.8496L83.6856 28.2239L88.07 27.3049Z" fill="#0F0F0F"/>
<path d="M57.5071 25.1755C57.5071 25.1755 57.7856 26.1944 57.7863 27.1697C57.7863 27.1697 58.174 26.3933 58.1978 25.2473L57.5071 25.1755Z" fill="#0F0F0F"/>
<path d="M87.8266 29.6434C87.7113 29.6434 87.6177 29.5499 87.6177 29.4345V26.7728C87.6177 26.6575 87.7113 26.5639 87.8266 26.5639C87.9419 26.5639 88.0355 26.6575 88.0355 26.7728V29.4345C88.0355 29.5499 87.9419 29.6434 87.8266 29.6434Z" fill="#0F0F0F"/>
<path d="M86.4436 29.5262L86.3582 29.508C86.2529 29.4608 86.2056 29.3364 86.2528 29.232L87.3462 26.8046C87.3925 26.6992 87.5169 26.6529 87.6223 26.6992C87.7276 26.7474 87.7739 26.8709 87.7267 26.9753L86.6343 29.4036L86.4436 29.5262Z" fill="#0F0F0F"/>
<path d="M87.4624 29.5572C87.378 29.5572 87.2981 29.5054 87.2663 29.4228L86.3227 26.9337C86.2819 26.8256 86.3355 26.7048 86.4435 26.6649C86.5516 26.6231 86.6724 26.6776 86.7132 26.7856L87.6577 29.2748C87.6985 29.3819 87.6441 29.5027 87.536 29.5436L87.4624 29.5572Z" fill="#0F0F0F"/>
<path d="M85.2439 29.6136L85.1585 29.5945C85.0532 29.5482 85.006 29.4238 85.0532 29.3184L86.1457 26.8911C86.1938 26.7866 86.3173 26.7394 86.4226 26.7866C86.528 26.8329 86.5743 26.9583 86.5271 27.0627L85.4346 29.4901L85.2439 29.6136Z" fill="#0F0F0F"/>
<path d="M86.2619 29.6434C86.1775 29.6434 86.0985 29.5925 86.0667 29.509L85.1231 27.0198C85.0814 26.9117 85.1359 26.7919 85.2439 26.7501C85.352 26.7093 85.4728 26.7637 85.5136 26.8718L86.4581 29.36C86.498 29.4681 86.4445 29.5889 86.3364 29.6298L86.2619 29.6434Z" fill="#0F0F0F"/>
<path d="M84.0933 29.6136L84.008 29.5945C83.9026 29.5482 83.8554 29.4238 83.9035 29.3184L84.996 26.8911C85.0432 26.7866 85.1667 26.7394 85.2721 26.7866C85.3774 26.8329 85.4237 26.9583 85.3765 27.0627L84.284 29.4901L84.0933 29.6136Z" fill="#0F0F0F"/>
<path d="M85.1122 29.6434C85.0278 29.6434 84.9479 29.5925 84.9161 29.509L83.9725 27.0198C83.9317 26.9117 83.9853 26.7919 84.0942 26.7501C84.2014 26.7093 84.3222 26.7637 84.363 26.8718L85.3066 29.36C85.3483 29.4681 85.2939 29.5889 85.1858 29.6298L85.1122 29.6434Z" fill="#0F0F0F"/>
<path d="M45.095 33.7562H45.5132V25.2907L45.4951 25.2071C45.3636 25.2616 45.2302 25.3125 45.095 25.357V33.7562Z" fill="#0F0F0F"/>
<path d="M33.9373 37.5449L33.1732 37.7719C32.116 38.0852 30.9947 37.4768 30.6808 36.4198L25.9341 20.4233C25.6206 19.3663 26.2289 18.2447 27.2861 17.9314L28.0498 17.7044C29.1068 17.3902 30.2285 17.9987 30.5421 19.0557L35.2888 35.0531C35.6024 36.1101 34.9943 37.2316 33.9373 37.5449Z" fill="#F0724E"/>
<path d="M30.7738 19.8367L30.6457 19.4054C30.6493 19.4154 30.6524 19.4272 30.6556 19.4381L30.7741 19.8367H30.7738Z" fill="#B8442B"/>
<path d="M33.9472 30.5307L30.7738 19.8367H30.7741L33.9472 30.5307Z" fill="#C0947E"/>
<path d="M34.0579 30.9039L33.9472 30.5306L34.0579 30.9039Z" fill="#0F0F0F"/>
<path d="M27.6642 17.8189L27.6678 17.8179C27.6777 17.8142 27.6879 17.8114 27.6978 17.8086L27.6642 17.8189Z" fill="#B8442B"/>
<path d="M32.8763 37.7574C32.7996 37.7574 32.7238 37.7537 32.6481 37.7465H32.9071C32.9075 37.7465 32.9079 37.7465 32.9082 37.7465C32.9099 37.7465 32.9121 37.7465 32.9138 37.7465H33.0117C33.0121 37.7465 33.0121 37.7465 33.0125 37.7465C33.053 37.7465 33.0934 37.7456 33.1331 37.7438C33.0473 37.7529 32.9614 37.7574 32.8763 37.7574ZM34.9575 33.936C34.5577 33.3857 33.9306 33.0098 33.2172 32.948L29.2084 19.438C28.9739 18.647 28.3616 18.0658 27.6266 17.8324L27.6642 17.8188L27.6968 17.8088C27.9132 17.748 28.1317 17.718 28.347 17.718C29.3729 17.718 30.3264 18.3827 30.6457 19.4052L30.7738 19.8366L33.9472 30.5306L34.0579 30.9038L34.9575 33.936Z" fill="#D3583A"/>
<path d="M87.3753 19.8947C87.259 19.8947 87.1664 19.8012 87.1664 19.6849V17.0242C87.1664 16.9088 87.259 16.8144 87.3753 16.8144C87.4906 16.8144 87.5842 16.9088 87.5842 17.0242V19.6849C87.5842 19.8012 87.4906 19.8947 87.3753 19.8947Z" fill="#0F0F0F"/>
<path d="M86.083 19.5316L86.0004 19.5143C85.8941 19.4689 85.846 19.3454 85.8923 19.2392L86.9421 16.8127C86.9884 16.7064 87.1101 16.6583 87.2172 16.7037C87.3235 16.75 87.3716 16.8726 87.3262 16.9789L86.2755 19.4062L86.083 19.5316Z" fill="#0F0F0F"/>
<path d="M87.0629 19.5626C86.9775 19.5626 86.8976 19.5099 86.8667 19.4245L85.9586 16.9363C85.9187 16.8273 85.975 16.7083 86.083 16.6684C86.1911 16.6284 86.311 16.6847 86.3509 16.7937L87.259 19.2819C87.299 19.39 87.2427 19.5099 87.1346 19.5498L87.0629 19.5626Z" fill="#0F0F0F"/>
<path d="M84.9288 19.6179L84.8471 19.6015C84.7408 19.5552 84.6918 19.4317 84.7381 19.3264L85.7879 16.899C85.8342 16.7936 85.9559 16.7437 86.0631 16.79C86.1693 16.8354 86.2174 16.9589 86.172 17.0652L85.1213 19.4925L84.9288 19.6179Z" fill="#0F0F0F"/>
<path d="M85.9086 19.6486C85.8233 19.6486 85.7434 19.596 85.7125 19.5115L84.8044 17.0224C84.7653 16.9143 84.8207 16.7944 84.9288 16.7544C85.0378 16.7154 85.1576 16.7708 85.1976 16.8798L86.1048 19.368C86.1448 19.477 86.0885 19.5959 85.9804 19.6359L85.9086 19.6486Z" fill="#0F0F0F"/>
<path d="M83.8227 19.6179L83.7401 19.6015C83.6347 19.5552 83.5857 19.4317 83.6311 19.3264L84.6818 16.899C84.7281 16.7936 84.8498 16.7437 84.957 16.79C85.0623 16.8354 85.1113 16.9589 85.0659 17.0652L84.0152 19.4925L83.8227 19.6179Z" fill="#0F0F0F"/>
<path d="M84.8026 19.6486C84.7172 19.6486 84.6373 19.596 84.6064 19.5115L83.6983 17.0224C83.6593 16.9143 83.7147 16.7944 83.8227 16.7544C83.9317 16.7154 84.0516 16.7708 84.0906 16.8798L84.9987 19.368C85.0387 19.477 84.9824 19.5959 84.8743 19.6359L84.8026 19.6486Z" fill="#0F0F0F"/>
<path d="M35.4151 35.3438C35.4151 36.6651 34.3339 37.7466 33.0117 37.7466L17.1223 37.7439C15.9907 37.7439 11.6814 38.3069 10.4664 37.6386C10.2245 37.506 10.2554 37.1455 10.5114 37.042L14.7197 35.3401C16.5249 34.9596 19.0208 35.4064 20.3425 35.4064L33.0128 32.94C34.3342 32.94 35.4158 34.0215 35.4151 35.3438Z" fill="#F0724E"/>
<path d="M12.7867 37.9655C12.786 37.9655 12.7849 37.9655 12.7838 37.9655C12.7849 37.9655 12.786 37.9655 12.7867 37.9655ZM12.7934 37.9655C13.792 37.9655 14.8977 37.8856 15.775 37.8211C14.8977 37.8856 13.792 37.9655 12.7934 37.9655ZM31.959 37.7466L17.1222 37.7439C17.1193 37.7439 17.1165 37.7439 17.1137 37.7439C17.1165 37.7439 17.1193 37.7439 17.1222 37.7439L31.959 37.7466Z" fill="#54203F"/>
<path d="M10.4937 37.653C10.4912 37.6521 10.4887 37.6503 10.4863 37.6494C10.4887 37.6503 10.4912 37.6521 10.4937 37.653ZM10.4749 37.643C10.472 37.6421 10.4692 37.6403 10.4664 37.6385C10.4646 37.6376 10.4628 37.6366 10.4614 37.6357C10.4628 37.6366 10.4646 37.6376 10.4664 37.6385C10.4692 37.6403 10.472 37.6421 10.4749 37.643ZM10.4599 37.6348C10.4586 37.6339 10.4571 37.6339 10.456 37.633C10.4571 37.6339 10.4586 37.6339 10.4599 37.6348ZM10.4547 37.6321C10.4532 37.6312 10.4515 37.6303 10.45 37.6294C10.4515 37.6303 10.4532 37.6312 10.4547 37.6321ZM10.449 37.6285C10.4476 37.6276 10.4465 37.6267 10.4454 37.6257C10.4465 37.6267 10.4476 37.6276 10.449 37.6285ZM10.4437 37.6249C10.4426 37.624 10.4415 37.6239 10.4405 37.623C10.4415 37.6239 10.4426 37.624 10.4437 37.6249ZM10.4383 37.6212C10.4372 37.6212 10.4362 37.6203 10.4348 37.6194C10.4362 37.6203 10.4372 37.6212 10.4383 37.6212ZM10.4327 37.6176C10.432 37.6167 10.4312 37.6167 10.4305 37.6158C10.4312 37.6167 10.432 37.6167 10.4327 37.6176ZM10.4281 37.614H10.4277H10.4281Z" fill="#54203F"/>
<path d="M35.3527 35.8913C35.353 35.8886 35.3534 35.8859 35.3537 35.8831C35.3938 35.7097 35.4151 35.529 35.4151 35.3437C35.4151 35.0904 35.3757 34.847 35.3026 34.6172C35.4052 34.9378 35.4417 35.2865 35.3966 35.6479C35.3864 35.7306 35.3715 35.8123 35.3527 35.8913Z" fill="#54203F"/>
<path d="M35.2959 36.0892C35.3182 36.022 35.3374 35.953 35.3537 35.883C35.3534 35.8858 35.353 35.8885 35.3527 35.8912C35.3367 35.9593 35.3175 36.0247 35.2959 36.0892Z" fill="#D3583A"/>
<path d="M35.3008 34.6118C35.3002 34.6091 35.2994 34.6073 35.2987 34.6046C35.2994 34.6073 35.3002 34.6091 35.3008 34.6118Z" fill="#54203F"/>
<path d="M12.7867 37.9655C12.786 37.9655 12.7849 37.9655 12.7838 37.9655C11.8182 37.9655 10.9531 37.8901 10.4937 37.6531C10.4912 37.6522 10.4887 37.6504 10.4863 37.6495C10.4824 37.6477 10.4785 37.6458 10.4749 37.6431C10.472 37.6422 10.4692 37.6404 10.4664 37.6386C10.4646 37.6377 10.4629 37.6367 10.4614 37.6358C10.4607 37.6358 10.4603 37.6359 10.4599 37.6349C10.4586 37.634 10.4571 37.634 10.456 37.6331C10.4558 37.6322 10.4554 37.6322 10.4547 37.6322C10.4532 37.6313 10.4515 37.6304 10.4501 37.6295C10.4497 37.6286 10.4493 37.6286 10.449 37.6286C10.4476 37.6277 10.4465 37.6268 10.4454 37.6259C10.4447 37.6259 10.4441 37.6259 10.4437 37.625C10.4426 37.6241 10.4415 37.6241 10.4405 37.6232C10.4398 37.6222 10.4391 37.6222 10.4383 37.6213C10.4372 37.6213 10.4362 37.6204 10.4348 37.6195C10.4341 37.6186 10.4333 37.6177 10.4327 37.6177C10.432 37.6168 10.4313 37.6168 10.4305 37.6159C10.4298 37.6159 10.4288 37.615 10.4281 37.6141H10.4277C10.2872 37.5087 10.2684 37.3162 10.3539 37.1773H19.9955H31.546C32.0036 37.1773 32.4442 37.0056 32.7812 36.6969C33.6003 35.9458 33.8773 34.7708 33.4807 33.7337L33.1803 32.9482C34.171 33.0181 35.0015 33.6937 35.2987 34.6046C35.2995 34.6073 35.3002 34.6091 35.3008 34.6118C35.3015 34.6136 35.3019 34.6155 35.3026 34.6173C35.3757 34.847 35.4151 35.0904 35.4151 35.3438C35.4151 35.529 35.3938 35.7097 35.3537 35.8832C35.3374 35.9531 35.3183 36.0221 35.2959 36.0893C34.9653 37.0728 33.9873 37.7439 32.9138 37.7466H32.6481H31.959L17.1222 37.7439C17.1193 37.7439 17.1165 37.7439 17.1137 37.7439C16.8296 37.7448 16.3517 37.7793 15.775 37.8211C14.8977 37.8856 13.792 37.9655 12.7934 37.9655C12.7913 37.9655 12.7888 37.9655 12.7867 37.9655Z" fill="#D3583A"/>
<path d="M18.5646 4.53574C18.3443 6.96677 20.7858 9.17438 24.0186 9.46861C27.2513 9.76102 30.0512 8.02835 30.2715 5.59732C30.4921 3.1663 28.0501 0.957773 24.8174 0.664453C21.5847 0.371131 18.7852 2.10381 18.5646 4.53574Z" fill="#682B22"/>
<path d="M24.8174 1.34466C27.7695 1.61256 30.0551 3.47782 30.2633 5.65094L30.2715 5.59738C30.4917 3.16635 28.0501 0.957828 24.8174 0.664506C21.5847 0.371185 18.7852 2.10386 18.5646 4.53579C18.5454 4.74648 18.5535 4.95445 18.5727 5.1615C18.8302 2.75953 21.6089 1.05316 24.8174 1.34466Z" fill="#B14B3C"/>
<path d="M27.2115 4.65484C27.4985 6.60275 29.2232 7.96128 31.065 7.68976C32.9064 7.41914 34.1664 5.62016 33.8801 3.67316C33.5932 1.72616 31.8678 0.367627 30.0266 0.638246C28.1853 0.909772 26.9245 2.70784 27.2115 4.65484Z" fill="#682B22"/>
<path d="M27.6311 4.94914C27.3445 3.00123 28.6046 1.20318 30.4463 0.931654C31.2122 0.819047 31.956 0.991572 32.5868 1.36753C31.8819 0.790878 30.9703 0.499393 30.0267 0.638334C28.1853 0.909861 26.9253 2.70793 27.2115 4.65493C27.3793 5.7928 28.0392 6.72635 28.9246 7.25397C28.2541 6.70547 27.7713 5.89812 27.6311 4.94914Z" fill="#B14B3C"/>
<path d="M25.7643 8.42072C23.5859 8.42072 21.9721 7.89038 20.9555 6.83878C19.644 5.48115 19.842 3.773 19.8509 3.70126C19.8654 3.58684 19.9672 3.5042 20.0843 3.51964C20.1985 3.53417 20.2801 3.63859 20.2659 3.75301C20.2641 3.76845 20.0871 5.34315 21.2609 6.55367C22.396 7.72332 24.3779 8.18916 27.1523 7.9358C27.2705 7.92581 27.3687 8.01025 27.3793 8.12558C27.3896 8.24 27.3049 8.34171 27.1899 8.35261C26.6912 8.39801 26.2151 8.42072 25.7643 8.42072Z" fill="#682B22"/>
<path d="M24.4181 6.59635L24.8692 7.39823C24.8692 7.39823 25.7734 8.84487 27.4939 8.41352L27.9919 7.27474L28.5095 6.21222L27.8955 5.50391H26.1257L24.5805 6.59635" fill="#682B22"/>
<path d="M21.9654 3.99371C21.9654 3.99371 19.6557 5.02989 19.6717 8.1193C19.6717 8.38447 19.605 8.6451 19.4787 8.87758L18.5068 10.6675C18.4422 10.7864 18.4443 10.9318 18.5131 11.0489C18.5827 11.1688 18.7107 11.2414 18.849 11.2414H19.1747L19.2868 11.2914L19.379 11.3912L19.3805 11.6464L19.175 11.8716L19.3883 12.1577L19.3581 12.5482L19.3205 12.7716C19.2761 13.0331 19.4869 13.1666 19.611 13.4009L19.4475 14.3372C19.4507 15.0737 20.0612 15.663 20.7976 15.6403L21.2843 15.6258C22.0743 15.6022 22.8555 15.4614 23.6032 15.2071L24.1395 15.0246C25.0569 14.7131 25.7514 13.9521 25.9785 13.0095L26.2665 11.8153C28.5432 11.8153 30.2548 9.70848 29.7546 7.48814C29.4127 5.96977 28.6411 4.53679 26.9937 4.11543C26.9937 4.11543 24.2009 3.19184 21.9654 3.99371Z" fill="#F0724E"/>
<path d="M19.611 13.4009C19.4986 13.1884 19.3148 13.0586 19.3144 12.8425C19.3144 12.8198 19.3162 12.7961 19.3205 12.7716L19.3581 12.5482L19.3769 12.3076C19.666 12.2022 20.0055 12.0987 20.2264 12.0987C20.3907 12.0987 20.4897 12.1559 20.4538 12.3103C20.3204 12.8924 19.611 13.4009 19.611 13.4009Z" fill="#D3583A"/>
<path d="M20.6029 12.0686C20.4205 12.0413 19.8906 11.9359 19.5202 11.6236C19.5202 11.6236 19.3609 11.3566 19.0821 11.5382C19.0821 11.5382 18.9307 11.8306 19.2815 12.1576C19.2815 12.1576 19.1058 12.548 19.1698 12.6988C19.1698 12.6988 19.162 12.9622 19.6 12.7705C19.6 12.7705 20.3652 12.4963 20.6312 12.133L20.6029 12.0686Z" fill="#B73C2B"/>
<path d="M19.1747 11.2413H18.849C18.7107 11.2413 18.5827 11.1687 18.5131 11.0488C18.5068 11.0379 18.5007 11.027 18.4958 11.0152C18.5007 11.027 18.5068 11.0379 18.5131 11.0488C18.5827 11.1687 18.7107 11.2413 18.849 11.2413H19.1747ZM18.495 11.0142C18.4943 11.0124 18.494 11.0115 18.4932 11.0106C18.494 11.0115 18.4943 11.0124 18.495 11.0142Z" fill="#DEBAA1"/>
<path d="M19.3038 11.2468C19.2588 11.2468 19.2155 11.2449 19.1747 11.2413H18.849C18.7107 11.2413 18.5827 11.1687 18.5131 11.0488C18.5068 11.0379 18.5007 11.027 18.4958 11.0152C18.4954 11.0152 18.495 11.0143 18.495 11.0143C18.4943 11.0125 18.494 11.0116 18.4932 11.0106C18.4926 11.0088 18.4922 11.0079 18.4915 11.0061C18.4475 10.9035 18.4514 10.7864 18.5004 10.6846L18.5131 10.6583C18.5131 10.6583 18.5248 10.6719 18.5681 10.6719C18.6333 10.6719 18.7714 10.6392 19.0494 10.4767C19.0494 10.4767 19.1609 10.3814 19.3524 10.3814C19.4776 10.3814 19.6376 10.4222 19.8232 10.5566C19.892 10.6065 19.975 10.6356 20.0587 10.6356C20.0789 10.6356 20.0988 10.6338 20.1187 10.6302L20.301 10.5275C20.301 10.5275 20.4918 11.106 19.9821 11.1778C19.9821 11.1778 19.6096 11.2468 19.3038 11.2468Z" fill="#D3583A"/>
<path d="M20.3106 8.538C20.4464 8.38634 20.6312 8.31463 20.8154 8.27013C20.9079 8.24834 21.0019 8.23563 21.096 8.23018L21.2367 8.22654L21.3074 8.22743L21.3709 8.23018C21.5422 8.23381 21.7153 8.23016 21.8806 8.21382C21.9632 8.20383 22.0434 8.1893 22.1158 8.16659L22.2779 8.05671L22.2857 8.04217L22.3709 8.01676L22.4017 8.08669L22.3765 8.17293L22.3268 8.24561L22.2658 8.30192L22.1992 8.34458C22.1087 8.39453 22.0147 8.42721 21.921 8.44719C21.7341 8.48896 21.5482 8.49804 21.3623 8.49259C21.2634 8.48896 21.19 8.47989 21.1016 8.4808C21.0172 8.47807 20.9328 8.4808 20.8491 8.48625C20.6831 8.49897 20.511 8.5262 20.361 8.59249L20.3532 8.59613L20.3049 8.57795L20.3106 8.538Z" fill="#682B22"/>
<path d="M20.9622 8.72136C20.9622 8.89027 20.8937 9.0274 20.81 9.0274C20.7259 9.0274 20.6582 8.89027 20.6582 8.72136C20.6582 8.55154 20.7259 8.41443 20.81 8.41443C20.8937 8.41443 20.9622 8.55154 20.9622 8.72136Z" fill="#682B22"/>
<path d="M20.6079 9.12274H20.5936L20.5638 9.08918L20.5975 9.0592C20.5993 9.0592 20.7376 9.06648 20.8171 8.9793C20.8682 8.92299 20.8848 8.83763 20.8668 8.72593L20.8926 8.68957L20.9296 8.71591C20.9509 8.84758 20.9289 8.95114 20.8639 9.02288C20.7799 9.11551 20.6511 9.12274 20.6079 9.12274Z" fill="#682B22"/>
<path d="M20.2197 7.16835C20.2945 7.073 20.3833 7.03671 20.4769 7.01582C20.5709 6.99857 20.6649 6.98674 20.759 6.97675C20.9469 6.95587 21.1364 6.95677 21.3236 6.96766C21.5113 6.98129 21.6972 7.00946 21.8778 7.05759C22.0587 7.1039 22.2328 7.172 22.3975 7.25283L22.4124 7.29553L22.3797 7.31366H22.3776C22.1977 7.29005 22.0239 7.26282 21.8472 7.26192C21.672 7.25374 21.4978 7.2583 21.3251 7.27464C21.153 7.28645 20.9824 7.31458 20.8143 7.34727C20.7305 7.36453 20.6472 7.38452 20.5656 7.40722C20.4836 7.4272 20.3974 7.43537 20.302 7.39813L20.2793 7.38816L20.1998 7.20378L20.2197 7.16835Z" fill="#682B22"/>
<path d="M19.0651 10.918C19.1623 10.8726 19.262 10.8472 19.3687 10.8454C19.4716 10.8436 19.5908 10.8663 19.6763 10.9172L19.9214 10.9589L20.1378 10.8218L20.1693 10.8191L20.1758 10.8436C20.1431 10.9399 20.0623 11.0361 19.9484 11.0697C19.8338 11.107 19.7171 11.077 19.6206 11.0261C19.5383 10.9744 19.4616 10.939 19.3673 10.9353C19.2768 10.9299 19.1797 10.9462 19.0974 10.9825L19.0945 10.9834L19.0474 10.9653L19.0651 10.918Z" fill="#682B22"/>
<path d="M19.8632 3.48166C19.665 5.66568 21.9984 7.66261 25.0746 7.9414C28.1512 8.2202 30.8053 6.6764 31.0036 4.49238C31.2019 2.30836 28.8684 0.312338 25.7922 0.0326381C22.7156 -0.246154 20.0608 1.29855 19.8632 3.48166Z" fill="#682B22"/>
<path d="M20.0576 3.7131C20.2552 1.53271 23.0235 0.00161171 26.2406 0.293117C27.1072 0.372123 27.9149 0.578279 28.6333 0.875234C27.822 0.432981 26.8532 0.12969 25.7922 0.0325217C22.7156 -0.24627 20.0608 1.29843 19.8632 3.48154C19.7618 4.60034 20.3276 5.66918 21.3152 6.48285C20.4514 5.70005 19.9657 4.72655 20.0576 3.7131Z" fill="#B14B3C"/>
<path d="M22.9047 4.90642C22.9047 4.90642 22.6606 5.54756 23.9413 6.39301C23.9413 6.39301 24.5258 6.92063 24.3279 7.43553C24.3279 7.43553 23.5712 8.74227 24.3438 9.16636C24.3438 9.16636 24.9334 9.57412 25.2084 9.16365C25.2084 9.16365 25.7313 7.99493 26.7146 8.43628C26.7146 8.43628 27.7574 8.83403 27.2924 10.3188C27.2924 10.3188 27.0678 11.0952 26.348 11.3713C26.348 11.3713 25.7429 13.0513 28.0271 13.647C28.0271 13.647 31.0962 13.1439 31.2959 8.83402C31.3789 7.04322 30.5471 5.31508 29.0543 4.32341C28.2065 3.76038 27.0466 3.3054 25.4691 3.19098C25.4691 3.19098 23.4783 2.99572 22.9437 4.06548C22.9437 4.06548 22.7554 4.25712 22.9047 4.90642Z" fill="#682B22"/>
<path d="M25.8735 11.2667C25.843 11.2667 25.8139 11.2603 25.7866 11.2458L25.7068 11.2067L25.789 11.0369C26.0672 10.3585 25.9671 9.6747 25.5791 9.43859C25.6603 9.29783 25.9334 8.8774 26.2991 8.8774C26.3523 8.8774 26.4074 8.88649 26.4641 8.90556C26.4641 8.90556 27.6156 9.38323 26.5705 10.6991C26.5705 10.6991 26.164 11.2667 25.8735 11.2667Z" fill="#BE462D"/>
<path d="M25.8167 11.5683C25.8167 11.7 25.7099 11.8062 25.5791 11.8062C25.4471 11.8062 25.3414 11.7 25.3414 11.5683C25.3414 11.4375 25.4471 11.3313 25.5791 11.3313C25.7099 11.3313 25.8167 11.4375 25.8167 11.5683Z" fill="#923C1D"/>
</svg>
