<svg width="126" height="71" viewBox="0 0 126 71" fill="none" xmlns="http://www.w3.org/2000/svg">
<path d="M125.781 70.679H0L8.05846 59.3584H117.724L125.781 70.679Z" fill="#7E315F"/>
<path d="M124.688 69.1437L119.39 61.6994L124.688 69.1437Z" fill="#DEBAA1"/>
<path d="M124.688 69.1437L34.4417 65.5964C34.85 65.4692 35.1571 65.1324 35.2535 64.724L91.9468 62.6861L92.0859 62.7546C92.3969 62.9076 92.5698 63.2465 92.5131 63.5893L92.1912 65.512H99.8721V64.094L97.6821 62.4804L119.39 61.6994L124.688 69.1437V69.1437ZM31.7687 65.4911L29.9395 65.4196L30.9818 65.3192C31.0235 65.3152 31.0643 65.3132 31.106 65.3132C31.3315 65.3132 31.5541 65.3709 31.7519 65.4822C31.7578 65.4852 31.7638 65.4881 31.7687 65.4911Z" fill="#54203F"/>
<path d="M61.6794 19.0829L61.2184 8.82358L57.4714 8.9776L57.3074 11.3027L56.1906 11.7061L56.3883 11.9337C56.7261 12.3222 56.8414 12.8558 56.6933 13.3486L56.8444 18.2076L61.6794 19.0829Z" fill="#F0724E"/>
<path d="M57.2239 13.1927C57.3004 13.1688 57.3769 13.144 57.4535 13.1182L57.9145 12.9592C58.7045 12.685 59.2996 12.0262 59.4914 11.2134L59.7339 10.182C59.7369 10.182 59.7398 10.182 59.7418 10.182C59.7368 10.4254 59.7895 10.7503 60.03 11.0544C60.022 11.1349 60.0141 11.1935 60.0051 11.2233C59.5103 12.8489 58.1927 13.1828 57.2239 13.1927Z" fill="#D3583A"/>
<path d="M57.0997 6.6943C57.4555 9.02638 59.4249 10.6589 61.4986 10.343C63.5733 10.027 64.9654 7.87972 64.6097 5.54863C64.253 3.21655 62.2835 1.583 60.2098 1.89997C58.1361 2.21595 56.744 4.36321 57.0997 6.6943" fill="#682B22"/>
<path d="M64.567 6.77771C64.1735 6.77771 63.7949 6.62072 63.4402 6.30772L63.4233 6.04737L63.6846 6.02949C64.0185 6.32262 64.3692 6.44483 64.725 6.39515C65.5477 6.28187 66.1826 5.31506 66.1886 5.30413L66.4449 5.25047L66.5006 5.50684C66.4708 5.55254 65.7693 6.62467 64.7786 6.7618L64.567 6.77771" fill="#682B22"/>
<path d="M62.221 12.0977C61.7947 12.0977 60.971 12.0262 60.4404 11.5234C60.0975 11.1975 59.9356 10.7513 59.9614 10.1949C59.9664 10.0935 60.0558 10.0021 60.1552 10.019C60.2575 10.024 60.337 10.1094 60.3321 10.2128C60.3112 10.6559 60.4334 11.0067 60.6957 11.2551C61.2154 11.7469 62.1375 11.734 62.3929 11.7221C62.4356 11.7191 62.4594 11.7171 62.4604 11.7181C62.5727 11.7022 62.6532 11.7817 62.6641 11.8841C62.6741 11.9854 62.5995 12.0758 62.4982 12.0868C62.4843 12.0878 62.379 12.0977 62.221 12.0977" fill="#682B22"/>
<path d="M61.8732 11.9199C61.4579 11.9199 61.0097 11.8394 60.6749 11.5691C60.2903 11.2581 60.1264 10.7613 60.189 10.0925C60.1979 9.99019 60.2853 9.91369 60.3917 9.92462C60.492 9.93455 60.5675 10.024 60.5586 10.1263C60.5089 10.6639 60.6262 11.0524 60.9074 11.2799C61.5552 11.8046 62.8768 11.4012 62.8897 11.3972C62.9891 11.3684 63.0914 11.422 63.1222 11.5184C63.153 11.6168 63.0983 11.7201 63 11.7519C62.9642 11.7638 62.4525 11.9199 61.8732 11.9199" fill="#682B22"/>
<path d="M53.0606 3.93991C52.8807 6.03749 54.9972 7.93038 57.7853 8.16786C60.5745 8.40733 62.9801 6.89996 63.159 4.80238C63.3378 2.7048 61.2224 0.811907 58.4342 0.574427C55.645 0.334958 53.2394 1.84233 53.0606 3.93991Z" fill="#682B22"/>
<path d="M58.4372 1.16067C60.9829 1.37728 62.9622 2.97604 63.152 4.84906L63.159 4.80236C63.3378 2.70478 61.2224 0.811885 58.4342 0.574405C55.645 0.33593 53.2394 1.8423 53.0606 3.93989C53.0447 4.12172 53.0526 4.30256 53.0705 4.47943C53.2812 2.40669 55.6699 0.923188 58.4372 1.16067" fill="#B14B3C"/>
<path d="M60.5159 4.00351C60.7723 5.68078 62.2657 6.84535 63.8526 6.6029C65.4394 6.36045 66.5185 4.8044 66.2621 3.12713C66.0058 1.44986 64.5113 0.285299 62.9245 0.527748C61.3386 0.770197 60.2605 2.32525 60.5159 4.00351Z" fill="#682B22"/>
<path d="M60.8796 4.25487C60.6232 2.57661 61.7023 1.02056 63.2892 0.779107C63.9489 0.677755 64.5908 0.823814 65.1363 1.14476C64.5262 0.649926 63.7383 0.403507 62.9245 0.527712C61.3386 0.770161 60.2605 2.32521 60.5159 4.00347C60.6659 4.98321 61.2393 5.78507 62.0054 6.23718C61.4251 5.7662 61.0048 5.07264 60.8796 4.25487Z" fill="#B14B3C"/>
<path d="M59.2271 7.44843C57.3243 7.44843 55.9044 6.97942 54.9962 6.04837C53.7959 4.81924 53.9688 3.25822 53.9767 3.19264C54.0016 2.98795 54.1923 2.84884 54.3881 2.86772C54.5918 2.89355 54.7369 3.0764 54.714 3.2791C54.712 3.29202 54.5799 4.56885 55.5348 5.53865C56.4767 6.49652 58.1341 6.86713 60.4622 6.64356C60.6639 6.62866 60.8468 6.77275 60.8666 6.97644C60.8865 7.18114 60.7375 7.36196 60.5328 7.38084C60.0747 7.42555 59.6405 7.44843 59.2271 7.44843" fill="#682B22"/>
<path d="M58.1162 5.69069L58.5097 6.38029C58.5097 6.38029 59.2957 7.62234 60.7772 7.24376L61.2015 6.25808L61.6427 5.34095L61.1101 4.73283L59.5839 4.74078L58.2563 5.68972L58.1162 5.69069" fill="#682B22"/>
<path d="M55.9898 3.45701C55.9898 3.45701 54.0035 4.36025 54.0314 7.0252C54.0324 7.25374 53.9757 7.47829 53.8684 7.68L53.0387 9.22711C52.9831 9.33045 52.9851 9.45466 53.0457 9.55601C53.1063 9.65836 53.2166 9.72194 53.3358 9.72095L53.617 9.71995L53.7144 9.7617L53.7939 9.84714L53.7959 10.0667L53.62 10.2635L53.8058 10.5089L53.781 10.8458L53.7492 11.0385C53.7124 11.2641 53.8942 11.3783 54.0025 11.5791L53.8654 12.3869C53.8724 13.0218 54.401 13.5276 55.0359 13.5047L55.4563 13.4908C56.1359 13.466 56.8096 13.3408 57.4535 13.1182L57.9145 12.9592C58.7045 12.685 59.2997 12.0262 59.4914 11.2134L59.7339 10.182C61.6973 10.1711 63.1639 8.34775 62.7218 6.43499C62.4197 5.12735 61.749 3.89423 60.3261 3.5395C60.3261 3.5395 57.9135 2.7555 55.9898 3.45701" fill="#F0724E"/>
<path d="M54.0025 11.579C53.9042 11.3961 53.7442 11.2849 53.7442 11.0971C53.7502 11.0971 53.7561 11.0971 53.7621 11.0971C53.8157 11.0971 53.8893 11.0812 53.9906 11.0365C53.9906 11.0365 54.4387 10.8725 54.7229 10.639C54.6097 11.1398 54.0025 11.579 54.0025 11.579Z" fill="#D3583A"/>
<path d="M54.8521 10.4264C54.6951 10.4026 54.2371 10.3142 53.9171 10.0479C53.9171 10.0479 53.778 9.81833 53.5385 9.97632C53.5385 9.97632 53.4093 10.2297 53.7134 10.5089C53.7134 10.5089 53.5634 10.8468 53.619 10.9759C53.619 10.9759 53.613 11.2025 53.9906 11.0365C53.9906 11.0365 54.6484 10.7961 54.877 10.4811L54.8521 10.4264" fill="#B73C2B"/>
<path d="M53.7184 9.7229C53.6826 9.7229 53.6488 9.7219 53.617 9.71992H53.6011L53.3358 9.72091C53.3348 9.72091 53.3338 9.72091 53.3328 9.72091C53.2146 9.72091 53.1053 9.65733 53.0457 9.55598C52.988 9.45959 52.985 9.34235 53.0327 9.24199L53.0437 9.21912C53.0437 9.21912 53.0536 9.23105 53.0904 9.23105C53.147 9.23105 53.2653 9.20323 53.5057 9.06114C53.5057 9.06114 53.6021 8.97767 53.769 8.97767C53.8774 8.97767 54.0135 9.01145 54.1734 9.12572L54.4288 9.18833L54.5848 9.09889C54.5848 9.09889 54.7527 9.59672 54.3126 9.66031C54.3126 9.66031 53.9827 9.7229 53.7184 9.7229" fill="#D3583A"/>
<path d="M54.5848 7.38287C54.7001 7.25171 54.8591 7.18913 55.0171 7.14938L55.2595 7.1136L55.3817 7.11062H55.4423L55.497 7.11261C55.644 7.11559 55.7941 7.11162 55.9362 7.09572L56.1389 7.054L56.278 6.95958L56.2849 6.94668L56.3575 6.92382L56.3843 6.98442L56.3634 7.05895L56.3217 7.12255L56.2681 7.17024L56.2114 7.20899L55.9719 7.29743C55.811 7.3342 55.651 7.34214 55.491 7.33816L55.2655 7.33021L55.0488 7.33618C54.9048 7.3481 54.7577 7.37194 54.6275 7.42957L54.6206 7.43256L54.5789 7.41667L54.5848 7.38287" fill="#682B22"/>
<path d="M55.1462 7.53881C55.1472 7.68388 55.0896 7.80212 55.016 7.80212C54.9445 7.80311 54.8849 7.68488 54.8849 7.53981C54.8839 7.39374 54.9415 7.27551 55.014 7.27451C55.0866 7.27451 55.1452 7.39175 55.1462 7.53881Z" fill="#682B22"/>
<path d="M54.8432 7.88666L54.8303 7.88566L54.8044 7.85684L54.8343 7.83101L55.022 7.76146C55.0658 7.71178 55.0807 7.63924 55.0638 7.54286L55.0876 7.51106L55.1184 7.53391C55.1373 7.64718 55.1194 7.73663 55.0628 7.79823L54.8432 7.88666" fill="#682B22"/>
<path d="M54.4994 6.20241L54.7199 6.07025L54.9634 6.03548C55.1254 6.01561 55.2893 6.0156 55.4503 6.02454C55.6122 6.03547 55.7722 6.05833 55.9282 6.09907C56.0852 6.13782 56.2353 6.19643 56.3774 6.265L56.3903 6.30177L56.3624 6.31766H56.3604C56.2054 6.29779 56.0554 6.27594 55.9034 6.27594C55.7524 6.26997 55.6013 6.27394 55.4533 6.28984C55.3042 6.29977 55.1572 6.32463 55.0121 6.35444L54.7994 6.4071L54.5709 6.40014L54.552 6.39219L54.4815 6.23322L54.4994 6.20241" fill="#682B22"/>
<path d="M53.5207 9.44168C53.6041 9.40193 53.6906 9.37909 53.782 9.3771L54.0483 9.43772L54.2599 9.47248L54.4447 9.35325L54.4726 9.35126L54.4785 9.37213C54.4507 9.4546 54.3821 9.53806 54.2828 9.56887C54.1844 9.60066 54.084 9.57484 54.0006 9.53112L53.781 9.45361L53.5495 9.49534L53.5465 9.49733L53.5057 9.48144L53.5207 9.44168" fill="#682B22"/>
<path d="M54.1754 3.02574C54.0134 4.90968 56.0355 6.62073 58.6895 6.84629C61.3426 7.07383 63.624 5.72944 63.785 3.84649C63.9469 1.96254 61.9248 0.252482 59.2718 0.0249375C56.6178 -0.201613 54.3364 1.14179 54.1754 3.02574" fill="#682B22"/>
<path d="M54.3444 3.22442C54.5043 1.34346 56.8841 0.00999123 59.6594 0.248466C60.4066 0.311065 61.1041 0.48594 61.7241 0.738325C61.0236 0.360741 60.186 0.103394 59.2718 0.0248959C56.6178 -0.201655 54.3364 1.14175 54.1754 3.02569C54.0929 3.99052 54.5858 4.90865 55.4403 5.60718C54.6921 4.93547 54.2688 4.09883 54.3444 3.22442Z" fill="#B14B3C"/>
<path d="M56.8036 4.24001C56.8036 4.24001 56.5969 4.79345 57.7039 5.51682C57.7039 5.51682 58.2106 5.96893 58.0427 6.41409C58.0427 6.41409 57.3958 7.54485 58.0646 7.90654C58.0646 7.90654 58.5743 8.2553 58.8098 7.90157C58.8098 7.90157 59.2559 6.88905 60.1045 7.26564C60.1045 7.26564 61.0067 7.60448 60.6113 8.88628C60.6113 8.88628 60.4225 9.55699 59.8024 9.79844C59.8024 9.79844 59.2877 11.2501 61.2601 11.7529C61.2601 11.7529 63.9052 11.3058 64.0572 7.58758C64.1198 6.04446 63.3954 4.55796 62.1037 3.70939C61.3704 3.22747 60.3678 2.84096 59.0075 2.74954C59.0075 2.74954 57.2895 2.58956 56.8334 3.51564C56.8334 3.51564 56.6715 3.68058 56.8036 4.24001" fill="#682B22"/>
<path d="M59.3921 9.711C59.3662 9.711 59.3414 9.70502 59.3175 9.6931L59.249 9.65933L59.3185 9.51227C59.556 8.92701 59.4666 8.33777 59.1307 8.13606C59.2003 8.01385 59.4348 7.64819 59.7518 7.64819C59.7965 7.64819 59.8432 7.65614 59.8919 7.67204C59.8919 7.67204 60.8865 8.07842 59.9912 9.21813C59.9912 9.21813 59.6425 9.711 59.3921 9.711" fill="#BE462D"/>
<path d="M59.3454 9.97135C59.3454 10.0846 59.2539 10.177 59.1416 10.178C59.0274 10.178 58.936 10.0866 58.936 9.97434C58.935 9.86007 59.0254 9.76865 59.1397 9.76765C59.252 9.76765 59.3444 9.85907 59.3454 9.97135Z" fill="#923C1D"/>
<path d="M66.4231 36.3387L64.9466 34.9466L64.8214 33.6499C64.5749 31.0903 64.9833 28.5117 66.0088 26.1399C66.8375 24.2232 67.2637 22.1644 67.2637 20.0847V17.5399C67.2637 17.0063 66.8991 16.5423 66.3804 16.4161L62.9016 15.5735H57.0839L52.6353 16.0942C52.1663 16.1488 51.8126 16.5463 51.8126 17.0183V23.1461L50.5686 26.133C50.2158 26.9776 50.7106 27.9285 51.6198 28.158C52.055 28.2663 52.3581 28.6469 52.3581 29.0811V31.8623C52.3581 33.3697 52.3094 33.1193 52.2061 34.9247L66.4231 36.3387" fill="#F0724E"/>
<path d="M64.9008 30.1263C64.8979 30.1263 64.8959 30.1263 64.8939 30.1263C65.026 29.1635 65.2506 28.2136 65.5656 27.2885L65.5696 27.2925C65.2556 28.2166 65.032 29.1645 64.9008 30.1263ZM51.6089 28.1549C51.6069 28.154 51.6049 28.154 51.6029 28.153C51.6049 28.153 51.6069 28.154 51.6089 28.1549ZM51.5969 28.152C51.5949 28.151 51.593 28.15 51.59 28.15C51.593 28.15 51.5949 28.151 51.5969 28.152ZM51.586 28.148C51.583 28.148 51.581 28.147 51.5781 28.146C51.581 28.147 51.583 28.148 51.586 28.148ZM51.5761 28.146C51.5661 28.143 51.5572 28.14 51.5482 28.1371C51.5572 28.14 51.5661 28.143 51.5761 28.146ZM51.5463 28.1371C51.5433 28.1361 51.5403 28.1351 51.5373 28.1341C51.5403 28.1351 51.5433 28.1361 51.5463 28.1371ZM51.5343 28.1331C51.5324 28.1321 51.5294 28.1321 51.5264 28.1311C51.5294 28.1321 51.5324 28.1321 51.5343 28.1331ZM51.5234 28.1301C51.5204 28.1291 51.5184 28.1281 51.5155 28.1271C51.5184 28.1281 51.5204 28.1291 51.5234 28.1301ZM51.5145 28.1271C51.5095 28.1251 51.5055 28.1241 51.5006 28.1221C51.5055 28.1241 51.5095 28.1251 51.5145 28.1271ZM51.4936 28.1202C51.4926 28.1192 51.4906 28.1192 51.4896 28.1182C51.4906 28.1192 51.4926 28.1192 51.4936 28.1202ZM51.4817 28.1162C51.4807 28.1152 51.4797 28.1152 51.4787 28.1152C51.4797 28.1152 51.4807 28.1152 51.4817 28.1162Z" fill="#DEBAA1"/>
<path d="M64.8939 30.1263C61.2472 30.1263 55.3897 30.1263 52.3581 30.1263V29.081L65.0856 29.0274C65.2108 28.4401 65.3708 27.8588 65.5656 27.2875V27.2885C65.2506 28.2136 65.026 29.1635 64.8939 30.1263Z" fill="#D3583A"/>
<path d="M55.6291 38.5843C51.0286 37.532 42.6104 37.0014 37.8906 37.0014C35.5267 37.0014 33.5394 38.775 33.2722 41.124L31.5909 59.1905C31.3932 60.9303 30.2405 62.4148 28.602 63.0378L25.951 64.0474C25.788 64.109 25.6151 64.1408 25.4412 64.1408H25.168C24.8729 64.1408 24.5857 64.2312 24.3443 64.4011C24.1028 64.571 23.8156 64.6615 23.5205 64.6615H23.2314V65.1563C23.2314 65.4295 23.453 65.6511 23.7262 65.6511H27.5448L30.9818 65.3192C31.2481 65.2944 31.5174 65.3501 31.7519 65.4822C31.9476 65.5925 32.1702 65.6511 32.3958 65.6511H34.083C34.856 65.6511 35.4284 64.9297 35.2535 64.1765L34.7716 62.1068L38.3516 51.9647C38.921 50.351 39.0234 45.347 38.6468 43.6787L46.4866 44.6972C47.517 44.9515 48.5146 45.3251 49.4586 45.811C50.952 46.5811 52.5737 47.067 54.244 47.2459L63.2951 48.2117L55.6291 38.5843" fill="#D4533A"/>
<path d="M35.2913 50.9074L33.1132 56.3248H31.9158L33.2722 41.124C33.5395 38.775 35.5267 37.0014 37.8906 37.0014C42.6104 37.0014 51.0286 37.532 55.6291 38.5843L63.2951 48.2117L54.244 47.2459C52.5737 47.067 50.9521 46.5811 49.4586 45.811C48.5147 45.3251 47.517 44.9515 46.4866 44.6972L38.6468 43.6787C39.0234 45.347 38.921 50.351 38.3517 51.9647L36.8125 56.3248H35.6271L35.2913 50.9074" fill="#0F0F0F"/>
<path d="M62.7427 48.1531L57.5886 47.6026L41.4439 37.0789C44.9405 37.2141 49.1367 37.53 52.5339 38.0249C52.6303 38.3727 52.7476 38.7145 52.8837 39.0503C54.6494 43.3935 56.2631 47.1753 60.8448 47.7199C61.3535 47.7805 61.7381 47.7904 61.9398 47.7904C62.0421 47.7904 62.0978 47.7874 62.0978 47.7874L62.7427 48.1531Z" fill="#0F0F0F"/>
<path d="M33.4868 52.7874L33.4968 52.8768C33.5355 52.9901 33.6577 53.0507 33.771 53.012L36.3743 52.1296C36.4866 52.0909 36.5463 51.9686 36.5085 51.8564C36.4707 51.7431 36.3485 51.6825 36.2352 51.7202L33.6329 52.6036L33.4868 52.7874Z" fill="#0F0F0F"/>
<path d="M33.5563 51.7381L33.6756 51.9518L36.1398 53.168C36.2471 53.2216 36.3763 53.1779 36.429 53.0706C36.4816 52.9643 36.4379 52.8341 36.3316 52.7825L33.8664 51.5652C33.76 51.5116 33.6299 51.5553 33.5772 51.6636L33.5563 51.7381" fill="#0F0F0F"/>
<path d="M33.2791 54.0115L33.289 54.102C33.3278 54.2143 33.45 54.2759 33.5633 54.2371L36.1666 53.3548C36.2789 53.316 36.3385 53.1938 36.3008 53.0815C36.263 52.9672 36.1398 52.9076 36.0275 52.9454L33.4252 53.8277L33.2791 54.0115Z" fill="#0F0F0F"/>
<path d="M33.3487 52.9623L33.4679 53.1759L35.9322 54.3931C36.0395 54.4468 36.1686 54.403 36.2213 54.2947C36.274 54.1894 36.2303 54.0592 36.1239 54.0066L33.6587 52.7903C33.5524 52.7367 33.4222 52.7804 33.3696 52.8877L33.3487 52.9623" fill="#0F0F0F"/>
<path d="M33.1649 55.194L33.1758 55.2835C33.2136 55.3977 33.3368 55.4574 33.449 55.4196L36.0524 54.5362C36.1657 54.4985 36.2253 54.3763 36.1875 54.263C36.1498 54.1507 36.0266 54.0901 35.9143 54.1279L33.3109 55.0102L33.1649 55.194" fill="#0F0F0F"/>
<path d="M33.2344 54.1447L33.3547 54.3594L35.8189 55.5756C35.9252 55.6282 36.0544 55.5845 36.1071 55.4782C36.1607 55.3709 36.117 55.2407 36.0087 55.1891L33.5455 53.9718C33.4381 53.9192 33.309 53.9629 33.2563 54.0702L33.2344 54.1447" fill="#0F0F0F"/>
<path d="M64.3265 32.2696C64.2271 32.2696 64.7041 32.4674 64.7041 32.5667V34.2281C64.7041 34.554 64.8819 34.8531 65.1681 35.0091C66.5711 35.7752 67.7506 36.895 68.5862 38.2593L69.7578 40.1721C70.0608 40.6669 70.4106 41.1319 70.8011 41.5612L79.5133 51.1051C82.3283 51.8086 84.9774 53.0626 87.3045 54.7945L94.5213 60.1612L94.5273 60.1552L99.8721 64.094V65.512H92.1912L92.5132 63.5893C92.5698 63.2465 92.3969 62.9076 92.0859 62.7546L82.0213 57.7983C81.0803 57.3353 80.0748 57.0263 79.0513 56.7927C77.8947 56.5284 76.7818 56.0972 75.7474 55.5129L62.0977 47.7874C62.0977 47.7874 61.6119 47.8112 60.8448 47.7198C56.2631 47.1753 54.6494 43.3935 52.8837 39.0503C52.3571 37.7536 52.1236 36.3545 52.2041 34.9564L52.3521 32.3849L64.3265 32.2696" fill="#F0724E"/>
<path d="M89.5392 61.5006L87.9961 60.7405L89.5392 61.5006Z" fill="#54203F"/>
<path d="M91.5414 57.9454L89.4965 56.4252H89.4974L91.5414 57.9454" fill="#DEBAA1"/>
<path d="M89.5392 61.5006L87.9961 60.7405L85.6948 59.6077C86.1628 58.944 86.4996 58.4789 86.4996 58.4789L89.4974 56.4251L91.5414 57.9454L89.5392 61.5006Z" fill="#D3583A"/>
<path d="M52.2061 34.9246H65.0539L65.1681 35.0091C66.5712 35.7752 67.7506 36.895 68.5863 38.2593L69.7578 40.172C70.0608 40.6669 70.4106 41.1319 70.8011 41.5611L79.5134 51.1051C82.3283 51.8086 84.9774 53.0626 87.3045 54.7945L90.826 57.4137L88.3866 60.9332L82.0223 57.7993C81.0803 57.3352 80.0748 57.0262 79.0513 56.7927C77.8947 56.5284 76.7818 56.0972 75.7484 55.5129L62.0978 47.7873C62.0978 47.7873 61.6119 47.8112 60.8458 47.7198C56.1459 47.1613 55.0668 44.3046 52.9056 39.0661C52.365 37.7575 52.1246 36.3396 52.2061 34.9246" fill="#0F0F0F"/>
<path d="M66.432 35.8607H52.1524L52.1871 35.2476H65.5447C65.8537 35.4364 66.1488 35.6391 66.432 35.8607" fill="#0F0F0F"/>
<path d="M36.6466 18.0715L36.6883 17.374C36.7459 16.4081 37.5826 15.6659 38.5484 15.7245L53.1569 16.5979C54.1218 16.6555 54.865 17.4922 54.8064 18.458L54.7647 19.1555C54.708 20.1214 53.8704 20.8636 52.9046 20.806L38.296 19.9316C37.3302 19.875 36.5879 19.0373 36.6466 18.0715Z" fill="#F0724E"/>
<path d="M45.1214 20.34L38.6458 19.9535C38.6319 19.9525 38.618 19.9515 38.605 19.9505L45.1214 20.34Z" fill="#DEBAA1"/>
<path d="M51.8126 20.7405L45.1214 20.34L38.6051 19.9505C38.4739 19.9396 38.3457 19.9177 38.2225 19.8839C38.2583 19.8859 38.2941 19.8869 38.3298 19.8869C38.7412 19.8869 39.1913 19.7617 39.6146 19.402C39.6752 19.3534 39.7319 19.3017 39.7865 19.246L51.8126 19.9664V20.7405" fill="#D3583A"/>
<path d="M38.9975 15.7821L27.8061 14.0721L27.5885 13.9886L26.8959 15.9233L37.5756 19.7517C38.6666 20.1422 39.8799 19.5699 40.2704 18.4779C40.6619 17.3869 40.0885 16.1746 38.9975 15.7821" fill="#F0724E"/>
<path d="M37.7257 19.7994C37.674 19.7845 37.6233 19.7686 37.5756 19.7517L26.9039 15.9262L37.5756 19.7517C37.6233 19.7686 37.672 19.7835 37.7197 19.7974C37.7217 19.7984 37.7237 19.7994 37.7257 19.7994" fill="#DEBAA1"/>
<path d="M38.2225 19.8839C38.0466 19.875 37.8797 19.8442 37.7257 19.7995C37.7237 19.7995 37.7217 19.7985 37.7197 19.7975C37.8727 19.8402 38.0268 19.8641 38.1798 19.872C38.1937 19.876 38.2086 19.8799 38.2225 19.8839Z" fill="#D3583A"/>
<path d="M38.3298 19.8869C38.294 19.8869 38.2583 19.8859 38.2225 19.8839C38.2086 19.8799 38.1937 19.876 38.1797 19.872C38.2135 19.874 38.2473 19.874 38.2821 19.874C38.769 19.874 39.241 19.7041 39.6146 19.402C39.1913 19.7617 38.7412 19.8869 38.3298 19.8869" fill="#B8442B"/>
<path d="M38.2821 19.874C38.2473 19.874 38.2135 19.874 38.1797 19.872C38.0267 19.864 37.8727 19.8402 37.7197 19.7974C37.672 19.7835 37.6233 19.7686 37.5756 19.7517L26.9039 15.9262C26.9685 15.9401 27.034 15.9471 27.0986 15.9471C27.4255 15.9471 27.7435 15.7732 27.9383 15.482L39.9256 19.088C39.8242 19.2082 39.7199 19.3126 39.6146 19.402C39.241 19.704 38.769 19.874 38.2821 19.874" fill="#D3583A"/>
<path d="M27.5547 13.9499L27.5567 13.9449C26.4429 13.4878 24.6702 12.4843 23.1718 12.2697L19.1853 12.4147C18.9418 12.4237 18.8057 12.7148 18.9637 12.8996C19.7576 13.8267 23.4768 14.6633 24.4089 15.0071L26.729 15.8637L26.7837 15.8915C27.2875 16.0763 27.8588 15.7881 28.0585 15.2446C28.2523 14.721 28.0257 14.1546 27.5547 13.9499" fill="#F0724E"/>
<path d="M26.9039 15.9262C26.8642 15.9173 26.8235 15.9064 26.7837 15.8914L26.7291 15.8636L24.4089 15.0071C23.4769 14.6633 19.7577 13.8266 18.9637 12.8996C18.921 12.8499 18.8992 12.7923 18.8962 12.7336C18.9002 12.7923 18.921 12.8499 18.9637 12.8996C19.7577 13.8266 23.4769 14.6633 24.4089 15.0071L26.7291 15.8636L26.7837 15.8914C26.8235 15.9064 26.8642 15.9173 26.9039 15.9262Z" fill="#DEBAA1"/>
<path d="M28.0625 15.2357C28.0625 15.2347 28.0625 15.2347 28.0635 15.2337C28.0625 15.2347 28.0625 15.2347 28.0625 15.2357ZM28.0665 15.2247C28.0665 15.2237 28.0665 15.2228 28.0674 15.2218C28.0665 15.2228 28.0665 15.2237 28.0665 15.2247ZM28.0694 15.2138C28.0704 15.2128 28.0704 15.2118 28.0704 15.2108C28.0704 15.2118 28.0704 15.2128 28.0694 15.2138ZM28.0724 15.2048C28.0734 15.2039 28.0734 15.2029 28.0744 15.2009C28.0734 15.2029 28.0734 15.2039 28.0724 15.2048ZM28.0764 15.1939C28.0764 15.1929 28.0774 15.1919 28.0774 15.1909C28.0774 15.1919 28.0764 15.1929 28.0764 15.1939ZM28.0804 15.183C28.0804 15.182 28.0804 15.181 28.0804 15.18C28.0804 15.181 28.0804 15.182 28.0804 15.183ZM28.0834 15.1711V15.1701V15.1711ZM28.0863 15.1611V15.1601V15.1611ZM28.0893 15.1502V15.1492V15.1502Z" fill="#D3583A"/>
<path d="M27.0986 15.9471C27.034 15.9471 26.9685 15.9402 26.9039 15.9263C26.8641 15.9173 26.8234 15.9064 26.7836 15.8915L26.729 15.8637L24.4088 15.0071C23.4768 14.6633 19.7576 13.8267 18.9637 12.8996C18.9209 12.8499 18.9001 12.7923 18.8961 12.7337C18.8931 12.684 18.904 12.6333 18.9259 12.5886C20.1163 13.4024 23.2035 14.1109 24.0412 14.4189L26.3613 15.2764L26.416 15.3033C26.5203 15.342 26.6266 15.3599 26.732 15.3599C27.1394 15.3599 27.5329 15.0886 27.6909 14.6584C27.7654 14.4557 27.7763 14.249 27.7375 14.0582C28.0555 14.2977 28.2036 14.7279 28.0893 15.1492V15.1502C28.0883 15.1532 28.0873 15.1562 28.0863 15.1602V15.1612C28.0853 15.1641 28.0843 15.1671 28.0833 15.1701V15.1711C28.0823 15.1741 28.0813 15.177 28.0804 15.18C28.0804 15.181 28.0804 15.182 28.0804 15.183C28.0794 15.185 28.0784 15.188 28.0774 15.191C28.0774 15.192 28.0764 15.193 28.0764 15.194C28.0754 15.1959 28.0744 15.1989 28.0744 15.2009C28.0734 15.2029 28.0734 15.2039 28.0724 15.2049C28.0724 15.2069 28.0714 15.2089 28.0704 15.2108C28.0704 15.2118 28.0704 15.2128 28.0694 15.2138C28.0684 15.2168 28.0684 15.2198 28.0674 15.2218C28.0664 15.2228 28.0664 15.2238 28.0664 15.2248C28.0654 15.2277 28.0645 15.2307 28.0635 15.2337C28.0625 15.2347 28.0625 15.2347 28.0625 15.2357C28.0615 15.2387 28.0605 15.2417 28.0585 15.2446C27.9005 15.6769 27.507 15.9471 27.0986 15.9471" fill="#D3583A"/>
<path d="M62.9016 15.5735H57.0839L52.6353 16.0941C52.1663 16.1488 51.8126 16.5462 51.8126 17.0182V23.146L50.5686 26.1329C50.2158 26.9775 50.7106 27.9284 51.6198 28.158C52.055 28.2663 52.3581 28.6468 52.3581 29.0811L65.0857 29.0274C65.2953 28.0417 65.6044 27.0749 66.0088 26.1399C66.8375 24.2231 67.2637 22.1643 67.2637 20.0846V17.5399C67.2637 17.0063 66.8991 16.5423 66.3804 16.4161L62.9016 15.5735" fill="#0F0F0F"/>
<path d="M51.9686 28.3308C52.2041 28.5077 52.3581 28.778 52.3581 29.0811L65.0857 29.0274C65.1363 28.7929 65.1989 28.5624 65.2655 28.3308H51.9686Z" fill="white"/>
<path d="M64.8233 16.592C66.0276 16.427 67.1146 17.4743 67.2508 18.932C67.3869 20.3887 66.5205 21.7043 65.3162 21.8682C64.1129 22.0332 63.0258 20.9859 62.8897 19.5292C62.7536 18.0715 63.62 16.7559 64.8233 16.592" fill="#F0724E"/>
<path d="M81.8653 19.0404L81.8553 18.3418C81.8404 17.374 81.0386 16.595 80.0717 16.6079L65.4394 16.8196C64.4715 16.8345 63.6925 17.6374 63.7055 18.6032L63.7154 19.3017C63.7303 20.2695 64.5322 21.0485 65.499 21.0356L80.1333 20.8239C81.0992 20.81 81.8802 20.0062 81.8653 19.0404Z" fill="#F0724E"/>
<path d="M67.2359 21.0098L72.8162 20.9293L67.2359 21.0098Z" fill="#DEBAA1"/>
<path d="M66.6924 21.0176L67.2359 21.0097L66.6924 21.0176Z" fill="#0F0F0F"/>
<path d="M65.8239 21.0306L66.6924 21.0176L65.8488 21.0306C65.8398 21.0306 65.8319 21.0306 65.8239 21.0306Z" fill="#D3583A"/>
<path d="M65.818 21.0306C64.6733 21.0306 63.7274 20.1025 63.7105 18.9529C63.7095 18.8535 63.7174 18.7561 63.7293 18.6597C63.9599 19.5769 64.7916 20.2585 65.7723 20.2585C65.7822 20.2585 65.7921 20.2585 65.8031 20.2575L78.6757 20.0717C78.7274 20.1284 78.7811 20.181 78.8377 20.2317C79.2769 20.6411 79.7588 20.7782 80.195 20.7782C80.2 20.7782 80.2049 20.7782 80.2099 20.7782C80.0718 20.809 79.9297 20.8259 79.7836 20.8289L72.8162 20.9292L67.2359 21.0097L66.6924 21.0176L65.8239 21.0306C65.8219 21.0306 65.82 21.0306 65.818 21.0306" fill="#D3583A"/>
<path d="M79.6197 16.6476L90.8767 15.4443L91.0992 15.3708L91.7034 17.3352L80.8617 20.6758C79.7538 21.0166 78.5674 20.3896 78.2266 19.2817C77.8848 18.1748 78.5127 16.9884 79.6197 16.6476" fill="#F0724E"/>
<path d="M80.7077 20.7175C80.7097 20.7175 80.7107 20.7165 80.7127 20.7155C80.7554 20.7066 80.7971 20.6947 80.8399 20.6827C80.7971 20.6957 80.7524 20.7066 80.7077 20.7175" fill="#DEBAA1"/>
<path d="M80.2099 20.7782C80.2238 20.7752 80.2377 20.7722 80.2516 20.7692C80.4047 20.7683 80.5587 20.7514 80.7127 20.7156C80.7107 20.7166 80.7097 20.7176 80.7077 20.7176C80.5527 20.7544 80.3848 20.7772 80.2099 20.7782" fill="#D3583A"/>
<path d="M80.195 20.7782C79.7588 20.7782 79.2769 20.6411 78.8377 20.2317C79.2213 20.5725 79.723 20.7692 80.2457 20.7692C80.2477 20.7692 80.2497 20.7692 80.2517 20.7692C80.2377 20.7722 80.2238 20.7752 80.2099 20.7782C80.2049 20.7782 80.2 20.7782 80.195 20.7782Z" fill="#B8442B"/>
<path d="M80.2457 20.7692C79.723 20.7692 79.2212 20.5725 78.8377 20.2317C78.7373 20.1383 78.6389 20.03 78.5435 19.9058L90.6809 16.8463C90.8697 17.1593 91.1986 17.3511 91.5404 17.3511C91.5921 17.3511 91.6438 17.3461 91.6954 17.3372L80.8617 20.6758C80.8548 20.6778 80.8468 20.6808 80.8399 20.6828C80.7971 20.6947 80.7554 20.7066 80.7127 20.7156C80.5587 20.7514 80.4047 20.7682 80.2516 20.7692C80.2497 20.7692 80.2477 20.7692 80.2457 20.7692Z" fill="#D3583A"/>
<path d="M91.134 15.333L91.133 15.328C92.2658 14.9216 94.0822 14.0005 95.5885 13.8545L99.5651 14.1794C99.8065 14.1993 99.9298 14.4954 99.7648 14.6732C98.9292 15.5635 95.1752 16.2322 94.2292 16.5323L91.8723 17.2835L91.8167 17.3084C91.3049 17.4713 90.7465 17.1563 90.5726 16.6058C90.4027 16.0723 90.6551 15.5168 91.134 15.333" fill="#F0724E"/>
<path d="M91.6954 17.3372C91.7361 17.3303 91.7769 17.3203 91.8166 17.3084L91.8723 17.2836L94.2292 16.5324C95.1751 16.2323 98.9291 15.5636 99.7648 14.6733C99.8482 14.5838 99.8582 14.4636 99.8164 14.3642C99.8582 14.4636 99.8482 14.5838 99.7648 14.6733C98.9291 15.5636 95.1751 16.2323 94.2292 16.5324L91.8723 17.2836L91.8166 17.3084C91.7769 17.3203 91.7361 17.3303 91.6954 17.3372Z" fill="#DEBAA1"/>
<path d="M91.5404 17.3511C91.1171 17.3511 90.7157 17.0579 90.5726 16.6058C90.4265 16.1478 90.5934 15.6748 90.9462 15.4343C90.8985 15.6221 90.9005 15.8298 90.9651 16.0345C91.1091 16.4876 91.5116 16.7807 91.9339 16.7807C92.0253 16.7807 92.1187 16.7668 92.2101 16.737L92.2667 16.7132L94.6237 15.962C95.4742 15.6917 98.5893 15.1223 99.8164 14.3642C99.8582 14.4635 99.8482 14.5838 99.7648 14.6732C98.9291 15.5635 95.1751 16.2322 94.2292 16.5323L91.8723 17.2835L91.8166 17.3084C91.7769 17.3203 91.7361 17.3302 91.6954 17.3372C91.6437 17.3461 91.5921 17.3511 91.5404 17.3511" fill="#D3583A"/>
<path d="M57.9145 20.5764H58.7005C60.8318 20.5764 62.5747 18.8336 62.5747 16.7022V15.5734H57.0838L54.0413 15.9301V16.7022C54.0413 18.8336 55.7841 20.5764 57.9145 20.5764" fill="#F0724E"/>
</svg>
